<?xml version="1.0" encoding="UTF-8"?> <svg xmlns="http://www.w3.org/2000/svg" id="Layer_1" viewBox="0 0 180 120"><defs><style>.cls-1{fill:#656565;}</style></defs><g><g><polygon class="cls-1" points="50.63 54.48 48.37 54.48 48.37 52.47 55.49 52.47 55.49 54.48 53.23 54.48 53.23 60.19 50.63 60.19 50.63 54.48"></polygon><polygon class="cls-1" points="62.59 58.22 62.59 60.19 56.16 60.19 56.16 52.47 62.44 52.47 62.44 54.43 58.72 54.43 58.72 55.33 61.99 55.33 61.99 57.2 58.72 57.2 58.72 58.22 62.59 58.22 62.59 58.22"></polygon><polygon class="cls-1" points="71.2 52.46 71.2 60.19 69.06 60.19 66.12 56.68 66.12 60.19 63.58 60.19 63.58 52.46 65.73 52.46 68.66 55.97 68.66 52.46 71.2 52.46"></polygon><path class="cls-1" d="m77.72,58.84h-2.93l-.52,1.35h-2.65l3.38-7.72h2.56l3.38,7.72h-2.69l-.52-1.35h0Zm-.72-1.88l-.76-1.94-.76,1.94h1.51Z"></path><polygon class="cls-1" points="88.97 52.46 88.97 60.19 86.83 60.19 83.89 56.68 83.89 60.19 81.36 60.19 81.36 52.46 83.5 52.46 86.43 55.97 86.43 52.46 88.97 52.46"></polygon><polygon class="cls-1" points="91.9 54.48 89.64 54.48 89.64 52.47 96.77 52.47 96.77 54.48 94.5 54.48 94.5 60.19 91.9 60.19 91.9 54.48"></polygon><path class="cls-1" d="m108,55.37c0,1.78-1.37,2.91-3.52,2.91h-1.12v1.9h-2.6v-7.72h3.72c2.16,0,3.52,1.12,3.52,2.91h0Zm-2.62,0c0-.56-.34-.9-1.06-.9h-.94v1.81h.94c.72,0,1.06-.34,1.06-.9h0Z"></path><polygon class="cls-1" points="108.85 52.46 111.45 52.46 111.45 58.17 114.93 58.17 114.93 60.19 108.85 60.19 108.85 52.46 108.85 52.46"></polygon><path class="cls-1" d="m121.03,58.84h-2.93l-.52,1.35h-2.65l3.38-7.72h2.56l3.38,7.72h-2.69l-.52-1.35h0Zm-.72-1.88l-.76-1.94-.76,1.94h1.51Z"></path><polygon class="cls-1" points="132.27 52.46 132.27 60.19 130.13 60.19 127.2 56.68 127.2 60.19 124.66 60.19 124.66 52.46 126.8 52.46 129.74 55.97 129.74 52.46 132.27 52.46"></polygon><polygon class="cls-1" points="139.96 58.22 139.96 60.19 133.53 60.19 133.53 52.47 139.81 52.47 139.81 54.43 136.09 54.43 136.09 55.33 139.35 55.33 139.35 57.2 136.09 57.2 136.09 58.22 139.96 58.22 139.96 58.22"></polygon><polygon class="cls-1" points="142.63 54.48 140.37 54.48 140.37 52.47 147.5 52.47 147.5 54.48 145.24 54.48 145.24 60.19 142.63 60.19 142.63 54.48"></polygon><path class="cls-1" d="m147.72,61.55c.24-.65.54-1.83.66-2.63l1.08-.11c-.25.94-.74,2.17-1.05,2.68l-.69.06h0Z"></path><polygon class="cls-1" points="152.8 52.46 155.4 52.46 155.4 60.19 152.8 60.19 152.8 52.46 152.8 52.46"></polygon><polygon class="cls-1" points="164.27 52.46 164.27 60.19 162.14 60.19 159.19 56.68 159.19 60.19 156.66 60.19 156.66 52.46 158.8 52.46 161.73 55.97 161.73 52.46 164.27 52.46"></polygon><path class="cls-1" d="m165.23,56.32c0-2.37,1.82-4.04,4.3-4.04,1.51,0,2.71.55,3.46,1.54l-1.65,1.47c-.46-.57-1-.9-1.69-.9-1.08,0-1.81.76-1.81,1.93s.73,1.93,1.81,1.93c.69,0,1.23-.33,1.69-.9l1.65,1.47c-.76,1-1.95,1.54-3.46,1.54-2.49,0-4.3-1.67-4.3-4.04h0Z"></path><path class="cls-1" d="m173.68,59.61c0-.4.28-.69.66-.69s.65.29.65.69-.25.69-.66.69-.65-.3-.65-.69Z"></path></g><g><polygon class="cls-1" points="49.3 65.75 48.38 65.75 48.38 65.21 50.9 65.21 50.9 65.75 49.97 65.75 49.97 68.1 49.3 68.1 49.3 65.75"></polygon><polygon class="cls-1" points="54.13 65.21 54.13 68.1 53.47 68.1 53.47 66.91 52.15 66.91 52.15 68.1 51.48 68.1 51.48 65.21 52.15 65.21 52.15 66.35 53.47 66.35 53.47 65.21 54.13 65.21"></polygon><polygon class="cls-1" points="57.28 67.56 57.28 68.1 55.03 68.1 55.03 65.21 57.22 65.21 57.22 65.73 55.7 65.73 55.7 66.37 57.04 66.37 57.04 66.89 55.7 66.89 55.7 67.56 57.28 67.56 57.28 67.56"></polygon><polygon class="cls-1" points="62.05 68.1 62.05 66.36 61.19 67.79 60.89 67.79 60.05 66.4 60.05 68.1 59.42 68.1 59.42 65.2 59.97 65.2 61.06 67 62.12 65.2 62.67 65.2 62.68 68.1 62.06 68.1 62.05 68.1"></polygon><path class="cls-1" d="m64.17,67.95c-.24-.12-.42-.31-.57-.54-.13-.23-.21-.49-.21-.77s.07-.54.21-.77.32-.4.57-.54c.24-.12.51-.2.82-.2s.57.06.81.2c.24.13.42.31.57.54.13.23.21.49.21.77s-.07.54-.21.77-.33.4-.57.54-.51.2-.81.2-.57-.06-.82-.2Zm1.27-.5c.13-.07.25-.19.32-.33s.12-.3.12-.48-.04-.34-.12-.48c-.07-.15-.19-.25-.32-.33-.13-.07-.29-.12-.47-.12s-.32.04-.47.12c-.13.07-.25.19-.32.33s-.12.3-.12.48.04.34.12.48c.07.15.19.25.32.33.13.07.29.12.47.12s.32-.04.47-.12Z"></path><path class="cls-1" d="m67.29,65.21h1.32c.31,0,.59.06.84.18.24.12.42.29.56.51s.2.47.2.76-.06.54-.2.76-.32.38-.56.51-.52.18-.84.18h-1.32v-2.89h0Zm1.29,2.36c.29,0,.52-.08.69-.24.18-.17.26-.38.26-.65s-.08-.5-.26-.65-.4-.24-.69-.24h-.61v1.79h.61Z"></path><polygon class="cls-1" points="73.17 67.56 73.17 68.1 70.92 68.1 70.92 65.21 73.12 65.21 73.12 65.73 71.59 65.73 71.59 66.37 72.93 66.37 72.93 66.89 71.59 66.89 71.59 67.56 73.17 67.56 73.17 67.56"></polygon><path class="cls-1" d="m75.76,68.1l-.56-.81h-.62v.81h-.67v-2.89h1.25c.26,0,.48.04.66.12s.33.21.44.36.16.34.16.56-.05.4-.16.56-.25.27-.45.36l.65.93h-.72.01Zm-.17-2.23c-.1-.08-.26-.13-.46-.13h-.55v1.02h.55c.2,0,.35-.04.46-.13.1-.09.16-.21.16-.37s-.05-.29-.16-.37Z"></path><polygon class="cls-1" points="79.83 65.21 79.83 68.1 79.28 68.1 77.84 66.34 77.84 68.1 77.17 68.1 77.17 65.21 77.73 65.21 79.17 66.96 79.17 65.21 79.83 65.21 79.83 65.21"></polygon><polygon class="cls-1" points="82.12 65.21 82.79 65.21 82.79 67.55 84.24 67.55 84.24 68.1 82.12 68.1 82.12 65.21"></polygon><path class="cls-1" d="m86.77,67.48h-1.35l-.26.62h-.68l1.3-2.89h.66l1.3,2.89h-.7l-.26-.62h0Zm-.21-.51l-.46-1.11-.46,1.11h.92-.01Z"></path><polygon class="cls-1" points="90.91 65.21 90.91 68.1 90.35 68.1 88.91 66.34 88.91 68.1 88.24 68.1 88.24 65.21 88.8 65.21 90.24 66.96 90.24 65.21 90.91 65.21 90.91 65.21"></polygon><path class="cls-1" d="m91.81,65.21h1.32c.31,0,.59.06.84.18.24.12.42.29.56.51s.2.47.2.76-.06.54-.2.76-.32.38-.56.51c-.24.12-.52.18-.84.18h-1.32v-2.89h0Zm1.29,2.36c.29,0,.52-.08.69-.24.18-.17.26-.38.26-.65s-.08-.5-.26-.65-.4-.24-.69-.24h-.61v1.79h.61Z"></path><polygon class="cls-1" points="95.44 65.21 96.11 65.21 96.11 67.55 97.56 67.55 97.56 68.1 95.44 68.1 95.44 65.21"></polygon><path class="cls-1" d="m98.69,67.95c-.24-.12-.42-.31-.57-.54-.13-.23-.21-.49-.21-.77s.07-.54.21-.77.32-.4.57-.54c.24-.12.51-.2.82-.2s.57.06.81.2c.24.13.42.31.57.54.13.23.21.49.21.77s-.07.54-.21.77-.33.4-.57.54-.51.2-.81.2-.57-.06-.82-.2Zm1.27-.5c.13-.07.25-.19.32-.33s.12-.3.12-.48-.04-.34-.12-.48c-.07-.15-.19-.25-.32-.33-.13-.07-.29-.12-.47-.12s-.32.04-.47.12c-.13.07-.25.19-.32.33s-.12.3-.12.48.04.34.12.48c.07.15.19.25.32.33.13.07.29.12.47.12s.32-.04.47-.12Z"></path><path class="cls-1" d="m103.66,68.1l-.56-.81h-.62v.81h-.67v-2.89h1.25c.26,0,.48.04.66.12s.33.21.44.36.16.34.16.56-.05.4-.16.56-.25.27-.45.36l.65.93h-.72.01Zm-.17-2.23c-.1-.08-.26-.13-.46-.13h-.55v1.02h.55c.2,0,.35-.04.46-.13.1-.09.16-.21.16-.37s-.05-.29-.16-.37Z"></path><path class="cls-1" d="m105.07,65.21h1.32c.31,0,.59.06.84.18.24.12.42.29.56.51s.2.47.2.76-.06.54-.2.76-.32.38-.56.51c-.24.12-.52.18-.84.18h-1.32v-2.89h0Zm1.29,2.36c.29,0,.52-.08.69-.24.18-.17.26-.38.26-.65s-.08-.5-.26-.65-.4-.24-.69-.24h-.61v1.79h.61Z"></path><path class="cls-1" d="m108.99,68.06c-.22-.06-.38-.15-.52-.24l.23-.51c.12.09.27.17.45.22s.34.08.51.08c.19,0,.33-.03.42-.08s.13-.13.13-.23c0-.07-.03-.12-.08-.18-.05-.04-.12-.08-.21-.11s-.2-.05-.34-.09c-.22-.05-.4-.1-.54-.16s-.26-.13-.36-.25-.16-.27-.16-.47c0-.17.04-.32.13-.46s.23-.25.41-.32c.19-.08.4-.12.67-.12.19,0,.36.02.54.06s.33.1.47.19l-.21.51c-.27-.16-.54-.23-.8-.23-.19,0-.32.03-.41.09-.09.06-.13.15-.13.24s.05.18.16.22.26.09.48.15.4.1.54.16.26.13.36.25.16.27.16.46c0,.17-.04.31-.13.46s-.23.25-.41.32c-.19.08-.4.12-.67.12-.23,0-.45-.03-.66-.09h0v.02Z"></path><polygon class="cls-1" points="111.76 65.35 111.22 65.35 111.22 65.03 112.69 65.03 112.69 65.35 112.16 65.35 112.16 66.72 111.77 66.72 111.77 65.35 111.76 65.35"></polygon><polygon class="cls-1" points="114.57 66.72 114.57 65.7 114.07 66.54 113.9 66.54 113.4 65.72 113.4 66.72 113.04 66.72 113.04 65.03 113.36 65.03 113.99 66.08 114.61 65.03 114.93 65.03 114.93 66.72 114.57 66.72 114.57 66.72"></polygon></g></g><g><rect class="cls-1" x="17.6" y="50.5" width="1.16" height="1.16"></rect><rect class="cls-1" x="17.6" y="48.91" width="1.16" height="1.16"></rect><rect class="cls-1" x="16.03" y="50.5" width="1.16" height="1.16"></rect><rect class="cls-1" x="16.03" y="48.91" width="1.16" height="1.16"></rect><path class="cls-1" d="m36.39,59.44c.66-.37,1.31-.78,1.86-1.24.13-.11.27-.24.38-.36.12-.12.23-.26.32-.38s.17-.27.2-.39c.04-.12.04-.23.03-.33-.02-.09-.07-.21-.17-.3s-.22-.2-.36-.28-.3-.16-.47-.22c-.17-.06-.34-.11-.52-.17-.72-.19-1.48-.28-2.25-.33-.42-.03-.84-.04-1.26-.05.3.44.58.88.83,1.35.27.51.51,1.04.72,1.59-.03.02-.06.03-.09.05.2.39.38.8.54,1.21.08-.04.17-.09.25-.15h0Z"></path><rect class="cls-1" x="28.59" y="47.26" width=".96" height=".96"></rect><rect class="cls-1" x="27.3" y="45.96" width=".96" height=".96"></rect><rect class="cls-1" x="27.3" y="47.26" width=".96" height=".96"></rect><rect class="cls-1" x="28.59" y="45.96" width=".96" height=".96"></rect><path class="cls-1" d="m40.08,56.48c-.08-.28-.25-.52-.44-.69-.19-.18-.38-.3-.59-.4s-.4-.18-.61-.24-.4-.11-.61-.16c-.81-.16-1.62-.2-2.4-.2-.56,0-1.12.02-1.67.06-.34-.44-.69-.85-1.09-1.23-.41-.41-.85-.8-1.32-1.16v-7.36h1.32l-1.32-.73v-.02h-.04l-1.31-.73v-2.11h-2.12v.93l-1.69-.93-6.27,3.6h1.34v1.23l4.96,2.76h-3.13v1.88h.41c1.82,0,3.65.37,5.32,1.08,1.67.72,3.2,1.76,4.46,3.07.62.65,1.19,1.36,1.67,2.12.23.37.45.76.64,1.14.03-.02.06-.03.09-.05-.21-.55-.45-1.08-.72-1.59-.25-.47-.53-.92-.83-1.35.42,0,.85.02,1.26.05.77.05,1.53.15,2.25.33.18.05.35.1.52.17s.33.13.47.22c.15.08.27.18.36.28.09.09.15.21.17.3.02.1.01.21-.03.33-.04.12-.11.26-.2.39-.09.13-.2.26-.32.38s-.25.25-.38.36c-.55.47-1.19.88-1.86,1.24-.08.05-.17.09-.25.15,0,.02.01.03.02.05.16.4.28.82.39,1.23.18-.11.34-.23.52-.34.66-.46,1.32-.94,1.92-1.53.15-.15.29-.3.44-.48.13-.17.27-.35.38-.55s.22-.42.28-.67.07-.55,0-.83h0Zm-11.83-8.26h-.96v-.96h.96v.96Zm0-1.3h-.96v-.96h.96v.96Zm1.3,1.3h-.96v-.96h.96v.96Zm0-1.3h-.96v-.96h.96v.96Z"></path><path class="cls-1" d="m10.09,64.87c-.01-.08-.02-.17-.03-.26,0,.08,0,.17.01.26h.02Z"></path><path class="cls-1" d="m21.26,47.06l-3.97-2.2-6.27,3.6h1.34v6.89c-.23.32-.44.65-.63,1-.57.98-1.02,2.04-1.32,3.16-.15.53-.25,1.06-.33,1.61-.61.29-1.22.6-1.81.93-.69.39-1.37.82-2,1.36-.16.13-.31.28-.46.44-.15.16-.29.32-.41.51s-.25.4-.32.65c-.07.25-.1.55-.03.84.07.29.23.56.41.75.19.2.39.34.59.46.21.12.41.21.62.29.21.07.41.15.62.2.82.22,1.64.32,2.45.37.26.02.53.03.79.04-.12-.49-.23-.98-.29-1.48h-.45c-.76,0-1.51-.02-2.22-.16-.18-.03-.35-.07-.51-.12-.17-.05-.32-.1-.47-.17s-.27-.15-.35-.23c-.09-.08-.15-.17-.19-.25-.03-.08-.04-.19-.01-.31s.08-.27.17-.4c.08-.15.18-.28.29-.42.11-.13.23-.27.36-.4.52-.53,1.13-1,1.77-1.42.45-.3.91-.59,1.39-.86-.04.4-.05.82-.05,1.23v.34c.01.44.04.87.09,1.3-.06-1.68.23-3.39.82-4.99.31-.84.73-1.65,1.2-2.4.48-.77,1.05-1.47,1.67-2.12,1.25-1.31,2.78-2.35,4.46-3.07,1.35-.58,2.8-.92,4.26-1.04v-2.55h1.32l-2.51-1.39h0l-.02.03Zm-4.07,4.59h-1.16v-1.16h1.16v1.16Zm0-1.59h-1.16v-1.16h1.16v1.16Zm1.59,1.59h-1.16v-1.16h1.16v1.16Zm0-1.59h-1.16v-1.16h1.16v1.16Z"></path><path class="cls-1" d="m10.94,69.1c.64,1.55,1.52,3.01,2.65,4.24,1.13,1.23,2.48,2.24,3.95,3,2.95,1.49,6.46,1.85,9.63.95,1.59-.45,3.09-1.16,4.42-2.15,1.33-.98,2.47-2.21,3.36-3.6.45-.69.83-1.43,1.14-2.2.31-.77.56-1.57.73-2.38.34-1.63.38-3.33.12-5l.15-.03c.8,3.32.22,6.98-1.59,9.94-.89,1.48-2.08,2.8-3.46,3.85-1.39,1.05-2.97,1.83-4.65,2.28-3.36.92-7.06.51-10.11-1.14l-.56-.32c-.09-.05-.19-.1-.28-.17l-.27-.19-.54-.36-.51-.4c-.34-.26-.64-.57-.96-.86l-.11-.11-.11-.12-.22-.24c-.15-.17-.29-.31-.42-.48-1.09-1.33-1.95-2.85-2.47-4.47l.13-.05h-.01Z"></path><path class="cls-1" d="m10.92,67.97h1.22c.8-.02,1.61-.06,2.39-.13.39-.03.8-.07,1.19-.11s.79-.09,1.19-.15c.39-.05.79-.11,1.18-.18l.59-.09.59-.1c.78-.15,1.57-.29,2.34-.47.78-.17,1.54-.36,2.32-.56,3.08-.8,6.08-1.87,8.96-3.27.72-.35,1.43-.72,2.12-1.11.32-.19.64-.37.96-.57-.15-.45-.32-.88-.51-1.31-.37.19-.75.36-1.13.53-.7.31-1.41.6-2.14.87-1.44.54-2.9,1.03-4.37,1.49s-2.95.89-4.45,1.31c-.75.21-1.49.4-2.24.59s-1.5.36-2.26.53c-1.5.33-3.03.62-4.55.85-.76.11-1.52.21-2.28.28-.55.05-1.1.09-1.64.11h-.2c.07.51.17,1.01.29,1.48.13,0,.27,0,.4.01h-.01Z"></path><polygon class="cls-1" points="35.97 49.13 36.67 50.38 37.93 51.08 36.67 51.77 35.97 53.04 35.29 51.77 34.02 51.08 35.29 50.38 35.97 49.13"></polygon><polygon class="cls-1" points="21.92 72.04 22.57 73.24 23.77 73.89 22.57 74.55 21.92 75.75 21.25 74.55 20.06 73.89 21.25 73.24 21.92 72.04"></polygon><polygon class="cls-1" points="16.83 70.33 17.17 70.96 17.81 71.31 17.17 71.66 16.83 72.31 16.47 71.66 15.83 71.31 16.47 70.96 16.83 70.33"></polygon><polygon class="cls-1" points="40.53 48.48 40.86 49.07 41.45 49.4 40.86 49.72 40.53 50.32 40.2 49.72 39.61 49.4 40.2 49.07 40.53 48.48"></polygon></g></svg> 