<?xml version="1.0" encoding="UTF-8"?> <svg xmlns="http://www.w3.org/2000/svg" id="Layer_1" viewBox="0 0 180 120"><defs><style>.cls-1{fill:#656565;}</style></defs><path class="cls-1" d="m83.02,44.2c0,.05.2.35.46.68s1.07,1.4,1.82,2.39l1.36,1.8v2.88h.75v-2.98l1.3-1.8c.72-1,1.52-2.09,1.78-2.43l.47-.61h-.94l-1.48,2.04c-.81,1.11-1.51,2.04-1.54,2.04s-.76-.92-1.62-2.04c-1.53-2-1.55-2.04-1.95-2.04-.23,0-.41.03-.41.08Z"></path><path class="cls-1" d="m100.05,44.8c0,.31-.06,2.05-.14,3.88-.14,3.47-.14,3.48.32,3.48.2,0,.24-.08.3-.83.03-.45.06-1.13.06-1.5v-.68h1.16c.63.01,1.38.05,1.67.09l.53.08.9,1.39c.49.76.93,1.45.98,1.52.04.06.27.16.49.2.54.1.55.13-.63-1.71-.5-.78-.91-1.46-.91-1.49s.24-.14.51-.23c.29-.1.65-.31.81-.48.57-.6.77-1.94.4-2.74-.49-1.08-1.34-1.33-5.18-1.49l-1.26-.04v.55Zm4.4.41c1.31.28,1.83,1.31,1.29,2.53-.36.79-.88.92-3.3.83l-1.75-.08v-1.19c0-.65.03-1.45.08-1.77l.06-.58,1.56.09c.86.03,1.78.12,2.06.17Z"></path><path class="cls-1" d="m74.79,44.51c-2.53.68-3.81,3.32-2.71,5.56,1.11,2.25,4.16,2.99,6.32,1.54,2.07-1.38,2.38-4.28.64-6.01-1.09-1.09-2.71-1.51-4.25-1.09Zm2.67.87c1.23.55,1.95,1.65,1.95,2.99,0,.62-.05.89-.29,1.37-1.06,2.16-4.03,2.64-5.74.92-.68-.68-.91-1.28-.91-2.3,0-.75.04-.93.31-1.43.94-1.7,2.9-2.35,4.68-1.55Z"></path><path class="cls-1" d="m66.6,47.52c-.51,1.4-1.09,3-1.28,3.54-.19.55-.38,1-.41,1s-.92-1.46-1.98-3.23l-1.93-3.21-.38.06c-.2.04-.39.09-.41.11-.01.01.32.6.76,1.3.43.71,1.43,2.35,2.22,3.66l1.43,2.39.39-.03c.38-.03.39-.04.75-1.05.45-1.25,2.42-6.63,2.53-6.89.06-.15.01-.18-.34-.18h-.42l-.93,2.54Z"></path><path class="cls-1" d="m113.35,46.19c-1.23,2.09-2.98,5.09-3.36,5.78l-.41.73h.43c.43,0,.44,0,.99-.96.3-.53.6-.99.65-1.03.15-.09,4.31.29,4.44.41.06.05.28.56.48,1.14l.38,1.04.41.03c.21.02.4.01.4-.01,0-.08-1.62-4.55-2.31-6.43l-.63-1.68h-.43c-.43,0-.43.01-1.02,1Zm1.79,2.04c.56,1.51.73,2.07.62,2.09-.14.03-3.72-.28-3.76-.33-.04-.03,2.25-3.83,2.31-3.83.03,0,.4.93.83,2.07Z"></path><path class="cls-1" d="m122.05,49.77c-.26,2.06-.46,3.81-.45,3.91,0,.14.09.19.32.19.39,0,.34.23.75-3.21.18-1.5.36-2.87.41-3.03.06-.28.18-.14,1.48,1.93.77,1.22,1.79,2.86,2.25,3.64.76,1.28.88,1.43,1.2,1.49.19.03.36.05.39.03.1-.11,1.15-7.51,1.09-7.66-.04-.11-.16-.15-.35-.13l-.29.03-.45,3.05c-.26,1.68-.47,3.15-.49,3.27-.02.14-.33-.28-.93-1.29-1.4-2.33-3.46-5.54-3.68-5.75-.11-.11-.32-.19-.49-.19h-.29l-.46,3.72Z"></path><path class="cls-1" d="m53.46,46.54c-1.45.2-2.65.39-2.67.41-.03.04,1.02,7.25,1.11,7.58.04.14.14.16.57.09.28-.04,1.5-.2,2.7-.36,2.86-.36,2.67-.31,2.67-.7,0-.18-.05-.32-.13-.32s-1.18.15-2.44.32-2.4.32-2.53.32c-.21,0-.25-.11-.42-1.39-.11-.77-.17-1.43-.14-1.45.03-.03.94-.18,2.03-.32,2.85-.39,2.67-.34,2.67-.64,0-.14-.04-.28-.09-.31-.05-.03-1.13.09-2.39.26-1.26.18-2.33.32-2.36.32-.06,0-.46-2.79-.4-2.84.01-.02,1.19-.18,2.6-.38,1.41-.18,2.58-.35,2.6-.38.02-.01,0-.15-.04-.31-.09-.35-.05-.35-3.35.11Z"></path><path class="cls-1" d="m136.89,48.3c-.68.12-1.74.63-2.28,1.1-.24.21-.6.69-.8,1.06-.34.63-.36.74-.36,1.69s.03,1.08.31,1.66c1.07,2.18,3.7,3.09,5.88,2.05.9-.43.91-.44.63-.74l-.24-.26-.71.36c-.62.31-.81.35-1.55.35-2,0-3.47-1.28-3.61-3.11-.1-1.37.61-2.56,1.89-3.18.54-.26.74-.3,1.58-.3s1.05.04,1.59.29c.35.16.84.53,1.14.84.45.46.57.54.8.47.39-.1.35-.26-.19-.87-.96-1.07-2.67-1.67-4.06-1.43Z"></path><path class="cls-1" d="m35.66,49.54c-.17.05-.18.08-1.65,4.07l-.98,2.69-2.57-2.51-2.57-2.51-.43.06c-.23.03-.44.09-.46.11s.39,1.74.91,3.83c.94,3.76.94,3.78,1.21,3.75.39-.05.44-.14.32-.56-.05-.2-.41-1.64-.78-3.19-.62-2.54-.66-2.8-.46-2.63.12.1,1.26,1.21,2.54,2.48,1.81,1.79,2.37,2.28,2.52,2.23.15-.04.34-.44.69-1.43.98-2.81,1.91-5.23,1.96-5.07.03.09.33,1.46.66,3.05.33,1.59.63,2.98.65,3.08.05.19.43.26.64.11.08-.05-.06-.91-.45-2.7-.3-1.45-.66-3.14-.79-3.78-.24-1.11-.25-1.15-.53-1.14-.15.01-.35.03-.44.05Z"></path><path class="cls-1" d="m145.13,53.71c-.46,2.1-.81,3.84-.79,3.86.01.01.18.06.35.1l.32.08.36-1.69c.2-.93.4-1.74.44-1.78.06-.08,5.32,1.03,5.43,1.14.02.03-.15.81-.39,1.75-.24.93-.41,1.73-.38,1.77.02.04.18.1.35.12l.32.04.94-3.77c.51-2.08.91-3.8.89-3.83-.03-.03-.19-.09-.38-.12l-.32-.06-.41,1.73c-.38,1.54-.44,1.71-.62,1.67-.11-.03-1.36-.31-2.78-.62-1.54-.34-2.56-.61-2.54-.69.1-.26.74-3.28.71-3.31-.02-.02-.19-.08-.36-.11l-.33-.08-.84,3.81Z"></path><path class="cls-1" d="m43.72,50.22c-2.05.71-2.72,3.1-1.33,4.64.21.24.63.55.92.71.75.39,1.99.41,2.82.03.51-.23,1.43-1.05,1.43-1.28,0-.05-.12-.15-.27-.21-.24-.11-.29-.09-.48.19-.53.74-1.77,1.13-2.72.86-.54-.15-1.28-.72-1.5-1.17-.46-.88-.29-1.83.46-2.58.79-.78,1.97-.99,2.93-.5.48.25.49.25.74.04l.25-.2-.26-.2c-.68-.51-2-.66-2.98-.32Z"></path><path class="cls-1" d="m88.24,57.17c-.16.17-.44.64-.61,1.05s-.39.75-.47.77c-.1.02-.29-.09-.44-.24s-.27-.23-.27-.16-.04.08-.11.04c-.06-.04-.08.01-.03.11.03.11,0,.23-.09.28-.12.08-.1.1.09.1.13,0,.26.04.29.1s.24.13.44.16c.2.04.38.13.38.2.01.24.51,1.37.8,1.8.16.23.46.51.66.63.31.18.35.25.25.38s-.11.19.01.33c.11.14.11.18-.01.26-.09.05-.12.13-.08.17s.01.15-.05.25c-.11.14-.11.15.02.03.23-.19.35-.16.29.1-.03.13-.02.19.03.14.04-.05.11-.19.13-.31s.12-.2.23-.2c.16.02.16,0,.02-.2-.21-.31-.2-.4.05-.4.33,0,1.05.5,1.29.89.48.78.09,1.68-.98,2.29-1.17.68-1.86,1.47-1.93,2.23-.05.7.01.93.38,1.3.43.43.95.48,1.56.17.39-.19.86-.78.86-1.08,0-.1-.09,0-.19.2-.42.85-1.48,1.13-2.07.55-.78-.79-.09-2.1,1.56-2.93.76-.38,1.28-.85,1.56-1.39.44-.86.14-1.69-.91-2.59-.55-.46-.6-.55-.6-.94,0-.31.09-.56.29-.83.16-.21.21-.32.13-.26-.23.18-.31.08-.32-.39-.02-.32-.03-.34-.06-.1-.05.35-.1.36-.4.11-.18-.15-.19-.15-.09-.01.15.19.14.43-.03.55-.06.04-.02.09.09.09.2,0,.25.16.08.27-.05.03-.11.21-.11.41v.33l-.39-.38c-.34-.32-.9-1.33-.9-1.62,0-.06.18-.08.44-.03.44.08.45.08.4-.2-.03-.18.01-.33.14-.45.15-.14.17-.21.09-.32-.17-.21-.42-.05-.42.27,0,.39-.08.45-.39.31-.31-.15-.32-.21-.03-.79.47-.98.06-1.7-.58-1.03Z"></path><path class="cls-1" d="m72.95,61.32v1.34h1.07c.88,0,1.07-.03,1.07-.16s-.17-.16-.86-.16h-.86v-.86h.75c.6,0,.75-.03.75-.16s-.15-.16-.75-.16h-.75v-.86h.8c.64,0,.8-.03.8-.16s-.18-.16-1.02-.16h-1.02v1.34Z"></path><path class="cls-1" d="m77.43,60.2c-.3.23-.38.57-.2.85.05.08.42.25.83.38.6.19.75.29.77.49.02.13-.02.29-.11.33-.19.13-.87.12-1.22-.01-.48-.18-.59.06-.12.27.61.26,1.32.21,1.63-.11.53-.51.3-.92-.7-1.26-.61-.2-.7-.27-.7-.5s.04-.27.5-.3c.28-.02.6.02.72.08.15.09.24.09.29,0,.13-.2-.16-.35-.78-.4-.51-.03-.68,0-.91.19Z"></path><path class="cls-1" d="m81.2,60.14c0,.12.12.16.43.16h.43v1.18c0,1.1.01,1.18.21,1.18s.21-.08.21-1.18v-1.18h.43c.31,0,.43-.04.43-.16,0-.13-.19-.16-1.07-.16s-1.07.03-1.07.16Z"></path><path class="cls-1" d="m97.43,60.13c-.36.16-.47.35-.47.83,0,.63.8.98,1.37.57.27-.18.29-.12.12.36-.13.38-.54.57-.98.44-.35-.1-.5.06-.2.21.36.2.94.14,1.24-.13.32-.27.46-.94.33-1.62-.12-.61-.8-.93-1.41-.66Zm.84.3c.3.24.33.59.1.83-.42.42-1.08.19-1.08-.36,0-.49.59-.77.99-.46Z"></path><path class="cls-1" d="m100.72,60.1c-.36.14-.54.41-.55.81,0,.68.78,1.03,1.37.61.2-.14.24-.14.24,0,0,.57-.54.96-1.09.8-.35-.1-.5.06-.2.21.42.23.96.14,1.31-.19.28-.28.31-.39.31-.98,0-.79-.12-1.04-.59-1.24-.42-.17-.44-.17-.79-.03Zm.89.44c.21.31.21.5-.01.75-.35.4-1.1.12-1.1-.41,0-.56.79-.8,1.11-.34Z"></path><path class="cls-1" d="m104.28,60.06c-.84.16-1.13,1.76-.42,2.36.5.44,1.48.25,1.75-.34.18-.39.16-1.07-.04-1.46-.14-.29-.74-.66-.98-.62-.04.01-.19.04-.31.06Zm.76.49c.39.33.46.98.17,1.44-.44.71-1.4.31-1.4-.58,0-.45.26-.96.5-1.03.36-.1.45-.08.73.17Z"></path><path class="cls-1" d="m94.46,60.16c-.27.08-.16.31.12.27.23-.03.24,0,.24,1.09s.01,1.14.21,1.14.21-.08.21-1.29v-1.29h-.29c-.17.02-.39.04-.49.08Z"></path><path class="cls-1" d="m56.98,61.16c0,.21.08.21,6.91.21s6.91,0,6.91-.21-.08-.21-6.91-.21-6.91,0-6.91.21Z"></path><path class="cls-1" d="m108.21,61.16c0,.21.08.21,6.91.21s6.91,0,6.91-.21-.08-.21-6.91-.21-6.91,0-6.91.21Z"></path><path class="cls-1" d="m49.48,74.02c0,1.17.02,1.39.16,1.39.12,0,.16-.12.16-.43v-.43h.46c.63,0,1.23-.19,1.36-.43.14-.26.14-.81,0-1.07-.15-.28-.68-.43-1.46-.43h-.69v1.39Zm1.71-.9c.05.05.13.23.16.39.12.46-.25.73-.96.73h-.59v-.57c0-.32.03-.61.09-.65.1-.11,1.18-.02,1.31.11Z"></path><path class="cls-1" d="m54.09,74.02v1.39h1.07c.88,0,1.07-.03,1.07-.16s-.17-.16-.92-.16h-.91l.03-.46.03-.45.78-.03c.42-.02.77-.08.77-.13s-.35-.11-.77-.13l-.78-.03v-.86l.89-.03c.69-.02.88-.06.88-.18,0-.13-.2-.16-1.07-.16h-1.07v1.39Z"></path><path class="cls-1" d="m58.27,72.79c0,.12.12.16.43.16h.43v1.23c0,1.16.01,1.23.21,1.23s.21-.08.21-1.23v-1.23h.48c.35,0,.48-.04.48-.16,0-.13-.19-.16-1.13-.16s-1.13.03-1.13.16Z"></path><path class="cls-1" d="m62.64,74.02c-.58,1.33-.59,1.39-.36,1.39.16,0,.27-.1.35-.32.12-.31.14-.32.87-.32s.75.01.88.32c.09.2.21.32.34.32.26,0,.25-.01-.43-1.55-.44-1-.56-1.18-.78-1.21-.24-.03-.31.09-.87,1.37Zm1.19-.27c.14.33.23.62.19.65-.02.03-.29.04-.59.02l-.53-.03.27-.62c.14-.33.29-.61.33-.61.03,0,.18.27.32.59Z"></path><path class="cls-1" d="m67.16,74.02v1.39h.96c.78,0,.96-.03.96-.16s-.15-.16-.75-.16h-.75v-1.23c0-1.16-.01-1.23-.21-1.23s-.21.08-.21,1.39Z"></path><path class="cls-1" d="m71.13,73.53c0,1.46.28,1.89,1.23,1.89s1.23-.38,1.23-1.82c0-.78-.03-.96-.16-.96s-.16.15-.16.66c-.01.87-.15,1.49-.39,1.66-.29.21-.87.17-1.11-.08-.18-.18-.21-.35-.21-1.23,0-.94-.01-1.02-.21-1.02-.19,0-.21.08-.21.9Z"></path><path class="cls-1" d="m76.06,74.02c0,1.17.02,1.39.16,1.39.13,0,.16-.19.16-1.08,0-.61.04-1.05.1-1.02s.32.45.6.92.55.86.6.86.32-.39.59-.86c.28-.48.55-.89.6-.92.04-.03.09.43.09,1.02,0,.89.03,1.08.16,1.08.14,0,.16-.23.16-1.39,0-1.38,0-1.39-.25-1.39-.19,0-.35.19-.77.91-.3.49-.56.91-.59.91s-.29-.42-.59-.91c-.42-.72-.58-.91-.77-.91-.25,0-.25.01-.25,1.39Z"></path><path class="cls-1" d="m82.4,73.4c-.18.43-.45,1.06-.6,1.4l-.28.61h.25c.17,0,.28-.1.36-.32.12-.31.14-.32.87-.32s.75.01.88.32c.09.19.21.32.33.32s.2-.03.19-.09c0-.04-.26-.65-.57-1.36-.49-1.1-.6-1.29-.84-1.32s-.3.05-.6.75Zm.91.36c.15.32.25.61.21.64s-.3.04-.6.02l-.54-.03.28-.62c.15-.33.3-.61.32-.61s.17.27.32.6Z"></path><path class="cls-1" d="m92.27,72.84c-.8.48-.9,1.59-.2,2.22.33.31.46.35.96.35.42,0,.64-.06.87-.24.25-.19.27-.24.12-.32-.12-.06-.25-.04-.41.06-.65.46-1.59-.05-1.59-.88s.81-1.34,1.58-.93c.26.15.4.16.48.08.18-.18-.53-.56-1.04-.56-.24,0-.58.1-.77.21Z"></path><path class="cls-1" d="m97.34,72.72c-.09.13-1.14,2.59-1.14,2.65,0,.02.09.04.2.04s.25-.13.33-.32c.13-.31.15-.32.88-.32s.75.01.87.32c.09.23.19.32.35.32.23,0,.2-.08-.36-1.39-.51-1.2-.63-1.39-.84-1.39-.14,0-.27.04-.3.1Zm.35,1.7c-.3.02-.57.01-.6-.02s.08-.33.24-.68l.29-.62.31.64.31.64-.55.03Z"></path><path class="cls-1" d="m101.35,74.02v1.39h.96c.78,0,.96-.03.96-.16s-.16-.16-.8-.16h-.8v-1.23c0-1.03-.03-1.23-.16-1.23-.14,0-.16.23-.16,1.39Z"></path><path class="cls-1" d="m105.42,74.02c0,1.32.01,1.39.21,1.39s.21-.08.21-1.39-.01-1.39-.21-1.39-.21.08-.21,1.39Z"></path><path class="cls-1" d="m108.31,74.02c0,1.15.03,1.39.15,1.39s.17-.16.19-.57l.03-.56.73-.03c.55-.02.72-.06.72-.18,0-.13-.16-.16-.76-.16h-.75l.03-.46.03-.45.84-.03c.63-.02.83-.06.83-.18,0-.13-.19-.16-1.02-.16h-1.02v1.39Z"></path><path class="cls-1" d="m113.14,72.83c-.27.14-.44.34-.59.7-.18.46-.19.54-.05.95.42,1.18,2.18,1.28,2.71.15.24-.48.23-.66-.03-1.21-.36-.75-1.26-1.01-2.04-.59Zm1.29.3c.53.3.66.86.38,1.43-.33.63-1.15.74-1.67.23-.88-.89.23-2.29,1.3-1.65Z"></path><path class="cls-1" d="m117.74,74.02c0,1.17.02,1.39.16,1.39.12,0,.16-.13.16-.48v-.48h.51c.48,0,.51.02.8.48.19.3.39.48.51.48.27,0,.26-.03-.13-.56-.31-.44-.31-.46-.11-.56.29-.13.47-.62.39-1.03-.1-.45-.57-.64-1.55-.64h-.75v1.39Zm1.69-.9c.3.21.32.74.03.9-.12.05-.48.11-.8.11h-.6v-.51c0-.29.03-.56.08-.59.14-.14,1.06-.08,1.3.1Z"></path><path class="cls-1" d="m122.35,74.02c0,1.32.01,1.39.21,1.39.19,0,.21-.09.24-1.03l.03-1.02.78,1.02c.51.69.86,1.03.99,1.03.2,0,.21-.09.21-1.39,0-1.16-.03-1.39-.16-1.39-.12,0-.16.21-.18,1.09l-.03,1.09-.84-1.09c-.56-.73-.91-1.09-1.05-1.09-.19,0-.2.09-.2,1.39Z"></path><path class="cls-1" d="m127.28,74.02c0,1.32.01,1.39.21,1.39s.21-.08.21-1.39-.01-1.39-.21-1.39-.21.08-.21,1.39Z"></path><path class="cls-1" d="m130.52,73.93c-.31.73-.56,1.35-.56,1.39,0,.05.09.09.2.09s.25-.13.33-.32c.13-.31.15-.32.86-.32s.73.01.86.32c.09.19.21.32.33.32s.2-.04.2-.09c0-.05-.26-.66-.57-1.37-.48-1.09-.6-1.28-.83-1.31-.25-.02-.31.09-.84,1.29Zm1.14-.2c.13.31.24.6.24.64s-.26.08-.58.08h-.59l.28-.64c.16-.35.31-.64.35-.64.03,0,.17.26.3.57Z"></path><path class="cls-1" d="m86.51,75.19c-.03.06-.03.16,0,.23.03.05.01.21-.05.34-.09.18-.05.16.15-.08.15-.18.27-.36.25-.42-.05-.16-.26-.19-.34-.08Z"></path></svg> 