<?xml version="1.0" encoding="UTF-8"?> <svg xmlns="http://www.w3.org/2000/svg" id="Layer_1" viewBox="0 0 180 120"><defs><style>.cls-1{fill:#656565;}</style></defs><path class="cls-1" d="m112,38.81c-.67-.37-1.5-.45-2.17-.22-17.07,5.16-18.04,9.51-18.04,9.51h-9.73v5.99l28.44-1.95,9.88-8.46-8.38-4.87h0Zm-7.78,7.19l-2.54-1.57c-.52-.3-.45-1.12.07-1.35l7.33-3.07c.6-.22,1.27-.22,1.87.07l6.21,3.44-12.95,2.47h0Z"></path><path class="cls-1" d="m125.18,51.38l-18.11.45-25.6,2.69v-2.54l6.29-4.94,25.75-3.74s23.28-3.74,26.94-3.44c0,0,2.02,3.74-15.27,11.53h0Z"></path><path class="cls-1" d="m71.59,51.9s7.56,4.42,31.88-1.8c1.72-.3,14.74-3.52,27.92,3.89-.75-.37-1.95-.45-2.77-.6-2.4-.45-4.87-.75-7.33-.97-6.36-.6-12.8-.52-19.09.82-6.06,1.35-12.2,3.67-18.49,2.99-3.74-.37-9.66-1.05-12.13-4.34h0Z"></path><path class="cls-1" d="m114.77,44.72c1.8-.22,3.59-.45,5.39-.67,1.8-.22,3.59-.45,5.39-.75.9-.15,1.8-.3,2.69-.37l1.35-.22,1.35-.22,5.39-.9c-.9.22-1.72.45-2.62.67-.9.22-1.8.45-2.62.6-1.8.37-3.59.67-5.39.97-1.8.22-3.59.45-5.39.6-1.95.22-3.74.3-5.54.3h0Z"></path><g><path class="cls-1" d="m34.54,71.36h-5.39v-10.93h5.24c2.4,0,3.82,1.12,3.82,2.84,0,1.35-.82,2.17-1.95,2.47,1.35.3,2.25,1.42,2.25,2.62-.07,1.87-1.5,2.99-3.97,2.99h0Zm-.75-8.83h-1.87v2.32h1.87c.9,0,1.42-.37,1.42-1.12.07-.75-.45-1.2-1.42-1.2h0Zm.22,4.27h-2.02v2.4h2.1c.97,0,1.5-.37,1.5-1.2,0-.75-.6-1.2-1.57-1.2h0Z"></path><path class="cls-1" d="m45.62,71.51c-3.29,0-5.99-2.32-5.99-5.61s2.69-5.61,5.99-5.61,5.99,2.32,5.99,5.61c-.07,3.29-2.69,5.61-5.99,5.61Zm0-2.47c1.87,0,3.07-1.27,3.07-3.22s-1.2-3.22-3.07-3.22-3.07,1.27-3.07,3.22,1.2,3.22,3.07,3.22Z"></path><path class="cls-1" d="m60.44,69.42h-4.34l-.67,1.95h-2.99l4.19-11h3.29l4.19,11h-2.99l-.67-1.95Zm-2.17-6.06l-1.42,4.04h2.84l-1.42-4.04h0Z"></path><polygon class="cls-1" points="64.85 60.44 73.83 60.44 73.83 62.61 70.76 62.61 70.76 71.44 67.92 71.44 67.92 62.53 64.85 62.53 64.85 60.44"></polygon><path class="cls-1" d="m80.64,60.29c2.77,0,4.87,1.5,5.54,3.82h-3.14c-.45-.97-1.35-1.42-2.47-1.42-1.72,0-2.92,1.2-2.92,3.14s1.2,3.14,2.92,3.14c1.05,0,1.95-.45,2.47-1.42h3.14c-.67,2.4-2.77,3.82-5.54,3.82-3.44,0-5.84-2.32-5.84-5.61s2.4-5.46,5.84-5.46Z"></path><path class="cls-1" d="m93.52,71.51c-3.29,0-5.99-2.32-5.99-5.61s2.69-5.61,5.99-5.61,5.99,2.32,5.99,5.61c-.07,3.29-2.69,5.61-5.99,5.61h0Zm0-2.47c1.87,0,3.07-1.27,3.07-3.22s-1.2-3.22-3.07-3.22-3.07,1.27-3.07,3.22,1.12,3.22,3.07,3.22Z"></path><polygon class="cls-1" points="109.01 60.44 112 60.44 107.89 71.44 104.37 71.44 100.25 60.44 103.25 60.44 106.17 68.75 109.01 60.44 109.01 60.44"></polygon><polygon class="cls-1" points="120.31 62.53 116.05 62.53 116.05 64.78 119.86 64.78 119.86 66.87 116.05 66.87 116.05 69.27 120.31 69.27 120.31 71.44 113.2 71.44 113.2 60.44 120.31 60.44 120.31 62.53 120.31 62.53"></polygon><path class="cls-1" d="m126.97,60.44c2.84,0,4.27,1.57,4.27,3.44,0,1.35-.82,2.69-2.62,3.14l2.69,4.34h-3.14l-2.4-4.12h-.67v4.12h-2.84v-10.93h4.72,0Zm-.15,2.17h-1.72v2.69h1.72c1.05,0,1.57-.52,1.57-1.35s-.52-1.35-1.57-1.35h0Z"></path></g><circle class="cls-1" cx="134.46" cy="70.32" r="1.05"></circle><g><path class="cls-1" d="m138.28,68c.9,0,1.5.45,1.65,1.27h-.97c-.07-.3-.37-.52-.67-.52-.52,0-.82.37-.82,1.05s.3,1.05.82,1.05c.37,0,.6-.15.67-.52h.97c-.22.75-.82,1.27-1.65,1.27-1.05,0-1.72-.75-1.72-1.8,0-1.12.75-1.8,1.72-1.8h0Z"></path><path class="cls-1" d="m142.39,71.59c-1.05,0-1.8-.75-1.8-1.8s.82-1.8,1.8-1.8c1.05,0,1.8.67,1.8,1.8s-.82,1.8-1.8,1.8Zm0-.75c.45,0,.9-.37.9-1.05s-.45-1.05-.9-1.05-.9.37-.9,1.05.37,1.05.9,1.05Z"></path><path class="cls-1" d="m149.95,69.64c0-.6-.3-.82-.82-.82s-.82.3-.82.82v1.95h-.9v-1.95c0-.6-.3-.82-.82-.82-.45,0-.82.3-.82.82v1.95h-.9v-3.52h.9v.45c.22-.3.6-.45,1.05-.45.52,0,.97.22,1.27.67.22-.37.67-.67,1.2-.67.82,0,1.42.52,1.42,1.5v2.1h-.9v-2.02h.15Z"></path></g><g><polygon class="cls-1" points="43.45 78.1 46.07 78.1 46.07 78.77 45.17 78.77 45.17 81.47 44.34 81.47 44.34 78.77 43.45 78.77 43.45 78.1 43.45 78.1"></polygon><polygon class="cls-1" points="48.76 80.05 47.49 80.05 47.49 81.47 46.59 81.47 46.59 78.1 47.41 78.1 47.41 79.45 48.68 79.45 48.68 78.1 49.58 78.1 49.58 81.47 48.76 81.47 48.76 80.05"></polygon><polygon class="cls-1" points="52.35 78.77 51.08 78.77 51.08 79.45 52.2 79.45 52.2 80.12 51.08 80.12 51.08 80.87 52.35 80.87 52.35 81.54 50.26 81.54 50.26 78.18 52.35 78.18 52.35 78.77 52.35 78.77"></polygon><path class="cls-1" d="m55.72,81.47c-.97,0-1.72-.75-1.72-1.72s.75-1.72,1.72-1.72,1.72.75,1.72,1.72c0,1.05-.75,1.72-1.72,1.72Zm0-.75c.52,0,.9-.37.9-.97s-.37-.97-.9-.97-.9.37-.9.97.3.97.9.97Z"></path><path class="cls-1" d="m59.39,78.1c.82,0,1.27.45,1.27,1.05,0,.45-.22.82-.75.97l.75,1.35h-.9l-.75-1.27h-.22v1.27h-.82v-3.37s1.42,0,1.42,0Zm-.07.67h-.52v.82h.52c.3,0,.45-.15.45-.45,0-.22-.15-.37-.45-.37Z"></path><rect class="cls-1" x="61.26" y="78.1" width=".82" height="3.37"></rect><path class="cls-1" d="m65.97,79.15h-.9c-.15-.22-.37-.37-.67-.37-.52,0-.9.37-.9.97s.37.97.97.97c.37,0,.67-.22.82-.6h-1.05v-.6h1.8v.75c-.15.6-.75,1.2-1.65,1.2-1.05,0-1.72-.67-1.72-1.72s.67-1.72,1.72-1.72c.75,0,1.35.45,1.57,1.12h0Z"></path><rect class="cls-1" x="66.57" y="78.1" width=".82" height="3.37"></rect><polygon class="cls-1" points="71.14 78.1 71.14 81.47 70.32 81.47 68.97 79.37 68.97 81.47 68.14 81.47 68.14 78.1 68.97 78.1 70.32 80.2 70.32 78.1 71.14 78.1"></polygon><path class="cls-1" d="m73.91,80.87h-1.27l-.22.6h-.9l1.2-3.37h.97l1.2,3.37h-.9l-.07-.6h0Zm-.6-1.87l-.45,1.27h.82l-.37-1.27Z"></path><polygon class="cls-1" points="76.3 78.1 76.3 80.87 77.35 80.87 77.35 81.54 75.48 81.54 75.48 78.18 76.3 78.18 76.3 78.1"></polygon><path class="cls-1" d="m80.64,81.47h-1.57v-3.37h1.5c.67,0,1.12.37,1.12.9,0,.37-.22.67-.6.75.37.07.67.45.67.82,0,.52-.45.9-1.12.9h0Zm-.22-2.69h-.52v.67h.52c.3,0,.45-.15.45-.37s-.22-.3-.45-.3h0Zm.07,1.27h-.6v.75h.6c.3,0,.45-.15.45-.37-.07-.22-.22-.37-.45-.37h0Z"></path><path class="cls-1" d="m83.94,81.47c-.97,0-1.72-.75-1.72-1.72s.75-1.72,1.72-1.72,1.72.75,1.72,1.72c0,1.05-.75,1.72-1.72,1.72Zm0-.75c.52,0,.9-.37.9-.97s-.37-.97-.9-.97-.9.37-.9.97.3.97.9.97Z"></path><path class="cls-1" d="m88.35,80.87h-1.27l-.22.6h-.9l1.2-3.37h.97l1.2,3.37h-.82l-.15-.6h0Zm-.67-1.87l-.45,1.27h.82l-.37-1.27Z"></path><polygon class="cls-1" points="89.7 78.1 92.32 78.1 92.32 78.77 91.42 78.77 91.42 81.47 90.6 81.47 90.6 78.77 89.7 78.77 89.7 78.1 89.7 78.1"></polygon><path class="cls-1" d="m95.54,78.03c.82,0,1.42.45,1.57,1.2h-.9c-.15-.3-.37-.45-.67-.45-.52,0-.82.37-.82.97s.37.97.82.97c.3,0,.6-.15.67-.45h.9c-.22.75-.82,1.2-1.57,1.2-.97,0-1.72-.67-1.72-1.72,0-.97.75-1.72,1.72-1.72h0Z"></path><path class="cls-1" d="m99.36,81.47c-.97,0-1.72-.75-1.72-1.72s.75-1.72,1.72-1.72,1.72.75,1.72,1.72c0,1.05-.75,1.72-1.72,1.72Zm0-.75c.52,0,.9-.37.9-.97s-.37-.97-.9-.97-.9.37-.9.97.37.97.9.97Z"></path><polygon class="cls-1" points="103.92 78.1 104.82 78.1 103.62 81.47 102.57 81.47 101.38 78.1 102.27 78.1 103.1 80.65 103.92 78.1 103.92 78.1"></polygon><polygon class="cls-1" points="107.36 78.77 106.09 78.77 106.09 79.45 107.21 79.45 107.21 80.12 106.09 80.12 106.09 80.87 107.36 80.87 107.36 81.54 105.27 81.54 105.27 78.18 107.36 78.18 107.36 78.77 107.36 78.77"></polygon><path class="cls-1" d="m109.39,78.1c.82,0,1.27.45,1.27,1.05,0,.45-.22.82-.75.97l.75,1.35h-.9l-.67-1.27h-.22v1.27h-.82v-3.37s1.35,0,1.35,0Zm-.07.67h-.52v.82h.52c.3,0,.45-.15.45-.45,0-.22-.15-.37-.45-.37Z"></path><path class="cls-1" d="m113.95,78.03c.82,0,1.42.45,1.57,1.2h-.9c-.15-.3-.37-.45-.67-.45-.52,0-.82.37-.82.97s.37.97.82.97c.3,0,.6-.15.67-.45h.9c-.22.75-.82,1.2-1.57,1.2-.97,0-1.72-.67-1.72-1.72,0-.97.75-1.72,1.72-1.72h0Z"></path><path class="cls-1" d="m117.77,81.47c-.97,0-1.72-.75-1.72-1.72s.75-1.72,1.72-1.72,1.72.75,1.72,1.72c0,1.05-.75,1.72-1.72,1.72Zm0-.75c.52,0,.9-.37.9-.97s-.37-.97-.9-.97-.9.37-.9.97.37.97.9.97Z"></path><polygon class="cls-1" points="120.09 78.1 121.06 78.1 122.03 80.42 123.01 78.1 123.98 78.1 123.98 81.47 123.16 81.47 123.16 79.45 122.41 81.47 121.73 81.47 120.99 79.45 120.99 81.47 120.16 81.47 120.09 78.1 120.09 78.1"></polygon><path class="cls-1" d="m125.93,80.27h-.52v1.2h-.82v-3.37h1.35c.82,0,1.27.45,1.27,1.12,0,.52-.37,1.05-1.27,1.05h0Zm-.07-.67c.3,0,.45-.15.45-.45,0-.22-.15-.45-.45-.45h-.45v.82l.45.07h0Z"></path><path class="cls-1" d="m129.82,80.87h-1.27l-.22.6h-.9l1.2-3.37h.97l1.2,3.37h-.9l-.07-.6h0Zm-.6-1.87l-.45,1.27h.82l-.37-1.27Z"></path><polygon class="cls-1" points="134.38 78.1 134.38 81.47 133.56 81.47 132.21 79.37 132.21 81.47 131.39 81.47 131.39 78.1 132.21 78.1 133.56 80.2 133.56 78.1 134.38 78.1"></polygon><polygon class="cls-1" points="134.83 78.1 135.73 78.1 136.4 79.52 137.08 78.1 137.98 78.1 136.78 80.35 136.78 81.47 135.96 81.47 135.96 80.35 134.83 78.1 134.83 78.1"></polygon></g><path class="cls-1" d="m39.55,79.9h-10.4c-.07,0-.15-.07-.15-.15s.07-.15.15-.15h10.4c.07,0,.15.07.15.15s-.07.15-.15.15h0Z"></path><path class="cls-1" d="m150.85,79.9h-10.1c-.07,0-.15-.07-.15-.15s.07-.15.15-.15h10.1c.07,0,.15.07.15.15s-.07.15-.15.15Z"></path></svg> 