<?xml version="1.0" encoding="UTF-8"?> <svg xmlns="http://www.w3.org/2000/svg" id="Layer_1" viewBox="0 0 180 120"><defs><style>.cls-1{fill-rule:evenodd;}.cls-1,.cls-2{fill:#656565;}</style></defs><polygon class="cls-2" points="29.63 75.4 29.63 59.61 16.38 51.67 28.16 44.6 41.32 52.49 41.32 68.39 29.63 75.4 29.63 75.4"></polygon><polygon class="cls-2" points="15 68.39 15 54.25 19.39 56.87 19.39 65.65 26.7 70.03 26.7 75.4 15 68.38 15 68.39"></polygon><path class="cls-1" d="m62.05,50.19v16.03h6.18v2.98h-9.37v-19.01h3.18Zm17.28,5.74h3.08v13.27h-3.08v-1.39c-1.26,1.18-2.63,1.77-4.08,1.77-1.84,0-3.35-.67-4.56-1.99-1.19-1.35-1.78-3.05-1.78-5.07s.59-3.65,1.78-4.98c1.19-1.33,2.68-1.99,4.47-1.99,1.55,0,2.93.64,4.15,1.91v-1.54h0Zm-7.28,6.59c0,1.27.34,2.31,1.02,3.11.7.81,1.58,1.22,2.64,1.22,1.13,0,2.05-.39,2.75-1.17.7-.81,1.05-1.84,1.05-3.08s-.35-2.27-1.05-3.08c-.7-.79-1.61-1.19-2.73-1.19-1.05,0-1.94.4-2.64,1.2-.7.81-1.05,1.81-1.05,3h0Zm16.17-13.79v8.74c1.23-1.27,2.62-1.91,4.17-1.91,1.79,0,3.27.67,4.47,2,1.19,1.33,1.78,2.98,1.78,4.96s-.59,3.73-1.8,5.07c-1.19,1.33-2.7,1.99-4.51,1.99-1.54,0-2.91-.59-4.12-1.77v1.39h-3.06v-20.47h3.06Zm7.29,13.93c0-1.27-.35-2.31-1.03-3.11-.7-.81-1.57-1.23-2.63-1.23-1.13,0-2.05.39-2.75,1.19-.7.79-1.05,1.8-1.05,3.06s.35,2.32,1.03,3.09c.69.79,1.6,1.19,2.73,1.19,1.06,0,1.95-.39,2.64-1.19.71-.8,1.06-1.8,1.06-3h0Zm17.34.62h-9.51c.08,1.09.44,1.96,1.06,2.6.63.64,1.44.95,2.41.95.76,0,1.39-.18,1.89-.55.49-.37,1.05-1.03,1.67-2.02l2.59,1.45c-.4.69-.82,1.26-1.27,1.76-.45.48-.92.89-1.44,1.2s-1.06.54-1.65.69-1.23.22-1.92.22c-1.98,0-3.57-.64-4.77-1.91-1.2-1.28-1.8-2.98-1.8-5.09s.59-3.8,1.75-5.09c1.17-1.28,2.73-1.92,4.66-1.92s3.49.62,4.64,1.87c1.13,1.23,1.69,2.95,1.69,5.14v.72h0,0Zm-3.15-2.5c-.43-1.64-1.46-2.45-3.09-2.45-.38,0-.72.05-1.05.17s-.62.27-.9.49-.49.48-.69.77c-.19.3-.34.64-.44,1.02h6.17Zm8.44-12.06v20.47h-3.06v-20.47h3.06Zm5.83,0v8.74c1.23-1.27,2.62-1.91,4.17-1.91,1.79,0,3.27.67,4.47,2,1.19,1.33,1.78,2.98,1.78,4.96s-.59,3.73-1.8,5.07c-1.19,1.33-2.7,1.99-4.51,1.99-1.54,0-2.91-.59-4.12-1.77v1.39h-3.06v-20.47s3.06,0,3.06,0Zm7.29,13.93c0-1.27-.35-2.31-1.03-3.11-.7-.81-1.57-1.23-2.63-1.23-1.13,0-2.05.39-2.75,1.19-.7.79-1.05,1.8-1.05,3.06s.35,2.32,1.03,3.09c.69.79,1.6,1.19,2.73,1.19,1.06,0,1.95-.39,2.64-1.19.71-.8,1.06-1.8,1.06-3Zm4.63-.19c0-1.92.69-3.55,2.06-4.89,1.37-1.34,3.05-2.02,5.01-2.02s3.66.68,5.04,2.03c1.36,1.35,2.05,3.02,2.05,4.99s-.69,3.66-2.06,5c-1.38,1.34-3.07,2-5.09,2s-3.66-.69-5-2.05c-1.34-1.34-2.02-3.04-2.02-5.07h0Zm3.14.06c0,1.33.36,2.38,1.06,3.15.72.79,1.68,1.17,2.87,1.17s2.16-.38,2.87-1.16,1.08-1.8,1.08-3.09-.36-2.32-1.08-3.09c-.72-.79-1.68-1.17-2.87-1.17s-2.12.39-2.84,1.17-1.09,1.79-1.09,3.03h0Zm16.59-.5l-4.77-6.09h3.65l2.95,3.87,3.01-3.87h3.76l-4.9,6.09,5.68,7.18h-3.65l-3.9-4.96-4,4.96h-3.75l5.9-7.18h.02Z"></path></svg> 