<?xml version="1.0" encoding="UTF-8"?> <svg xmlns="http://www.w3.org/2000/svg" id="Layer_1" viewBox="0 0 180 120"><defs><style>.cls-1{fill:#656565;}</style></defs><polygon class="cls-1" points="105.4 45.72 105.4 44.6 103.27 44.6 105.4 45.72"></polygon><g><rect class="cls-1" x="72.01" y="75.63" width="1.81" height="2.36"></rect><polygon class="cls-1" points="98.77 78 99.95 78 108 69.94 107.99 68.77 98.77 78"></polygon><polygon class="cls-1" points="81.82 42.01 80.01 42 72.01 50.03 72.01 51.14 81.82 42.01"></polygon><path class="cls-1" d="m91.02,73.31h.01s-.01,0-.01,0h0Z"></path><path class="cls-1" d="m108,42.89c0-.71-.24-.89-.92-.89-8.77.02-17.53.02-26.3,0-.52,0-.9.16-1.27.52-2.3,2.33-4.62,4.64-6.95,6.94-.39.38-.56.77-.56,1.32.01,8.74.02,17.49,0,26.23,0,.39.21.78.21.78,0,0,.41.19.78.19,4.36-.03,8.71-.02,13.07-.02s8.77,0,13.15,0c.52,0,.9-.15,1.27-.52,2.32-2.35,4.66-4.68,7-7.01.35-.34.51-.7.51-1.19-.01-8.79-.02-17.58,0-26.37h.02Zm-29.11,25.57c.7.21,1.41.38,2.1.62,1.73.62,2.44,2.05,1.82,3.64-.46,1.18-1.45,1.69-2.62,1.92-.39.08-.8.07-1.2.1-1.24-.02-2.39-.3-3.44-.99-.04-.02-.08-.05-.1-.08-.03-.03-.07-.05-.09-.08l-.29-.25.25-.27s.05-.05.08-.08l1.16-1.25c.2.03.48.21.66.3.69.31,1.34.66,2.12.51.39-.07.74-.24.77-.7.03-.42-.24-.65-.6-.77-.52-.17-1.06-.31-1.59-.47-1.58-.46-2.29-1.26-2.29-2.6s.79-2.42,2.28-2.83c1.03-.28,2.15-.31,3.19-.03.75.2,1.52.53,2.06,1.11.01.01.02.02.03.03l-.99.93c-.1.13-.21.23-.33.31l-.41.38c-.63-.4-1.29-.92-2.09-.82-.43.05-.98.26-.97.77,0,.33.23.51.51.59h0Zm2.61-12.56c-.35-.3-.73-.6-1.16-.8-.54-.26-1.94-.26-1.96.59-.02.75,1.18.82,1.71.98.27.08.53.13.8.23,1.39.48,2.14,1.4,2.13,2.61-.01,1.36-.85,2.43-2.27,2.86-.58.17-1.18.26-1.79.23-.78-.04-1.6-.09-2.31-.43-.55-.27-1.02-.55-1.51-1.04.49-.56.98-1.11,1.47-1.67.01-.01.06-.09.08-.09.05,0,.22.17.27.21.11.08.21.17.33.25.2.15.41.28.63.39.45.2.98.31,1.46.18.35-.09.67-.24.71-.67.03-.42-.22-.66-.58-.78-.5-.17-1.01-.31-1.52-.45-1.63-.45-2.37-1.27-2.37-2.61,0-1.4.81-2.42,2.33-2.86,1.26-.36,2.46-.29,3.62.15.01,0,.02,0,.03.01.56.23,1.08.55,1.61.84l-1.71,1.88h0Zm4.85-7.52c.95,0,1.7.72,1.7,1.64,0,.92-.72,1.64-1.68,1.65-.97.02-1.78-.74-1.76-1.67.02-.88.81-1.63,1.74-1.63h0Zm1.52,4.69v9.22h-3.02v-9.22h3.02Zm6.07,21.4h-.49c-.1.02-.23.02-.38,0h-.83c-.23,0-.48.02-.69,0h-.56v-.52c-.01-.09-.01-.2,0-.33v-.28c-.9.92-1.79,1.36-2.9,1.34-1.75-.03-3.07-1.17-3.17-3-.06-1.02-.07-2.03-.06-3.05v-3.43h3.02v2.22c0,1.01-.01,2.01,0,3.02.02,1.11.46,1.69,1.27,1.75.88.06,1.63-.58,1.71-1.65.06-.91.05-1.83.05-2.75h0v-2.6h3.01v.52c0,.13,0,.31,0,.53v1.55h0c0,1.83-.01,3.66.01,5.5h0v1.16h0Z"></path></g></svg> 