<?xml version="1.0" encoding="UTF-8"?> <svg xmlns="http://www.w3.org/2000/svg" id="Layer_1" viewBox="0 0 180 120"><defs><style>.cls-1{fill:#3a7af3;}</style></defs><path id="Shape" class="cls-1" d="m26.83,56.8s-1.2-.12-1.2.94v4.73h7.87v1.42s.02.7-.72.7h-7.15v6.14h8.59s5.21-.79,5.26-6.14v-7.78h-12.65Zm12.41-7.54h-15.5c-5.62,1.32-5.74,5.93-5.74,5.93v15.55h5.95v-14.16c0-1.2,1.2-1.42,1.2-1.42h14.06l.02-5.9h0Zm20.47,17.02c-.41.26-.72.48-.94.6-.77.48-1.49.84-2.16,1.13-.98.41-1.85.6-2.64.6-2.69,0-4.92-.82-6.7-2.47-1.8-1.66-2.69-3.74-2.69-6.24s.79-4.51,2.42-6.31c1.61-1.78,3.58-2.66,5.88-2.66.96,0,1.99.17,3.05.5,1.39.43,2.5,1.1,3.41,1.94l-1.54,1.7c-.65-.65-1.51-1.1-2.5-1.39-.74-.22-1.56-.34-2.47-.34-1.61,0-2.98.65-4.08,1.94-1.08,1.32-1.63,2.86-1.63,4.68s.62,3.29,1.87,4.46c1.25,1.18,2.83,1.78,4.75,1.78.79,0,1.61-.26,2.45-.74.7-.53,1.06-.79,1.06-.79v-3.74h-5.21l.74-2.33h6.91s0,7.68,0,7.68Zm15.67-4.56c0,1.8-.65,3.36-1.92,4.68s-2.86,1.99-4.75,1.99c-1.75,0-3.26-.65-4.58-1.94s-1.97-2.86-1.97-4.7.62-3.38,1.87-4.73c1.25-1.34,2.78-1.99,4.56-1.99,1.99,0,3.6.65,4.87,1.92,1.27,1.25,1.92,2.86,1.92,4.78Zm-2.42.05c0-1.22-.41-2.26-1.22-3.1-.82-.86-1.82-1.27-3.05-1.27-1.13,0-2.09.43-2.9,1.32-.79.86-1.2,1.87-1.2,3s.41,2.18,1.2,3.02,1.8,1.27,3,1.27c1.13,0,2.09-.41,2.9-1.25.86-.86,1.27-1.87,1.27-3h0Zm17.9-.05c0,1.8-.65,3.36-1.92,4.68s-2.86,1.99-4.75,1.99c-1.75,0-3.26-.65-4.58-1.94s-1.97-2.86-1.97-4.7.62-3.38,1.87-4.73c1.25-1.34,2.78-1.99,4.56-1.99,1.99,0,3.6.65,4.87,1.92,1.27,1.25,1.92,2.86,1.92,4.78Zm-2.45.05c0-1.22-.41-2.26-1.22-3.1-.82-.86-1.82-1.27-3.05-1.27-1.13,0-2.09.43-2.9,1.32-.79.86-1.2,1.87-1.2,3s.41,2.18,1.2,3.02,1.8,1.27,3,1.27c1.13,0,2.09-.41,2.9-1.25.86-.86,1.27-1.87,1.27-3h0Zm16.75,6.26l-2.23.34v-2.16l-.48.55c-.43.41-.91.72-1.42.98-.77.36-1.58.53-2.42.53-1.75,0-3.24-.65-4.44-1.92s-1.82-2.83-1.82-4.61.6-3.43,1.8-4.73c1.2-1.32,2.64-1.97,4.39-1.97,1.01,0,1.87.17,2.59.48.53.24.96.55,1.34.94.12.17.24.34.38.5v-5.69l2.38-.34-.07,17.09Zm-2.09-6.14c0-1.27-.43-2.35-1.3-3.22-.86-.89-1.85-1.32-2.98-1.32-1.25,0-2.23.41-3,1.25-.72.79-1.08,1.78-1.08,2.93,0,1.3.38,2.38,1.13,3.22.74.84,1.68,1.25,2.86,1.25s2.14-.38,3.02-1.18c.89-.79,1.34-1.78,1.34-2.93h0Zm14.66-8.26h-6.67v4.54h5.18v2.33h-5.18v7.51l-2.59.38v-17.11h8.76l.5,2.35Zm5.35-1.32l-1.61,2.02-1.54-2.02,1.61-1.99,1.54,1.99Zm-.48,15.72l-2.38.34v-12.67l2.38-.36v12.7h0Zm10.75-12.84l-1.13,2.59c-.14-.02-.29-.02-.46-.02-.24,0-.46.02-.7.05s-.48.12-.74.26c-.5.22-.94.7-1.3,1.39-.41.82-.62,1.7-.62,2.62v5.93l-2.38.38v-12.7l2.21-.41v2.64c.29-.46.58-.91.86-1.39.41-.48.89-.82,1.42-1.03.29-.12.79-.19,1.58-.26.77-.05,1.2-.07,1.25-.05Zm17.76,12.84l-2.38.34v-8.69c0-.79-.17-1.39-.53-1.75s-.89-.55-1.58-.55c-.84,0-1.46.34-1.9,1.03-.29.48-.46.98-.46,1.49v8.09l-2.38.43v-8.71c0-.77-.17-1.34-.53-1.75-.36-.41-.82-.6-1.42-.6h-.24c-.84,0-1.44.34-1.82,1.06-.29.53-.43,1.2-.43,2.02v7.54l-2.47.43v-12.74l2.23-.38v1.63c.24-.38.5-.7.72-.91.65-.6,1.39-.89,2.23-.89.94,0,1.63.14,2.11.46.41.26.79.77,1.2,1.49.82-1.3,1.97-1.94,3.5-1.94s2.54.46,3.26,1.39c.58.77.86,1.9.86,3.36v8.18Zm10.87-3.84c0,1.18-.41,2.14-1.22,2.88-.82.77-1.85,1.13-3.1,1.13-.94,0-1.78-.22-2.54-.65-.77-.43-1.34-.94-1.7-1.51l1.68-1.49c.12.19.24.34.34.43.62.65,1.37.96,2.23.96.6,0,1.08-.17,1.42-.48.36-.31.53-.74.53-1.32,0-.65-.41-1.08-1.22-1.32-1.61-.48-2.5-.77-2.62-.82-.74-.38-1.27-.79-1.61-1.25-.38-.53-.58-1.22-.58-2.11,0-1.1.41-1.99,1.2-2.74.79-.72,1.75-1.08,2.86-1.08.84,0,1.61.19,2.33.58s1.22.79,1.54,1.25l-1.42,1.54c-.22-.22-.46-.41-.7-.58-.58-.41-1.13-.6-1.63-.6s-.91.12-1.22.34c-.38.26-.58.67-.58,1.2s.17.89.55,1.13c.31.19.98.41,2.06.65,1.06.26,1.9.7,2.47,1.32.67.67.94,1.49.94,2.54Z"></path></svg> 