<?xml version="1.0" encoding="UTF-8"?> <svg xmlns="http://www.w3.org/2000/svg" id="Layer_1" viewBox="0 0 180 120"><defs><style>.cls-1{fill:#ec1c27;}.cls-2{fill:none;}</style></defs><path d="m94.24,64.95c-.02.49.06,1.11-.05,1.72-.3,1.73-1.39,2.79-2.99,3.37-1.51.55-3.07.66-4.67.57-1.11-.06-2.2-.23-3.24-.66-1.93-.79-2.85-2.17-2.86-4.25,0-.52,0-1.03,0-1.55,0-.68.2-.88.86-.88.74,0,1.48,0,2.22,0,.59,0,.8.2.84.79.02.44,0,.89.01,1.33.02.9.42,1.49,1.28,1.75,1.14.34,2.3.36,3.44-.04.83-.29,1.19-.83,1.21-1.71,0-.07,0-.15,0-.22,0-1.56-.22-1.93-1.69-2.51-1.56-.62-3.14-1.2-4.72-1.79-2.11-.79-3.07-2.15-3.07-4.4,0-.72-.03-1.45.11-2.16.32-1.65,1.36-2.68,2.89-3.24,1.59-.58,3.24-.62,4.9-.49,1.17.09,2.31.35,3.33.96,1.36.81,2.01,2.03,2.08,3.59.02.44.01.89,0,1.33-.02.52-.26.75-.78.76-.8,0-1.6,0-2.39,0-.52,0-.72-.2-.75-.72-.02-.37,0-.73-.06-1.1-.13-.75-.57-1.22-1.29-1.43-.96-.28-1.93-.28-2.88,0-.84.25-1.28.85-1.31,1.74-.04,1.15.22,1.65,1.15,2,1.65.61,3.31,1.19,4.96,1.77.79.28,1.52.65,2.15,1.21.83.73,1.27,1.65,1.31,2.76.01.46,0,.91,0,1.5Z"></path><path d="m99.67,57.32c.3-.19.53-.35.76-.5,1.57-.96,3.26-1.28,5.06-.94,1.76.33,2.87,1.64,2.91,3.56.05,2.45.06,4.9,0,7.35-.05,2.34-1.57,3.76-3.9,3.81-.79.02-1.56-.05-2.32-.26-.51-.14-.69-.35-.69-.88,0-.55-.01-1.09,0-1.64.02-.57.26-.75.83-.66.06,0,.12.02.18.02,1.23.09,2.09.04,2.03-1.79-.06-1.61,0-3.22-.01-4.82,0-.99-.41-1.39-1.39-1.42-1.22-.03-2.23.5-3.18,1.17-.21.15-.18.35-.18.56,0,2.27,0,4.54,0,6.82,0,2.52,0,5.05,0,7.57,0,.76-.15.91-.9.91-.69,0-1.39,0-2.08,0-.72,0-.88-.17-.88-.89,0-5,0-10,0-15.01,0-1.15,0-2.3,0-3.45,0-.61.2-.83.82-.85.65-.02,1.3-.01,1.95,0,.77,0,.95.19,1,.97,0,.1.02.2.03.39Z"></path><path d="m123.53,60.57c0-2.94,0-5.87,0-8.81,0-.85.18-1.03,1.04-1.03,3.31,0,6.62,0,9.92,0,.95,0,1.12.17,1.12,1.1,0,.4,0,.8,0,1.19,0,.87-.21,1.08-1.07,1.08-1.9,0-3.81,0-5.71,0-.3,0-.59,0-.89,0-.28-.01-.4.1-.4.39,0,1.24.01,2.48,0,3.72,0,.4.24.4.52.4,1.89,0,3.78,0,5.67,0,.15,0,.3,0,.44,0,.74.03.91.2.91.93,0,.53,0,1.06,0,1.59,0,.7-.16.87-.86.87-2.02,0-4.05,0-6.07,0q-.62,0-.62.64c0,2.27,0,4.54,0,6.82,0,.79-.19,1-.99,1.01-.71.01-1.42.02-2.13,0-.72-.03-.9-.23-.9-.96,0-2.98,0-5.96,0-8.94Z"></path><path d="m114.11,76.17c-.27,0-.53,0-.8,0-.67-.01-.89-.29-.71-.93.37-1.29.74-2.58,1.15-3.86,1.56-4.89,3.14-9.77,4.71-14.65.2-.63.39-.77,1.06-.77.61,0,1.21-.01,1.82,0,.81.02,1.04.35.79,1.09-2.08,6.13-4.17,12.26-6.26,18.38-.2.58-.4.73-1,.73-.25,0-.5,0-.75,0Z"></path><path d="m140.68,61.47c0,1.47,0,2.95,0,4.42,0,.92.37,1.29,1.29,1.31.29,0,.59-.01.88-.02.33-.01.54.15.59.48.11.7.09,1.41.01,2.11-.03.3-.25.48-.51.55-1.54.43-3.07.48-4.49-.37-1.17-.7-1.67-1.82-1.68-3.13-.03-3.33-.01-6.66,0-10,0-.62.23-.85.86-.86.71-.02,1.42-.02,2.12,0,.7.02.92.25.93.95.01,1.52,0,3.04,0,4.56h0Z"></path><path d="m149.17,63.27c0,2.02,0,4.04,0,6.06,0,.92-.16,1.08-1.08,1.08-.63,0-1.27,0-1.9,0-.51,0-.71-.17-.76-.67-.12-1.29-.18-2.59-.18-3.88,0-2.96,0-5.93,0-8.89,0-.82.17-.99.98-1,.61,0,1.21,0,1.82,0,.92,0,1.13.21,1.13,1.12,0,2.06,0,4.13,0,6.19Z"></path><path d="m110.99,55.94c.38,0,.77,0,1.15,0,.4,0,.69.17.82.55.57,1.74,1.13,3.48,1.7,5.21.08.24.01.47-.05.7-.46,1.52-.93,3.05-1.39,4.57-.04.14-.08.31-.27.29-.21-.02-.27-.2-.33-.37-.53-1.55-1.07-3.09-1.61-4.64-.6-1.73-1.2-3.45-1.79-5.18-.29-.84-.08-1.12.8-1.13.32,0,.65,0,.97,0h0Z"></path><path class="cls-2" d="m59.06,64.1s-.02-.04-.03-.07c-3.34,1-6.68,1.99-10.1,3.02,1.14.1,2.19.17,3.22.3.9.11,1.72.05,2.44-.56.16-.13.35-.22.53-.32,1.31-.79,2.62-1.58,3.94-2.37Z"></path><path d="m73.43,59.32c-1.23-7.23-5.33-12.41-12.03-15.47-1.71-.78-3.5-1.25-5.35-1.49-.48-.06-.97-.12-1.46-.15-.04,0-.06,0-.1,0l.16,1.91c.31,0,.63.05.94.09.26.04.52.08.78.12,3.9.68,7.33,2.34,10.07,5.27,5.22,5.58,6.69,12.06,4.16,19.31-1.06,3.03-2.96,5.52-5.44,7.57-.22.18-.4.33-.66.02-.99-1.21-2-2.4-3.02-3.59-.21-.25-.22-.48-.13-.77.39-1.21.76-2.42,1.15-3.63.1-.32.07-.47-.33-.39-1.23.24-2.47.46-3.7.69-1,.19-2,.38-3,.56-.22.04-.49.13-.63-.15-.17-.33.12-1.37.42-1.6,1.81-1.33,3.61-2.67,5.42-3.99.31-.22.41-.43.3-.81-.88-2.93-1.68-5.88-3.35-8.49-.19-.3-.09-.46.27-.48.54-.03,1.09-.06,1.64-.09,2.18-.1,4.36-.19,6.55-.29.21,0,.42-.05.68-.09-.2-.24-.42-.3-.61-.39-3.87-1.88-7.73-3.75-11.6-5.62-.31-.15-.46-.33-.49-.7-.15-1.73-.33-3.46-.5-5.19-.05-.54-.07-.56-.59-.41-4.59,1.29-9.18,2.59-13.77,3.88-.32.09-.43.22-.34.56.29,1.11.52,2.24.82,3.35.11.43.06.71-.34.96-.55.35-1.05.76-1.58,1.14-.85.62-1.68,1.25-2.54,1.85-.29.21-.42.49-.35.79.06.26.39.18.61.22.06.01.12,0,.18,0,1.69.16,3.38.32,5.07.46.49.04.69.24.81.73,1.02,4.29,2.07,8.57,3.11,12.86.05.23.22.53.08.67-.18.17-.47-.04-.69-.13-2.29-.86-4.59-1.73-6.88-2.59-.45-.17-.53-.12-.47.35.07.63.15,1.26.22,1.89.11.98.21,1.96.31,2.93-2.01-3.59-2.72-7.41-2.15-11.45.23-1.67.76-3.24,1.46-4.76,0-.02.01-.03.02-.05l-2.01-.25s-.01.03-.02.04c-.37.87-.69,1.76-.94,2.67-.77,2.74-.94,5.52-.5,8.33.77,4.95,3.01,9.14,6.81,12.43,4.53,3.92,9.83,5.56,15.77,4.89,5.02-.56,9.3-2.73,12.7-6.48,4.41-4.86,6.19-10.6,5.09-17.06Zm-21.28,8.03c-1.04-.13-2.08-.2-3.22-.3,3.43-1.02,6.76-2.02,10.1-3.02,0,.02.02.04.03.07-1.31.79-2.62,1.58-3.94,2.37-.18.11-.37.19-.53.32-.72.61-1.55.67-2.44.56Z"></path><polygon class="cls-1" points="49.31 71.31 54 71.65 58.26 80.05 56.43 80.45 49.31 71.31"></polygon></svg> 