<?xml version="1.0" encoding="UTF-8"?> <svg xmlns="http://www.w3.org/2000/svg" id="Layer_1" viewBox="0 0 180 120"><defs><style>.cls-1{fill:#ff7a59;}.cls-2{fill:#33475b;}</style></defs><path class="cls-2" d="m43.09,48.64v9.58h-8.8v-9.58h-4.17v22.86h4.17v-9.26h8.79v9.26h4.18v-22.86h-4.17Zm17.54,15.47c0,1.91-1.55,3.45-3.45,3.45s-3.45-1.55-3.45-3.45v-9.79h-3.96v9.79c0,4.09,3.32,7.41,7.41,7.4,4.09,0,7.4-3.32,7.4-7.4v-9.79h-3.95v9.79Zm29.34-8.78c0-2.01,1.33-2.64,2.78-2.64,1.17,0,2.72.89,3.73,1.97l2.59-3.06c-1.29-1.75-3.92-2.96-6.07-2.96-4.3,0-7.4,2.52-7.4,6.69,0,7.74,9.46,5.28,9.46,9.62,0,1.34-1.3,2.52-2.78,2.52-2.34,0-3.1-1.14-4.18-2.36l-2.88,2.99c1.84,2.26,4.11,3.41,6.83,3.41,4.08,0,7.37-2.55,7.37-6.53,0-8.59-9.46-5.92-9.46-9.65m58.53,12.52c-2.34,0-3.01-1.01-3.01-2.56v-6.86h3.64v-3.48h-3.64v-4.59l-4.02,1.8v13.98c0,3.58,2.47,5.38,5.85,5.38.53,0,1.06-.03,1.58-.13l.98-3.61c-.44.03-.95.06-1.39.06m-72.79-13.41c-1.96,0-3.33.57-4.66,1.87v-7.52h-3.97v13.95c0,5.22,3.77,8.8,8.02,8.8,4.7,0,8.84-3.64,8.84-8.54s-3.81-8.54-8.24-8.54m-.02,13.09c-2.49,0-4.5-2.02-4.5-4.5s2.02-4.5,4.5-4.5,4.5,2.02,4.5,4.5-2.02,4.5-4.5,4.5h0m43.09-4.76c0-4.91-4.13-8.54-8.84-8.54-4.24,0-8.02,3.58-8.02,8.8v13.95h3.97v-7.53c1.32,1.3,2.69,1.87,4.65,1.87,4.43,0,8.24-3.7,8.24-8.54m-3.75-.05c0,2.49-2.02,4.5-4.5,4.5s-4.5-2.02-4.5-4.5h0c0-2.49,2.02-4.5,4.5-4.5s4.5,2.02,4.5,4.5"></path><path class="cls-1" d="m131.59,54.04v-3.99c1.07-.5,1.76-1.58,1.77-2.77v-.09c0-1.69-1.37-3.07-3.07-3.07h-.09c-1.69,0-3.07,1.37-3.07,3.07h0v.09c0,1.19.69,2.26,1.77,2.77v3.99c-1.51.23-2.94.86-4.13,1.82l-10.93-8.51c.08-.28.12-.57.12-.86,0-1.91-1.54-3.46-3.45-3.46-1.91,0-3.46,1.54-3.46,3.45s1.54,3.46,3.45,3.46c0,0,0,0,0,0,.6,0,1.19-.16,1.7-.46l10.76,8.37c-1.98,2.99-1.93,6.88.13,9.82l-3.27,3.27c-.26-.08-.54-.13-.82-.13-1.57,0-2.84,1.27-2.84,2.84,0,1.57,1.27,2.84,2.84,2.84,1.57,0,2.84-1.27,2.84-2.84,0-.28-.05-.55-.13-.82l3.24-3.24c3.82,2.94,9.3,2.23,12.25-1.59,2.94-3.82,2.23-9.3-1.59-12.25-1.17-.9-2.55-1.49-4.02-1.71m-1.34,13.11c-2.47.07-4.53-1.88-4.6-4.35-.07-2.47,1.88-4.53,4.35-4.6.08,0,.16,0,.25,0,2.47.09,4.41,2.16,4.32,4.63-.08,2.35-1.97,4.24-4.32,4.32"></path></svg> 