<?xml version="1.0" encoding="UTF-8"?> <svg xmlns="http://www.w3.org/2000/svg" xmlns:xlink="http://www.w3.org/1999/xlink" id="Layer_1" viewBox="0 0 180 120"><defs><style>.cls-1{fill:#262626;}.cls-2{fill:#fff;}.cls-3{fill:url(#radial-gradient);}.cls-4{fill:url(#radial-gradient-2);}</style><radialGradient id="radial-gradient" cx="-2792.27" cy="-1597.45" fx="-2792.27" fy="-1597.45" r="16.82" gradientTransform="translate(-2911.15 -5454.81) rotate(-90) scale(1.98 -1.84)" gradientUnits="userSpaceOnUse"><stop offset="0" stop-color="#fd5"></stop><stop offset=".1" stop-color="#fd5"></stop><stop offset=".5" stop-color="#ff543e"></stop><stop offset="1" stop-color="#c837ab"></stop></radialGradient><radialGradient id="radial-gradient-2" cx="-880.75" cy="548.91" fx="-880.75" fy="548.91" r="16.82" gradientTransform="translate(-1793.11 1204.39) rotate(78.68) scale(.89 -3.65)" gradientUnits="userSpaceOnUse"><stop offset="0" stop-color="#3771c8"></stop><stop offset=".13" stop-color="#3771c8"></stop><stop offset="1" stop-color="#60f" stop-opacity="0"></stop></radialGradient></defs><path class="cls-3" d="m42.27,43.18c-7.03,0-9.08,0-9.48.04-1.44.12-2.34.35-3.32.83-.75.37-1.35.81-1.93,1.42-1.07,1.11-1.71,2.47-1.95,4.09-.11.79-.15.95-.15,4.97,0,1.34,0,3.1,0,5.47,0,7.02,0,9.07.04,9.47.12,1.4.34,2.29.8,3.25.89,1.85,2.59,3.24,4.59,3.75.69.18,1.46.28,2.44.32.42.02,4.66.03,8.91.03s8.5,0,8.91-.03c1.14-.05,1.8-.14,2.53-.33,2.02-.52,3.69-1.89,4.59-3.76.46-.94.69-1.86.79-3.19.02-.29.03-4.91.03-9.53s-.01-9.23-.03-9.52c-.11-1.35-.34-2.26-.81-3.22-.39-.79-.82-1.37-1.44-1.97-1.11-1.06-2.47-1.71-4.1-1.94-.79-.11-.94-.15-4.97-.15h-5.48Z"></path><path class="cls-4" d="m42.27,43.18c-7.03,0-9.08,0-9.48.04-1.44.12-2.34.35-3.32.83-.75.37-1.35.81-1.93,1.42-1.07,1.11-1.71,2.47-1.95,4.09-.11.79-.15.95-.15,4.97,0,1.34,0,3.1,0,5.47,0,7.02,0,9.07.04,9.47.12,1.4.34,2.29.8,3.25.89,1.85,2.59,3.24,4.59,3.75.69.18,1.46.28,2.44.32.42.02,4.66.03,8.91.03s8.5,0,8.91-.03c1.14-.05,1.8-.14,2.53-.33,2.02-.52,3.69-1.89,4.59-3.76.46-.94.69-1.86.79-3.19.02-.29.03-4.91.03-9.53s-.01-9.23-.03-9.52c-.11-1.35-.34-2.26-.81-3.22-.39-.79-.82-1.37-1.44-1.97-1.11-1.06-2.47-1.71-4.1-1.94-.79-.11-.94-.15-4.97-.15h-5.48Z"></path><path class="cls-2" d="m42.26,47.58c-3.37,0-3.8.01-5.12.08-1.32.06-2.23.27-3.02.58-.82.32-1.51.74-2.2,1.43-.69.69-1.12,1.38-1.43,2.2-.31.79-.52,1.69-.58,3.02-.06,1.33-.07,1.75-.07,5.12s.02,3.8.08,5.12c.06,1.32.27,2.23.58,3.02.32.82.74,1.51,1.43,2.2.69.69,1.38,1.12,2.2,1.43.79.31,1.69.52,3.02.58,1.33.06,1.75.08,5.12.08s3.8-.01,5.12-.08c1.32-.06,2.23-.27,3.02-.58.82-.32,1.51-.74,2.2-1.43.69-.69,1.12-1.38,1.43-2.2.31-.79.52-1.69.58-3.02.06-1.33.08-1.75.08-5.12s-.02-3.8-.08-5.12c-.06-1.32-.27-2.23-.58-3.02-.32-.82-.74-1.51-1.43-2.2-.69-.69-1.38-1.12-2.2-1.43-.79-.31-1.7-.52-3.02-.58-1.33-.06-1.75-.08-5.12-.08h0Zm-1.11,2.24c.33,0,.7,0,1.11,0,3.32,0,3.71.01,5.02.07,1.21.06,1.87.26,2.31.43.58.23.99.49,1.43.93.43.43.7.85.93,1.43.17.44.37,1.09.43,2.31.06,1.31.07,1.7.07,5.02s-.01,3.71-.07,5.02c-.06,1.21-.26,1.87-.43,2.31-.23.58-.49.99-.93,1.43-.43.43-.85.7-1.43.93-.44.17-1.1.37-2.31.43-1.31.06-1.7.07-5.02.07s-3.71-.01-5.02-.07c-1.21-.06-1.87-.26-2.31-.43-.58-.23-.99-.49-1.43-.93-.43-.43-.7-.85-.93-1.43-.17-.44-.37-1.09-.43-2.31-.06-1.31-.07-1.7-.07-5.02s.01-3.71.07-5.02c.06-1.21.26-1.87.43-2.31.23-.58.49-.99.93-1.43.43-.43.85-.7,1.43-.93.44-.17,1.1-.37,2.31-.43,1.15-.05,1.59-.07,3.91-.07h0Zm7.75,2.07c-.82,0-1.49.67-1.49,1.49s.67,1.49,1.49,1.49,1.49-.67,1.49-1.49-.67-1.49-1.49-1.49h0Zm-6.63,1.74c-3.52,0-6.38,2.86-6.38,6.38s2.86,6.38,6.38,6.38c3.52,0,6.38-2.86,6.38-6.38s-2.86-6.38-6.38-6.38h0Zm0,2.24c2.29,0,4.14,1.85,4.14,4.14s-1.85,4.14-4.14,4.14-4.14-1.85-4.14-4.14,1.85-4.14,4.14-4.14Z"></path><path class="cls-1" d="m69.62,49.55c-1.83.77-3.85,2.93-4.48,5.66-.81,3.45,2.55,4.9,2.82,4.43.32-.56-.6-.75-.79-2.54-.25-2.31.83-4.89,2.18-6.02.25-.21.24.08.24.62,0,.97-.05,9.67-.05,11.48,0,2.46-.1,3.23-.28,4-.18.78-.48,1.3-.26,1.5.25.23,1.32-.31,1.94-1.18.74-1.04,1.01-2.29,1.05-3.64.06-1.63.05-4.23.06-5.71,0-1.36.02-5.33-.02-7.72-.01-.59-1.64-1.2-2.4-.88m65.09,11.49c-.06,1.28-.34,2.27-.69,2.98-.68,1.36-2.09,1.79-2.69-.17-.33-1.07-.34-2.85-.11-4.34.24-1.52.9-2.66,2.01-2.56,1.09.1,1.6,1.5,1.48,4.1h0Zm-18.34,7.92c-.01,2.12-.35,3.98-1.06,4.52-1.02.77-2.38.19-2.1-1.36.25-1.37,1.43-2.77,3.17-4.48,0,0,0,.39,0,1.31h0Zm-.28-7.93c-.06,1.16-.36,2.33-.69,2.99-.68,1.36-2.1,1.79-2.69-.17-.4-1.34-.31-3.08-.11-4.17.26-1.42.88-2.73,2.01-2.73s1.63,1.2,1.48,4.08h0Zm-10.63-.02c-.07,1.23-.31,2.26-.69,3.01-.7,1.35-2.08,1.78-2.69-.17-.44-1.41-.29-3.33-.11-4.37.27-1.54.95-2.63,2.01-2.53,1.09.11,1.62,1.5,1.48,4.07h0Zm48.7,1.44c-.27,0-.39.27-.49.74-.35,1.6-.71,1.97-1.19,1.97-.53,0-1-.79-1.12-2.38-.1-1.25-.08-3.55.04-5.84.03-.47-.1-.94-1.37-1.39-.54-.2-1.33-.49-1.73.46-1.11,2.68-1.54,4.81-1.65,5.67,0,.04-.06.05-.07-.05-.07-.69-.21-1.95-.23-4.59,0-.52-.11-.95-.68-1.31-.37-.23-1.49-.65-1.89-.15-.35.4-.76,1.48-1.18,2.76-.34,1.04-.58,1.74-.58,1.74,0,0,0-2.81,0-3.87,0-.4-.27-.54-.36-.56-.37-.11-1.11-.29-1.42-.29-.39,0-.48.22-.48.53,0,.04-.06,3.7-.06,6.25,0,.11,0,.23,0,.36-.21,1.17-.91,2.77-1.66,2.77s-1.11-.67-1.11-3.71c0-1.78.05-2.55.08-3.84.02-.74.04-1.31.04-1.44,0-.4-.69-.6-1.01-.67-.32-.07-.6-.1-.81-.09-.31.02-.52.22-.52.5,0,.15,0,.43,0,.43-.4-.62-1.03-1.05-1.46-1.18-1.14-.34-2.33-.04-3.23,1.22-.71,1-1.14,2.13-1.31,3.75-.12,1.19-.08,2.39.14,3.41-.27,1.15-.76,1.62-1.3,1.62-.78,0-1.35-1.28-1.29-3.49.04-1.46.33-2.48.65-3.96.14-.63.03-.96-.25-1.28-.25-.29-.79-.44-1.57-.26-.55.13-1.35.27-2.07.38,0,0,.04-.17.08-.48.19-1.61-1.56-1.48-2.12-.97-.33.31-.56.67-.65,1.32-.14,1.03.71,1.52.71,1.52-.28,1.27-.96,2.92-1.66,4.12-.38.64-.66,1.12-1.03,1.62,0-.19,0-.38,0-.56,0-2.66.03-4.76.04-5.52.02-.74.04-1.29.04-1.42,0-.29-.17-.4-.52-.54-.31-.12-.68-.21-1.06-.24-.48-.04-.77.22-.76.52,0,.06,0,.41,0,.41-.4-.62-1.03-1.05-1.46-1.18-1.14-.34-2.33-.04-3.23,1.22-.71,1-1.18,2.4-1.31,3.74-.12,1.25-.1,2.31.07,3.21-.18.9-.7,1.83-1.29,1.83-.75,0-1.18-.67-1.18-3.71,0-1.78.05-2.55.08-3.84.02-.74.04-1.31.04-1.44,0-.4-.69-.6-1.01-.67-.33-.08-.62-.11-.84-.09-.29.02-.5.28-.5.48v.45c-.4-.62-1.03-1.05-1.46-1.18-1.14-.34-2.32-.03-3.23,1.22-.59.82-1.07,1.72-1.31,3.72-.07.58-.1,1.12-.1,1.63-.24,1.44-1.27,3.1-2.12,3.1-.5,0-.97-.96-.97-3.02,0-2.74.17-6.63.2-7.01,0,0,1.07-.02,1.28-.02.54,0,1.02,0,1.73-.03.36-.02.7-1.3.33-1.46-.17-.07-1.35-.13-1.82-.14-.39,0-1.49-.09-1.49-.09,0,0,.1-2.59.12-2.86.02-.23-.28-.35-.44-.42-.41-.17-.78-.26-1.21-.35-.6-.12-.88,0-.93.51-.08.77-.12,3.03-.12,3.03-.44,0-1.95-.09-2.39-.09-.41,0-.85,1.77-.29,1.79.65.03,1.79.05,2.55.07,0,0-.03,3.96-.03,5.18,0,.13,0,.26,0,.38-.42,2.16-1.88,3.33-1.88,3.33.31-1.43-.33-2.51-1.48-3.42-.43-.34-1.27-.97-2.21-1.67,0,0,.54-.54,1.03-1.62.34-.77.36-1.64-.48-1.83-1.39-.32-2.53.7-2.87,1.79-.26.84-.12,1.47.39,2.12.04.05.08.1.12.14-.31.6-.74,1.42-1.11,2.05-1.01,1.75-1.78,3.14-2.35,3.14-.46,0-.46-1.41-.46-2.72,0-1.13.08-2.84.15-4.61.02-.58-.27-.92-.76-1.22-.3-.18-.93-.54-1.3-.54-.55,0-2.14.07-3.64,4.42-.19.55-.56,1.54-.56,1.54l.03-5.22c0-.12-.07-.24-.21-.32-.25-.14-.93-.42-1.53-.42-.29,0-.43.13-.43.4l-.05,8.17c0,.62.02,1.34.08,1.66.06.32.16.57.28.73.12.15.26.27.5.32.22.04,1.41.2,1.47-.26.07-.55.08-1.13.7-3.33.97-3.42,2.24-5.09,2.84-5.69.1-.1.22-.11.22.06-.03.75-.12,2.63-.18,4.22-.16,4.26.61,5.05,1.72,5.05.85,0,2.04-.84,3.33-2.98.8-1.33,1.57-2.63,2.13-3.57.39.36.82.75,1.26,1.16,1.01.96,1.34,1.87,1.12,2.74-.17.66-.8,1.34-1.93.68-.33-.19-.47-.34-.8-.56-.18-.12-.45-.15-.61-.03-.42.32-.67.73-.8,1.23-.13.49.36.75.86.97.44.19,1.38.37,1.98.39,2.33.08,4.2-1.13,5.51-4.24.23,2.68,1.22,4.2,2.95,4.2,1.15,0,2.31-1.49,2.81-2.95.15.6.36,1.12.64,1.56,1.33,2.1,3.9,1.65,5.2-.14.4-.55.46-.75.46-.75.19,1.69,1.55,2.28,2.32,2.28.87,0,1.77-.41,2.4-1.83.07.15.15.3.24.44,1.33,2.1,3.9,1.65,5.2-.14.06-.08.11-.16.16-.23l.04,1.11s-.74.68-1.19,1.09c-1.99,1.83-3.51,3.22-3.62,4.83-.14,2.06,1.53,2.83,2.79,2.93,1.34.11,2.49-.64,3.2-1.67.62-.91,1.03-2.88,1-4.82-.01-.78-.03-1.77-.05-2.83.7-.81,1.49-1.84,2.22-3.05.79-1.31,1.64-3.07,2.08-4.45,0,0,.74,0,1.53-.05.25-.02.32.03.28.22-.06.22-.99,3.84-.14,6.26.59,1.65,1.91,2.18,2.69,2.18.92,0,1.79-.69,2.27-1.72.06.11.12.23.18.33,1.33,2.1,3.89,1.65,5.2-.14.29-.4.46-.75.46-.75.28,1.75,1.64,2.29,2.41,2.29s1.58-.33,2.2-1.81c.03.65.07,1.18.13,1.35.04.1.27.23.44.29.74.27,1.5.14,1.78.09.19-.04.34-.19.37-.6.05-1.05.02-2.82.34-4.14.54-2.21,1.04-3.06,1.27-3.49.13-.24.28-.28.29-.03.01.51.04,2,.24,4.01.15,1.48.36,2.35.51,2.62.45.79,1,.83,1.45.83.29,0,.88-.08.83-.58-.03-.24.02-1.76.55-3.93.35-1.42.92-2.7,1.13-3.17.08-.17.11-.04.11-.01-.04.98-.14,4.18.26,5.93.54,2.37,2.1,2.64,2.65,2.64,1.16,0,2.11-.88,2.43-3.21.08-.56-.04-.99-.38-.99"></path></svg> 