<?xml version="1.0" encoding="UTF-8"?> <svg xmlns="http://www.w3.org/2000/svg" id="Layer_1" viewBox="0 0 180 120"><defs><style>.cls-1{fill:#4967a9;}</style></defs><path class="cls-1" d="m157,72.73c-1.72,0-3.44,0-5.16.02-.26,0-.36-.16-.48-.34-1.11-1.76-2.23-3.52-3.34-5.28-.51-.8-1.02-1.61-1.55-2.44-.1.15-.06.28-.06.4,0,2.38,0,4.77,0,7.15,0,.5,0,.5-.51.5-1.36,0-2.72,0-4.08,0-.34,0-.47-.08-.47-.45,0-8.15,0-16.31,0-24.46,0-.33.11-.44.44-.46,1.39-.1,2.78-.21,4.17-.33.4-.03.45,0,.45.44,0,5.26,0,10.51,0,15.77v.41l.07.03c.33-.53.66-1.05.99-1.58,1.24-1.98,2.48-3.96,3.71-5.95.14-.23.3-.34.59-.34,1.54.01,3.07,0,4.61,0,.12,0,.28-.06.35.08.07.13-.07.23-.14.33-1.64,2.5-3.28,5-4.93,7.49-.19.28-.17.47,0,.74,1.7,2.59,3.38,5.18,5.06,7.78.09.14.19.27.28.4v.07Z"></path><path class="cls-1" d="m23,55.84c.95,0,1.91,0,2.86,0,.48,0,.5,0,.49-.48,0-1.19-.01-2.37.13-3.55.13-1.06.43-2.07,1.12-2.92.73-.9,1.71-1.38,2.82-1.61,1.56-.33,3.14-.29,4.72-.14.47.04.49.1.49.57,0,1,0,2,0,3,0,.3-.1.41-.41.4-.66-.01-1.33,0-1.99,0-1.17.02-1.77.6-1.79,1.76-.02.87,0,1.74-.01,2.62,0,.28.12.36.38.36,1.12,0,2.23,0,3.35,0,.47,0,.48.03.43.51-.11,1.11-.22,2.22-.3,3.33-.02.32-.13.45-.46.44-.95-.02-1.91,0-2.86,0q-.52,0-.52.51c0,3.83,0,7.65,0,11.48,0,.12,0,.23,0,.35,0,.2-.09.29-.3.29-1.5,0-3,0-4.5,0-.21,0-.3-.1-.29-.3,0-.12,0-.23,0-.35,0-3.81,0-7.63,0-11.44q0-.54-.53-.55c-.94,0-1.88,0-2.83-.01v-4.26Z"></path><path class="cls-1" d="m91.13,70.49c0,.71,0,1.35,0,1.98,0,.47,0,.47-.46.47-1.28,0-2.56,0-3.84,0q-.54,0-.54-.53c0-4.55,0-9.09,0-13.64,0-3.62,0-7.23,0-10.85,0-.52.01-.51.52-.55,1.33-.1,2.66-.21,3.99-.33.49-.04.53-.02.53.49,0,3.36,0,6.72,0,10.08,0,.13-.04.27.05.44.34-.43.65-.85,1.07-1.19,1.15-.93,2.46-1.3,3.93-1.2,1.27.08,2.45.4,3.49,1.16,1.26.92,1.98,2.19,2.42,3.65.35,1.17.31,2.39.5,3.58.29,1.8.01,3.5-.66,5.15-.72,1.77-1.97,3.02-3.82,3.62-.26.08-.52.12-.79.12-.81,0-1.63-.02-2.44,0-1.41.04-2.46-.63-3.36-1.63-.21-.23-.37-.5-.61-.83Zm6.75-6.16c0-.35,0-.66,0-.96,0-.43-.07-.86-.18-1.27-.53-2.01-2.07-2.61-3.97-2.28-1.27.22-2.12,1.25-2.3,2.66-.15,1.21-.15,2.44,0,3.65.12.93.51,1.75,1.33,2.28,1.87,1.21,4.32.26,4.92-1.87.21-.74.22-1.49.2-2.19Z"></path><path class="cls-1" d="m47.62,58.22c0-.65.02-1.3,0-1.95-.01-.34.12-.44.45-.43,1.33.01,2.65.01,3.98,0,.31,0,.43.08.43.42,0,5.29,0,10.58,0,15.87,0,.32-.11.42-.43.42-1.34-.01-2.67-.01-4.01,0-.33,0-.42-.11-.42-.43.02-.66,0-1.32,0-2.08-.35.58-.67,1.04-1.09,1.43-.81.75-1.78,1.13-2.86,1.24-1.83.17-3.55-.11-5.04-1.29-1.19-.94-1.86-2.22-2.24-3.65-.43-1.6-.47-3.23-.37-4.88.09-1.43.37-2.81,1.06-4.08,1.15-2.12,2.95-3.22,5.36-3.32.71-.03,1.42,0,2.11.19,1.16.32,2.04.98,2.67,1.99.12.19.22.38.34.57.02,0,.04,0,.06-.01Zm-.21,6.17c0-.6,0-1.21-.06-1.81-.29-2.73-2.53-3.23-4.4-2.69-1.03.3-1.47,1.22-1.72,2.21-.26,1.04-.14,2.1-.16,3.16-.01.54.08,1.07.24,1.58.33,1.06.94,1.87,2.07,2.16,1.74.45,3.32-.48,3.81-2.21.22-.78.22-1.58.21-2.38Z"></path><path class="cls-1" d="m78.82,66.12c-1.62,0-3.23,0-4.85,0-.44,0-.48.05-.4.49.31,1.68,1.24,2.49,2.94,2.63,2.04.17,4-.18,5.93-.8.47-.15.46-.15.6.3.26.88.51,1.77.78,2.64.09.27.03.39-.24.49-1.51.55-3.06.86-4.65,1.01-1.65.15-3.3.09-4.92-.29-1.7-.39-3.2-1.14-4.23-2.61-.77-1.09-1.14-2.34-1.26-3.65-.14-1.51-.16-3.02.05-4.52.16-1.16.53-2.24,1.2-3.21.74-1.08,1.74-1.84,2.96-2.28,2.24-.81,4.52-.93,6.81-.26,2.22.66,3.55,2.21,4.19,4.39.28.96.37,1.94.4,2.93.02.77,0,1.54.01,2.3,0,.33-.1.45-.44.44-1.63-.01-3.26,0-4.88,0Zm-2.32-3.45c.87,0,1.74,0,2.61,0,.15,0,.33.02.34-.2.03-.93-.09-1.83-.75-2.53-.78-.82-1.8-.91-2.84-.76-.86.12-1.51.59-1.9,1.37-.26.52-.39,1.09-.42,1.68-.02.33.07.46.42.45.85-.02,1.7,0,2.54,0Z"></path><path class="cls-1" d="m104.51,64.35c-.05-1.41.11-2.74.6-4.02.88-2.25,2.5-3.68,4.82-4.32,1.97-.54,3.96-.51,5.92.06,2.41.71,4.1,2.25,4.83,4.66.77,2.53.76,5.1-.17,7.6-.77,2.06-2.26,3.46-4.36,4.11-2.53.79-5.05.72-7.49-.38-2-.9-3.22-2.5-3.81-4.6-.29-1.04-.39-2.1-.35-3.13Zm11.58-.01c0-.44.02-.88,0-1.32-.06-.97-.3-1.89-.99-2.62-.88-.94-2-1.02-3.16-.74-1.19.28-1.78,1.19-2.01,2.31-.29,1.42-.25,2.87-.06,4.3.13.96.55,1.81,1.4,2.36,1.79,1.16,4.08.26,4.64-1.79.22-.82.2-1.66.19-2.49Z"></path><path class="cls-1" d="m139.21,64.14c.01,1.66-.16,3.15-.81,4.55-.95,2.05-2.54,3.35-4.72,3.91-1.99.52-3.99.5-5.95-.15-2.43-.81-3.98-2.5-4.64-4.94-.57-2.11-.57-4.27,0-6.38.69-2.58,2.33-4.3,4.91-5.06,2.06-.61,4.14-.59,6.19.05,2.75.87,4.27,2.84,4.82,5.63.16.83.23,1.68.21,2.4Zm-4.9.23c0-.43,0-.86,0-1.29,0-.55-.12-1.08-.32-1.6-.56-1.43-1.58-2.04-3.25-1.94-1.28.07-2.21.89-2.56,2.28-.32,1.26-.21,2.54-.17,3.81.01.44.11.87.25,1.3.48,1.45,1.57,2.2,3.13,2.15,1.42-.05,2.4-.88,2.77-2.35.2-.78.15-1.57.16-2.36Z"></path><path class="cls-1" d="m62.84,72.95c-.73-.05-1.63.11-2.52-.07-3.27-.64-5.38-2.91-5.78-6.22-.21-1.76-.23-3.53.13-5.27.58-2.86,2.31-4.66,5.14-5.35,2.28-.55,4.56-.57,6.81.16.38.12.73.31,1.06.53.16.11.2.23.14.41-.35,1.04-.7,2.07-1.04,3.11-.1.3-.26.22-.45.13-1.24-.56-2.55-.73-3.89-.6-1.57.15-2.65,1.07-2.97,2.61-.3,1.43-.33,2.89.07,4.32.39,1.39,1.4,2.12,2.8,2.32,1.39.2,2.71-.03,3.98-.58.26-.11.39-.09.48.2.32,1,.65,1.99.99,2.98.09.26.02.41-.2.54-.82.46-1.68.8-2.64.8-.65,0-1.3,0-2.12,0Z"></path></svg> 