<?xml version="1.0" encoding="UTF-8"?> <svg xmlns="http://www.w3.org/2000/svg" id="Layer_1" viewBox="0 0 180 120"><defs><style>.cls-1{fill:#fe2c55;}.cls-2{fill:#00f2ea;}.cls-3{fill:#ff004f;}.cls-4{fill:#25f4ee;}</style></defs><path class="cls-2" d="m85.56,46.9v-1.77c-.62-.09-1.23-.13-1.86-.14-7.6,0-13.78,6.18-13.78,13.78,0,4.66,2.33,8.79,5.88,11.28-2.38-2.54-3.7-5.9-3.7-9.38,0-7.49,6-13.59,13.45-13.77"></path><path class="cls-2" d="m85.88,66.96c3.39,0,6.15-2.7,6.28-6.06v-30h5.49c-.12-.63-.18-1.26-.18-1.9h-7.48v30c-.14,3.36-2.9,6.05-6.29,6.05-1.02,0-2.02-.25-2.92-.72,1.18,1.64,3.08,2.62,5.1,2.62m22.01-25.87v-1.67c-2.01,0-3.99-.58-5.67-1.68,1.48,1.7,3.47,2.88,5.67,3.35"></path><path class="cls-3" d="m102.22,37.74c-1.65-1.89-2.56-4.32-2.56-6.83h-2.01c.53,2.8,2.18,5.27,4.57,6.83m-18.52,14.74c-3.47,0-6.29,2.82-6.29,6.29,0,2.34,1.3,4.48,3.37,5.57-.77-1.07-1.19-2.35-1.19-3.67,0-3.47,2.82-6.29,6.29-6.29.65,0,1.27.11,1.86.29v-7.64c-.62-.09-1.23-.13-1.86-.14-.11,0-.22,0-.32,0v5.87c-.6-.19-1.23-.29-1.86-.29"></path><path class="cls-3" d="m107.89,41.09v5.82c-3.88,0-7.48-1.24-10.42-3.35v15.21c0,7.6-6.18,13.78-13.78,13.78-2.94,0-5.66-.93-7.89-2.5,2.6,2.8,6.25,4.4,10.08,4.4,7.6,0,13.78-6.18,13.78-13.78v-15.21c3.04,2.18,6.68,3.35,10.42,3.35v-7.49c-.75,0-1.48-.08-2.18-.23"></path><path d="m97.48,58.77v-15.21c3.04,2.18,6.68,3.35,10.42,3.35v-5.82c-2.2-.47-4.19-1.65-5.67-3.35-2.39-1.56-4.04-4.02-4.57-6.83h-5.48v30c-.14,3.36-2.9,6.06-6.29,6.06-2.02,0-3.92-.98-5.1-2.62-2.07-1.08-3.37-3.23-3.37-5.57,0-3.47,2.82-6.29,6.29-6.3.65,0,1.27.11,1.86.29v-5.87c-7.45.17-13.45,6.28-13.45,13.77,0,3.62,1.41,6.92,3.7,9.38,2.31,1.63,5.07,2.5,7.89,2.5,7.6,0,13.78-6.18,13.78-13.78"></path><path d="m67.18,80.7h7.64l-.7,2.19h-1.98v8.09h-2.47v-8.09h-2.49s0-2.19,0-2.19Z"></path><path d="m87.35,80.7h7.82l-.7,2.19h-2.16v8.09h-2.48v-8.09h-2.49s0-2.19,0-2.19Z"></path><path d="m75.29,83.98h2.45v7.01h-2.44v-7.01Z"></path><path d="m78.71,80.68h2.45v4.79l2.43-2.38h2.92l-3.07,2.98,3.44,4.93h-2.7l-2.29-3.41-.73.7v2.71h-2.45v-10.31h0Z"></path><path d="m104.66,80.68h2.45v4.79l2.43-2.38h2.92l-3.07,2.98,3.44,4.93h-2.69l-2.29-3.41-.73.7v2.71h-2.45v-10.31h0Z"></path><path d="m76.51,83.17c.68,0,1.23-.55,1.23-1.23s-.55-1.23-1.23-1.23-1.23.55-1.23,1.23.55,1.23,1.23,1.23Z"></path><path class="cls-4" d="m94.86,86.79c0-2.21,1.7-4.02,3.87-4.18-.11,0-.26-.01-.37-.01-2.32,0-4.19,1.88-4.19,4.2s1.88,4.2,4.19,4.2c.11,0,.26,0,.37-.01-2.16-.17-3.87-1.98-3.87-4.19Z"></path><path class="cls-1" d="m99.68,82.59c-.11,0-.26,0-.37.01,2.16.17,3.86,1.98,3.86,4.18s-1.7,4.02-3.86,4.18c.11.01.26.01.37.01,2.32,0,4.19-1.88,4.19-4.2,0-2.32-1.88-4.2-4.19-4.2Z"></path><path d="m99.01,88.83c-1.13,0-2.04-.91-2.04-2.04s.91-2.04,2.04-2.04,2.04.91,2.04,2.04-.92,2.04-2.04,2.04Zm0-6.24c-2.32,0-4.19,1.88-4.19,4.2,0,2.32,1.88,4.2,4.19,4.2s4.19-1.88,4.19-4.2c0-2.32-1.88-4.2-4.19-4.2Z"></path></svg> 