<?xml version="1.0" encoding="UTF-8"?> <svg xmlns="http://www.w3.org/2000/svg" id="Layer_1" viewBox="0 0 180 120"><defs><style>.cls-1{fill:#0dbdff;}</style></defs><path class="cls-1" d="m54.49,59.81c0-5.95-4.68-10.79-10.79-10.79-4.05,0-7.57,2.23-9.41,5.53l5.26,5.26c0-2.29,1.94-4.17,4.17-4.17,2.35,0,4.15,1.86,4.15,4.17s-1.82,4.17-4.15,4.17h-8.99c-2.23,0-4.03,1.8-4.03,4.03v2.59h12.99c6.09-.02,10.81-4.84,10.81-10.79"></path><path d="m92.52,56.57c-1.05-1.23-2.65-1.94-4.61-1.94-4.17,0-7.51,3.32-7.51,8.14s3.34,8.22,7.39,8.22c2.15,0,3.85-.95,4.94-2.53l.18,2.13h3.83v-21.58h-1.8c-1.34,0-2.43,1.09-2.43,2.43v5.12Zm-3.74,10.46c-2.37,0-4.01-1.7-4.01-4.23s1.64-4.23,4.01-4.23,4.01,1.7,4.01,4.23-1.68,4.23-4.01,4.23m-22.02-16.47l-7.89,20.02h4.78l1.68-4.51h9.29l1.68,4.51h4.78l-8.5-21.57h-3.6c-.99,0-1.88.61-2.23,1.54m.14,11.33l3.08-8.24,3.08,8.24h-6.17Zm49.18.91c0-4.8,3.52-8.16,8.38-8.16s8.4,3.32,8.4,8.16-3.56,8.2-8.4,8.2-8.38-3.36-8.38-8.2m12.37,0c0-2.49-1.6-4.23-4.01-4.23s-4.01,1.7-4.01,4.23,1.6,4.23,4.01,4.23,4.01-1.7,4.01-4.23m13.4,7.21c-.89.57-1.94.97-3.06.97-3.1,0-4.55-2.13-4.55-5.14v-13.92l4.27-1.07v15c0,.85.42,1.36,1.17,1.36.24,0,.47-.06.71-.16l1.46,2.95Zm7.45,0c-.89.57-1.94.97-3.06.97-3.1,0-4.55-2.13-4.55-5.14v-15.69l4.27-1.03v16.74c0,.85.42,1.36,1.17,1.36.24,0,.47-.06.71-.16l1.46,2.95Zm-42.81-7.27h-2.91v7.85h-4.51v-19.15c0-1.34,1.09-2.43,2.43-2.43h7.23c4.66,0,7.51,2.81,7.51,6.84,0,3.24-1.82,5.69-4.98,6.56l5.61,8.16h-5.42l-4.98-7.83Zm-2.91-4.19h5.04c1.94,0,2.96-.93,2.96-2.65s-1.03-2.69-2.96-2.69h-5.04v5.34Z"></path></svg> 