<?xml version="1.0" encoding="UTF-8"?> <svg xmlns="http://www.w3.org/2000/svg" id="Layer_1" viewBox="0 0 180 120"><defs><style>.cls-1{fill:#221f1f;}.cls-2{fill:#f90;}</style></defs><path id="path8" class="cls-2" d="m103.87,71.29c-6.75,4.98-16.55,7.64-24.97,7.64-11.82,0-22.46-4.37-30.51-11.64-.63-.57-.07-1.35.69-.91,8.69,5.05,19.43,8.1,30.52,8.1,7.48,0,15.72-1.55,23.28-4.76,1.14-.49,2.1.75.98,1.58"></path><path id="path10" class="cls-2" d="m106.68,68.08c-.86-1.1-5.71-.52-7.88-.26-.66.08-.76-.5-.17-.91,3.86-2.72,10.2-1.93,10.93-1.02.74.92-.19,7.27-3.82,10.3-.56.47-1.09.22-.84-.4.81-2.03,2.64-6.59,1.78-7.7"></path><path id="path12" class="cls-1" d="m98.95,47.72v-2.64c0-.4.3-.67.67-.67h11.82c.38,0,.68.27.68.67v2.26c0,.38-.32.88-.89,1.66l-6.13,8.75c2.28-.06,4.68.28,6.74,1.45.47.26.59.65.63,1.03v2.82c0,.38-.43.83-.87.6-3.64-1.91-8.47-2.11-12.49.02-.41.22-.84-.22-.84-.61v-2.68c0-.43,0-1.16.44-1.82l7.1-10.18h-6.18c-.38,0-.68-.27-.68-.66"></path><path id="path14" class="cls-1" d="m55.82,64.2h-3.6c-.34-.03-.62-.28-.64-.61v-18.46c0-.37.31-.66.69-.66h3.35c.35.02.63.28.65.62v2.41h.07c.88-2.33,2.52-3.42,4.74-3.42s3.66,1.09,4.67,3.42c.87-2.33,2.85-3.42,4.97-3.42,1.51,0,3.16.62,4.16,2.02,1.14,1.55.91,3.81.91,5.79v11.65c0,.37-.31.67-.7.67h-3.59c-.36-.03-.65-.31-.65-.67v-9.79c0-.78.07-2.72-.1-3.46-.27-1.24-1.07-1.59-2.11-1.59-.87,0-1.78.58-2.15,1.51-.37.93-.33,2.49-.33,3.54v9.79c0,.37-.31.67-.69.67h-3.59c-.36-.03-.65-.31-.65-.67v-9.79c0-2.06.33-5.09-2.22-5.09s-2.48,2.95-2.48,5.09v9.79c0,.37-.31.67-.69.67"></path><path id="path16" class="cls-1" d="m122.31,44.07c5.34,0,8.23,4.58,8.23,10.41s-3.19,10.1-8.23,10.1-8.1-4.58-8.1-10.3,2.89-10.22,8.1-10.22m.03,3.77c-2.65,0-2.82,3.61-2.82,5.86s-.04,7.07,2.79,7.07,2.92-3.89,2.92-6.25c0-1.56-.07-3.42-.54-4.9-.4-1.29-1.21-1.79-2.35-1.79"></path><path id="path18" class="cls-1" d="m137.46,64.2h-3.58c-.36-.03-.65-.31-.65-.67v-18.47c.03-.34.32-.6.69-.6h3.33c.31.02.57.23.64.52v2.82h.07c1.01-2.52,2.42-3.73,4.9-3.73,1.61,0,3.19.58,4.2,2.18.94,1.48.94,3.96.94,5.75v11.62c-.04.32-.34.58-.69.58h-3.61c-.33-.03-.6-.27-.64-.58v-10.03c0-2.02.23-4.97-2.25-4.97-.88,0-1.68.59-2.08,1.48-.51,1.13-.57,2.25-.57,3.5v9.94c0,.37-.32.67-.7.67"></path><g id="use28"><path id="path30" class="cls-1" d="m89.53,55.38v-.78c-2.6,0-5.35.56-5.35,3.62,0,1.55.8,2.61,2.19,2.61,1.01,0,1.92-.62,2.49-1.63.71-1.24.67-2.41.67-3.81m3.63,8.77c-.24.21-.58.23-.85.09-1.19-.99-1.41-1.45-2.06-2.4-1.97,2.01-3.37,2.62-5.93,2.62-3.03,0-5.38-1.87-5.38-5.61,0-2.92,1.58-4.91,3.84-5.88,1.95-.86,4.68-1.01,6.76-1.25v-.47c0-.86.07-1.87-.44-2.61-.44-.66-1.28-.94-2.02-.94-1.37,0-2.6.7-2.89,2.16-.06.32-.3.64-.62.66l-3.49-.37c-.29-.07-.62-.3-.54-.75.8-4.23,4.62-5.5,8.04-5.5,1.75,0,4.04.47,5.42,1.79,1.75,1.63,1.58,3.81,1.58,6.19v5.61c0,1.68.7,2.42,1.36,3.33.23.32.28.71-.01.96-.73.61-2.04,1.75-2.76,2.39h-.01"></path></g><path id="path30-2" class="cls-1" d="m42.36,55.38v-.78c-2.6,0-5.35.56-5.35,3.62,0,1.55.8,2.61,2.19,2.61,1.01,0,1.92-.62,2.49-1.63.71-1.24.67-2.41.67-3.81m3.63,8.77c-.24.21-.58.23-.85.09-1.19-.99-1.41-1.45-2.06-2.4-1.97,2.01-3.37,2.62-5.93,2.62-3.03,0-5.38-1.87-5.38-5.61,0-2.92,1.58-4.91,3.84-5.88,1.95-.86,4.68-1.01,6.76-1.25v-.47c0-.86.07-1.87-.44-2.61-.44-.66-1.28-.94-2.02-.94-1.37,0-2.6.7-2.89,2.16-.06.32-.3.64-.62.66l-3.49-.37c-.29-.07-.62-.3-.54-.75.8-4.23,4.62-5.5,8.04-5.5,1.75,0,4.04.47,5.42,1.79,1.75,1.63,1.58,3.81,1.58,6.19v5.61c0,1.68.7,2.42,1.36,3.33.23.32.28.71-.01.96-.73.61-2.04,1.75-2.76,2.39h-.01"></path></svg> 