<?xml version="1.0" encoding="UTF-8"?> <svg xmlns="http://www.w3.org/2000/svg" id="Layer_1" viewBox="0 0 180 120"><defs><style>.cls-1{fill:#ff642d;}</style></defs><path d="m120.51,58.41c0-2.63-1.64-4.52-4.68-4.52h-10.02v13.63h3.29v-4.68h3.86l3.78,4.68h3.7v-.33l-3.7-4.44c2.38-.49,3.78-2.22,3.78-4.35Zm-5.09,1.64h-6.32v-3.37h6.32c1.15,0,1.89.66,1.89,1.72.08,1.07-.66,1.64-1.89,1.64Z"></path><path d="m170.12,53.81h-3.04v5.17h-8.3v-5.17h-3.29v13.63h3.29v-5.34h8.3v5.34h3.04v-13.63Z"></path><path d="m97.02,53.81l-3.61,11.42h-.16l-3.7-11.42h-5.83v13.63h3.12v-11.17h.16l3.61,11.17h5.01l3.7-11.17h.16v11.17h3.2v-13.63h-5.67Z"></path><path d="m61.3,59.39c-1.15-.08-3.29-.33-4.52-.41-1.15-.08-1.81-.49-1.81-1.23s.74-1.31,3.53-1.31c2.46,0,4.76.57,6.82,1.48v-3.04c-1.97-.99-4.19-1.4-6.98-1.4-3.86,0-6.57,1.64-6.57,4.35,0,2.3,1.56,3.61,4.76,3.94,1.15.16,3.12.33,4.44.41,1.48.08,1.89.57,1.89,1.23,0,.9-1.07,1.48-3.61,1.48s-5.34-.9-7.31-2.05v3.12c1.56,1.07,4.19,1.89,7.23,1.89,4.19,0,6.9-1.64,6.9-4.52,0-2.22-1.4-3.61-4.76-3.94Z"></path><path d="m68.28,53.81v13.63h12.65v-2.79h-9.53v-2.79h9.36v-2.79h-9.36v-2.46h9.53v-2.79h-12.65Z"></path><path d="m148.68,59.39c-1.15-.08-3.29-.33-4.52-.41-1.15-.08-1.81-.49-1.81-1.23s.74-1.31,3.53-1.31c2.46,0,4.76.49,6.82,1.48v-3.04c-1.97-.99-4.19-1.4-6.98-1.4-3.86,0-6.57,1.64-6.57,4.35,0,2.3,1.56,3.61,4.76,3.94,1.15.16,3.12.33,4.44.41,1.48.08,1.89.57,1.89,1.23,0,.9-1.07,1.48-3.61,1.48s-5.34-.9-7.31-2.05v3.12c1.56,1.07,4.19,1.89,7.23,1.89,4.19,0,6.9-1.64,6.9-4.52,0-2.22-1.48-3.61-4.76-3.94Z"></path><path d="m133.65,53.81v6.98c0,2.63-1.64,4.11-4.02,4.11s-4.02-1.4-4.02-4.11v-6.98h-3.29v6.65c0,4.93,3.12,7.39,7.31,7.39s7.23-2.38,7.23-7.23v-6.82h-3.2Z"></path><path class="cls-1" d="m40.6,60.54c0,.66-.33.74-1.15.74-.9,0-1.07-.16-1.15-.82-.16-1.72-1.31-3.2-3.29-3.29-.57-.08-.74-.25-.74-1.07,0-.74.08-1.07.66-1.07,3.29.08,5.67,2.79,5.67,5.5Zm4.85,0c0-5.09-3.45-10.51-11.5-10.51h-15.85c-.33,0-.57.16-.57.49,0,.16.08.33.25.41.57.49,1.4.99,2.55,1.56,1.07.57,1.97.9,2.79,1.23.33.16.49.33.49.49,0,.25-.16.49-.57.49h-12.57c-.41-.08-.57.16-.57.41s.08.41.25.57c.99,1.07,2.63,2.38,5.01,3.86,2.05,1.31,4.68,2.71,6.73,3.7.33.16.49.33.49.57s-.16.41-.57.41h-5.83c-.33,0-.49.16-.49.41,0,.16.08.33.25.49,1.31,1.23,3.45,2.46,6.24,3.7,3.78,1.56,7.56,2.55,11.83,2.55,8.13,0,11.66-6.08,11.66-10.84Zm-10.59,7.31c-3.94,0-7.31-3.2-7.31-7.31s3.29-7.15,7.31-7.15,7.31,3.2,7.31,7.15-3.2,7.31-7.31,7.31Z"></path></svg> 