<?xml version="1.0" encoding="UTF-8"?> <svg xmlns="http://www.w3.org/2000/svg" id="Layer_1" viewBox="0 0 180 120"><defs><style>.cls-1{fill:#fff;}.cls-2{fill:#5e8e3e;}.cls-3{fill:#95bf47;}</style></defs><path d="m122.63,50.45c-1.24,0-2.22.99-2.22,2.25,0,1.15.73,1.94,1.83,1.94h.06c1.21,0,2.25-.82,2.28-2.25,0-1.13-.76-1.94-1.94-1.94Z"></path><g><path class="cls-3" d="m57.52,49.86c-.02-.16-.16-.25-.28-.26-.12,0-2.4-.04-2.4-.04,0,0-1.91-1.86-2.1-2.05-.19-.19-.56-.13-.7-.09,0,0-.36.11-.96.3-.1-.33-.25-.73-.46-1.13-.68-1.3-1.68-1.99-2.88-1.99h0c-.08,0-.17,0-.25.02-.04-.04-.07-.08-.11-.13-.52-.56-1.2-.83-2-.81-1.56.04-3.1,1.17-4.36,3.16-.88,1.4-1.56,3.17-1.75,4.53-1.79.55-3.03.94-3.06.95-.9.28-.93.31-1.05,1.16-.09.64-2.45,18.88-2.45,18.88l19.77,3.42,8.57-2.13s-3.5-23.63-3.52-23.8Zm-7.44-1.84c-.46.14-.97.3-1.53.47-.01-.79-.11-1.88-.47-2.83,1.18.22,1.76,1.56,2.01,2.36Zm-2.57.8c-1.04.32-2.17.67-3.3,1.02.32-1.22.92-2.44,1.67-3.23.28-.3.66-.63,1.12-.82.43.9.52,2.17.51,3.03Zm-2.12-4.1c.37,0,.67.07.94.24-.42.22-.83.53-1.21.94-.99,1.06-1.75,2.71-2.05,4.29-.94.29-1.86.58-2.71.84.54-2.5,2.63-6.25,5.03-6.32Z"></path><path class="cls-2" d="m57.24,49.6c-.12,0-2.4-.04-2.4-.04,0,0-1.91-1.86-2.1-2.05-.07-.07-.17-.11-.27-.12v28.4s8.57-2.13,8.57-2.13c0,0-3.5-23.63-3.52-23.79-.02-.16-.16-.25-.28-.26Z"></path><path class="cls-1" d="m47.73,54.01l-.99,3.72s-1.11-.51-2.43-.42c-1.93.12-1.95,1.34-1.93,1.64.11,1.66,4.49,2.03,4.73,5.93.19,3.07-1.63,5.17-4.25,5.33-3.15.2-4.88-1.66-4.88-1.66l.67-2.84s1.75,1.32,3.14,1.23c.91-.06,1.24-.8,1.21-1.32-.14-2.17-3.7-2.04-3.93-5.61-.19-3,1.78-6.05,6.13-6.32,1.68-.11,2.53.32,2.53.32Z"></path><path d="m72.32,61.8c-.99-.53-1.49-.99-1.49-1.6,0-.79.7-1.29,1.8-1.29,1.28,0,2.42.53,2.42.53l.9-2.76s-.83-.65-3.26-.65c-3.39,0-5.74,1.94-5.74,4.67,0,1.55,1.1,2.73,2.56,3.57,1.18.68,1.6,1.15,1.6,1.86s-.59,1.32-1.69,1.32c-1.64,0-3.18-.84-3.18-.84l-.96,2.76s1.43.96,3.83.96c3.49,0,5.99-1.72,5.99-4.81,0-1.66-1.27-2.84-2.79-3.71Z"></path><path d="m86.23,56c-1.72,0-3.07.82-4.11,2.05l-.06-.03,1.49-7.8h-3.88l-3.77,19.84h3.88l1.29-6.78c.51-2.56,1.83-4.14,3.07-4.14.87,0,1.21.59,1.21,1.44,0,.53-.06,1.18-.17,1.72l-1.46,7.77h3.88l1.52-8.02c.17-.84.28-1.86.28-2.53,0-2.2-1.16-3.52-3.18-3.52Z"></path><path d="m98.19,56c-4.67,0-7.77,4.22-7.77,8.92,0,3.01,1.86,5.43,5.35,5.43,4.59,0,7.68-4.11,7.68-8.92,0-2.79-1.63-5.43-5.26-5.43Zm-1.91,11.37c-1.32,0-1.89-1.13-1.89-2.53,0-2.22,1.15-5.85,3.26-5.85,1.38,0,1.83,1.18,1.83,2.34,0,2.39-1.15,6.05-3.21,6.05Z"></path><path d="m113.38,56c-2.62,0-4.11,2.31-4.11,2.31h-.06l.23-2.08h-3.43c-.17,1.41-.48,3.55-.79,5.15l-2.7,14.21h3.88l1.07-5.74h.09s.8.51,2.28.51c4.56,0,7.54-4.67,7.54-9.4,0-2.62-1.15-4.95-4-4.95Zm-3.71,11.43c-1.01,0-1.6-.56-1.6-.56l.65-3.63c.45-2.42,1.72-4.02,3.07-4.02,1.18,0,1.55,1.1,1.55,2.14,0,2.5-1.49,6.08-3.66,6.08Z"></path><path d="m117.49,70.07h3.88l2.65-13.76h-3.91l-2.62,13.76Z"></path><path d="m133.9,56.28h-2.7l.14-.65c.23-1.32,1.01-2.5,2.31-2.5.69,0,1.24.2,1.24.2l.76-3.04s-.68-.34-2.11-.34-2.76.39-3.8,1.29c-1.32,1.13-1.94,2.76-2.25,4.39l-.11.65h-1.8l-.56,2.93h1.8l-2.05,10.86h3.88l2.05-10.86h2.67l.53-2.93Z"></path><path d="m143.24,56.31s-2.43,6.12-3.52,9.46h-.06c-.07-1.08-.96-9.46-.96-9.46h-4.08l2.34,12.64c.06.28.03.45-.08.65-.45.87-1.21,1.72-2.11,2.34-.73.53-1.55.87-2.19,1.1l1.07,3.29c.79-.17,2.42-.82,3.8-2.11,1.77-1.66,3.41-4.22,5.09-7.71l4.76-10.19h-4.05Z"></path></g></svg> 