<?xml version="1.0" encoding="UTF-8"?> <svg xmlns="http://www.w3.org/2000/svg" id="Layer_1" viewBox="0 0 180 120"><defs><style>.cls-1{fill:#288cc0;}</style></defs><g id="cases_logo"><g id="unbounce"><path id="Fill-1" class="cls-1" d="m35.18,43.47c-9.13,0-16.53,7.4-16.53,16.53s7.4,16.53,16.53,16.53,16.53-7.4,16.53-16.53-7.4-16.53-16.53-16.53Zm-4.57,28.16c.19-1.17.36-2.26.52-3.26-3.64-1.83-5.95-5.49-5.35-9.75.81-5.76,5.23-8.73,10.82-8.23.43-.59.88-1.17,1.43-1.74.95-1.05,2.33-1.09,1.71.17-1.26,2.4-1.76,4.21-2.85,7.13-1.09,3.09-2.76,7.63-4.99,15.63-.19.74-1.36.62-1.28.05Zm13.98-10.61c-.74,5.49-5.87,8.63-10.99,8.09.38-1.26.55-1.78.98-2.81.33-.59,1.55-.83,2.47-1.21,1.93-.69,3.4-2.4,3.66-4.57.19-1.52-.26-3-1.12-4.14-.62-.78-1.19-1.26-1-1.97.29-.98.52-1.71,1.05-2.95,3.38,1.81,5.47,5.57,4.95,9.56Z"></path><path id="Fill-2" class="cls-1" d="m29.64,59.12c-.19,1.47.21,2.88,1.02,4,.55.71.95,1.14,1.14,1.45.67-3.59,1.14-5.45,1.78-7.52.29-.88.76-2.09,1.09-2.93-.4.14-1,.29-1.45.48-1.9.69-3.33,2.38-3.59,4.52"></path><path id="Fill-3" class="cls-1" d="m161.35,60.55c-.07-3.92-2.4-6.68-6.35-6.68-3.69,0-6.54,2.76-6.54,6.4s2.71,6.4,6.92,6.4c2.28,0,3.69-.62,4.8-1.64.31-.33.14-.57-.05-.78-.14-.14-.78-.83-.95-1-.21-.24-.48-.29-.78,0-.71.57-1.66.95-3.07.95-2.09,0-3.35-.98-3.81-2.54-.05-.12.02-.38.24-.38h8.97c.5.02.62-.24.62-.71Zm-3.31-1.31h-6.26s-.38.05-.21-.45c.48-1.57,1.71-2.45,3.45-2.45,1.88,0,2.9,1.05,3.26,2.5.07.4-.24.4-.24.4Z"></path><path id="Fill-4" class="cls-1" d="m147.7,64.14c-.17-.14-1.05-.88-1.17-.98-.24-.17-.52-.31-.83.02-.69.59-1.36.95-2.62.95-2.19,0-3.5-1.62-3.5-3.81s1.31-3.81,3.5-3.81c1.07,0,1.83.33,2.47.98.36.31.59.31.86.07.14-.14,1.12-.86,1.24-.98.24-.26.31-.38.05-.78-1.09-1.12-2.45-1.9-4.59-1.9-3.73,0-6.54,2.76-6.54,6.4s2.81,6.4,6.54,6.4c2.21,0,3.42-.69,4.64-1.78.43-.4.14-.62-.05-.78"></path><path id="Fill-5" class="cls-1" d="m130.88,53.89c-1.74-.05-2.95,0-4.16,1.09v-.24c0-.38-.19-.59-.67-.59h-2.24v11.46c0,.57.14.81.76.81h1.45c.62,0,.74-.21.74-.86v-5.8c0-2,1.26-3.16,3.19-3.16,1.74,0,2.54,1.02,2.54,2.78v6.18c0,.76.19.86.95.86h1.07c.76,0,.93-.1.93-.88v-6.42c.02-3.31-1.83-5.18-4.57-5.23"></path><path id="Fill-6" class="cls-1" d="m119.82,54.96v5.9c0,2.12-.78,3.23-2.76,3.23s-2.76-1.14-2.76-3.23v-5.92c0-.62-.17-.81-.76-.81h-1.38c-.64,0-.81.21-.81.81v5.99c0,3.59,2,5.76,5.59,5.76s5.83-2.16,5.83-5.76v-6.8h-2.02c-.71.02-.93.19-.93.83"></path><path id="Fill-7" class="cls-1" d="m90.38,53.84c-1.45,0-2.81.48-3.88,1.28v-7.04c0-.57-.14-.78-.76-.78h-1.47c-.57,0-.69.17-.69.74v18.38h2.45c.33,0,.45-.19.45-.48v-.4c1.09.81,2.43,1.28,3.88,1.28,3.59,0,6.49-2.9,6.49-6.49.05-3.57-2.88-6.49-6.47-6.49Zm-.02,10.35c-2.12,0-3.83-1.71-3.83-3.83s1.71-3.83,3.83-3.83,3.83,1.71,3.83,3.83-1.71,3.83-3.83,3.83Z"></path><path id="Fill-8" class="cls-1" d="m77.94,53.89c-1.74-.05-2.95,0-4.16,1.09v-.24c0-.38-.19-.59-.67-.59h-2.24v11.46c0,.57.14.81.76.81h1.45c.62,0,.74-.21.74-.86v-5.8c0-2,1.26-3.16,3.19-3.16,1.74,0,2.54,1.02,2.54,2.78v6.18c0,.76.19.86.95.86h2v-7.28c.02-3.33-1.86-5.21-4.57-5.26"></path><path id="Fill-9" class="cls-1" d="m66.86,54.96v5.92c-.12,2.12-.78,3.23-2.76,3.23s-2.62-1.14-2.76-3.23v-5.9c0-.52-.1-.81-.64-.81h-1.62c-.55,0-.69.24-.69.78v6.02c0,3.59,2,5.76,5.59,5.76s5.83-2.16,5.83-5.76v-6.8h-2.26c-.48-.02-.69.21-.69.78"></path><path id="Fill-10" class="cls-1" d="m108.81,64.95c-1.28,1.19-2.83,1.76-4.71,1.76s-3.42-.59-4.71-1.76c-1.28-1.21-1.9-2.71-1.9-4.54s.64-3.33,1.9-4.52c1.28-1.21,2.83-1.78,4.71-1.78s3.42.59,4.71,1.78c1.31,1.21,1.93,2.69,1.93,4.52.02,1.83-.62,3.33-1.93,4.54Zm-7.25-1.81c.69.69,1.55,1.05,2.54,1.05s1.86-.36,2.54-1.05c.69-.71,1.05-1.62,1.05-2.71s-.36-1.97-1.07-2.69c-.69-.71-1.55-1.07-2.52-1.07s-1.83.36-2.52,1.07-1.05,1.62-1.05,2.69c.02,1.09.36,2,1.02,2.71Z"></path></g></g></svg> 