<?xml version="1.0" encoding="UTF-8"?> <svg xmlns="http://www.w3.org/2000/svg" id="Layer_1" viewBox="0 0 180 120"><defs><style>.cls-1{fill:#5c4c9f;}.cls-2{fill:#4e4e4e;}.cls-3{fill:#1f1646;}</style></defs><g id="layer1"><g id="g16117"><path id="path15747" class="cls-2" d="m58.75,75.63c-.07-.2-.16-.48-.28-.83-.12-.35-.25-.72-.38-1.09-.13-.38-.26-.74-.38-1.09-.12-.35-.21-.64-.26-.86h-.01c-.05.2-.12.45-.22.75-.1.3-.21.62-.33.97-.12.35-.25.71-.38,1.08-.13.37-.25.73-.37,1.08h2.62Zm-2.91.97l-.91,2.54c-.02.05-.05.08-.1.08h-.86c-.07,0-.09-.03-.08-.1l2.74-7.64c.02-.05.03-.11.05-.17.02-.06.03-.18.04-.35,0-.04.02-.06.06-.06h1.23s.07.02.08.06l2.96,8.17c.03.06,0,.09-.05.09h-.96s-.08-.02-.1-.06l-.92-2.55h-3.2Z"></path><path id="path15751" class="cls-2" d="m62.13,74.53c0-.11,0-.23,0-.37,0-.13,0-.26-.01-.39,0-.13,0-.24-.01-.35,0-.11-.01-.19-.02-.24,0-.05.03-.08.08-.08h.78c.05,0,.09.03.11.08.02.06.03.14.04.25,0,.11.02.24.04.38.55-.55,1.2-.83,1.93-.83.23,0,.46.03.7.1.24.07.46.19.66.37.2.18.37.43.5.74.13.31.2.72.2,1.21v3.73c0,.06-.03.09-.09.09h-.88c-.06,0-.09-.03-.09-.1v-3.61c0-.48-.1-.86-.31-1.16-.21-.29-.54-.44-.98-.44-.32,0-.61.07-.87.2-.26.13-.5.32-.7.57v4.45c0,.06-.03.09-.08.09h-.89c-.05,0-.08-.03-.08-.09v-4.61Z"></path><path id="path15755" class="cls-2" d="m75.83,75.63c-.07-.2-.16-.48-.28-.83-.12-.35-.25-.72-.38-1.09-.13-.38-.26-.74-.38-1.09-.12-.35-.21-.64-.26-.86h-.01c-.05.2-.12.45-.22.75-.1.3-.21.62-.33.97-.12.35-.25.71-.38,1.08-.13.37-.25.73-.37,1.08h2.62Zm-2.91.97l-.91,2.54c-.02.05-.05.08-.1.08h-.86c-.07,0-.09-.03-.08-.1l2.74-7.64c.02-.05.03-.11.05-.17.02-.06.03-.18.04-.35,0-.04.02-.06.06-.06h1.23s.07.02.08.06l2.96,8.17c.03.06,0,.09-.05.09h-.96s-.08-.02-.1-.06l-.92-2.55h-3.2Z"></path><path id="path15759" class="cls-2" d="m82.96,74.01c-.1-.04-.22-.07-.37-.09-.14-.02-.29-.03-.45-.03-.36,0-.68.06-.97.17-.29.11-.53.27-.73.48-.2.21-.36.45-.47.72-.11.28-.16.58-.16.91,0,.41.06.76.18,1.04s.28.52.48.7c.2.18.43.31.69.4.26.08.52.13.8.13.17,0,.34-.01.52-.03.18-.02.34-.06.48-.13v-4.25Zm-1.11,5.34c-.44,0-.84-.07-1.22-.2-.38-.13-.71-.33-.99-.59-.28-.26-.5-.59-.66-.98-.16-.39-.24-.85-.24-1.37,0-.46.08-.89.25-1.28.16-.39.4-.74.7-1.03.3-.29.66-.52,1.08-.68.42-.16.88-.25,1.4-.25.18,0,.32,0,.44.03.12.02.23.03.35.05v-2.78c0-.05.03-.08.08-.08h.91c.05,0,.08.02.08.06v8.22c0,.1,0,.21.03.31,0,.04-.02.07-.06.09-.36.17-.72.29-1.07.36-.35.07-.7.11-1.06.11"></path><path id="path15763" class="cls-2" d="m88.18,73.88c-.27,0-.51.05-.73.16-.22.11-.41.26-.56.46-.16.2-.28.43-.36.71-.09.28-.13.58-.13.92s.04.62.13.9c.08.28.2.53.36.74.16.21.35.37.58.49.23.12.5.18.8.18.23,0,.44-.04.65-.13.21-.09.4-.23.57-.42.17-.19.3-.42.4-.7s.15-.62.15-1.01c0-.29-.04-.58-.11-.85-.07-.27-.18-.52-.33-.73-.15-.21-.34-.39-.57-.52-.24-.13-.52-.2-.84-.2m.05-.91c.44,0,.84.08,1.2.24.35.16.65.38.9.67.25.29.44.62.57,1.01.13.39.2.81.2,1.26,0,.48-.07.91-.21,1.31-.14.39-.34.73-.59,1.01-.25.28-.55.49-.91.65-.35.16-.74.23-1.16.23-.5,0-.94-.09-1.3-.28-.37-.18-.67-.43-.9-.73-.24-.3-.41-.64-.52-1.03-.11-.38-.17-.77-.17-1.15,0-.44.07-.86.2-1.25.13-.39.33-.72.58-1.01.25-.29.56-.52.91-.68.36-.16.76-.25,1.2-.25"></path><path id="path15767" class="cls-2" d="m96.62,76.01c0-.65-.18-1.16-.53-1.54-.35-.38-.83-.57-1.43-.57-.27,0-.49.02-.68.06-.18.04-.36.09-.52.16v4.23c.12.04.24.07.38.08.13.01.29.02.45.02.3,0,.59-.05.87-.15.28-.1.53-.25.74-.45.21-.2.39-.46.52-.76.13-.31.2-.66.2-1.06m-3.25-5.81s.06,0,.07,0c.01,0,.02.03.02.07v2.96c.41-.17.86-.25,1.36-.25.44,0,.83.07,1.18.22.35.15.65.35.91.62.25.26.44.57.58.93.13.36.2.75.2,1.18,0,.57-.1,1.07-.3,1.49-.2.42-.46.78-.78,1.07-.32.29-.69.51-1.11.65-.42.14-.85.21-1.3.21-.32,0-.62-.02-.9-.06-.28-.04-.56-.1-.82-.2-.05,0-.08-.05-.08-.11v-8.71c0-.05.03-.08.09-.08h.88Z"></path><path id="path15771" class="cls-2" d="m102.08,75.51c.31,0,.52,0,.62,0,.1,0,.17-.01.18-.02,0-.02.01-.04.01-.07v-.07c0-.11-.02-.25-.06-.42-.04-.17-.12-.34-.23-.5-.11-.16-.27-.3-.46-.41-.19-.11-.44-.17-.73-.17-.26,0-.49.05-.69.14-.2.09-.36.22-.5.37-.14.16-.25.33-.33.54-.08.2-.13.41-.16.62h2.34Zm-2.35.78c0,.3.04.58.13.84.08.26.21.49.39.68.18.19.4.34.66.45.26.11.57.16.93.16.28,0,.55-.03.81-.08.26-.05.52-.14.76-.26.04-.03.06,0,.06.05v.72c0,.06-.02.1-.06.13-.22.11-.47.2-.75.26-.28.07-.62.1-1.03.1-.55,0-1.01-.09-1.38-.27-.38-.18-.68-.42-.91-.72-.23-.3-.4-.63-.5-1.01-.1-.37-.16-.75-.16-1.14,0-.44.06-.85.19-1.25.13-.39.31-.74.55-1.03.24-.29.53-.53.87-.7.34-.17.73-.26,1.17-.26s.84.08,1.15.25c.31.16.56.37.75.62.19.25.33.52.42.82.09.3.13.58.13.85,0,.16,0,.29-.01.4,0,.11-.02.19-.04.25,0,.05-.03.08-.09.08-.09.02-.26.03-.51.04-.25,0-.51.01-.79.01h-2.74Z"></path><path id="path15775" class="cls-2" d="m113.72,78.98c0,.08-.02.12-.06.13-.21.09-.46.16-.74.19-.29.03-.6.05-.96.05-.53,0-1.05-.08-1.55-.24-.51-.16-.96-.41-1.36-.76-.4-.34-.72-.79-.97-1.33-.25-.55-.37-1.2-.37-1.98,0-.63.1-1.21.31-1.73.21-.52.51-.97.89-1.35.38-.37.84-.66,1.39-.87.55-.21,1.15-.31,1.82-.31.43,0,.77.02,1.02.06.25.04.45.1.59.16.04.02.06.05.06.1v.84c0,.06-.03.08-.09.06-.36-.19-.9-.29-1.61-.29-.5,0-.95.08-1.35.23-.41.16-.76.38-1.05.66-.29.29-.52.63-.68,1.04-.16.41-.24.86-.24,1.37,0,.65.11,1.2.33,1.64.22.44.49.78.82,1.04.33.26.69.44,1.08.54.39.1.74.16,1.07.16s.6-.01.85-.04c.25-.03.49-.09.72-.18.05,0,.08,0,.08.05v.77Z"></path><path id="path15779" class="cls-2" d="m117.37,73.88c-.27,0-.51.05-.73.16-.22.11-.41.26-.56.46-.16.2-.28.43-.36.71-.09.28-.13.58-.13.92s.04.62.13.9c.08.28.2.53.36.74.16.21.35.37.58.49.23.12.5.18.8.18.23,0,.44-.04.65-.13.21-.09.4-.23.57-.42.17-.19.3-.42.4-.7.1-.28.15-.62.15-1.01,0-.29-.04-.58-.11-.85-.07-.27-.18-.52-.33-.73-.15-.21-.34-.39-.57-.52-.24-.13-.52-.2-.84-.2m.05-.91c.44,0,.84.08,1.2.24.35.16.65.38.9.67.25.29.44.62.57,1.01.13.39.2.81.2,1.26,0,.48-.07.91-.21,1.31-.14.39-.34.73-.59,1.01-.25.28-.55.49-.91.65-.35.16-.74.23-1.16.23-.5,0-.94-.09-1.3-.28-.37-.18-.67-.43-.9-.73-.24-.3-.41-.64-.52-1.03-.11-.38-.17-.77-.17-1.15,0-.44.07-.86.2-1.25.13-.39.33-.72.58-1.01.25-.29.56-.52.91-.68.36-.16.76-.25,1.2-.25"></path><path id="path15783" class="cls-2" d="m121.68,79.22c-.05,0-.08-.03-.08-.09v-4.71c0-.28,0-.52-.01-.74,0-.22-.02-.39-.04-.5,0-.05.03-.08.08-.08h.79s.08.02.1.06c.02.07.03.16.04.28.01.12.02.23.03.33.56-.53,1.19-.79,1.89-.79.77,0,1.33.31,1.67.92.27-.26.57-.48.91-.65.34-.18.73-.26,1.2-.26.24,0,.47.04.71.11.24.07.46.2.65.38.2.18.36.43.48.74.13.31.19.7.19,1.18v3.76c0,.05-.03.08-.09.08h-.87c-.06,0-.09-.03-.09-.09v-3.67c0-.43-.1-.79-.31-1.09-.21-.3-.53-.45-.97-.45-.32,0-.61.07-.86.2-.26.13-.48.31-.69.53.02.08.03.19.04.35.01.16.02.31.02.46v3.69c0,.06-.03.09-.09.09h-.88c-.06,0-.09-.03-.09-.09v-3.71c0-.48-.11-.85-.32-1.11-.21-.26-.53-.4-.94-.4-.29,0-.56.06-.8.17-.24.11-.48.29-.72.53v4.53c0,.05-.03.08-.08.08h-.89Z"></path><path id="path15787" class="cls-2" d="m134.29,73.9c-.22,0-.42.02-.62.05-.19.03-.38.08-.55.15v4.27c.11.03.23.05.35.06.13,0,.25.01.37.01.3,0,.6-.05.89-.14.29-.1.56-.24.79-.44.23-.2.42-.45.56-.76.14-.31.21-.67.21-1.09,0-.65-.17-1.16-.52-1.54-.35-.38-.84-.57-1.48-.57m.13-.92c.46,0,.87.08,1.24.23.37.15.67.36.93.62.25.26.44.58.58.94.13.37.2.76.2,1.18,0,.57-.1,1.07-.31,1.5-.21.43-.48.78-.82,1.06-.34.28-.73.49-1.16.63-.43.14-.87.21-1.31.21-.14,0-.26,0-.36-.01-.1,0-.19-.02-.28-.04v2.52c0,.05-.02.08-.06.09-.08,0-.16.02-.26.03-.1,0-.19.02-.29.03-.1.01-.18.02-.25.03-.07,0-.11.01-.12.01-.04,0-.06-.03-.06-.08v-7.84c0-.06,0-.14,0-.26,0-.11-.01-.21-.02-.3,0-.03,0-.04.03-.05.22-.08.53-.19.93-.31.4-.13.87-.19,1.41-.19"></path><path id="path15791" class="cls-2" d="m141.98,76.3c-.09-.02-.21-.03-.34-.04-.13,0-.3-.01-.49-.01-.61,0-1.07.1-1.37.3-.3.2-.45.47-.45.82,0,.14.03.28.08.42.05.13.14.25.26.36.12.1.28.19.47.25.19.06.42.09.7.09.42,0,.8-.07,1.14-.21v-1.98Zm1.02,1.85v.31c0,.1,0,.2.03.3,0,.03,0,.04-.03.05-.45.22-.87.36-1.24.43-.37.07-.74.11-1.11.11-.34,0-.65-.04-.93-.13-.29-.08-.53-.21-.74-.37-.21-.16-.37-.37-.49-.62-.12-.25-.18-.54-.18-.86s.07-.62.22-.86c.15-.24.35-.44.6-.6.25-.16.55-.28.89-.35.34-.08.71-.11,1.1-.11.24,0,.42,0,.56,0,.14,0,.24.01.31.02v-.3c0-.1-.02-.22-.05-.37-.03-.14-.1-.28-.2-.41-.1-.13-.24-.24-.43-.34-.18-.1-.43-.14-.74-.14s-.59.03-.86.1c-.27.07-.52.16-.74.28-.06.02-.09,0-.09-.06v-.77s.02-.08.06-.1c.24-.12.52-.21.82-.28.31-.07.63-.1.96-.1.4,0,.75.06,1.04.19.29.13.52.3.7.51.18.21.31.46.4.75.09.29.13.59.13.92v2.81Z"></path><path id="path15795" class="cls-2" d="m144.76,74.53c0-.11,0-.23,0-.37,0-.13,0-.26-.01-.39,0-.13,0-.24-.01-.35,0-.11-.01-.19-.02-.24,0-.05.03-.08.08-.08h.78c.05,0,.09.03.11.08.02.06.03.14.04.25,0,.11.02.24.04.38.55-.55,1.2-.83,1.93-.83.23,0,.46.03.7.1.24.07.46.19.66.37.2.18.37.43.5.74.13.31.2.72.2,1.21v3.73c0,.06-.03.09-.09.09h-.88c-.06,0-.09-.03-.09-.1v-3.61c0-.48-.1-.86-.31-1.16-.21-.29-.54-.44-.98-.44-.32,0-.61.07-.87.2-.26.13-.5.32-.7.57v4.45c0,.06-.03.09-.08.09h-.89c-.05,0-.08-.03-.08-.09v-4.61Z"></path><path id="path15799" class="cls-2" d="m151.63,73.1s.07.02.09.06c.26.7.49,1.31.69,1.84.2.53.37.99.51,1.37.14.39.26.71.35.96.09.26.15.46.2.6.2-.58.44-1.25.71-2.01.27-.76.6-1.68.99-2.76.03-.04.06-.06.1-.06h.89c.06,0,.08.03.05.09-.24.68-.49,1.39-.76,2.12-.27.73-.56,1.47-.85,2.22-.29.74-.59,1.48-.9,2.21-.31.73-.61,1.43-.91,2.1-.03.05-.07.08-.14.09l-.94.08c-.05,0-.06-.03-.04-.1.18-.39.39-.82.6-1.3.22-.48.43-.98.64-1.48.03-.04.03-.1,0-.16-.05-.13-.13-.31-.23-.55-.1-.24-.22-.52-.35-.84-.13-.32-.27-.66-.42-1.04-.15-.37-.3-.75-.46-1.14-.16-.39-.31-.77-.46-1.14-.15-.38-.29-.73-.42-1.06-.03-.05,0-.08.06-.08h.99Z"></path><path id="path15803" class="cls-1" d="m36.97,41.65v31.18l7.97-6.36v-20.49l-7.97-4.33Z"></path><path id="path15807" class="cls-1" d="m33.27,66.02l-6.44,2.81v-24.48l6.44,1.91v19.76Z"></path><path id="path15811" class="cls-1" d="m18.23,65.3l4.9-1.28v-15.64s-4.9-.78-4.9-.78v17.7Z"></path><path id="path15815" class="cls-3" d="m71.2,45.98l-6.79,11.15-6.88-11.15h-3.63v20.49h3.43v-14.96l7,11.25,7.03-11.33v15.05h3.4v-20.49h-3.54Z"></path><path id="path15819" class="cls-3" d="m82.52,64.07c2.11,0,3.57-1.38,3.57-3.34v-.79l-3.19.53c-1.55.26-2.34.94-2.34,1.96.03,1.02.82,1.64,1.96,1.64m3.69,2.4l-.03-1.84c-1.02,1.49-2.69,2.2-4.48,2.2-2.61,0-4.42-1.7-4.42-4.13,0-2.66,1.7-4.25,5.07-4.77l3.72-.59v-.23c0-1.52-1.14-2.37-3.1-2.37s-3.48.79-4.86,2.05v-3.31c1.26-1.02,2.99-1.7,5.09-1.7,4.01,0,6.18,2.05,6.18,5.47v9.22h-3.16Z"></path><path id="path15823" class="cls-3" d="m100.65,55.37c-.15-.09-.44-.12-.88-.12-2.49,0-4.01,1.93-4.01,4.89v6.32h-3.37v-14.35h3.34v2.46c.7-1.67,2.4-2.75,4.27-2.75.38,0,.59.03.64.09v3.45Z"></path><path id="path15827" class="cls-3" d="m102.82,45.98v20.49h3.37v-5.68l.73-.67,5.12,6.35h4.16l-6.7-8.11,6.24-6.24h-4.16l-5.39,5.42v-11.57h-3.37Z"></path><path id="path15831" class="cls-3" d="m126.47,57.83c-.21-1.96-1.61-3.31-3.63-3.31s-3.54,1.61-3.78,3.31h7.41Zm2.49,7.47c-1.49.94-3.4,1.52-5.53,1.52-4.74,0-7.73-3.22-7.73-7.55s2.99-7.5,7.2-7.5,6.88,3.16,6.88,7.41c0,.47,0,.73-.09,1.17h-10.63c.26,1.99,1.9,3.57,4.6,3.57,1.82,0,3.57-.64,5.3-1.93v3.31Z"></path><path id="path15835" class="cls-3" d="m138.32,63.72c.56,0,1.14-.12,1.58-.44v3.02c-.56.32-1.41.53-2.58.53-2.9,0-4.6-1.76-4.6-4.77v-7.06h-2.55l5.91-7.54v4.67h3.81v2.87h-3.81v6.44c0,1.61.7,2.28,2.23,2.28"></path><path id="path15839" class="cls-3" d="m144.29,59.3c0,2.46,1.87,4.42,4.27,4.42s4.27-1.96,4.27-4.42-1.87-4.42-4.27-4.42-4.27,1.96-4.27,4.42m11.92,0c0,4.22-3.25,7.52-7.64,7.52s-7.64-3.31-7.64-7.52,3.25-7.52,7.64-7.52,7.64,3.31,7.64,7.52"></path><path id="path15843" d="m156.3,49.26h2.59v.57h-.99v3h-.62v-3h-.99v-.57Z"></path><path id="path15847" d="m160.26,50.22v2.6h-.6v-3.57h.63l1.2,1.82,1.18-1.82h.62v3.57h-.59v-2.62l-1.08,1.63h-.3l-1.07-1.62Z"></path></g></g></svg> 