<?xml version="1.0" encoding="UTF-8"?> <svg xmlns="http://www.w3.org/2000/svg" id="Layer_1" viewBox="0 0 180 120"><defs><style>.cls-1{fill:#fff;}.cls-1,.cls-2{fill-rule:evenodd;}.cls-3{fill:#069;}</style></defs><g id="layer1"><g id="g3019"><path id="path14" class="cls-3" d="m120.4,45.44c0-1.34,1.12-2.44,2.5-2.44h28.79c1.38,0,2.5,1.09,2.5,2.44v29.13c0,1.35-1.12,2.44-2.5,2.44h-28.79c-1.38,0-2.5-1.09-2.5-2.44v-29.13Z"></path><path id="path16" class="cls-2" d="m25.82,71.48h14.1v-4.63h-9v-17.66h-5.1s0,22.29,0,22.29Z"></path><path id="path18" class="cls-2" d="m47.06,71.48v-15.35h-5.1v15.35h5.1Zm-2.55-17.45c1.78,0,2.89-1.18,2.89-2.65-.03-1.51-1.11-2.65-2.85-2.65s-2.89,1.15-2.89,2.65,1.11,2.65,2.82,2.65h.03Z"></path><path id="path20" class="cls-2" d="m49.43,71.48h5.1v-8.57c0-.46.03-.92.17-1.25.37-.92,1.21-1.87,2.62-1.87,1.85,0,2.59,1.41,2.59,3.47v8.21h5.1v-8.8c0-4.72-2.52-6.91-5.88-6.91-2.75,0-3.96,1.54-4.63,2.59h.03v-2.23h-5.1c.07,1.44,0,15.35,0,15.35h0Z"></path><path id="path22" class="cls-2" d="m72.2,49.19h-5.1v22.29h5.1v-4.98l1.28-1.61,4,6.58h6.28l-6.71-9.53,5.87-6.48h-6.14s-4.2,5.8-4.57,6.49v-12.76h0Z"></path><path id="path24" class="cls-2" d="m97.4,65.08c.07-.39.17-1.15.17-2.01,0-3.97-2.01-8-7.32-8-5.67,0-8.29,4.49-8.29,8.56,0,5.03,3.19,8.18,8.76,8.18,2.22,0,4.26-.33,5.94-1.01l-.67-3.37c-1.38.46-2.79.68-4.53.68-2.38,0-4.46-.98-4.63-3.06l10.58.03h0Zm-10.61-3.45c.13-1.31,1.01-3.24,3.19-3.24,2.32,0,2.85,2.06,2.85,3.24h-6.04Z"></path><path id="path26" class="cls-2" d="m110.16,49.19v7.72h-.07c-.74-1.08-2.28-1.8-4.33-1.8-3.93,0-7.39,3.14-7.35,8.51,0,4.98,3.12,8.22,7.02,8.22,2.11,0,4.13-.92,5.14-2.69h.1l.2,2.33h4.53c-.07-1.08-.13-2.95-.13-4.78v-17.51h-5.1,0Zm0,15.18c0,.39-.03.79-.1,1.11-.3,1.41-1.51,2.39-2.99,2.39-2.12,0-3.49-1.7-3.49-4.39,0-2.52,1.18-4.55,3.52-4.55,1.58,0,2.69,1.08,2.99,2.42.07.3.07.62.07.92v2.1h0Z"></path><path id="path28" class="cls-1" d="m130.64,71.46v-15.35h-5.1v15.35h5.1Zm-2.55-17.45c1.78,0,2.89-1.18,2.89-2.65-.03-1.51-1.11-2.65-2.85-2.65s-2.89,1.15-2.89,2.65,1.11,2.65,2.82,2.65h.03Z"></path><path id="path30" class="cls-1" d="m133.46,71.46h5.1v-8.57c0-.46.03-.92.17-1.25.37-.92,1.21-1.87,2.62-1.87,1.85,0,2.59,1.41,2.59,3.47v8.21h5.1v-8.8c0-4.72-2.52-6.91-5.87-6.91-2.75,0-3.96,1.54-4.63,2.59h.03v-2.23h-5.1c.07,1.44,0,15.35,0,15.35h0Z"></path></g></g></svg> 