<?xml version="1.0" encoding="UTF-8"?> <svg xmlns="http://www.w3.org/2000/svg" id="Layer_1" viewBox="0 0 180 120"><defs><style>.cls-1{fill:#464342;}</style></defs><path class="cls-1" d="m71.58,60c0,7.29,4.24,13.59,10.38,16.58l-8.79-24.07c-1.02,2.29-1.59,4.83-1.59,7.5Z"></path><path class="cls-1" d="m102.43,59.07c0-2.28-.82-3.85-1.52-5.08-.93-1.52-1.81-2.8-1.81-4.32,0-1.69,1.28-3.27,3.09-3.27.08,0,.16.01.24.01-3.28-3-7.64-4.84-12.44-4.84-6.43,0-12.1,3.3-15.39,8.3.43.01.84.02,1.19.02,1.93,0,4.91-.23,4.91-.23.99-.06,1.11,1.4.12,1.52,0,0-1,.12-2.11.18l6.71,19.95,4.03-12.09-2.87-7.86c-.99-.06-1.93-.18-1.93-.18-.99-.06-.88-1.58.12-1.52,0,0,3.04.23,4.85.23,1.93,0,4.91-.23,4.91-.23.99-.06,1.11,1.4.12,1.52,0,0-1,.12-2.11.18l6.66,19.8,1.84-6.14c.8-2.55,1.4-4.38,1.4-5.95Z"></path><path class="cls-1" d="m90.32,61.61l-5.53,16.06c1.65.49,3.4.75,5.2.75,2.14,0,4.2-.37,6.12-1.04-.05-.08-.09-.16-.13-.25l-5.66-15.51Z"></path><path class="cls-1" d="m106.16,51.16c.08.59.12,1.22.12,1.89,0,1.87-.35,3.97-1.4,6.6l-5.63,16.27c5.48-3.19,9.16-9.13,9.16-15.92,0-3.2-.82-6.21-2.26-8.84Z"></path><path class="cls-1" d="m90,38.53c-11.84,0-21.47,9.63-21.47,21.47s9.63,21.47,21.47,21.47,21.47-9.63,21.47-21.47c0-11.84-9.63-21.47-21.47-21.47Zm0,41.96c-11.3,0-20.49-9.19-20.49-20.49s9.19-20.49,20.49-20.49,20.49,9.19,20.49,20.49-9.19,20.49-20.49,20.49Z"></path></svg> 