<?xml version="1.0" encoding="UTF-8"?> <svg xmlns="http://www.w3.org/2000/svg" id="Layer_1" viewBox="0 0 180 120"><g><path d="m48.56,58.97h.74c.16-.33.16-.83,0-1.38-.16-.83-.4-1.38-.89-1.32-.49.09-.49.74-.33,1.56.07.49.25.89.49,1.14h0Z"></path><g><path d="m44.23,59.7c.33.16.58.25.65.16.09-.09,0-.16-.09-.33-.16-.33-.58-.58-.89-.74-.83-.33-1.72-.25-2.46.33-.25.16-.49.4-.4.58,0,.09.09.09.16.09.16,0,.89-.33,1.72-.4.49-.02.98.16,1.32.31h0Z"></path><path d="m43.49,60.11c-.49.09-.74.25-.89.4s-.25.25-.25.33v.09h.09c.09,0,.33-.09.33-.09.65-.25,1.07-.25,1.47-.16.25,0,.33.09.4,0v-.16c-.02-.25-.51-.49-1.16-.42h0Z"></path></g><path d="m43.74,60.69c.16-.33.16-1.07,0-1.63-.16-.83-.4-1.32-.98-1.32-.49.09-.49.74-.33,1.63.09.58.33.89.4,1.14.42.67.67.49.92.18h0Z"></path><path d="m47.09,61.58c.33.16.65.09.83-.16.09-.25-.09-.58-.4-.74-.33-.16-.65-.09-.83.16-.18.25.07.58.4.74Z"></path><path d="m49.12,59.79c-.25,0-.49.25-.49.65,0,.33.16.65.49.65.25,0,.49-.25.49-.65-.07-.33-.25-.65-.49-.65Z"></path><path d="m31.82,66.16c-.09-.09-.16-.09-.25,0h-.25c-.16,0-.33-.09-.4-.25s-.09-.4,0-.74l.09-.16c.25-.49.58-1.23.16-1.97-.33-.58-.74-.89-1.32-.98-.58-.09-1.14.16-1.47.58-.58.65-.65,1.47-.58,1.79,0,.09.09.16.16.16.09,0,.25-.09.33-.33v-.09c0-.16.09-.33.25-.58.16-.25.4-.4.65-.4.25-.09.58,0,.83.16.4.25.58.74.4,1.23-.25.25-.33.65-.33,1.07.09.74.58,1.07.98,1.14.4,0,.74-.25.74-.4.09-.13.02-.13.02-.22h0Z"></path><path d="m55.58,64.77c0-.09-.09-.4-.25-.89l-.33-.74c.58-.83.58-1.63.49-2.03-.09-.49-.33-.98-.74-1.47s-1.38-.98-2.61-1.32l-.65-.16s0-1.56-.09-2.21c0-.49-.09-1.23-.33-1.97-.25-.98-.74-1.88-1.38-2.46,1.63-1.72,2.7-3.68,2.7-5.31,0-3.1-3.84-4.09-8.66-2.12l-.98.4s-1.79-1.79-1.88-1.79c-5.29-4.73-22.2,14.14-16.81,18.71l1.14.98c-.33.83-.4,1.72-.33,2.7.16,1.23.83,2.46,1.79,3.44.98.89,2.28,1.47,3.6,1.47,2.12,4.91,6.94,7.84,12.57,8.02,6.05.16,11.19-2.7,13.31-7.77.16-.33.74-1.97.74-3.44.13-1.5-.69-2.05-1.27-2.05h0Zm-24.83,3.84c-.16,0-.4.09-.58,0-1.79-.09-3.84-1.72-4-3.68-.16-2.12.89-3.75,2.86-4.18.25-.09.49-.09.83-.09,1.07.09,2.7.89,3.1,3.26.31,2.23-.16,4.35-2.21,4.69Zm-2.03-9.16c-1.23.25-2.28.89-2.95,1.88-.4-.33-1.14-.98-1.23-1.23-1.07-1.97,1.14-5.87,2.7-8.02,3.75-5.38,9.71-9.47,12.42-8.75.49.16,1.97,1.88,1.97,1.88,0,0-2.77,1.56-5.31,3.68-3.44,2.55-6.05,6.39-7.59,10.56Zm19.27,8.33l.09-.09c0-.09-.09-.09-.09-.09,0,0-2.86.4-5.56-.58.33-.98,1.07-.65,2.28-.49,2.12.16,4.09-.16,5.47-.58,1.23-.33,2.86-1.07,4.09-2.03.4.89.58,1.97.58,1.97,0,0,.33-.09.58.09.25.16.4.49.33,1.32-.25,1.63-.98,2.86-2.03,4.09-.65.74-1.56,1.38-2.52,1.88-.49.25-1.07.49-1.63.65-4.42,1.38-8.82-.09-10.21-3.44-.09-.25-.25-.49-.25-.83-.58-2.21-.09-4.82,1.56-6.45h0c.09-.09.16-.25.16-.4s-.09-.25-.16-.33c-.58-.83-2.52-2.21-2.12-4.91.25-1.97,1.97-3.26,3.51-3.19h.4c.65,0,1.32.16,1.79.16.89,0,1.79-.09,2.77-.89.33-.25.58-.49,1.07-.58.09,0,.16-.09.4,0,.25,0,.49.09.65.25.83.58.89,1.79.98,2.77,0,.58.09,1.88.09,2.21.09.83.25.98.74,1.14.25.09.49.16.83.25,1.07.33,1.72.58,2.12.98.25.25.33.49.4.74.16.89-.74,2.03-2.95,3.1-2.46,1.14-5.31,1.38-7.35,1.14l-.74-.09c-1.63-.25-2.52,1.88-1.56,3.26.65.89,2.37,1.56,4,1.56,3.93,0,6.94-1.63,8.02-3.1l.09-.16c.09-.09,0-.16-.09-.09-.89.65-4.98,3.1-9.31,2.37,0,0-.49-.09-.98-.25-.4-.16-1.14-.49-1.32-1.32,3.66,1.07,5.87,0,5.87,0h0Zm-5.56-.65h0Zm-6.7-15.03c1.32-1.56,3.01-2.95,4.49-3.68q.09,0,.09.09c-.09.25-.33.65-.4.98,0,.09.09.09.09.09.89-.65,2.52-1.32,3.93-1.38.09,0,.09.09.09.09-.25.16-.4.4-.65.65,0,0,0,.09.09.09.98,0,2.37.33,3.26.89.09,0,0,.16-.09.16-1.38-.33-3.6-.58-5.96,0-2.12.49-3.68,1.32-4.82,2.12-.11-.02-.18-.02-.11-.09h0Z"></path></g><g><path d="m152.65,55.77c-2.03,0-2.95,1.47-3.35,2.37-.25.58-.25.74-.4.74-.25,0-.09-.49.09-.98.25-1.07.09-1.88.09-1.88h-2.86v13.73h3.93v-4.33c.49.83,1.32,1.63,2.61,1.63,2.86,0,4.24-2.37,4.24-5.63-.02-3.68-1.74-5.65-4.35-5.65h0Zm-1.05,8.66c-.89,0-1.56-1.14-1.56-2.7s.65-2.7,1.56-2.7c1.07,0,1.56.98,1.56,2.7-.02,1.81-.42,2.7-1.56,2.7h0Z"></path><path d="m74.96,55.77c-1.72,0-2.52,1.38-2.95,2.21-.25.49-.25.89-.49.89s-.09-.33-.25-1.07c-.25-.98-1.07-2.03-2.77-2.03-1.79,0-2.61,1.56-2.95,2.37-.25.58-.25.74-.4.74-.25,0-.09-.49.09-.98.25-1.07.09-1.88.09-1.88h-2.86v10.79h3.84v-5.38c0-1.07.4-2.37,1.23-2.37.89,0,1.07.65,1.07,1.88v5.87h3.93v-5.38c0-.98.4-2.37,1.23-2.37.89,0,1.07.98,1.07,1.88v5.81h3.75v-6.36c-.04-2.79-1.03-4.6-3.64-4.6h0Zm66.34,0c-1.72,0-2.52,1.38-2.95,2.21-.25.49-.25.89-.49.89s-.09-.4-.25-1.07c-.33-.98-.98-2.03-2.77-2.03s-2.61,1.56-2.95,2.37c-.25.58-.25.74-.4.74-.25,0-.09-.49.09-.98.25-1.07.09-1.88.09-1.88h-2.86v10.79h3.93v-5.38c0-1.07.4-2.37,1.23-2.37.89,0,1.07.65,1.07,1.88v5.87h3.93v-5.38c0-.98.4-2.37,1.23-2.37.89,0,1.07.98,1.07,1.88v5.81h3.84v-6.36c-.22-2.79-1.21-4.6-3.82-4.6h0Zm-56.05,0c-3.01,0-5.16,1.07-5.16,1.07v3.26s2.37-1.38,4.33-1.38c1.56,0,1.72.83,1.63,1.56,0,0-.4-.09-1.79-.09-3.19,0-4.82,1.47-4.82,3.75s1.79,3.1,3.35,3.1c2.21,0,3.19-1.47,3.51-2.21.25-.49.25-.83.4-.83.25,0,.16.25.16.74,0,.83,0,1.47.16,2.03h2.97v-5.31c-.09-3.33-1.23-5.69-4.73-5.69h0Zm-.98,8.51c-.89.25-1.38-.09-1.38-.65,0-.83.89-1.23,2.12-1.23.58,0,1.07.09,1.07.09-.02.31-.83,1.54-1.81,1.79Zm12.08-11.52h3.93v14.05h-3.93v-14.05Zm8.26,8.66c0-.98.89-1.88,2.52-1.88,1.79,0,3.26.89,3.6,1.07v-3.77s-1.14-1.07-3.93-1.07c-2.95,0-5.38,1.72-5.38,5.47s2.21,5.81,5.38,5.81c2.46,0,4-1.38,4-1.38v-3.6c-.49.25-1.79,1.14-3.6,1.14-1.94.09-2.59-.8-2.59-1.79h0Zm14.05-5.65c-2.28,0-3.1,2.12-3.26,2.52s-.25.58-.4.58c-.25,0-.09-.49,0-.74.16-.58.58-1.97.58-3.75,0-1.23-.16-1.63-.16-1.63h-3.35v14.05h3.93v-5.38c0-.89.33-2.37,1.32-2.37.83,0,1.07.58,1.07,1.79v5.96h3.93v-5.72c-.16-2.77-.56-5.31-3.66-5.31h0Zm4.82.25v10.79h3.93v-10.79s-.65.4-1.97.4c-1.32-.07-1.97-.4-1.97-.4h0Z"></path><ellipse cx="125.45" cy="54.14" rx="2.37" ry="1.56"></ellipse><path d="m91.21,56.02v10.79h3.91v-10.79s-.65.4-1.97.4c0-.07-1.94-.4-1.94-.4Z"></path><ellipse cx="93.16" cy="54.14" rx="2.37" ry="1.56"></ellipse></g></svg> 