<?xml version="1.0" encoding="UTF-8"?> <svg xmlns="http://www.w3.org/2000/svg" xmlns:xlink="http://www.w3.org/1999/xlink" id="Layer_1" viewBox="0 0 180 120"><defs><style>.cls-1{fill:url(#radial-gradient);fill-rule:evenodd;}.cls-2{fill:#737373;}.cls-3{fill:url(#radial-gradient-2);}.cls-4{fill:url(#linear-gradient);}</style><radialGradient id="radial-gradient" cx="-2944.17" cy="365.62" fx="-2944.17" fy="365.62" r=".03" gradientTransform="translate(-914783.25 -1268277.83) rotate(-130.91) scale(529.06 -380.69)" gradientUnits="userSpaceOnUse"><stop offset="0" stop-color="#00cacc"></stop><stop offset="1" stop-color="#048fce"></stop></radialGradient><radialGradient id="radial-gradient-2" cx="-2936.33" cy="368.81" fx="-2936.33" fy="368.81" r=".03" gradientTransform="translate(1683103.57 -338459.36) rotate(-23.2) scale(572.26 -953.69)" gradientUnits="userSpaceOnUse"><stop offset="0" stop-color="#00bbec"></stop><stop offset="1" stop-color="#2756a9"></stop></radialGradient><linearGradient id="linear-gradient" x1="50.86" y1="-502.56" x2="50.86" y2="-532.68" gradientTransform="translate(0 -460) scale(1 -1)" gradientUnits="userSpaceOnUse"><stop offset="0" stop-color="#00bbec"></stop><stop offset="1" stop-color="#2756a9"></stop></linearGradient></defs><path class="cls-1" d="m58.49,53.56c-.64.07-1.13.6-1.18,1.26-.02.28-.01.3.63,1.96,1.46,3.76,1.82,4.67,1.88,4.8.14.31.35.6.6.86.19.2.32.31.54.45.38.25.57.33,2.06.77,1.45.43,2.24.71,2.92,1.05.88.44,1.5.94,1.89,1.53.28.42.53,1.18.63,1.95.04.3.04.96,0,1.23-.09.59-.27,1.08-.55,1.49-.15.22-.1.18.12-.08.61-.76,1.23-2.05,1.54-3.22.38-1.42.43-2.94.15-4.38-.55-2.8-2.32-5.22-4.82-6.58-.16-.09-.75-.4-1.56-.82-.12-.06-.29-.15-.37-.19-.08-.04-.25-.13-.37-.19-.12-.06-.48-.25-.79-.41-.31-.16-.65-.34-.77-.4-.35-.18-.58-.3-.75-.39-.8-.42-1.14-.59-1.24-.62-.1-.03-.36-.07-.42-.07-.01,0-.08,0-.14.02Z"></path><path class="cls-3" d="m60.24,67.61s-.11.06-.14.08c-.03.02-.1.06-.16.1-.2.12-.73.45-1.19.73-.3.19-.35.21-.73.45-.14.08-.28.17-.32.2-.04.02-.22.13-.39.24-.17.11-.47.29-.67.41-.2.12-.55.34-.78.48-.23.14-.54.33-.68.42-.14.09-.27.17-.29.19-.03.02-1.28.8-1.91,1.18-.48.29-1.03.49-1.6.56-.26.04-.76.04-1.02,0-.71-.1-1.37-.36-1.93-.78-.22-.16-.64-.58-.79-.79-.37-.5-.62-1.05-.74-1.66-.03-.14-.06-.26-.06-.26-.01-.01,0,.2.05.48.04.29.12.71.22,1.07.7,2.77,2.71,5.02,5.42,6.1.78.31,1.57.5,2.43.6.32.04,1.23.05,1.57.02,1.54-.12,2.89-.57,4.26-1.44.12-.08.35-.22.51-.32.16-.1.36-.23.45-.28.09-.06.19-.12.23-.15.04-.02.12-.08.18-.11.06-.04.31-.2.56-.36l1-.63.34-.22h.01s.04-.03.04-.03h.02s.25-.17.25-.17l.87-.55c1.11-.7,1.44-.94,1.96-1.45.22-.21.54-.57.56-.62,0,0,.06-.1.13-.2.27-.4.46-.9.55-1.49.04-.27.04-.93,0-1.23-.08-.58-.27-1.23-.47-1.65-.33-.69-1.02-1.31-2.02-1.81-.28-.14-.56-.27-.59-.26-.02,0-.95.57-2.07,1.26s-2.1,1.3-2.17,1.34c-.07.04-.19.11-.26.16l-.64.4Z"></path><path class="cls-4" d="m46.83,64.28v4.84s.07.28.07.28c.2.88.54,1.51,1.12,2.1.28.28.49.44.79.62.64.38,1.32.56,2.07.56.79,0,1.47-.2,2.17-.62.12-.07.58-.36,1.03-.63l.81-.5v-16.73c0-3.35,0-5.34-.02-5.5-.07-.98-.48-1.88-1.17-2.57-.21-.21-.39-.35-.93-.72-.27-.18-.76-.52-1.09-.75-.33-.23-.88-.61-1.21-.84-.34-.23-.82-.56-1.07-.73-.52-.36-.56-.38-.72-.44-.2-.07-.42-.1-.63-.08-.6.06-1.08.5-1.21,1.09-.02.09-.02,1.31-.02,7.95v7.84h0v4.84Z"></path><path class="cls-2" d="m80.65,70.2v-20.49h6.51c1.98,0,3.56.43,4.71,1.3,1.16.87,1.74,2,1.74,3.38,0,1.16-.33,2.17-.98,3.04-.7.88-1.65,1.52-2.73,1.82v.06c1.42.16,2.53.68,3.37,1.58.85.87,1.27,2.02,1.27,3.43,0,1.75-.69,3.18-2.07,4.25-1.37,1.07-3.12,1.63-5.23,1.63h-6.58Zm3.4-17.76v5.83h2.2c1.19,0,2.11-.29,2.78-.82.68-.58,1.01-1.36,1.01-2.37,0-1.76-1.17-2.63-3.51-2.63h-2.47Zm0,8.56v6.48h2.89c1.27,0,2.26-.29,2.94-.87.69-.59,1.04-1.4,1.04-2.43,0-2.13-1.46-3.18-4.41-3.18h-2.46Zm14.63-8.5c-.54,0-1.01-.19-1.39-.54-.39-.35-.58-.8-.58-1.34s.19-1,.58-1.36c.39-.36.85-.54,1.4-.54s1.03.17,1.42.54c.39.36.58.82.58,1.36s-.19.95-.58,1.33c-.39.36-.87.55-1.43.55Zm1.65,17.7h-3.31v-14.63h3.33v14.63Zm16.4,0h-3.31v-8.24c0-2.75-.97-4.11-2.89-4.11-1.01,0-1.85.39-2.52,1.16-.67.79-1.02,1.81-.98,2.85v8.34h-3.33v-14.63h3.33v2.43h.06c.45-.86,1.14-1.57,1.98-2.07.84-.49,1.8-.74,2.77-.71,1.59,0,2.81.52,3.64,1.56.84,1.03,1.26,2.52,1.26,4.48v8.94Zm16.41-1.17c0,5.36-2.69,8.05-8.1,8.05-1.71.04-3.41-.29-4.99-.95v-3.04c1.59.93,3.12,1.37,4.55,1.37,3.47,0,5.22-1.71,5.22-5.13v-1.59h-.06c-.48.88-1.2,1.61-2.07,2.1-.87.49-1.87.73-2.87.69-.82.03-1.63-.13-2.38-.47-.75-.34-1.41-.84-1.93-1.47-1.15-1.5-1.73-3.36-1.63-5.25,0-2.49.58-4.45,1.76-5.93,1.19-1.47,2.78-2.2,4.83-2.2,1.92,0,3.35.8,4.29,2.37h.06v-2.02h3.33v13.46Zm-3.3-5.52v-1.91c0-1.03-.35-1.91-1.03-2.63-.32-.36-.71-.64-1.15-.83-.44-.19-.91-.28-1.39-.27-1.26,0-2.24.48-2.95,1.4-.77,1.14-1.15,2.51-1.07,3.89,0,1.45.35,2.59,1.01,3.46.69.87,1.59,1.29,2.72,1.29s2.08-.42,2.79-1.23c.72-.84,1.07-1.88,1.07-3.18h0Z"></path></svg> 