<?xml version="1.0" encoding="UTF-8"?> <svg xmlns="http://www.w3.org/2000/svg" id="Layer_1" viewBox="0 0 180 120"><defs><style>.cls-1{fill:#4285f4;}.cls-2{fill:#fbbc05;}.cls-3{fill:#34a853;}.cls-4{fill:#ea4335;}</style></defs><path class="cls-4" d="m83,60.84c0,4.6-3.6,8-8.02,8s-8.02-3.39-8.02-8,3.6-8,8.02-8,8.02,3.36,8.02,8Zm-3.51,0c0-2.88-2.09-4.85-4.51-4.85s-4.51,1.97-4.51,4.85,2.09,4.85,4.51,4.85,4.51-2,4.51-4.85Z"></path><path class="cls-2" d="m100.3,60.84c0,4.6-3.6,8-8.02,8s-8.02-3.39-8.02-8,3.6-8,8.02-8,8.02,3.36,8.02,8Zm-3.51,0c0-2.88-2.09-4.85-4.51-4.85s-4.51,1.97-4.51,4.85,2.09,4.85,4.51,4.85,4.51-2,4.51-4.85Z"></path><path class="cls-1" d="m116.88,53.33v14.36c0,5.91-3.48,8.32-7.6,8.32-3.88,0-6.21-2.59-7.09-4.71l3.06-1.27c.54,1.3,1.88,2.84,4.03,2.84,2.64,0,4.27-1.63,4.27-4.69v-1.15h-.12c-.79.97-2.3,1.82-4.21,1.82-4,0-7.66-3.48-7.66-7.96s3.66-8.03,7.66-8.03c1.91,0,3.42.85,4.21,1.79h.12v-1.3h3.33Zm-3.09,7.54c0-2.82-1.88-4.87-4.27-4.87s-4.45,2.06-4.45,4.87,2.03,4.82,4.45,4.82,4.27-2.03,4.27-4.82Z"></path><path class="cls-3" d="m122.38,44.91v23.43h-3.42v-23.43h3.42Z"></path><path class="cls-4" d="m135.73,63.47l2.73,1.82c-.88,1.3-3,3.54-6.66,3.54-4.54,0-7.94-3.51-7.94-8,0-4.76,3.42-8,7.54-8s6.18,3.3,6.84,5.09l.36.91-10.69,4.43c.82,1.6,2.09,2.42,3.88,2.42s3.03-.88,3.94-2.21h0Zm-8.39-2.88l7.15-2.97c-.39-1-1.58-1.69-2.97-1.69-1.78,0-4.27,1.58-4.18,4.66Z"></path><path class="cls-1" d="m53.99,58.76v-3.39h11.43c.11.59.17,1.29.17,2.05,0,2.55-.7,5.69-2.94,7.94-2.18,2.27-4.97,3.48-8.66,3.48-6.84,0-12.6-5.57-12.6-12.42s5.75-12.42,12.6-12.42c3.79,0,6.48,1.49,8.51,3.42l-2.39,2.39c-1.45-1.36-3.42-2.42-6.12-2.42-5,0-8.9,4.03-8.9,9.02s3.91,9.02,8.9,9.02c3.24,0,5.09-1.3,6.27-2.48.96-.96,1.59-2.33,1.84-4.2h-8.11Z"></path></svg> 