<?xml version="1.0" encoding="UTF-8"?> <svg xmlns="http://www.w3.org/2000/svg" id="Layer_1" viewBox="0 0 180 120"><defs><style>.cls-1{fill:#5f01d1;}</style></defs><g id="layer1"><path id="path1139" class="cls-1" d="m29.18,52.49h6.95l4.05,10.35,4.1-10.35h6.77l-10.19,24.51h-6.81l2.79-6.49-7.65-18.02Z"></path><path id="path1141" class="cls-1" d="m58.09,52.08c-5.22,0-8.52,4.68-8.52,9.35,0,5.25,3.62,9.41,8.42,9.41,3.58,0,4.94-2.18,4.94-2.18v1.7h6.06v-17.86h-6.06v1.62s-1.51-2.04-4.84-2.04Zm1.29,5.74c2.41,0,3.65,1.91,3.65,3.63,0,1.85-1.33,3.67-3.65,3.67-1.92,0-3.66-1.57-3.66-3.59s1.4-3.71,3.66-3.71Z"></path><path id="path1145" class="cls-1" d="m71.08,70.35v-25.75h6.34v9.57s1.51-2.1,4.66-2.1c3.86,0,6.12,2.87,6.12,6.98v11.29h-6.29v-9.74c0-1.39-.66-2.73-2.16-2.73s-2.32,1.36-2.32,2.73v9.74h-6.34Z"></path><path id="path1147" class="cls-1" d="m99.01,52.08c-5.98,0-9.54,4.55-9.54,9.42,0,5.54,4.31,9.33,9.56,9.33s9.55-3.62,9.55-9.24c0-6.15-4.66-9.51-9.57-9.51Zm.06,5.79c2.11,0,3.57,1.76,3.57,3.64,0,1.6-1.36,3.57-3.57,3.57-2.03,0-3.55-1.63-3.55-3.59s1.26-3.62,3.55-3.62Z"></path><path id="path1153" class="cls-1" d="m119.14,52.08c-5.98,0-9.54,4.55-9.54,9.42,0,5.54,4.31,9.33,9.56,9.33s9.55-3.62,9.55-9.24c0-6.15-4.66-9.51-9.57-9.51Zm.06,5.79c2.11,0,3.57,1.76,3.57,3.64,0,1.6-1.36,3.57-3.57,3.57-2.03,0-3.55-1.63-3.55-3.59s1.26-3.62,3.55-3.62Z"></path><circle id="path1155" class="cls-1" cx="133.71" cy="66.52" r="4.21"></circle><path id="path1157" class="cls-1" d="m139.3,60.76h-7.58l6.73-16.16h7.55l-6.7,16.16Z"></path></g></svg> 