<?xml version="1.0" encoding="UTF-8"?> <svg xmlns="http://www.w3.org/2000/svg" fill="none" height="24" viewBox="0 0 24 24" width="24"> <path d="m14.1755 4.22225c.0011-1.2278-2.5024-2.22225-5.58718-2.22225-3.08475 0-5.58608.99557-5.58832 2.22225m0 0c0 1.22779 2.50133 2.22224 5.58832 2.22224 3.08698 0 5.58828-.99445 5.58828-2.22224v8.62225m-11.1766-8.62225v13.33335c.00112 1.2278 2.50245 2.2223 5.58832 2.2223 1.49658 0 2.84778-.2367 3.85038-.6178m-9.43758-10.49338c0 1.22779 2.50133 2.22228 5.58832 2.22228 3.08696 0 5.58836-.99449 5.58836-2.22228m-1.6721 6.02788c-1.0081.3945-2.3907.6389-3.91738.6389-3.08587 0-5.5872-.9944-5.5872-2.2222m17.52608.3533c1.9637 1.9523 1.9637 5.119 0 7.0712-1.9637 1.9523-5.1491 1.9523-7.1128 0-1.9637-1.9522-1.9637-5.1189 0-7.0712 1.9637-1.9522 5.1491-1.9522 7.1128 0z" stroke="#076956" stroke-linecap="round" stroke-linejoin="round" stroke-width="2"></path> </svg> 