<?xml version="1.0" encoding="UTF-8"?>
<svg id="Layer_1" data-name="Layer 1" xmlns="http://www.w3.org/2000/svg" viewBox="0 0 180 120">
  <defs>
    <style>
      .cls-1 {
        fill: #656565;
        stroke-width: 0px;
      }
    </style>
  </defs>
  <path class="cls-1" d="m50.63,42c.48.39,1.09.26,1.63.4,6.52,1.75,10.65,5.91,12.08,12.47,1.08,4.95-.19,9.47-3.45,13.4-2.37,2.85-5.4,4.55-8.96,5.42-.43.11-.94-.07-1.3.31h-4.14c-.09-.06-.18-.17-.28-.18-3.04-.4-5.71-1.62-8.06-3.59-2.48-2.08-4.15-4.66-5.08-7.75-.25-.83-.25-1.73-.63-2.52v-3.91c.13-.1.18-.24.2-.39.83-6.51,5.95-12,12.77-13.39.36-.07.78.09,1.08-.26h4.14Zm-4.42,13.82c.17,1.32.07,2.5.09,3.68.02,1.19,0,2.38,0,3.56.01,1.17-.05,2.35.04,3.52h4.48v-3.6c0-1.19-.02-2.38,0-3.56.02-1.17-.11-2.35.1-3.6.88,0,1.68.03,2.48,0,.82-.04,1.67.16,2.52-.15,0-.72.01-1.41,0-2.1-.02-.67.09-1.36-.08-2.04h-14.73c-.21,1.28-.18,3.44.07,4.3h5.03Z"/>
  <path class="cls-1" d="m147.55,49.83h-5.72c-.08,3.11-.03,6.13-.04,9.14,0,3.03,0,6.05,0,9.12-.82.3-1.6.15-2.49.11v-18.22c-1.02-.3-1.98-.12-2.92-.15-.91-.03-1.83,0-2.78,0-.18-.69-.13-1.29-.07-1.84.06-.07.09-.1.12-.13.03-.02.06-.05.1-.05,4.6-.01,9.2-.03,13.8-.04v2.07Z"/>
  <path class="cls-1" d="m123.6,64.09v-16.16c.74-.36,1.46-.1,2.08-.18.11.1.14.12.16.15.02.03.05.06.05.1.02.23.05.46.05.69,0,6.36,0,12.73-.01,19.09,0,.11-.05.21-.08.3-.21.21-.45.13-.67.17-.84.13-1.38-.2-1.91-.89-3.34-4.38-6.74-8.72-10.12-13.07-.58-.75-1.19-1.49-1.93-2.42-.08,1.5-.03,2.81-.04,4.11,0,1.34,0,2.68,0,4.03v4.03c0,1.34,0,2.68,0,4.06-.82.3-1.6.15-2.45.11v-20.3c.51-.27,1.09-.13,1.65-.13.44,0,.64.39.87.68,1.63,2.08,3.25,4.16,4.87,6.24,2.35,3.02,4.7,6.04,7.05,9.06.07.09.17.14.42.35Z"/>
  <path class="cls-1" d="m88.31,47.82c.06.71.1,1.28-.04,1.97-1.9.07-3.8-.02-5.79.05v18.22c-.79.32-1.51.17-2.35.15-.13-3.07-.04-6.12-.06-9.16-.02-3.02,0-6.04,0-8.97-.36-.33-.68-.24-.97-.25-1.34,0-2.68,0-4.02,0-.85-.01-.9-.09-.93-.93,0-.23,0-.46.01-.69,0-.11.06-.21.11-.38h14.04Z"/>
  <path class="cls-1" d="m95.9,47.8c.78-.08,1.5-.08,2.2,0,.05.06.08.08.1.12.02.03.05.06.05.1.02.19.04.38.04.57,0,6.4,0,12.8,0,19.2,0,.11-.05.22-.1.4-.74.12-1.49.09-2.23.02-.23-.82-.29-18.9-.06-20.4Z"/>
  <path class="cls-1" d="m48.45,53.98c1.8,0,3.61,0,5.41,0,.27,0,.54,0,.8.02.3.02.36.24.35.49,0,.21-.1.37-.33.39-.23.02-.46.03-.69.03-3.68,0-7.37,0-11.05,0-.23,0-.46,0-.69-.02-.29-.03-.36-.24-.35-.49,0-.21.1-.38.33-.39.27-.02.54-.03.8-.03,1.8,0,3.61,0,5.41,0Z"/>
  <path class="cls-1" d="m47.2,60.77c0-1.3,0-2.6,0-3.89,0-.27,0-.53.05-.8.02-.17.18-.24.34-.25.2-.01.4.03.45.25.04.18.04.38.05.57,0,2.75,0,5.5,0,8.24,0,.15,0,.31-.02.46-.02.22-.15.35-.37.36-.26.02-.45-.08-.47-.37-.02-.27-.02-.53-.02-.8,0-1.26,0-2.52,0-3.78Z"/>
  <path class="cls-1" d="m49.93,60.88c0,1.27,0,2.53,0,3.8,0,.23,0,.46-.02.69-.03.29-.24.37-.49.36-.21-.01-.37-.1-.39-.33-.02-.19-.03-.38-.03-.57,0-2.69,0-5.37,0-8.06,0-.8.11-.97.51-.92.6.07.41.56.41.9.02,1.38,0,2.76,0,4.14Z"/>
  <path class="cls-1" d="m48.33,53.08c-1.76,0-3.52,0-5.28,0-.27,0-.54,0-.8-.02-.22-.02-.34-.15-.32-.38.02-.17.12-.28.29-.29.27-.02.53-.03.8-.03,3.63,0,7.27,0,10.9,0,.27,0,.54,0,.8.03.17.02.26.14.27.31,0,.16-.07.31-.24.33-.26.03-.53.04-.8.04-1.87,0-3.75,0-5.62,0Z"/>
</svg>