<?xml version="1.0" encoding="UTF-8"?> <svg xmlns="http://www.w3.org/2000/svg" id="Layer_1" viewBox="0 0 180 120"><defs><style>.cls-1{fill:#656565;}</style></defs><path class="cls-1" d="m111.94,77.69c-.18-.05-.37-.02-.56-.03-1.15,0-2.3-.06-3.45-.12-1.34-.07-2.67-.18-4-.31-1.69-.18-3.38-.39-5.07-.65-2.8-.42-5.58-.94-8.36-1.5-3.5-.71-6.97-1.5-10.44-2.31-3.39-.79-6.77-1.58-10.18-2.25-1.91-.37-3.83-.71-5.76-.96-1.26-.17-2.53-.31-3.8-.41-.88-.07-1.77-.12-2.65-.16-1.49-.07-2.97-.07-4.47-.05-1.04.01-2.08.07-3.12.16-1.05.08-2.08.18-3.12.3-1.02.11-2.03.24-3.05.37-1.06.14-2.12.28-3.18.43-1.22.18-2.42.36-3.64.54-.6.09-1.2.19-1.79.29-.14.02-.27.03-.31-.14-.05-.16.05-.24.2-.3.99-.36,2-.67,3.01-.96,2.92-.85,5.87-1.58,8.85-2.19,1.92-.39,3.86-.74,5.81-1,1.26-.17,2.51-.3,3.78-.39.97-.06,1.94-.09,2.91-.05,1.01.04,2.02.15,3.02.26,1.2.13,2.39.27,3.59.43,1.19.16,2.38.31,3.56.48,1.44.2,2.88.4,4.32.6,1.45.21,2.91.42,4.37.64,1.3.19,2.6.39,3.9.58,1.59.24,3.18.48,4.77.72,1.6.24,3.2.48,4.79.71,1.39.2,2.78.41,4.18.61,1.19.17,2.38.34,3.57.5,1.11.15,2.21.3,3.32.44,1,.13,2.01.24,3.01.36.8.1,1.6.18,2.41.26.72.07,1.43.13,2.15.19,1.03.08,2.05.12,3.08.15,1.05.03,2.1.02,3.16.01.76,0,1.52-.03,2.28-.07,1.24-.05,2.47-.11,3.71-.2.75-.05,1.49-.1,2.24-.15.77-.06,1.55-.13,2.33-.2.69-.06,1.38-.12,2.06-.19.73-.07,1.47-.15,2.2-.22.79-.08,1.58-.17,2.38-.26.83-.1,1.66-.19,2.49-.29,1.03-.13,2.06-.26,3.1-.4,1.05-.14,2.1-.29,3.16-.43.65-.1,1.3-.2,1.95-.29.12-.02.24-.02.35.07v.24c-.09.08-.2.11-.31.15-1.95.65-3.9,1.28-5.86,1.89-3.09.96-6.2,1.87-9.34,2.67-3.56.9-7.14,1.74-10.8,2.16-1.05.12-2.09.21-3.14.24-.07,0-.15-.01-.22.03h-3.39,0Z"></path><path class="cls-1" d="m41.6,56.43c0,.71-.01,1.41,0,2.11.01.47.01.94.1,1.41.12.63.37.9.98,1.05.29.07.6.1.9.14.12.02.27,0,.31.18.04.19.04.38-.1.54-.05.05-.11.03-.16.03-1.38-.04-2.76-.1-4.13-.07-.76.01-1.52.04-2.28.07-.17,0-.24-.07-.29-.21-.1-.34.03-.52.37-.55.29-.03.58-.06.86-.12.69-.13.97-.45,1.07-1.14.08-.58.07-1.16.07-1.74v-10.54c0-.65.02-1.29-.11-1.93-.12-.56-.38-.81-.94-.89-.29-.04-.58-.07-.86-.11-.19-.02-.29-.14-.29-.37,0-.23.09-.36.29-.39.49-.05.98-.07,1.47-.11,1.81-.12,3.61-.12,5.43-.09,1.13.02,2.25.16,3.3.63,1.35.6,2.27,1.58,2.54,3.06.31,1.72-.18,3.18-1.47,4.37-.5.46-1.07.81-1.7,1.09-.21.1-.25.18-.16.39.1.27.28.5.43.74.94,1.5,1.87,3,2.95,4.4.66.86,1.39,1.66,2.21,2.37.52.45,1.13.69,1.8.77.14.02.22.06.22.21,0,.15-.07.22-.2.26-.29.07-.58.1-.86.1-.6.02-1.2-.02-1.79-.14-1.01-.2-1.84-.72-2.57-1.43-.88-.86-1.56-1.86-2.22-2.89-.66-1.02-1.29-2.06-1.97-3.07-.28-.41-.63-.73-1.14-.82-.56-.11-1.13-.07-1.68-.04-.29.02-.37.14-.37.46v2.23h0Zm0-7.65v3.3c0,.16.03.33.03.49,0,.12.07.18.18.2.15.03.3.03.45.04.89.04,1.78.08,2.66-.08,1.17-.22,2-.86,2.43-1.97.35-.91.43-1.85.26-2.81-.28-1.56-1.15-2.63-2.68-3.11-.83-.26-1.68-.25-2.54-.19-.7.05-.79.21-.79.89v3.25h0Z"></path><path class="cls-1" d="m88.7,56.54c0,.77-.01,1.53,0,2.3,0,.39.03.77.1,1.16.1.56.42.88.96.99.3.06.6.1.91.14.12.01.26.01.31.18.05.19.03.37-.09.53-.05.06-.12.04-.18.04-1.14-.02-2.27-.09-3.42-.07-.7.01-1.4.01-2.09.04-.31.01-.62.01-.94.03-.12,0-.18-.04-.22-.14-.06-.14-.07-.29-.02-.44.03-.1.08-.14.18-.16.36-.05.71-.08,1.07-.15.71-.14.98-.47,1.06-1.19.06-.57.07-1.15.07-1.72,0-3.76,0-7.52,0-11.28,0-.41-.03-.82-.12-1.23-.11-.48-.41-.73-.88-.79-.29-.04-.58-.07-.88-.11-.22-.03-.31-.12-.31-.36,0-.25.07-.37.29-.39.38-.04.76-.07,1.15-.1,1.91-.12,3.82-.14,5.74-.1,1.15.03,2.29.17,3.37.66,1.36.62,2.26,1.64,2.5,3.15.26,1.66-.22,3.06-1.45,4.21-.5.47-1.07.84-1.7,1.11-.25.11-.3.2-.17.48.12.26.29.52.45.77.91,1.45,1.82,2.91,2.87,4.27.67.86,1.39,1.68,2.21,2.38.53.45,1.14.71,1.83.79.14.02.22.07.23.21,0,.14-.07.22-.2.26-.29.07-.58.1-.86.1-.67.02-1.32-.02-1.98-.18-1.05-.26-1.89-.86-2.61-1.62-.83-.88-1.49-1.87-2.14-2.88-.6-.94-1.2-1.89-1.82-2.83-.39-.59-.92-.88-1.62-.88h-1.08c-.38,0-.49.12-.49.5v2.32h0Zm0-7.75v3.42c0,.12.01.24.03.37.01.12.08.17.19.19.16.03.31.03.47.04.88.04,1.77.08,2.64-.08,1.16-.22,1.98-.86,2.42-1.96.35-.89.4-1.82.27-2.76-.22-1.58-1.3-2.8-2.84-3.21-.86-.22-1.72-.21-2.6-.13-.45.04-.58.22-.58.67v3.46h0Z"></path><path class="cls-1" d="m75.5,51.74v7.62c0,.36.03.72.14,1.07.14.43.36.57.81.5.28-.04.54-.12.81-.21.18-.06.24-.03.29.16.04.13.04.26.02.39-.05.24-.12.31-.36.35-1.14.19-2.27.44-3.37.82-.22.07-.39-.05-.39-.28,0-.34,0-.67,0-1.01,0-.07,0-.15-.05-.19-.07-.05-.13.03-.18.06-.66.44-1.34.84-2.13,1.03-2.62.61-5.33-.74-6.06-3.61-.51-2.02-.14-3.89,1.19-5.53.9-1.11,2.1-1.77,3.49-2.07,1.16-.26,2.33-.29,3.48.03.11.03.16,0,.2-.1.02-.08.03-.16.03-.24v-4.67c0-.24-.03-.49-.06-.73-.03-.31-.2-.56-.45-.73-.17-.12-.34-.22-.52-.33-.17-.1-.19-.25-.18-.42.01-.16.12-.22.26-.26.92-.3,1.84-.61,2.72-1.05.21-.11.4.02.39.26-.02.6-.06,1.2-.06,1.79,0,2.44,0,4.9,0,7.34h-.01Zm-2.08,4.73v-2.79c0-.43-.12-.82-.42-1.15-.76-.85-1.72-1.11-2.81-.92-1.15.2-1.96.86-2.49,1.89-.62,1.22-.71,2.5-.45,3.82.16.86.5,1.64,1.1,2.3.86.94,1.94,1.33,3.2,1.2.56-.06,1.07-.26,1.53-.58.16-.12.26-.26.29-.45.02-.18.05-.37.05-.56v-2.74h0Z"></path><path class="cls-1" d="m59.33,54.85h-2.95c-.12,0-.23,0-.35.03-.26.04-.35.11-.35.37-.05,1.62.31,3.11,1.53,4.28.63.61,1.41.96,2.28,1.07.58.07,1.15.1,1.7-.12.52-.19.92-.53,1.28-.94.09-.1.16-.24.34-.24.29,0,.45.24.31.5-.37.71-.9,1.26-1.58,1.66-.93.56-1.95.81-3.04.75-1.21-.08-2.29-.48-3.18-1.33-.64-.62-1.07-1.36-1.3-2.21-.58-2.15-.25-4.14,1.08-5.93.87-1.17,2.06-1.85,3.53-2.02,1.07-.12,2.08.03,2.99.62.78.5,1.3,1.2,1.49,2.13.07.34.06.68,0,1.02-.04.21-.17.31-.37.33-.16.02-.33.04-.49.04h-2.93,0Zm-1.68-.87c.71,0,1.41.01,2.11-.04.33-.03.65-.04.96-.14.16-.05.29-.14.31-.32.07-.56-.07-1.07-.5-1.45-.51-.45-1.14-.55-1.78-.49-.95.1-1.7.57-2.3,1.3-.2.25-.37.52-.43.84-.05.24,0,.29.24.29h1.41-.01Z"></path><path class="cls-1" d="m125.21,54.85h-2.88c-.15,0-.3,0-.45.03-.21.03-.31.11-.32.32-.06,1.66.31,3.18,1.57,4.37.62.59,1.38.92,2.23,1.03.5.06,1,.08,1.51-.05.56-.15,1.01-.49,1.4-.91.06-.07.12-.14.18-.21.12-.14.31-.17.45-.07.16.1.2.27.11.44-.56,1.05-1.42,1.75-2.53,2.12-1.76.59-3.42.37-4.92-.74-.92-.69-1.45-1.64-1.71-2.74-.48-2.09-.13-4.03,1.19-5.75.88-1.14,2.05-1.8,3.49-1.96,1.21-.14,2.33.07,3.31.85.63.5,1.05,1.15,1.18,1.96.05.32.05.65-.02.97-.05.23-.13.31-.36.33-.19.03-.38.04-.57.04h-2.84Zm-1.49-.86c.51,0,1.22.01,1.93-.04.33-.03.65-.04.96-.15.16-.05.28-.16.29-.33.05-.5-.05-.96-.41-1.34-.52-.53-1.17-.65-1.87-.58-.98.09-1.76.59-2.36,1.36-.19.24-.35.52-.39.83-.03.22,0,.26.22.26h1.63,0Z"></path><path class="cls-1" d="m119.5,51.35c0,.26-.05.32-.29.36-.1.02-.2.03-.31.05-.39.06-.7.28-.93.59-.35.46-.58.98-.84,1.49-.81,1.64-1.5,3.33-2.21,5.01-.44,1.05-.87,2.12-1.29,3.18-.07.17-.19.23-.35.22-.16,0-.33-.01-.39-.22-.5-1.62-1.2-3.18-1.84-4.75-.6-1.45-1.2-2.9-1.8-4.35-.1-.23-.22-.45-.37-.65-.3-.39-.73-.52-1.19-.56-.33-.03-.48-.27-.35-.58.05-.13.14-.19.29-.18.49.03.98.05,1.47.05.35,0,.7.03,1.05.02.68-.02,1.36-.03,2.04-.08.09,0,.16.02.21.1.2.27.06.62-.26.67-.2.03-.4.05-.6.13-.23.08-.31.22-.25.46.16.66.41,1.3.65,1.94.52,1.42,1.1,2.81,1.72,4.19.02.05.04.1.07.14.05.08.05.23.16.22.09,0,.12-.14.16-.23.31-.65.54-1.32.8-1.99.43-1.09.85-2.18,1.26-3.27.12-.32.21-.65.28-.99.05-.29-.03-.45-.32-.52-.2-.05-.41-.08-.62-.1-.18-.01-.23-.11-.26-.25-.03-.14-.01-.26.06-.39.05-.07.11-.12.2-.11.43.03.87.04,1.3.07.83.04,1.65,0,2.47-.06.1,0,.16.03.2.1.06.1.07.2.07.29h0Z"></path><path class="cls-1" d="m133.95,57.08c0,.81,0,1.63,0,2.44,0,.31.02.62.1.93.07.32.26.52.59.58.29.06.59.06.88.1.11.01.22.03.33.03.18,0,.25.09.28.24.03.16-.03.4-.14.46-.03.01-.07.03-.1.03-.65-.02-1.3-.05-1.95-.07-.71-.01-1.43-.03-2.15.01-.45.03-.9.04-1.34.05-.15,0-.26-.18-.25-.41,0-.22.09-.31.32-.34.24-.03.5-.07.73-.14.31-.09.48-.29.54-.6.08-.37.07-.75.07-1.13v-5.86c0-.41-.15-.72-.49-.94-.14-.09-.26-.19-.4-.27-.14-.09-.17-.21-.16-.36.01-.14.1-.21.22-.26.87-.35,1.71-.76,2.53-1.22.22-.13.37-.04.38.22v1.48c0,.07-.02.16.05.19.07.03.12-.05.16-.09.48-.4.96-.79,1.51-1.09.43-.24.87-.41,1.37-.4.62.01,1.15.42,1.2.95.07.71-.32,1.26-.96,1.41-.3.07-.56,0-.81-.16-.18-.11-.36-.22-.55-.3-.98-.42-1.7.14-1.85,1.04-.07.41-.11.83-.11,1.25v2.21h0Z"></path><path class="cls-1" d="m106.55,61.89c-.96-.07-1.99-.08-3.02-.07-.55,0-1.1.05-1.66.07-.19,0-.28-.1-.31-.34-.02-.2.06-.36.22-.39.26-.05.53-.09.79-.13.37-.06.58-.28.64-.65.02-.15.05-.3.05-.45.05-1.19.03-2.38.03-3.57v-2.27c0-.3-.03-.59-.04-.89-.01-.26-.14-.48-.35-.64-.16-.13-.33-.25-.51-.37-.14-.09-.19-.2-.18-.35.01-.16.11-.24.25-.29.88-.35,1.74-.74,2.57-1.22.23-.14.41-.04.41.22-.03.86-.07,1.72-.1,2.57v6.17c0,.31.02.62.06.94.07.51.28.73.79.81.2.03.39.05.58.08.22.03.33.18.3.41-.04.31-.1.34-.54.34h0Z"></path><path class="cls-1" d="m102.4,44.97c-.05-.89.62-1.89,1.93-1.89,1.15,0,1.79.92,1.77,1.86-.03,1.11-.74,1.81-1.88,1.82-1.15,0-1.87-.87-1.81-1.78h0Z"></path></svg> 