<?xml version="1.0" encoding="UTF-8"?>
<svg id="Layer_1" data-name="Layer 1" xmlns="http://www.w3.org/2000/svg" viewBox="0 0 180 120">
  <defs>
    <style>
      .cls-1 {
        fill: #656565;
        stroke-width: 0px;
      }
    </style>
  </defs>
  <path class="cls-1" d="m114.68,49c1.2.2,2.39.46,3.48,1.05,1.33.71,2.43,1.67,3.27,3-.98.56-1.94,1.11-2.94,1.68-.91-1.37-2.22-2.09-3.81-2.33-1.39-.2-2.72.02-3.94.75-2.22,1.33-3.24,4.14-2.43,6.71.83,2.63,3.19,4.03,6.44,3.82,2.11-.14,4.01-1.54,4.31-3.24h-5.21v-3.01h8.71c.5,5.02-2.24,8.9-7.19,9.55-2.58.34-4.98-.16-7.11-1.69-3.12-2.23-4.47-6.43-3.2-10.05,1.25-3.57,3.81-5.6,7.55-6.16.08-.01.16-.05.25-.07.61,0,1.22,0,1.83,0Z"/>
  <path class="cls-1" d="m61.58,49c.81.17,1.62.29,2.4.6,1.77.7,3.18,1.82,4.24,3.5-.98.57-1.95,1.13-2.96,1.71-1.11-1.75-2.75-2.51-4.78-2.46-1.64.04-3.06.61-4.16,1.87-1.97,2.28-1.65,6.36.63,8.25,2.05,1.71,6.35,1.93,8.32-1.2.97.56,1.94,1.12,2.95,1.7-.86,1.42-2.02,2.45-3.47,3.17-4.6,2.28-10.27.36-12.35-4.26-2.4-5.34.52-12,7.08-12.8.07,0,.13-.05.2-.07.64,0,1.28,0,1.92,0Z"/>
  <path class="cls-1" d="m21.2,49.35c2.28,0,4.56-.03,6.84.01,2.43.05,4.55,1.63,5.35,3.9.79,2.23.11,4.77-1.7,6.31-1.04.89-2.25,1.37-3.62,1.41-1.11.03-2.23,0-3.4,0v5.72h-3.48v-17.37Zm3.49,8.42c.12.01.19.02.26.02.97,0,1.95.02,2.92-.01,1.28-.04,2.26-1,2.39-2.27.14-1.42-.63-2.62-1.94-2.88-.96-.19-1.94-.05-2.91-.07-.24,0-.49-.06-.72.05v5.16Z"/>
  <path class="cls-1" d="m44.1,49.36c2.05,5.78,4.09,11.54,6.14,17.34h-3.76c-.34-1.01-.69-2.03-1.04-3.08h-6.98c-.34,1.01-.69,2.04-1.05,3.09h-3.73c2.05-5.8,4.08-11.57,6.12-17.35h4.3Zm-4.52,11h4.77c-.79-2.33-1.56-4.62-2.38-7.05-.82,2.42-1.6,4.71-2.39,7.05Z"/>
  <path class="cls-1" d="m91.51,63.61c-.34,1.02-.69,2.04-1.04,3.08h-3.73c2.04-5.79,4.08-11.55,6.11-17.33h4.3c2.04,5.77,4.09,11.54,6.14,17.34h-3.76c-.35-1.02-.7-2.05-1.05-3.09h-6.98Zm1.12-3.26h4.76c-.79-2.34-1.57-4.63-2.38-7.04-.82,2.42-1.59,4.71-2.38,7.04Z"/>
  <path class="cls-1" d="m71.42,49.36h3.4v7.66c2.06-2.63,4.03-5.14,6-7.66h3.99c-2.18,2.84-4.32,5.62-6.46,8.42,2.24,2.97,4.46,5.91,6.72,8.91h-3.99c-2.04-2.65-4.09-5.32-6.23-8.09v8.09h-3.43v-17.33Z"/>
  <path class="cls-1" d="m126.14,49.36h10.65v3.26h-7.19v3.68h6.56v3.24h-6.55v3.89h7.3v3.27h-10.76v-17.33Z"/>
  <path class="cls-1" d="m145.82,49.38c1.31,1.78,2.64,3.58,4.02,5.44,1.41-1.85,2.8-3.67,4.17-5.47h4.79c-2.22,2.92-4.4,5.78-6.59,8.66,2.19,2.88,4.38,5.74,6.6,8.67h-4.8c-1.36-1.78-2.74-3.59-4.16-5.45-1.36,1.84-2.7,3.65-4.04,5.47h-6.71c2.15-2.91,4.25-5.77,6.39-8.67-2.11-2.86-4.22-5.73-6.37-8.64h6.71Zm-.57,16.27c1.88-2.55,3.74-5.08,5.62-7.62-1.89-2.56-3.76-5.09-5.61-7.6h-4.06c1.89,2.56,3.74,5.08,5.61,7.6-1.87,2.53-3.72,5.05-5.62,7.62h4.06Z"/>
</svg>