<?xml version="1.0" encoding="UTF-8"?> <svg xmlns="http://www.w3.org/2000/svg" id="Layer_1" viewBox="0 0 180 120"><defs><style>.cls-1{fill:#656565;}</style></defs><g><polygon class="cls-1" points="28.12 74.57 46.7 67.94 46.54 68.57 38.71 57.16 47.21 68.07 47.52 68.47 47.04 68.7 28.12 76.65 27.7 75.7 28.12 74.57"></polygon><g><polygon class="cls-1" points="28.47 53.27 28.61 43.35 22.08 51.55 28.47 53.27"></polygon><polygon class="cls-1" points="19.94 54.24 9 67.98 28.12 76.65 28.42 56.65 19.94 54.24"></polygon></g><polygon class="cls-1" points="28.44 52.18 34.8 50.84 34.65 51.21 31.81 46.24 35.07 50.95 35.25 51.22 34.92 51.32 28.44 53.28 28.44 52.36 28.44 52.18"></polygon></g><path class="cls-1" d="m51.86,52.45h10.13v1.59h-4.08v13.37h-1.95v-13.37h-4.1v-1.59Z"></path><path class="cls-1" d="m68.42,67.6c-3.33,0-5.86-2.36-5.86-6.09s2.62-6.05,5.94-6.05,5.94,2.34,5.94,6.05-2.68,6.09-6.03,6.09Zm0-1.72c2.04,0,4.03-1.4,4.03-4.38s-1.95-4.36-3.97-4.36-3.93,1.4-3.93,4.36,1.82,4.38,3.86,4.38Z"></path><path class="cls-1" d="m82.28,55.45c3.16,0,5.58,2.36,5.58,6.03s-2.42,6.12-5.58,6.12c-2.15,0-3.67-1.16-4.4-2.36v7.75h-1.95v-17.34h1.95v2.17c.71-1.25,2.25-2.36,4.4-2.36Zm-.41,1.69c-2.12,0-3.99,1.63-3.99,4.36s1.87,4.38,3.99,4.38,3.99-1.63,3.99-4.4-1.82-4.34-3.99-4.34Z"></path><path class="cls-1" d="m105.01,54.04h-9.08v5h8.44v1.61h-8.44v5.15h9.08v1.61h-11.03v-14.98h11.03v1.61Z"></path><path class="cls-1" d="m111.87,55.45c2.92,0,4.83,1.5,5.43,3.97h-2.1c-.41-1.42-1.59-2.32-3.33-2.32-2.15,0-3.73,1.52-3.73,4.4s1.59,4.44,3.73,4.44c1.74,0,2.9-.84,3.33-2.32h2.1c-.6,2.34-2.51,3.97-5.43,3.97-3.35,0-5.73-2.36-5.73-6.09s2.38-6.05,5.73-6.05Z"></path><path class="cls-1" d="m118.8,51.53h1.95v5.82c.77-1.25,2.23-1.91,3.88-1.91,2.62,0,4.7,1.67,4.7,5.04v6.93h-1.93v-6.65c0-2.4-1.31-3.63-3.28-3.63s-3.37,1.24-3.37,3.78v6.5h-1.95v-15.88Z"></path><path class="cls-1" d="m136.52,67.6c-3.35,0-5.82-2.36-5.82-6.09s2.38-6.05,5.82-6.05,5.64,2.4,5.64,5.62c0,.43-.02.77-.06,1.18h-9.4c.15,2.38,1.82,3.69,3.82,3.69,1.76,0,2.88-.9,3.3-2.17h2.1c-.6,2.14-2.49,3.82-5.41,3.82Zm-3.8-6.93h7.43c.02-2.3-1.7-3.56-3.71-3.56-1.91,0-3.5,1.27-3.71,3.56Z"></path><path class="cls-1" d="m143.64,51.53h1.95v15.88h-1.95v-15.88Z"></path><path class="cls-1" d="m152.96,67.6c-3.33,0-5.86-2.36-5.86-6.09s2.62-6.05,5.94-6.05,5.94,2.34,5.94,6.05-2.68,6.09-6.03,6.09Zm0-1.72c2.04,0,4.03-1.4,4.03-4.38s-1.95-4.36-3.97-4.36-3.93,1.4-3.93,4.36,1.82,4.38,3.86,4.38Z"></path><path class="cls-1" d="m169.07,60.75c0-2.4-1.31-3.63-3.28-3.63s-3.37,1.24-3.37,3.78v6.5h-1.95v-11.76h1.95v1.67c.77-1.22,2.19-1.89,3.78-1.89,2.73,0,4.81,1.67,4.81,5.04v6.93h-1.93v-6.65Z"></path></svg> 