<?xml version="1.0" encoding="UTF-8"?> <svg xmlns="http://www.w3.org/2000/svg" id="Layer_1" viewBox="0 0 180 120"><defs><style>.cls-1{fill:#656565;}</style></defs><circle class="cls-1" cx="61.46" cy="59.97" r="1.47"></circle><path class="cls-1" d="m61.46,68.81c-.79,0-1.47.68-1.47,1.47s.63,1.47,1.47,1.47,1.47-.68,1.47-1.47-.63-1.47-1.47-1.47h0Z"></path><path class="cls-1" d="m51.21,68.81c-.79,0-1.47.68-1.47,1.47s.63,1.47,1.47,1.47c.79,0,1.47-.68,1.47-1.47s-.68-1.47-1.47-1.47h0Z"></path><circle class="cls-1" cx="51.21" cy="59.97" r="2.95"></circle><circle class="cls-1" cx="40.95" cy="49.72" r="2.95"></circle><circle class="cls-1" cx="40.95" cy="59.97" r="2.95"></circle><circle class="cls-1" cx="51.21" cy="49.72" r="2.95"></circle><circle class="cls-1" cx="61.46" cy="49.72" r="2.95"></circle><circle class="cls-1" cx="40.95" cy="70.28" r="2.95"></circle><path class="cls-1" d="m92.14,58.29c-1.16-1.74-2.95-2.84-5.42-2.84-3.95,0-7.2,3.31-7.2,7.57s3.26,7.57,7.2,7.57c2.42,0,4.26-1.1,5.42-2.84v2.47h2.47v-14.42h-2.47v2.47h0Zm-5.1,9.89c-2.84,0-5.05-2.21-5.05-5.16s2.21-5.16,5.05-5.16,5.1,2.21,5.1,5.16-2.21,5.16-5.1,5.16Z"></path><path class="cls-1" d="m105.13,55.55c-2.42,0-4.26,1.1-5.42,2.84v-8.26h-2.47v20.2h2.47v-2.47c1.16,1.74,2.95,2.84,5.42,2.84,3.95,0,7.2-3.31,7.2-7.57.05-4.26-3.21-7.57-7.2-7.57h0Zm-.32,12.72c-2.9,0-5.1-2.21-5.1-5.16s2.21-5.16,5.1-5.16,5.05,2.21,5.05,5.16-2.15,5.16-5.05,5.16h0Z"></path><path class="cls-1" d="m116.8,58.29v-2.42h-2.53v14.42h2.53v-7.68c0-3.42,2.37-4.52,4.52-4.42v-2.63c-1.84.05-3.63.68-4.52,2.74h0Z"></path><rect class="cls-1" x="123.53" y="55.87" width="2.37" height="14.42"></rect><path class="cls-1" d="m139.9,65.71c-.79,1.53-2.37,2.53-4.32,2.53-2.84,0-5.05-2.26-5.05-5.16s2.15-5.16,5.05-5.16c1.89,0,3.52,1,4.21,2.58l2.1-1.21c-1.1-2.31-3.47-3.79-6.31-3.79-4.32,0-7.52,3.36-7.52,7.63s3.21,7.63,7.52,7.63c2.79,0,5.21-1.53,6.42-3.79l-2.1-1.26h0Z"></path><path class="cls-1" d="m72.56,55.45v.42h-2.31v2.42h2.31v12h2.53v-12h3.84v-2.42h-3.84v-.42c0-2.53,1.31-3.47,3.84-3.26v-2.47c-4.16-.26-6.37,1.89-6.37,5.73h0Z"></path><circle class="cls-1" cx="124.69" cy="51.61" r="1.47"></circle></svg> 