<?xml version="1.0" encoding="UTF-8"?>
<svg id="Layer_1" xmlns="http://www.w3.org/2000/svg" version="1.1" viewBox="0 0 49.16 49.16">
  <!-- Generator: Adobe Illustrator 29.0.0, SVG Export Plug-In . SVG Version: 2.1.0 Build 186)  -->
  <defs>
    <style>
      .st0 {
        fill: #010101;
      }

      .st1 {
        fill: #ffdcb3;
      }

      .st2 {
        opacity: .8;
      }
    </style>
  </defs>
  <circle class="st1" cx="24.58" cy="24.58" r="24.58"/>
  <g class="st2">
    <g>
      <path class="st0" d="M34.02,12.51h-3.71c-.67,0-1.21.54-1.21,1.21v19.95c0,.67.54,1.21,1.21,1.21h3.71c.67,0,1.21-.54,1.21-1.21V13.72c0-.67-.54-1.21-1.21-1.21h0ZM34.62,33.68c0,.33-.27.6-.6.6h-3.71c-.33,0-.6-.27-.6-.6V13.72c0-.33.27-.6.6-.6h3.71c.33,0,.6.27.6.6v19.95h0ZM26.19,17.63h-3.71c-.67,0-1.21.54-1.21,1.21v14.83c0,.67.54,1.21,1.21,1.21h3.71c.67,0,1.21-.54,1.21-1.21v-14.84c0-.67-.54-1.21-1.21-1.21h0ZM26.79,33.68c0,.33-.27.6-.6.6h-3.71c-.33,0-.6-.27-.6-.6v-14.83c0-.33.27-.6.6-.6h3.71c.33,0,.6.27.6.6v14.83h0ZM18.36,22.76h-3.71c-.67,0-1.21.54-1.21,1.21v9.71c0,.67.54,1.21,1.21,1.21h3.71c.67,0,1.21-.54,1.21-1.21v-9.71c0-.67-.54-1.21-1.21-1.21ZM18.96,33.68c0,.33-.27.6-.6.6h-3.71c-.33,0-.6-.27-.6-.6v-9.71c0-.33.27-.6.6-.6h3.71c.33,0,.6.27.6.6v9.71h0Z"/>
      <path class="st0" d="M26.19,35.32h-3.71c-.9,0-1.64-.73-1.64-1.64v-14.83c0-.9.73-1.64,1.64-1.64h3.71c.9,0,1.63.73,1.64,1.63v14.84c0,.9-.73,1.64-1.64,1.64ZM22.48,18.67c-.1,0-.18.08-.18.18v14.83c0,.1.08.18.18.18h3.71c.1,0,.18-.08.18-.18v-.59h0s0-14.24,0-14.24c0-.1-.08-.18-.18-.18h-3.71ZM34.02,35.32h-3.71c-.9,0-1.64-.73-1.64-1.64V13.73c0-.9.73-1.64,1.64-1.64h3.71c.9,0,1.63.73,1.63,1.63v19.96c0,.9-.73,1.64-1.63,1.64ZM30.31,13.54c-.1,0-.18.08-.18.18v19.96c0,.1.08.18.18.18h3.71c.1,0,.18-.08.18-.18V13.72c0-.1-.08-.18-.18-.18h-3.71ZM18.36,35.32h-3.71c-.9,0-1.64-.73-1.64-1.64v-9.71c0-.9.73-1.64,1.64-1.64h3.71c.9,0,1.63.73,1.64,1.64v9.71c0,.9-.73,1.64-1.64,1.64ZM14.65,23.79c-.1,0-.18.08-.18.18v9.71c0,.1.08.18.18.18h3.71c.1,0,.18-.08.18-.18v-9.71c0-.1-.08-.18-.18-.18h-3.71Z"/>
    </g>
  </g>
</svg>