<?xml version="1.0" encoding="UTF-8"?>
<svg id="Layer_1" xmlns="http://www.w3.org/2000/svg" version="1.1" viewBox="0 0 49.16 49.16">
  <!-- Generator: Adobe Illustrator 29.0.0, SVG Export Plug-In . SVG Version: 2.1.0 Build 186)  -->
  <defs>
    <style>
      .st0 {
        fill: #010101;
      }

      .st1 {
        fill: #ffdcb3;
      }

      .st2 {
        opacity: .8;
      }
    </style>
  </defs>
  <circle class="st1" cx="24.58" cy="24.58" r="24.58"/>
  <g class="st2">
    <g>
      <path class="st0" d="M31.34,35.44h-2.73c-2,0-3.62-1.62-3.62-3.62,0-.19.15-.35.35-.35s.35.15.35.35c0,1.61,1.31,2.92,2.92,2.92h2.73c1.61,0,2.92-1.31,2.92-2.92v-2.73c0-.19.15-.35.35-.35h1.74c.18,0,.33-.09.42-.24s.09-.32.01-.48l-2.21-4.14c-.03-.05-.04-.11-.04-.17v-1.06c0-3.42-1.71-6.59-4.47-8.27-.09-.05-.18-.1-.27-.16-2.68-1.54-5.96-1.54-8.76.01l-.1.06c-4.19,2.37-5.75,7.56-3.63,12.06.55,1.17,1.3,2.37,2.24,3.58.05.06.07.14.07.21v4.87c0,.19-.15.35-.35.35s-.35-.15-.35-.35v-4.74c-.93-1.22-1.69-2.43-2.24-3.61-2.27-4.84-.59-10.41,3.92-12.96l.11-.06c3.01-1.67,6.55-1.67,9.44,0,.09.05.19.11.28.17,2.96,1.81,4.8,5.21,4.8,8.86v.97l2.17,4.06c.2.37.19.81-.03,1.17s-.59.58-1.02.58h-1.39v2.38c0,2-1.62,3.62-3.62,3.62h0Z"/>
      <path class="st0" d="M31.34,35.72h-2.73c-2.15,0-3.9-1.75-3.9-3.9,0-.35.28-.63.63-.63s.63.28.63.63c0,1.45,1.18,2.63,2.63,2.63h2.73c1.45,0,2.63-1.18,2.63-2.63v-2.73c0-.35.28-.63.63-.63h1.74c.08,0,.13-.03.17-.1.04-.06.04-.13,0-.2l-2.21-4.14c-.05-.08-.07-.18-.07-.3v-1.06c0-3.32-1.66-6.4-4.33-8.03l-.26-.16c-2.59-1.49-5.76-1.49-8.47.01l-.1.06c-4.06,2.3-5.57,7.32-3.51,11.69.54,1.15,1.28,2.33,2.2,3.52.09.11.13.25.13.39v4.87c0,.35-.28.63-.63.63s-.63-.28-.63-.63v-4.65c-.92-1.21-1.67-2.42-2.22-3.59-2.34-4.98-.6-10.71,4.03-13.33l.11-.06c3.1-1.72,6.74-1.72,9.73,0l.28.17c3.05,1.86,4.94,5.35,4.94,9.11v.89l2.14,4c.25.46.23,1-.04,1.45-.27.45-.74.71-1.26.71h-1.1v2.1c0,2.15-1.75,3.91-3.9,3.91ZM25.34,31.75s-.06.03-.06.06c0,1.84,1.5,3.33,3.33,3.33h2.73c1.84,0,3.33-1.5,3.33-3.34v-2.67h1.67c.32,0,.61-.16.77-.44.16-.27.17-.6.02-.89l-2.2-4.2v-.97c0-3.56-1.79-6.87-4.66-8.62l-.28-.16c-2.81-1.61-6.24-1.61-9.16,0l-.11.06c-4.37,2.48-6.01,7.89-3.8,12.59.54,1.16,1.29,2.35,2.21,3.56l.06.08v4.84c0,.08.13.08.13,0v-4.87c-.96-1.26-1.72-2.48-2.28-3.67-2.18-4.64-.57-9.98,3.74-12.43l.1-.06c2.89-1.6,6.27-1.6,9.04-.01l.27.16c2.84,1.73,4.6,4.99,4.6,8.51v1.06l2.22,4.17c.13.25.12.52-.02.76-.14.24-.38.38-.66.38h-1.74s-.06.03-.06.07v2.73c0,1.77-1.44,3.2-3.2,3.2h-2.73c-1.77,0-3.2-1.44-3.2-3.2,0-.04-.03-.06-.07-.06Z"/>
    </g>
    <g>
      <path class="st0" d="M25.46,19.2c-1.1,0-1.98-.89-1.98-1.98s.89-1.98,1.98-1.98,1.98.89,1.98,1.98c0,1.1-.89,1.98-1.98,1.98ZM25.46,15.93c-.71,0-1.29.58-1.29,1.29s.58,1.29,1.29,1.29,1.29-.58,1.29-1.29-.58-1.29-1.29-1.29Z"/>
      <path class="st0" d="M25.46,19.48c-1.25,0-2.27-1.02-2.27-2.27s1.02-2.27,2.27-2.27,2.27,1.02,2.27,2.27c0,.6-.23,1.17-.66,1.6-.43.43-1,.67-1.61.67ZM25.46,15.52c-.94,0-1.7.76-1.7,1.7s.76,1.7,1.7,1.7c.45,0,.88-.18,1.2-.5.32-.32.5-.75.49-1.2,0-.94-.76-1.7-1.7-1.7ZM25.46,18.79c-.87,0-1.57-.7-1.57-1.57s.7-1.57,1.57-1.57,1.57.7,1.57,1.57-.7,1.57-1.57,1.57ZM25.46,16.21c-.55,0-1,.45-1,1s.45,1,1,1,1-.45,1-1-.45-1-1-1Z"/>
    </g>
    <g>
      <path class="st0" d="M25.46,29.73c-.19,0-.35-.15-.35-.35v-10.54c0-.19.15-.35.35-.35s.35.15.35.35v10.54c0,.19-.15.35-.35.35Z"/>
      <path class="st0" d="M25.46,30.02c-.35,0-.63-.28-.63-.63v-10.54c0-.35.28-.63.63-.63s.63.28.63.63v10.54c0,.35-.28.63-.63.63ZM25.46,18.78s-.07.03-.07.06v10.54c0,.07.13.08.13,0v-10.54s-.03-.06-.06-.06Z"/>
    </g>
    <g>
      <path class="st0" d="M20.58,23.2c-1.1,0-1.98-.89-1.98-1.98s.89-1.98,1.98-1.98,1.98.89,1.98,1.98c0,1.09-.89,1.98-1.98,1.98ZM20.58,19.93c-.71,0-1.29.58-1.29,1.29s.58,1.29,1.29,1.29,1.29-.58,1.29-1.29-.58-1.29-1.29-1.29Z"/>
      <path class="st0" d="M20.58,23.48c-1.25,0-2.27-1.02-2.27-2.27s1.02-2.27,2.27-2.27,2.27,1.02,2.27,2.27c0,.6-.23,1.17-.66,1.6-.43.43-1,.67-1.61.67ZM20.58,19.52c-.94,0-1.7.76-1.7,1.7s.76,1.7,1.7,1.7c.45,0,.88-.18,1.2-.5.32-.32.49-.75.49-1.2,0-.94-.76-1.7-1.7-1.7ZM20.58,22.79c-.87,0-1.57-.7-1.57-1.57s.7-1.57,1.57-1.57,1.57.7,1.57,1.57-.7,1.57-1.57,1.57ZM20.58,20.22c-.55,0-1,.45-1,1s.45,1,1,1,1-.45,1-1-.45-1-1-1Z"/>
    </g>
    <g>
      <path class="st0" d="M30.35,23.2c-1.1,0-1.98-.89-1.98-1.98s.89-1.98,1.98-1.98,1.98.89,1.98,1.98-.89,1.98-1.98,1.98ZM30.35,19.93c-.71,0-1.29.58-1.29,1.29s.58,1.29,1.29,1.29,1.29-.58,1.29-1.29-.58-1.29-1.29-1.29Z"/>
      <path class="st0" d="M30.35,23.48c-1.25,0-2.27-1.02-2.27-2.27s1.02-2.27,2.27-2.27,2.27,1.02,2.27,2.27-1.02,2.27-2.27,2.27ZM30.35,19.52c-.93,0-1.7.76-1.7,1.7s.76,1.7,1.7,1.7,1.7-.76,1.7-1.7-.76-1.7-1.7-1.7ZM30.35,22.79c-.87,0-1.57-.7-1.57-1.57s.7-1.57,1.57-1.57,1.57.7,1.57,1.57-.7,1.57-1.57,1.57ZM30.35,20.22c-.55,0-1,.45-1,1s.45,1,1,1,1-.45,1-1-.45-1-1-1Z"/>
    </g>
    <g>
      <path class="st0" d="M30.35,26.4h-9.77c-.19,0-.35-.15-.35-.35v-3.2c0-.19.15-.35.35-.35s.35.15.35.35v2.85h9.07v-2.85c0-.19.15-.35.35-.35s.35.15.35.35v3.2c0,.19-.15.35-.35.35h0Z"/>
      <path class="st0" d="M30.35,26.68h-9.77c-.35,0-.63-.28-.63-.63v-3.2c0-.35.28-.63.63-.63s.63.28.63.63v2.57h8.5v-2.57c0-.35.28-.63.63-.63s.63.28.63.63v3.2c0,.35-.28.63-.63.63ZM20.58,22.78s-.07.03-.07.06v3.2s.03.06.07.06h9.77s.06-.03.06-.06v-3.2c0-.08-.13-.08-.13,0v3.14h-9.64v-3.14s-.03-.06-.06-.06Z"/>
    </g>
  </g>
</svg>