<?xml version="1.0" encoding="UTF-8"?>
<svg id="Layer_1" xmlns="http://www.w3.org/2000/svg" version="1.1" viewBox="0 0 49.16 49.16">
  <!-- Generator: Adobe Illustrator 29.0.0, SVG Export Plug-In . SVG Version: 2.1.0 Build 186)  -->
  <defs>
    <style>
      .st0 {
        fill: #010101;
      }

      .st1 {
        fill: #ffdcb3;
      }

      .st2 {
        opacity: .8;
      }
    </style>
  </defs>
  <circle class="st1" cx="24.58" cy="24.58" r="24.58"/>
  <g class="st2">
    <g>
      <path class="st0" d="M36.5,18.73c0-.11-.03-.22-.11-.29l-5.64-5.64c-.08-.08-.19-.12-.29-.11-.11,0-.21.06-.28.15l-3.97,5.03-8.7,2.08c-.14.03-.25.14-.29.29l-3.55,14.82s0,.04,0,.07c0,.01,0,.02,0,.03,0,.04,0,.08.02.12,0,.01,0,.02.01.03.02.04.04.07.07.11,0,0,0,0,0,0,.07.07.17.11.27.11.03,0,.06,0,.09-.01l14.82-3.55c.14-.03.25-.14.29-.29l2.08-8.7,5.03-3.97c.09-.07.14-.17.15-.28h0ZM28.55,31.27l-13.27,3.18,6.02-6.02c.27.17.57.25.87.25.43,0,.86-.16,1.18-.49.65-.65.65-1.71,0-2.36s-1.71-.65-2.36,0c-.56.56-.63,1.41-.24,2.06l-6.02,6.01,3.18-13.27,8.39-2.01,4.25,4.25-2.01,8.39h0ZM21.53,26.38c.18-.18.41-.26.64-.26s.46.09.64.26c.35.35.35.92,0,1.28-.35.35-.92.35-1.27,0,0,0,0-.01-.01-.01-.34-.35-.34-.92,0-1.26h0ZM31.01,22.24l-4.07-4.07,3.57-4.53,5.03,5.03-4.53,3.57Z"/>
      <path class="st0" d="M14.04,35.81c-.18,0-.35-.07-.47-.2l-.08-.11s-.03-.05-.04-.08c-.05-.14-.06-.21-.06-.27,0-.06,0-.11.02-.17l3.55-14.82c.06-.24.25-.43.49-.49l8.6-2.06,3.91-4.96c.12-.15.3-.24.49-.25.18.01.38.06.51.19l5.64,5.64c.13.13.2.32.2.51v.22s-.06.01-.06.01c-.04.1-.11.19-.2.26l-4.96,3.91-2.06,8.6c-.06.24-.25.43-.49.5l-14.82,3.55s-.1.02-.15.02ZM30.47,12.97s-.06.02-.08.04l-4.03,5.11-.1.02-8.7,2.08s-.07.04-.08.08l-3.55,14.82-.26.17.24-.11s.01.01.02.02h.01s.04.04.04.04c.02.01.03.01.04.01l14.84-3.55s.07-.04.08-.08l2.1-8.79,5.11-4.03s.04-.04.04-.07v-.03s-.01-.03-.02-.05l-5.64-5.64s-.04-.03-.07-.03ZM14.36,34.96l6.89-6.89.19.12c.56.34,1.27.24,1.71-.2.54-.54.54-1.42,0-1.96-.26-.26-.61-.41-.98-.41h0c-.37,0-.72.14-.98.41-.45.45-.53,1.16-.19,1.71l.12.19-6.89,6.88,3.45-14.41,8.71-2.09,4.48,4.48-2.09,8.72-.17.04-14.25,3.41ZM21.35,28.78l-5.16,5.15,12.12-2.9,1.93-8.07-4.03-4.03-8.06,1.93-2.9,12.12,5.15-5.15c-.35-.74-.2-1.62.39-2.21.37-.37.86-.57,1.38-.57h0c.52,0,1.01.2,1.38.57.76.76.76,2,0,2.76-.57.57-1.46.73-2.2.39ZM22.17,28.2c-.3,0-.6-.11-.83-.34-.44-.45-.46-1.13-.09-1.59h0s.08-.1.08-.1c.44-.44,1.23-.44,1.68,0,.46.46.46,1.21,0,1.68-.23.23-.54.35-.84.35ZM21.71,27.42l.04.05c.23.22.62.22.86-.02.24-.24.24-.63,0-.87-.21-.21-.6-.23-.83-.04l-.04.04c-.23.23-.24.6-.03.84ZM30.99,22.62l-4.43-4.43,3.93-4.98,5.48,5.48-4.98,3.93ZM27.32,18.15l3.71,3.71,4.08-3.22-4.58-4.58-3.22,4.08Z"/>
    </g>
  </g>
</svg>