<?xml version="1.0" encoding="UTF-8"?> <svg xmlns="http://www.w3.org/2000/svg" id="Layer_1" viewBox="0 0 180 120"><defs><style>.cls-1{fill:#656565;}</style></defs><path class="cls-1" d="m36.75,44.35h-4.75v4.78h4.75v-4.78Zm111.21,26.52h-4.75v4.78h4.75v-4.78Z"></path><path class="cls-1" d="m36.75,68.61h-4.75v-17.22h4.75v17.22Zm21.93-17.59c3.52,0,5.62,2.46,5.62,6.37v11.23h-4.75v-10.24c0-1.85-.81-3.07-2.45-3.07-1.24,0-2.35.78-2.65,2.23v11.09h-4.79v-10.24c0-1.85-.77-3.07-2.41-3.07-1.24,0-2.38.78-2.68,2.23v11.09h-4.72v-17.22h4.75v1.41c.83-1.08,2.41-1.82,4.32-1.82,2.04,0,3.65.91,4.59,2.19,1.1-1.22,2.74-2.16,5.16-2.16h0v-.02Zm13.43,24.64h-4.75v-24.26h4.75v1.41c.77-.91,2.45-1.82,4.29-1.82,4.99,0,7.8,4.14,7.8,9s-2.84,8.96-7.8,8.96c-1.84,0-3.52-.88-4.29-1.82v8.52h0Zm0-12.8c.57,1.18,1.84,1.99,3.22,1.99,2.58,0,4.09-2.09,4.09-4.82s-1.54-4.85-4.09-4.85c-1.41,0-2.65.84-3.22,1.99v5.69h0Zm18.45-1.75c.37,2.79,2.41,3.98,4.92,3.98,1.87,0,3.22-.44,4.89-1.51v3.95c-1.41,1.05-3.32,1.51-5.62,1.51-5.19,0-8.78-3.4-8.78-8.86s3.38-9.13,8.04-9.13c4.99,0,7.53,3.47,7.53,8.56v1.55h-10.98v-.04h0Zm.17-3.11h6.46c-.1-1.85-1.14-3.17-3.01-3.17-1.58,0-2.91,1.01-3.45,3.17h0Zm23.77-1.89c-.64-.37-1.51-.57-2.38-.57-1.61,0-2.91.84-3.25,2.43v10.65h-4.75v-17.22h4.75v1.68c.74-1.24,2.14-2.09,3.82-2.09.81,0,1.54.17,1.81.3v4.82h0Zm7.4,12.51l-6.46-17.22h4.96l3.95,11.42,3.85-11.42h4.79l-6.49,17.22h-4.59,0Zm21.33-10.75c0-1.65-1.41-2.69-3.82-2.69-1.71,0-3.32.5-4.65,1.38v-4.11c1.24-.78,3.45-1.41,5.69-1.41,4.72,0,7.53,2.43,7.53,6.64v10.96h-4.75v-.91c-.57.57-2.24,1.24-4.12,1.24-3.45,0-6.33-1.99-6.33-5.59,0-3.27,2.88-5.5,6.63-5.5,1.51,0,3.15.5,3.82,1.01v-1.01h0Zm0,4.82c-.43-.91-1.68-1.51-3.01-1.51-1.51,0-3.01.64-3.01,2.12s1.54,2.12,3.01,2.12c1.34,0,2.61-.57,3.01-1.51v-1.22h0Z"></path></svg> 