<?xml version="1.0" encoding="UTF-8"?>
<svg id="Layer_1" data-name="Layer 1" xmlns="http://www.w3.org/2000/svg" viewBox="0 0 180 120">
  <defs>
    <style>
      .cls-1 {
        fill: #a3a3a3;
      }

      .cls-1, .cls-2, .cls-3 {
        stroke-width: 0px;
      }

      .cls-2 {
        fill: #656565;
      }

      .cls-3 {
        fill: #757373;
      }
    </style>
  </defs>
  <rect class="cls-2" x="60.91" y="46.75" width="2.7" height="2.75" transform="translate(-15.8 58.12) rotate(-45)"/>
  <rect class="cls-2" x="61.14" y="51.46" width="2.02" height="13.88"/>
  <path class="cls-2" d="m65.96,51.56h2.02l-.03,1.9c.34-.73.87-1.27,1.6-1.6.73-.34,1.75-.51,3.06-.51,1.94,0,3.26.35,3.95,1.04.69.69,1.04,2.03,1.04,4.01v9.03h-2.02v-9.39c0-1.17-.22-1.96-.67-2.36-.45-.41-1.29-.61-2.54-.61-1.59,0-2.7.3-3.34.91-.64.61-.97,1.64-.97,3.11v8.35h-2.11v-13.88h0Z"/>
  <path class="cls-2" d="m89.17,51.74v1.69h-5.35v8.5c0,.87.12,1.45.37,1.74.25.29.76.43,1.53.43.85,0,1.42-.17,1.69-.51.28-.34.42-1.05.42-2.14v-.74h1.84l.03,1.04c0,2.71-1.27,4.07-3.8,4.07-1.53,0-2.59-.25-3.19-.76-.61-.51-.91-1.38-.91-2.63v-9h-1.93v-1.69h1.93v-3.33h2.02v3.33h5.35,0Z"/>
  <path class="cls-2" d="m101.9,61.07h2.05l.03.59c0,1.41-.44,2.39-1.33,2.96s-2.44.85-4.65.85c-2.47,0-4.11-.46-4.92-1.4-.81-.93-1.21-2.84-1.21-5.74s.39-4.76,1.17-5.72c.78-.96,2.32-1.44,4.62-1.44,2.63,0,4.35.4,5.14,1.19.79.79,1.19,2.55,1.19,5.26v1.07h-9.98c0,2.2.23,3.59.7,4.18.46.58,1.57.88,3.31.88s2.73-.13,3.19-.4c.46-.27.7-.88.7-1.83v-.45h0Zm0-3.95v-.68c0-1.55-.24-2.54-.72-2.97-.48-.43-1.53-.65-3.16-.65s-2.73.26-3.25.77-.78,1.59-.78,3.21v.33h7.9Z"/>
  <path class="cls-2" d="m117.82,51.67v14.77c0,1.98-.43,3.36-1.28,4.13-.85.77-2.41,1.16-4.67,1.16s-3.61-.31-4.37-.92c-.75-.61-1.13-1.82-1.13-3.63h1.93c0,1.21.22,1.98.65,2.32.43.34,1.45.51,3.03.51,1.49,0,2.49-.23,3.02-.7.52-.47.79-1.36.79-2.69v-2.79c-.32.69-.81,1.19-1.49,1.49-.67.3-1.67.45-3,.45-2.04,0-3.47-.49-4.28-1.46-.81-.97-1.22-2.68-1.22-5.14,0-3.05.38-5.1,1.14-6.14.76-1.04,2.25-1.56,4.47-1.56,1.23,0,2.18.16,2.85.48.67.32,1.2.86,1.57,1.63l-.06-1.9h2.02Zm-6.03,1.52c-1.6,0-2.64.33-3.11.98-.48.65-.72,2.08-.72,4.28,0,2.4.23,3.93.7,4.59s1.54,1,3.22,1c1.58,0,2.63-.38,3.14-1.13.52-.75.78-2.3.78-4.64,0-2.1-.26-3.47-.76-4.12-.51-.64-1.59-.97-3.25-.97h0Z"/>
  <path class="cls-2" d="m120.03,51.62h2.02l-.21,1.6c.46-.69.99-1.19,1.6-1.49.61-.3,1.42-.45,2.41-.45,1.33,0,2.3.32,2.91.95.61.63.92,1.63.92,3v.95h-1.99v-1.1c0-1.39-.76-2.08-2.29-2.08-1.27,0-2.14.3-2.63.91-.49.61-.73,1.69-.73,3.25v8.32h-2.02v-13.88h0Z"/>
  <rect class="cls-2" x="131.92" y="46.28" width="2.02" height="2.29"/>
  <rect class="cls-2" x="131.92" y="51.41" width="2.02" height="13.88"/>
  <path class="cls-2" d="m138.36,65.55v-11.8h-2.11v-1.64h2.11v-2.01c0-1.4.33-2.41.98-3.02s1.74-.92,3.27-.92c.44,0,.94.04,1.52.12v1.61l-1.55-.09c-.79,0-1.36.16-1.69.49-.34.33-.51.87-.51,1.64v2.19h3.74v1.64h-3.74v11.8h-2.02Z"/>
  <path class="cls-2" d="m157.2,52.19l-3.92,13.94c-.58,1.98-1.19,3.33-1.86,4.05s-1.62,1.09-2.87,1.09l-.98-.09v-1.61l.65.06c.65,0,1.16-.18,1.53-.54s.69-1.01.97-1.95l.39-1.3.12-.48h-.74l-5.01-13.18h2.14s2.14,5.87,2.14,5.87l1.09,2.94.5,1.47.53,1.47.42-1.48.41-1.46.76-2.94,1.56-5.87h2.18s0,0,0,0Z"/>
  <path class="cls-3" d="m54.67,57.15l-11.52-11.52c-.84-.84-2.2-.84-3.04,0l-4.53,4.53,6.98,6.98c.84.84.84,2.2,0,3.04l-6.98,6.98,4.53,4.53c.84.84,2.2.84,3.04,0l11.52-11.52c.84-.84.84-2.2,0-3.04h0Z"/>
  <path class="cls-2" d="m28.59,57.15l6.98-6.98-1.06-1.06c-.84-.84-2.2-.84-3.04,0l-8.04,8.04c-.84.84-.84,2.2,0,3.04l8.04,8.04c.84.84,2.2.84,3.04,0l1.06-1.06-6.98-6.98c-.84-.84-.84-2.2,0-3.04h0Z"/>
  <path class="cls-1" d="m42.55,57.15l-6.98-6.98-6.98,6.98c-.84.84-.84,2.2,0,3.04l6.98,6.98,6.98-6.98c.84-.84.84-2.2,0-3.04Z"/>
</svg>