<?xml version="1.0" encoding="UTF-8"?> <svg xmlns="http://www.w3.org/2000/svg" id="Layer_1" viewBox="0 0 180 120"><defs><style>.cls-1{fill:#656565;}</style></defs><rect class="cls-1" x="116.66" y="55.32" width="3.03" height="13.11"></rect><rect class="cls-1" x="135.37" y="55.34" width="3.03" height="13.11" rx=".33" ry=".33"></rect><rect class="cls-1" x="98.4" y="62.28" width="4.88" height="2.25"></rect><circle class="cls-1" cx="48" cy="57.56" r="1.03"></circle><path class="cls-1" d="m71.21,58.9c-.37-1.83-1.82-3.55-3.31-3.62-2.38-.1-4.78-.03-7.25-.03v13.27h1.81c.12,0,.23,0,.34,0h.37c.35,0,.63-.28.63-.63v-4.04c1,0,1.86.1,2.7-.03.98-.14,1.99-.35,2.88-.76,1.24-.57,2.12-2.79,1.84-4.18h0Zm-4.65,1.99c-.87.07-1.76.01-2.7.01v-2.68c.88,0,1.76.01,2.63,0,.83-.02,1.27.33,1.27,1.19s-.33,1.42-1.2,1.48h0Z"></path><path class="cls-1" d="m82.97,67.8c-.64-1.1-1.86-3.16-2.5-4.26.24-.15.4-.27.59-.38,1.67-.98,2.15-2.53,1.98-4.34-.15-1.5-1.63-3.41-3.07-3.5-2.49-.17-5-.05-7.5-.05v13.24h2.54c.33,0,.61-.27.61-.61v-3.95h1.24l.04.03,2.7,4.52h2.96c.37,0,.6-.39.41-.72h0Zm-3.24-8.27c-.04.48-.74,1.16-1.26,1.3-.84.22-1.78.06-2.77.06v-2.67c.96,0,1.81.03,2.67,0,.96-.04,1.42.67,1.37,1.33h0Z"></path><path class="cls-1" d="m42.01,57.8c-3.03,0-5.49,2.46-5.49,5.49s2.46,5.49,5.49,5.49,5.49-2.46,5.49-5.49-2.46-5.49-5.49-5.49Zm0,8.08c-1.43,0-2.59-1.16-2.59-2.59s1.16-2.59,2.59-2.59,2.59,1.16,2.59,2.59-1.16,2.59-2.59,2.59Z"></path><path class="cls-1" d="m51.59,53.17c-1.14-.4-2.29-.76-3.48-1.16,0-.78-.03-1.51,0-2.23.12-2.85-2.3-6.05-5.92-6.18-2.8-.1-5.76,2.03-6.23,5.22h0c-.04.32-.07.64-.07.97h0l-.12,1.83-3.71,1.7s-.07.03-.09.04l-.04.02h0c-.69.37-.92,1.04-.92,1.97.03,3.51-.05,7.02.05,10.53.03.95.38,1.99.87,2.83,2.17,3.68,5.61,5.87,9.39,7.57.42.19,1.08.09,1.55-.08,3.16-1.16,5.8-3.13,8.06-5.58,1.42-1.54,2.35-3.37,2.33-5.58-.03-3.13-.07-6.25.02-9.38.04-1.34-.51-2.09-1.68-2.49h0Zm-11.2-6.03c.8-.46,2.2-.49,3.08-.12,1.98.83,1.79,2.71,1.61,4.6h-6.12c-.33-1.76-.23-3.5,1.44-4.47h0Zm9.83,18.25c-.07,1-.69,2.1-1.34,2.91-1.63,2.05-3.79,3.5-6.12,4.67-.3.15-.78.24-1.05.1-2.66-1.34-5.23-2.83-6.94-5.38-.38-.57-.72-1.31-.74-1.98-.07-3.29-.04-6.58-.04-9.83,3.33-1.17,6.62-1.52,9.93-1.24,1.6.14,3.19.48,4.77.82l1.55.33v.62s.03.09.03.12c0,.77.03,1.55.04,2.33h0c.04,2.19.06,4.36-.08,6.53h0Z"></path><path class="cls-1" d="m90.75,54.82c-3.81,0-6.91,3.09-6.91,6.91s3.09,6.91,6.91,6.91,6.91-3.09,6.91-6.91-3.09-6.91-6.91-6.91h0Zm0,10.39c-1.93,0-3.49-1.56-3.49-3.49s1.56-3.49,3.49-3.49,3.49,1.56,3.49,3.49-1.56,3.49-3.49,3.49Z"></path><path class="cls-1" d="m127.46,61.01v2.61h3.37c.26,1.75-1.56,1.79-1.56,1.79h0c-.85.14-1.77.14-2.59-.07-1.3-.33-2.38-2.11-2.25-3.52.14-1.47.59-2.85,2.1-3.52,1.47-.65,2.76-.4,3.92.6l.17.15s.05.05.08.07h0l.53.48.95-.46s.03,0,.05-.01l.09-.04s.01,0,.02,0c0,0,.02-.01.03-.02l1.55-.74s-.26-.43-.54-.82c-.05-.09-.11-.17-.19-.27-.04-.04-.07-.08-.1-.12-.05-.07-.1-.12-.15-.17h0c-.94-1.02-2.1-1.68-3.48-1.88-2.51-.35-4.84.13-6.62,2.04-1.72,1.84-2.05,4.12-1.45,6.51,1.37,5.49,8.27,6.15,11.61,3.28.37-.32.84-.77.87-1.18.1-1.56.04-3.13.04-4.72h-6.45.01Z"></path><path class="cls-1" d="m112.36,55.31c-1.08,2.99-2.14,5.91-3.26,8.99-.93-2.58-1.81-5.04-2.71-7.46h0l-.58-1.61h-1.36c-.73-.01-1.49.02-2.33.02,1.51,3.9,3.06,7.58,4.34,11.34.51,1.47,1.99,2.48,3.54,1.84,1.52-.64,1.94-2.54,2.48-3.89.61-1.52,1.2-3.06,1.79-4.6.58-1.5,1.11-3.02,1.69-4.63h-3.61Z"></path><path class="cls-1" d="m143.62,65.53v-10.17h-3.17v12.71c0,.24.19.43.43.43h4.78c1.11.03,2.23,0,3.35,0v-2.96h-5.38Z"></path></svg> 