<?xml version="1.0" encoding="UTF-8"?>
<svg id="Layer_1" data-name="Layer 1" xmlns="http://www.w3.org/2000/svg" viewBox="0 0 180 120">
  <defs>
    <style>
      .cls-1, .cls-2 {
        fill: #656565;
        stroke-width: 0px;
      }

      .cls-2 {
        fill-rule: evenodd;
      }
    </style>
  </defs>
  <g id="g289">
    <path id="path271" class="cls-1" d="m57.36,51.41h-5.4v16.53h-3.75v-16.53h-5.37v-3.27h14.51v3.27Z"/>
    <path id="path273" class="cls-1" d="m66.6,48.14c5.77,0,9.62,1.65,9.62,9.92,0,7.66-3.85,9.92-9.62,9.92h-6.41v-19.84h6.41Zm-.17,16.57c3.81,0,5.94-1.45,5.94-6.68,0-5.5-2.19-6.75-5.94-6.75h-2.5v13.43h2.5Z"/>
    <path id="path275" class="cls-1" d="m93.19,60.93l-10.12.67c.07,2.6,1.35,3.78,4.42,3.78,1.72-.03,3.44-.37,5.03-1.05v2.9c-.91.54-3.14,1.01-5.67,1.01-4.69,0-7.39-1.75-7.39-8s2.7-8,7.39-8c5.33,0,6.45,3.04,6.45,6.65.03.67,0,1.35-.1,2.02Zm-3.17-2.4c0-1.92-.4-3.54-3.14-3.54-2.87,0-3.71,1.38-3.81,4.05l6.95-.51Z"/>
    <path id="path277" class="cls-1" d="m110.54,57.38v10.56h-3.58v-9.55c0-2.16-.47-3.17-2.67-3.17-1.82,0-3.1.51-3.78,2.46v10.29h-3.58v-15.45h3.58v1.96c.88-1.59,2.7-2.23,4.86-2.23,3.91,0,5.16,1.86,5.16,5.13Z"/>
    <path id="path279" class="cls-1" d="m128.76,52.53v14.24c0,4.25-2.19,6.88-8.2,6.88-1.38,0-2.8-.13-4.18-.37v-2.87c1.32.3,2.63.44,3.98.44,3.41,0,4.86-1.11,4.86-4.22v-1.08c-.67,1.52-1.92,2.43-4.76,2.43-5.06,0-6.31-3.17-6.31-7.86,0-4.25,1.25-7.86,6.31-7.86,2.9,0,4.18,1.05,4.76,2.53v-2.26h3.54Zm-3.41,7.56c0-3.1-.67-5.1-4.02-5.1s-3.51,2.46-3.51,5.1c0,2.87.44,5.16,3.51,5.16,3.34.03,4.02-1.86,4.02-5.16Z"/>
    <path id="path281" class="cls-1" d="m132.98,48.21c0-1.75.44-1.92,2.02-1.92s2.02.17,2.02,1.92-.44,1.96-2.02,1.96-2.02-.24-2.02-1.96Zm.24,4.32h3.58v15.42h-3.58v-15.42Z"/>
    <path id="path283" class="cls-1" d="m154.81,57.38v10.56h-3.54v-9.55c0-2.16-.47-3.17-2.67-3.17-1.82,0-3.1.51-3.78,2.46v10.29h-3.58v-15.45h3.58v1.96c.88-1.59,2.7-2.23,4.86-2.23,3.88,0,5.13,1.86,5.13,5.13Z"/>
    <path id="path285" class="cls-1" d="m172.12,60.93l-10.12.67c.1,2.6,1.35,3.78,4.42,3.78,1.72-.03,3.44-.37,5.03-1.05v2.9c-.91.54-3.14,1.01-5.67,1.01-4.69,0-7.39-1.75-7.39-8s2.7-8,7.39-8c5.33,0,6.45,3.04,6.45,6.65.07.67,0,1.35-.1,2.02h0Zm-3.17-2.4c0-1.92-.4-3.54-3.14-3.54-2.87,0-3.71,1.38-3.81,4.05l6.95-.51Z"/>
    <path id="path287" class="cls-2" d="m22.13,46.25c1.05,0,1.89.84,1.89,1.89s-.84,1.89-1.89,1.89-1.89-.84-1.89-1.89h0c.03-1.05.84-1.89,1.89-1.89Zm-12.49,9.01c1.05,0,1.89.84,1.89,1.89s-.84,1.89-1.89,1.89-1.89-.84-1.89-1.89c.03-1.05.88-1.89,1.89-1.89Zm4.89,14.71c1.05,0,1.89.84,1.89,1.89s-.84,1.89-1.89,1.89-1.89-.84-1.89-1.89.84-1.89,1.89-1.89Zm15.18,0c1.05,0,1.89.84,1.89,1.89s-.84,1.89-1.89,1.89-1.89-.84-1.89-1.89.84-1.89,1.89-1.89Zm-4.83-12.55h-5.53l-1.69,5.23,4.45,3.24,4.45-3.21-1.69-5.26Zm-5.37-.44l1.92-5.94c-.13-.03-.3-.07-.44-.13l-1.96,6.07h-6.41v.44h6.24l-1.62,4.96-5.06-3.68c-.07.13-.17.24-.27.37l4.32,3.14h0l.88.64-.3.84h0l-1.69,5.23c.13.03.3.07.44.13l1.92-5.91,4.22,3.07-4.96,3.61c.1.1.2.24.27.34l5.1-3.71,5.1,3.71c.07-.13.17-.24.27-.34l-4.99-3.64,4.22-3.07.2.57h0l1.75,5.37c.13-.07.27-.1.44-.13l-1.96-6.07.88-.64,4.29-3.14c-.1-.1-.17-.24-.27-.37l-4.18,3.04-.13.1-.78.54-1.62-4.96h6.24v-.47h-6.41l-1.96-6.07c-.13.07-.27.1-.44.13l1.92,5.94-5.16.03Zm-7.49-1.69l7.59-5.53c.07.13.17.24.27.34l-7.63,5.57c-.07-.13-.17-.24-.24-.37Zm1.35,13.77l-2.94-9.04c.13-.03.27-.1.4-.13l2.97,9.04c-.17.03-.3.1-.44.13Zm13.36,2.9h-9.21v-.47h9.21v.34c-.03.07-.03.1,0,.13Zm7.09-11.91l-2.94,9.04c-.13-.07-.27-.1-.4-.13l2.94-9.04c.1.03.24.1.4.13Zm-9.18-10.29l7.59,5.53c-.1.1-.17.24-.24.37l-7.66-5.53c.1-.13.2-.24.3-.37Zm9.95,5.5c1.05,0,1.89.84,1.89,1.89s-.84,1.89-1.89,1.89-1.89-.84-1.89-1.89.84-1.89,1.89-1.89Z"/>
  </g>
</svg>