<?xml version="1.0" encoding="UTF-8"?>
<svg id="Layer_1" data-name="Layer 1" xmlns="http://www.w3.org/2000/svg" viewBox="0 0 180 120">
  <defs>
    <style>
      .cls-1 {
        fill: #656565;
        stroke-width: 0px;
      }
    </style>
  </defs>
  <path class="cls-1" d="m57.8,45.04c-.08.28-.05.57-.05.86,0,7.89,0,15.78,0,23.68,0,.28.05.58-.08.89-.67.1-1.35.04-2.12.04v-23.07c-.27.03-.26.18-.3.3-2.38,7.39-4.75,14.78-7.13,22.17-.19.6-.19.6-.83.61-.65,0-1.29,0-2.01,0-2.56-7.71-5.12-15.42-7.67-23.12-.06,0-.11.02-.17.03v23.03c-.76.12-1.44.05-2.11.06-.21-.29-.13-.59-.13-.87,0-7.91,0-15.83,0-23.74,0-.29.03-.58-.05-.86h3.89c2.51,7.68,5.02,15.36,7.54,23.06.11-.07.14-.08.15-.09,2.49-7.65,4.98-15.31,7.47-22.97,1.21,0,2.41,0,3.62,0Z"/>
  <path class="cls-1" d="m91.33,45.04c0,7.25-.01,14.49,0,21.74,0,1.22.13,2.43.21,3.7-.6.09-1.22.03-1.91.04-.09-.69-.05-1.38-.23-2.11-.39.43-.74.81-1.1,1.19-.86.91-1.97,1.25-3.19,1.33-1.32.09-2.51-.22-3.56-1.05-.75-.59-1.15-1.41-1.47-2.26-.5-1.32-.63-2.72-.68-4.11-.04-1.31-.06-2.62,0-3.93.08-1.69.26-3.37,1.14-4.87.73-1.24,1.82-1.96,3.26-2.19,2.08-.34,3.76.37,5.18,1.84.06.06.13.12.2.18.04-.11,0,.02.07-.03.02-.01.03-.04.03-.06,0-3.13.02-6.26.02-9.4h2.01Zm-1.97,16.88c0-.83,0-1.41,0-1.99,0-1.05-.14-2.08-.45-3.08-.25-.79-.64-1.5-1.31-2.05-.8-.66-1.73-.75-2.71-.71-1.42.07-2.39.75-2.89,2.08-.32.84-.42,1.72-.47,2.61-.1,1.71-.05,3.42.02,5.13.04,1.02.17,2.03.5,3.01.27.79.63,1.55,1.42,1.94,1.21.6,2.46.62,3.65-.06,1.09-.62,1.63-1.66,1.93-2.84.35-1.42.3-2.86.31-4.05Z"/>
  <path class="cls-1" d="m136.78,51.86v18.59h-4.79c-.15-.44-.2-24.23-.05-25.16.17-.15.38-.11.57-.11,1.97,0,3.93,0,5.9-.01.45,0,.66.14.82.57,2.08,5.45,4.18,10.9,6.28,16.34.08.22.15.45.42.73v-17.47c.54-.19,4.12-.23,4.83-.07.11.5.14,24.3.03,25.13-.19.16-.42.1-.64.1-1.88,0-3.76,0-5.63,0-.65,0-.65,0-.89-.65-2.16-5.78-4.32-11.55-6.48-17.32-.07-.18-.11-.38-.39-.67Z"/>
  <path class="cls-1" d="m108.62,62.13h-10.07c-.18.21-.15.4-.15.57.03,1.2-.04,2.4.3,3.57.29.97.79,1.78,1.58,2.41.53.42,1.17.55,1.81.59.74.05,1.47-.05,2.16-.34,1.33-.56,1.93-1.64,2.1-3.01.03-.22-.03-.45.13-.69.67-.11,1.37-.04,2.09-.04-.07.68-.12,1.3-.29,1.9-.54,1.96-1.78,3.15-3.79,3.59-1.31.29-2.62.33-3.91.04-2.52-.57-3.63-1.99-4.14-4.4-.12-.57-.14-1.14-.14-1.72.01-1.89-.01-3.78.01-5.67.02-1.23.28-2.42.81-3.54.73-1.52,1.93-2.45,3.6-2.79,1.75-.36,3.45-.28,5.08.5.95.46,1.61,1.2,2,2.15.45,1.09.67,2.24.7,3.43.02.87.08,1.73.11,2.6,0,.24,0,.48,0,.83Zm-2.16-1.75c.1-1.45-.04-2.83-.5-4.16-.45-1.29-1.5-2.04-2.87-2.12-.42-.02-.85-.01-1.27,0-1.44.03-2.68.96-3.09,2.57-.26,1.04-.34,2.1-.39,3.16,0,.17-.04.36.11.55h8.01Z"/>
  <path class="cls-1" d="m75.23,61.7c-.05,1.2.07,2.62-.12,4.04-.18,1.33-.63,2.54-1.49,3.57-.44.53-1.05.89-1.71,1.13-1.9.68-3.79.7-5.69-.02-1.32-.5-2.13-1.47-2.66-2.73-.56-1.34-.61-2.77-.65-4.18-.05-1.6-.03-3.2,0-4.8.02-.91.14-1.82.41-2.69.53-1.69,1.61-2.8,3.38-3.27,1.67-.44,3.3-.44,4.94.04,1.85.54,2.9,1.82,3.32,3.65.21.91.3,1.84.28,2.77-.02.76,0,1.51,0,2.48Zm-2.16.04c0-.98.04-1.96-.01-2.93-.05-.91-.18-1.81-.52-2.67-.42-1.08-1.17-1.77-2.33-1.96-.75-.12-1.51-.12-2.27,0-1.11.18-1.84.84-2.28,1.84-.3.68-.4,1.4-.49,2.13-.23,1.99-.13,4-.11,5.99,0,.82.1,1.64.28,2.44.17.78.52,1.5,1.19,1.95,1.43.96,2.99.99,4.53.33,1.34-.58,1.73-1.8,1.9-3.15.17-1.33.09-2.66.11-3.99Z"/>
  <path class="cls-1" d="m116.14,70.57c-.69.09-1.31.05-1.96.03v-25.39c.65-.13,1.28-.1,1.96-.01v25.38Z"/>
</svg>