<?xml version="1.0" encoding="UTF-8"?>
<svg id="Layer_1" data-name="Layer 1" xmlns="http://www.w3.org/2000/svg" viewBox="0 0 180 120">
  <defs>
    <style>
      .cls-1 {
        fill: #656565;
        stroke-width: 0px;
      }
    </style>
  </defs>
  <path id="path2631" class="cls-1" d="m29.69,67.21c-2.24,0-3.74-1.08-3.74-3.69v-15.52h3.32v14.96c0,.79.18,1.32,1.32,1.32.29,0,.37-.03.55-.03v2.77c-.66.13-.79.18-1.45.18"/>
  <path id="path2635" class="cls-1" d="m40.86,56.75c-.44-.47-1.18-.87-2.08-.87s-1.64.4-2.08.87c-.79.87-.98,2.16-.98,3.45s.18,2.58.98,3.45c.44.48,1.19.87,2.08.87s1.64-.39,2.08-.87c.79-.87.98-2.16.98-3.45s-.19-2.58-.98-3.45m2.72,8.51c-.95,1.16-2.72,2.13-4.79,2.13s-3.85-.97-4.79-2.13c-1.03-1.29-1.61-2.74-1.61-5.06s.58-3.77,1.61-5.06c.95-1.16,2.71-2.13,4.79-2.13s3.85.98,4.79,2.13c1.03,1.29,1.61,2.74,1.61,5.06s-.58,3.77-1.61,5.06"/>
  <path id="path2639" class="cls-1" d="m55.35,56.75c-.45-.47-1.18-.87-2.08-.87s-1.64.4-2.08.87c-.79.87-.97,2.16-.97,3.45s.18,2.58.97,3.45c.45.48,1.19.87,2.08.87s1.63-.39,2.08-.87c.79-.87.97-2.16.97-3.45s-.18-2.58-.97-3.45m2.71,8.51c-.95,1.16-2.71,2.13-4.79,2.13s-3.85-.97-4.8-2.13c-1.02-1.29-1.6-2.74-1.6-5.06s.58-3.77,1.6-5.06c.95-1.16,2.72-2.13,4.8-2.13s3.84.98,4.79,2.13c1.03,1.29,1.6,2.74,1.6,5.06s-.58,3.77-1.6,5.06"/>
  <path id="path2643" class="cls-1" d="m78.02,67.05v-8.51c0-1.69-.45-2.66-2.11-2.66-1.87,0-2.69,1.97-2.69,3.69v7.48h-3.27v-8.51c0-1.69-.45-2.66-2.11-2.66-1.87,0-2.71,1.97-2.71,3.69v7.48h-3.27v-13.7h2.74l.26,1.81c.76-1.26,2.08-2.15,3.9-2.15,1.92,0,3.24.84,3.92,2.24.82-1.42,2.29-2.24,4.14-2.24,2.92,0,4.45,1.95,4.45,4.8v9.24h-3.27Z"/>
  <path id="path2647" class="cls-1" d="m92.82,56.43c-.45-.47-1.14-.79-2.08-.79-1,0-1.82.42-2.29,1.05-.47.61-.68,1.24-.71,2.13h5.93c-.03-1.02-.32-1.81-.84-2.4m4.11,4.8h-9.16c-.03,1.05.34,2.06,1,2.69.47.44,1.13.84,2.03.84.95,0,1.53-.18,2-.65.29-.29.53-.66.66-1.16h3.16c-.09.81-.63,1.9-1.16,2.53-1.16,1.37-2.87,1.92-4.61,1.92-1.87,0-3.24-.66-4.32-1.69-1.37-1.31-2.11-3.24-2.11-5.48s.66-4.14,1.98-5.48c1.02-1.05,2.5-1.74,4.37-1.74,2.03,0,3.87.82,5,2.53,1,1.5,1.24,3.06,1.19,4.77,0,0-.03.63-.03.93"/>
  <path id="path2651" class="cls-1" d="m107.89,67.05v-8.41c0-1.61-.53-2.58-2.27-2.58-1.16,0-1.92.74-2.37,1.74-.48,1.08-.45,2.5-.45,3.66v5.58h-3.29v-13.7h2.76l.24,1.76c.82-1.45,2.45-2.11,4.03-2.11,2.93,0,4.64,2.05,4.64,4.9v9.14h-3.29Z"/>
  <path id="path2655" class="cls-1" d="m122.01,56.43c-.45-.47-1.13-.79-2.08-.79-1,0-1.82.42-2.29,1.05-.48.61-.69,1.24-.71,2.13h5.93c-.02-1.02-.31-1.81-.84-2.4m4.11,4.8h-9.17c-.03,1.05.34,2.06,1,2.69.48.44,1.13.84,2.03.84.95,0,1.53-.18,2-.65.29-.29.53-.66.66-1.16h3.16c-.08.81-.63,1.9-1.16,2.53-1.16,1.37-2.87,1.92-4.61,1.92-1.87,0-3.24-.66-4.32-1.69-1.37-1.31-2.1-3.24-2.1-5.48s.65-4.14,1.97-5.48c1.03-1.05,2.5-1.74,4.37-1.74,2.03,0,3.88.82,5.01,2.53,1,1.5,1.24,3.06,1.19,4.77,0,0-.03.63-.03.93"/>
  <path id="path2659" class="cls-1" d="m135.55,56.28c-2.32,0-3.53,1.66-3.53,3.87v6.9h-3.32v-13.7h2.8l.29,2.06c.63-1.58,2.26-2.24,3.87-2.24.34,0,.68.03,1.03.08v3.16c-.37-.08-.76-.13-1.13-.13"/>
  <path id="path2663" class="cls-1" d="m143.4,55.48c-1.5,0-2.42,1.08-2.42,2.55s.92,2.53,2.42,2.53,2.42-1.06,2.42-2.53-.92-2.55-2.42-2.55m.61,11.78h-2.58c-.71.21-1.24.82-1.24,1.69,0,1.74,2.16,1.9,3.45,1.9s3.63-.08,3.63-1.9c0-1.69-2.03-1.69-3.27-1.69m-.24,6.19c-1.66,0-3.43-.13-4.85-1.13-1.05-.74-1.66-1.72-1.66-3.01,0-1.18.58-2.26,1.63-2.79-.87-.48-1.37-1.45-1.37-2.35,0-1.16.53-2.08,1.64-2.76-.84-.84-1.37-1.98-1.37-3.38,0-3.26,2.53-5.03,5.61-5.03,1.13,0,2.21.32,3.11.84.58-1.19,1.63-1.71,2.79-1.71.21,0,.68,0,.9.05v2.55c-.08,0-.19-.03-.27-.03-.77,0-1.45.21-1.66.87.45.73.71,1.55.71,2.47,0,3.14-2.63,4.98-5.58,4.98-.76,0-1.53-.13-2.21-.37-.32.18-.68.53-.68.97,0,.82.82,1.01,1.5,1.01h2.26c1.37,0,3.17.02,4.46.92,1.19.81,1.66,1.97,1.66,3.29,0,3.61-3.56,4.58-6.61,4.58"/>
  <path id="path2667" class="cls-1" d="m159.42,69.39c-.68,1.79-1.82,3.43-4.21,3.43-1.08,0-1.82-.16-2.53-.35v-2.74c.87.16,1.11.24,1.84.24.61,0,1.24-.21,1.58-1.03l.79-1.92-5.41-13.68h3.61l3.58,9.91,3.42-9.91h3.35l-6.03,16.04Z"/>
  <path id="path2671" class="cls-1" d="m17.12,64.3c-1.62,0-2.83-.95-2.97-2.74h0v-2.81h2.65c1.73,0,3.24.88,3.24,2.79,0,1.75-1.28,2.76-2.92,2.76m0-13.33h0c1.46,0,2.52,1.09,2.52,2.41,0,1.73-1.04,2.47-2.84,2.47h-.76s-1.89,0-1.89,0v-4.88h2.97Zm3.24,6.29c1.67-.58,2.66-2.28,2.66-3.96,0-3.19-2.55-5.26-5.9-5.26h-6.3s0,13.5,0,13.5h0c.12,3.46,2.87,5.67,6.27,5.67s6.29-1.93,6.29-5.63c0-1.91-1.12-3.8-3.03-4.33"/>
  <path id="path2675" class="cls-1" d="m168.53,54.54c-.08-.03-.19-.04-.32-.04h-.14v.62h.22c.13,0,.23-.03.31-.08.07-.05.11-.14.11-.25s-.06-.2-.17-.24m-1.02,1.72v-2.14c.13,0,.33,0,.6,0,.26,0,.41,0,.44,0,.17.01.31.05.42.11.19.1.29.27.29.51,0,.18-.05.31-.15.39-.1.08-.22.13-.37.14.13.03.23.07.3.12.12.1.19.26.19.48v.19s0,.04,0,.06c0,.02,0,.04.02.06l.02.06h-.53c-.02-.07-.03-.17-.04-.3,0-.13-.02-.22-.03-.26-.03-.08-.08-.13-.16-.16-.04-.02-.11-.03-.19-.03h-.12s-.12,0-.12,0v.76h-.56Zm-.29-2.19c-.31.31-.46.69-.46,1.12s.15.83.47,1.14c.31.31.68.47,1.12.47s.81-.16,1.12-.47c.31-.32.47-.69.47-1.14s-.15-.8-.46-1.12c-.31-.32-.69-.48-1.12-.48s-.82.16-1.13.48m2.48,2.5c-.37.36-.82.54-1.35.54s-1-.19-1.37-.56c-.37-.37-.56-.83-.56-1.37s.2-1.03.6-1.4c.38-.35.82-.52,1.33-.52s.99.19,1.36.57c.38.38.56.83.56,1.36s-.19,1.01-.58,1.38"/>
</svg>