<?xml version="1.0" encoding="UTF-8"?>
<svg id="Layer_1" data-name="Layer 1" xmlns="http://www.w3.org/2000/svg" viewBox="0 0 180 120">
  <defs>
    <style>
      .cls-1 {
        fill: #656565;
        stroke-width: 0px;
      }
    </style>
  </defs>
  <path class="cls-1" d="m104.68,47.3c0-.94.69-1.61,1.56-1.61s1.56.68,1.56,1.61-.7,1.62-1.56,1.62-1.56-.68-1.56-1.62m1.56,2.01c1.09,0,2.05-.81,2.05-2.01s-.95-2.01-2.05-2.01-2.05.81-2.05,2.01.96,2.01,2.05,2.01m-.39-1.88h.33l.57.98h.44l-.63-.99c.35-.04.61-.2.61-.61,0-.48-.3-.67-.86-.67h-.86v2.27h.4v-.98m0-.32v-.65h.43c.23,0,.47.05.47.31,0,.3-.21.34-.48.34h-.42Z"/>
  <polygon class="cls-1" points="45.74 73.78 42.59 73.78 42.59 48.59 37.75 48.59 37.75 45.41 50.59 45.41 50.59 48.59 45.74 48.59 45.74 73.78"/>
  <path class="cls-1" d="m51.26,63.69c0-5.46,0-5.82.06-6.95.06-1.15.15-3.63,2.46-3.63s2.32,2.25,2.34,3.66c.03,1.77.03,3.57.06,5.33.03,1.83-.03,4.15-.15,6.04-.09,1.48-.17,3.6-2.34,3.6-2.69,0-2.34-2.86-2.4-5.04-.03-1.44-.03-1.48-.03-3.03m7.49-1.57c0-.61.06-4.69-.12-6.62-.12-1.22-.46-4.76-4.72-4.76-4.63,0-5.03,3.89-5.12,5.04-.08,1.22-.15,5.98-.15,7.42,0,2.03-.03,5.33.21,6.88.14.94.52,2.51,1.97,3.38.95.57,1.99.64,2.74.64,4.23,0,4.86-3.06,5.01-5.92.08-1.7.17-4.31.17-6.08h0Z"/>
  <path class="cls-1" d="m63.22,63.69c0-5.46,0-5.82.06-6.95.06-1.15.14-3.63,2.46-3.63s2.32,2.25,2.34,3.66c.03,1.77.03,3.57.06,5.33.03,1.83-.03,4.15-.15,6.04-.08,1.48-.17,3.6-2.34,3.6-2.69,0-2.34-2.86-2.4-5.04-.03-1.44-.03-1.48-.03-3.03m7.5-1.57c0-.61.05-4.69-.12-6.62-.12-1.22-.46-4.76-4.72-4.76-4.63,0-5.03,3.89-5.12,5.04-.09,1.22-.14,5.98-.14,7.42,0,2.03-.03,5.33.2,6.88.15.94.52,2.51,1.97,3.38.95.57,1.99.64,2.75.64,4.23,0,4.86-3.06,5-5.92.09-1.7.17-4.31.17-6.08h0Z"/>
  <polygon class="cls-1" points="81.61 73.78 73.04 73.78 73.04 51.09 75.62 51.09 75.62 71.24 81.61 71.24 81.61 73.78"/>
  <polygon class="cls-1" points="98.07 73.78 93.88 73.78 91.09 50.28 88.16 73.78 83.96 73.78 79.77 45.41 82.92 45.41 86.06 70.29 89.06 45.41 93.15 45.41 96.08 70.29 99.26 45.41 102.37 45.41 98.07 73.78"/>
  <path class="cls-1" d="m104.26,66.97l1.88-11.67,2,11.67h-3.88m3.19-15.88h-2.54l-4.4,22.69h2.63l.7-4.37h4.75l.72,4.37h2.66l-4.51-22.69h-.01Z"/>
  <polygon class="cls-1" points="116.59 73.84 114.07 73.84 114.07 53.69 110.2 53.69 110.2 51.15 120.47 51.15 120.47 53.69 116.59 53.69 116.59 73.84"/>
  <path class="cls-1" d="m130.61,65.84c0,3.05-.03,3.86-.21,4.72-.26,1.32-.92,3.6-4.6,3.6-3.12,0-4.39-2.06-4.72-4.15-.09-.64-.21-1.61-.21-7.26,0-5.97.09-6.68.23-7.68.17-.99.7-4.28,4.9-4.28,1.68,0,3.75.81,4.28,3.28.23,1.09.23,2.44.21,4.21h-2.37v-1.71c0-1.54-.03-3.41-2.11-3.41s-2.35,1.93-2.43,2.79c-.18,1.64-.18,5.08-.18,6.82,0,1.38.06,5.98.18,6.88.08.42.35,2.12,2.37,2.12,1.82,0,2.08-1.74,2.17-2.15.12-.58.12-1.09.12-3.79h2.38Z"/>
  <polygon class="cls-1" points="142.25 73.84 139.7 73.84 139.7 63.27 135.04 63.27 135.04 73.84 132.5 73.84 132.5 51.15 135.04 51.15 135.04 60.79 139.7 60.79 139.7 51.15 142.25 51.15 142.25 73.84"/>
</svg>