<?xml version="1.0" encoding="UTF-8"?>
<svg id="Layer_1" data-name="Layer 1" xmlns="http://www.w3.org/2000/svg" viewBox="0 0 180 120">
  <defs>
    <style>
      .cls-1 {
        fill: #656565;
        stroke-width: 0px;
      }
    </style>
  </defs>
  <path id="Path_3064" data-name="Path 3064" class="cls-1" d="m35.86,68.39c.92-.07,3.2-.42,2.99-1.81-.07-.45-.4-1.41-3.37-.78-2.97-.64-3.3.33-3.37.78-.19,1.37,2.05,1.74,2.97,1.81v1.27h-2.99l.28.99h6.17l.28-.99h-2.97v-1.27Z"/>
  <path id="Path_3065" data-name="Path 3065" class="cls-1" d="m35.49,45.57l-6.74,1.34-1.46-1.58c-1.55-1.67-4.17-1.77-5.84-.21h0l-.33.31c-1.67,1.55-1.77,4.17-.21,5.84h0l1.72,1.58-.68,2.45c-1.11.05-2.19.21-3.25.52-.21.07-.33.28-.31.49l.26,1.96.12.07c.38.19.47.49.99,2.29l.09.31c.57,1.93,1.01,2.78,1.93,3.44l1.55,5.65,7.82,3.98h8.62l7.87-3.96,1.58-5.65c.92-.66,1.39-1.51,1.93-3.44l.09-.31c.52-1.79.61-2.07.99-2.29l.12-.07.28-1.96c.02-.21-.12-.42-.31-.49-1.06-.28-2.17-.45-3.25-.52l-.68-2.45,1.72-1.58c1.55-1.67,1.48-4.29-.16-5.84h0l-.02-.02-.33-.31c-1.67-1.55-4.29-1.48-5.84.19h0l-1.46,1.58-6.81-1.32m0,1.79l9.78,2.14,1.88,5.72h-.9c-1.41,0-2.83.12-4.24.31-.78.09-1.58.24-2.36.4-.64.14-1.15.26-1.6.38-.85.26-1.7.4-2.57.42h-.02c-.87-.02-1.74-.16-2.57-.42-.45-.12-.97-.24-1.6-.38-.78-.16-1.58-.31-2.36-.4-1.41-.19-2.83-.28-4.24-.31h-.9l1.88-5.72,9.8-2.14h0Zm-12.84,16.11c-.42-.31-.75-.71-.97-1.15-.26-.52-.42-1.08-.49-1.67-.31-2.17.02-2.9.24-3.13.19-.21.45-.4.71-.52.49-.19,1.01-.31,1.55-.35.59-.05,1.2-.09,1.81-.07.57,0,1.2.02,1.86.05,1.2.09,2.4.33,3.56.66.64.21,1.51.59,1.67,1.15.14.94.05,1.88-.28,2.76-.42.9-1.06,1.65-1.84,2.24-1.08.66-2.31,1.01-3.58.97h-.05c-1.2.05-2.38-.14-3.51-.57-.24-.07-.45-.21-.68-.35Zm23.77,5.54l-6.97,3.53h-7.94l-6.97-3.53-1.08-3.89c1.08.26,2.17.38,3.27.38.52,0,1.01-.02,1.53-.09,1.74-.16,3.35-1.04,4.43-2.43.68-1.06,1.25-2.19,1.72-3.37.19-.42.94-.45,1.04-.45h0c.09,0,.85.02,1.04.45.47,1.18,1.04,2.31,1.72,3.37,1.08,1.37,2.69,2.26,4.43,2.43.52.05,1.01.09,1.53.09,1.11,0,2.21-.12,3.27-.38l-1.01,3.89Zm3.32-8.36c-.07.57-.24,1.13-.49,1.67-.24.47-.57.85-.97,1.15-.21.14-.45.28-.68.38-1.13.4-2.31.59-3.51.57h-.05c-1.27.02-2.5-.31-3.58-.97-.78-.59-1.41-1.34-1.84-2.24-.33-.87-.45-1.84-.28-2.76.19-.59,1.06-.92,1.7-1.15,1.15-.33,2.36-.54,3.56-.66.68-.02,1.32-.05,1.86-.05.61,0,1.2.02,1.81.07.54.05,1.06.16,1.55.35.28.12.52.28.71.52.21.21.52.97.21,3.11h0Z"/>
  <path class="cls-1" d="m73.77,61.54c-.45-.57-1.06-1.01-1.74-1.27.47-.31.87-.71,1.15-1.18.4-.66.61-1.44.59-2.21.05-1.23-.54-2.4-1.53-3.11-1.25-.8-2.73-1.2-4.22-1.11h-7.14v15.85h7.56c1.58.09,3.16-.28,4.52-1.13,1.06-.75,1.65-1.98,1.6-3.25.05-.92-.24-1.84-.8-2.59Zm-10.25-6.62h4.29c.87-.05,1.72.14,2.47.59.92.71,1.08,2,.38,2.92-.12.14-.24.28-.38.38-.75.42-1.63.64-2.47.59h-4.29v-4.48Zm7.54,10.81c-.82.45-1.77.64-2.69.59h-4.85v-4.69h4.85c2.38,0,3.53.78,3.53,2.36.07.68-.26,1.37-.85,1.74Zm20.21-9.31v1.44c-.45-.45-.97-.8-1.55-1.04-.8-.33-1.67-.49-2.54-.49-1.08-.02-2.17.24-3.13.73-.92.47-1.7,1.18-2.21,2.07-1.06,1.88-1.06,4.22,0,6.1.52.9,1.3,1.6,2.21,2.1.97.49,2.05.75,3.13.73.85,0,1.67-.14,2.45-.47.57-.24,1.08-.57,1.53-.99v.35c.09,1.01-.24,2.03-.92,2.78-.8.66-1.84.99-2.87.9-.82,0-1.63-.14-2.4-.4-.71-.24-1.37-.59-1.93-1.06l-.19-.16-1.25,2,.14.12c.73.64,1.58,1.08,2.5,1.34,1.04.31,2.12.47,3.2.47,2.05,0,3.63-.52,4.69-1.53s1.58-2.59,1.58-4.69v-10.32h-2.43v.02Zm-.57,7.61c-.33.54-.78.99-1.34,1.27h0c-1.25.61-2.69.61-3.93,0-.57-.28-1.01-.73-1.34-1.27-.33-.57-.49-1.2-.49-1.86-.05-.97.35-1.91,1.06-2.59.75-.68,1.74-1.04,2.76-.99,1.01-.05,1.98.31,2.73.99.71.66,1.08,1.6,1.06,2.59,0,.66-.16,1.3-.49,1.86h0Zm16.7-9.87c-1.39-1.06-3.11-1.58-4.85-1.48h-6.22v15.85h2.64v-4.66h3.58c1.74.09,3.46-.42,4.85-1.48,2.26-2.1,2.4-5.63.33-7.89-.09-.12-.21-.21-.33-.33h0Zm-1.86,6.5c-.9.61-1.98.92-3.06.85h-3.53v-6.48h3.51c1.08-.07,2.17.21,3.06.85,1.32,1.27,1.37,3.37.09,4.69,0,.05-.05.07-.07.09h0Zm26.5-2.99c-.99-.92-2.33-1.41-3.68-1.34-.87-.02-1.74.14-2.57.49-.54.24-1.01.57-1.41.97v-1.37h-2.47v12.11h2.54v-6.22c-.07-.99.26-1.98.92-2.71.68-.64,1.6-.99,2.54-.94.8-.05,1.6.24,2.17.78.54.68.82,1.53.75,2.4v6.69h2.54v-6.93c.14-1.46-.35-2.87-1.34-3.93h0Zm12.91.14c-.42-.42-.92-.78-1.46-1.01-.75-.33-1.58-.49-2.4-.49-1.11-.02-2.19.26-3.13.78-.92.52-1.67,1.27-2.19,2.17-1.06,2.03-1.06,4.43,0,6.43.52.92,1.27,1.67,2.19,2.19.97.52,2.05.8,3.13.78.85,0,1.7-.16,2.47-.52.54-.26,1.06-.61,1.46-1.06v1.46h2.47v-17.34l-2.54,1.32v5.3Zm-.47,6.71c-.31.57-.75,1.04-1.32,1.37h0c-1.18.66-2.61.66-3.79,0-.57-.33-1.01-.8-1.32-1.37-.66-1.27-.66-2.8,0-4.08.31-.57.75-1.04,1.32-1.37,1.18-.64,2.61-.64,3.79,0,.57.31,1.01.78,1.32,1.34.66,1.3.66,2.8,0,4.1h0Zm-25.8-6.97c-1.08-.9-2.45-1.34-3.86-1.25-1.51-.02-2.99.35-4.31,1.11l1.13,1.93c.94-.54,2-.82,3.06-.78.73-.02,1.46.21,2.03.66.52.52.78,1.2.73,1.93v.19h-3.13c-1.67,0-2.92.33-3.7.99-1.46,1.25-1.6,3.44-.35,4.9.12.14.26.28.42.4.94.71,2.1,1.06,3.27.99.82.02,1.65-.14,2.4-.45.45-.19.85-.47,1.2-.82v1.13h2.45v-7.26c.12-1.34-.38-2.69-1.34-3.68Zm-1.18,7.14c-.24.57-.64,1.06-1.18,1.39-.59.35-1.27.52-1.98.52-.61.05-1.25-.12-1.77-.47-.4-.28-.61-.73-.59-1.2,0-.4,0-1.58,2.47-1.58h3.04v1.34Zm40.8-7.14c-1.08-.9-2.45-1.34-3.86-1.25-1.51-.02-2.99.35-4.31,1.11l1.13,1.93c.94-.54,2-.82,3.06-.78.73-.02,1.46.21,2.03.66.52.52.78,1.2.73,1.93v.19h-3.13c-1.67,0-2.92.33-3.7.99-1.46,1.25-1.6,3.44-.35,4.9.12.14.26.28.42.4.94.71,2.1,1.06,3.27.99.82.02,1.65-.14,2.4-.45.45-.19.85-.47,1.2-.82v1.13h2.45v-7.26c.12-1.34-.38-2.69-1.34-3.68Zm-1.2,7.14c-.24.57-.64,1.06-1.18,1.39-.59.35-1.27.52-1.98.52-.61.05-1.25-.12-1.77-.47-.4-.28-.61-.73-.59-1.2,0-.4,0-1.58,2.47-1.58h3.04v1.34Zm-78.07,3.84h-2.54v-10.65l2.54-1.39v12.04Zm-1.27-12.93c-.45.02-.87-.16-1.18-.45h0c-.31-.28-.47-.71-.47-1.13s.16-.85.47-1.13c.31-.31.73-.47,1.18-.47.42-.02.85.14,1.18.45.31.28.49.68.47,1.11,0,.42-.16.85-.47,1.15s-.75.47-1.18.47Z"/>
</svg>