<?xml version="1.0" encoding="UTF-8"?> <svg xmlns="http://www.w3.org/2000/svg" id="Layer_1" viewBox="0 0 180 120"><defs><style>.cls-1{fill:#656565;}</style></defs><rect class="cls-1" x="126.9" y="53.53" width="4.2" height="18.15"></rect><rect class="cls-1" x="152.79" y="53.56" width="4.2" height="18.15" rx=".45" ry=".45"></rect><rect class="cls-1" x="101.63" y="63.17" width="6.75" height="3.12"></rect><circle class="cls-1" cx="31.88" cy="56.63" r="1.43"></circle><path class="cls-1" d="m64,58.48c-.51-2.53-2.52-4.92-4.58-5.01-3.3-.14-6.61-.04-10.04-.04v18.37h2.5c.17,0,.32.01.47,0h.51c.48,0,.87-.39.87-.87v-5.59c1.39,0,2.58.14,3.73-.04,1.36-.2,2.75-.49,3.99-1.05,1.72-.79,2.94-3.86,2.55-5.78h0Zm-6.44,2.75c-1.21.09-2.44.02-3.74.02v-3.71c1.22,0,2.43.02,3.64,0,1.15-.03,1.76.46,1.76,1.65,0,1.15-.46,1.96-1.66,2.05Z"></path><path class="cls-1" d="m80.28,70.81c-.89-1.52-2.57-4.37-3.46-5.89.33-.21.56-.38.81-.52,2.31-1.36,2.98-3.5,2.74-6-.21-2.08-2.26-4.72-4.25-4.85-3.44-.24-6.92-.07-10.38-.07v18.33h3.51c.46,0,.84-.38.84-.84v-1.39c0-.06,0-.11,0-.16,0-.05,0-.1,0-.15v-3.77h1.72l.06.04,3.74,6.26h4.1c.51.01.83-.54.57-.99h0Zm-4.48-11.45c-.06.67-1.02,1.61-1.74,1.8-1.16.3-2.46.08-3.84.08v-3.7c1.33,0,2.51.04,3.69-.01,1.33-.06,1.96.93,1.89,1.84h0Z"></path><path class="cls-1" d="m23.58,56.96c-4.2,0-7.6,3.4-7.6,7.6s3.4,7.6,7.6,7.6,7.6-3.4,7.6-7.6-3.4-7.6-7.6-7.6Zm0,11.18c-1.98,0-3.58-1.6-3.58-3.58s1.6-3.58,3.58-3.58,3.58,1.6,3.58,3.58-1.6,3.58-3.58,3.58Z"></path><path class="cls-1" d="m36.85,50.56c-1.58-.55-3.17-1.05-4.82-1.6,0-1.08-.04-2.09,0-3.08.16-3.94-3.18-8.37-8.2-8.55-3.88-.14-7.97,2.81-8.62,7.22h0c-.06.44-.09.88-.09,1.34h0l-.17,2.53-5.14,2.35s-.09.04-.13.06l-.06.03h0c-.96.51-1.28,1.44-1.27,2.72.04,4.86-.07,9.72.07,14.58.04,1.32.53,2.76,1.2,3.91,3,5.1,7.77,8.12,13,10.48.58.26,1.49.13,2.14-.11,4.38-1.61,8.03-4.33,11.16-7.72,1.97-2.13,3.25-4.66,3.22-7.72-.04-4.33-.1-8.65.03-12.98.05-1.86-.71-2.89-2.33-3.45h0Zm-15.5-8.34c1.11-.64,3.04-.68,4.26-.17,2.74,1.15,2.48,3.75,2.23,6.36h-8.47c-.46-2.43-.32-4.85,1.99-6.19h0Zm13.61,25.26c-.09,1.39-.96,2.9-1.86,4.03-2.26,2.84-5.25,4.84-8.47,6.46-.42.21-1.08.33-1.46.14-3.68-1.86-7.24-3.92-9.61-7.44-.53-.79-1-1.81-1.02-2.74-.1-4.55-.05-9.11-.05-13.61,4.61-1.62,9.16-2.11,13.75-1.72,2.21.19,4.41.66,6.6,1.14l2.15.46.02.86c.01.06.02.12.02.17.01,1.07.04,2.14.05,3.22h0c.05,3.03.08,6.04-.11,9.04h0Z"></path><path class="cls-1" d="m91.04,52.84c-5.28,0-9.56,4.28-9.56,9.56s4.28,9.56,9.56,9.56,9.56-4.28,9.56-9.56-4.28-9.56-9.56-9.56h0Zm0,14.38c-2.67,0-4.83-2.16-4.83-4.83s2.16-4.83,4.83-4.83,4.83,2.16,4.83,4.83-2.16,4.83-4.83,4.83Z"></path><path class="cls-1" d="m141.85,61.4v3.61h4.66c.36,2.42-2.16,2.48-2.16,2.48h0c-1.18.19-2.45.2-3.58-.09-1.8-.46-3.3-2.92-3.12-4.87.19-2.03.82-3.95,2.91-4.87,2.04-.9,3.82-.55,5.42.83l.23.21s.07.07.11.1c0,0,0,0,.01,0l.73.67,1.31-.63s.04-.01.07-.02l.12-.06s.02,0,.03-.01c.01,0,.03-.02.04-.03l2.14-1.02s-.36-.59-.75-1.14c-.07-.12-.15-.24-.26-.37-.05-.06-.09-.11-.14-.16-.07-.09-.14-.17-.21-.23h0c-1.3-1.41-2.9-2.33-4.82-2.6-3.47-.49-6.7.18-9.16,2.82-2.38,2.55-2.84,5.7-2.01,9.01,1.9,7.6,11.44,8.51,16.07,4.54.51-.44,1.16-1.07,1.2-1.64.14-2.16.06-4.33.06-6.53h-8.92Z"></path><path class="cls-1" d="m120.95,53.52c-1.5,4.14-2.96,8.18-4.51,12.44-1.29-3.57-2.5-6.97-3.75-10.33h0l-.8-2.23h-1.88c-1.01-.02-2.06.03-3.22.03,2.09,5.4,4.23,10.49,6.01,15.7.7,2.03,2.75,3.43,4.9,2.54,2.11-.88,2.68-3.51,3.43-5.39.85-2.11,1.66-4.23,2.48-6.36.8-2.08,1.53-4.18,2.34-6.41h-5Z"></path><path class="cls-1" d="m164.22,67.66v-14.08h-4.39v17.59c0,.33.26.59.59.59h6.61c1.54.04,3.09,0,4.63,0v-4.1h-7.43Z"></path></svg> 