<?xml version="1.0" encoding="UTF-8"?> <svg xmlns="http://www.w3.org/2000/svg" id="Layer_1" viewBox="0 0 180 120"><defs><style>.cls-1{fill:#656565;}</style></defs><path class="cls-1" d="m119.4,31.68c-.9-.5-2-.6-2.9-.3-22.8,6.9-24.1,12.7-24.1,12.7h-13v8l38-2.6,13.2-11.3-11.2-6.5h0Zm-10.4,9.6l-3.4-2.1c-.7-.4-.6-1.5.1-1.8l9.8-4.1c.8-.3,1.7-.3,2.5.1l8.3,4.6-17.3,3.3h0Z"></path><path class="cls-1" d="m137,48.48l-24.2.6-34.2,3.6v-3.4l8.4-6.6,34.4-5s31.1-5,36-4.6c0,0,2.7,5-20.4,15.4h0Z"></path><path class="cls-1" d="m65.4,49.18s10.1,5.9,42.6-2.4c2.3-.4,19.7-4.7,37.3,5.2-1-.5-2.6-.6-3.7-.8-3.2-.6-6.5-1-9.8-1.3-8.5-.8-17.1-.7-25.5,1.1-8.1,1.8-16.3,4.9-24.7,4-5-.5-12.9-1.4-16.2-5.8h0Z"></path><path class="cls-1" d="m123.1,39.58c2.4-.3,4.8-.6,7.2-.9,2.4-.3,4.8-.6,7.2-1,1.2-.2,2.4-.4,3.6-.5l1.8-.3,1.8-.3,7.2-1.2c-1.2.3-2.3.6-3.5.9-1.2.3-2.4.6-3.5.8-2.4.5-4.8.9-7.2,1.3-2.4.3-4.8.6-7.2.8-2.6.3-5,.4-7.4.4h0Z"></path><g><path class="cls-1" d="m15.9,75.18h-7.2v-14.6h7c3.2,0,5.1,1.5,5.1,3.8,0,1.8-1.1,2.9-2.6,3.3,1.8.4,3,1.9,3,3.5-.1,2.5-2,4-5.3,4h0Zm-1-11.8h-2.5v3.1h2.5c1.2,0,1.9-.5,1.9-1.5.1-1-.6-1.6-1.9-1.6h0Zm.3,5.7h-2.7v3.2h2.8c1.3,0,2-.5,2-1.6,0-1-.8-1.6-2.1-1.6h0Z"></path><path class="cls-1" d="m30.7,75.38c-4.4,0-8-3.1-8-7.5s3.6-7.5,8-7.5,8,3.1,8,7.5c-.1,4.4-3.6,7.5-8,7.5Zm0-3.3c2.5,0,4.1-1.7,4.1-4.3s-1.6-4.3-4.1-4.3-4.1,1.7-4.1,4.3,1.6,4.3,4.1,4.3Z"></path><path class="cls-1" d="m50.5,72.58h-5.8l-.9,2.6h-4l5.6-14.7h4.4l5.6,14.7h-4l-.9-2.6Zm-2.9-8.1l-1.9,5.4h3.8l-1.9-5.4h0Z"></path><polygon class="cls-1" points="56.4 60.58 68.4 60.58 68.4 63.48 64.3 63.48 64.3 75.28 60.5 75.28 60.5 63.38 56.4 63.38 56.4 60.58"></polygon><path class="cls-1" d="m77.5,60.38c3.7,0,6.5,2,7.4,5.1h-4.2c-.6-1.3-1.8-1.9-3.3-1.9-2.3,0-3.9,1.6-3.9,4.2s1.6,4.2,3.9,4.2c1.4,0,2.6-.6,3.3-1.9h4.2c-.9,3.2-3.7,5.1-7.4,5.1-4.6,0-7.8-3.1-7.8-7.5s3.2-7.3,7.8-7.3Z"></path><path class="cls-1" d="m94.7,75.38c-4.4,0-8-3.1-8-7.5s3.6-7.5,8-7.5,8,3.1,8,7.5c-.1,4.4-3.6,7.5-8,7.5h0Zm0-3.3c2.5,0,4.1-1.7,4.1-4.3s-1.6-4.3-4.1-4.3-4.1,1.7-4.1,4.3,1.5,4.3,4.1,4.3Z"></path><polygon class="cls-1" points="115.4 60.58 119.4 60.58 113.9 75.28 109.2 75.28 103.7 60.58 107.7 60.58 111.6 71.68 115.4 60.58 115.4 60.58"></polygon><polygon class="cls-1" points="130.5 63.38 124.8 63.38 124.8 66.38 129.9 66.38 129.9 69.18 124.8 69.18 124.8 72.38 130.5 72.38 130.5 75.28 121 75.28 121 60.58 130.5 60.58 130.5 63.38 130.5 63.38"></polygon><path class="cls-1" d="m139.4,60.58c3.8,0,5.7,2.1,5.7,4.6,0,1.8-1.1,3.6-3.5,4.2l3.6,5.8h-4.2l-3.2-5.5h-.9v5.5h-3.8v-14.6h6.3Zm-.2,2.9h-2.3v3.6h2.3c1.4,0,2.1-.7,2.1-1.8s-.7-1.8-2.1-1.8h0Z"></path></g><circle class="cls-1" cx="149.4" cy="73.78" r="1.4"></circle><g><path class="cls-1" d="m154.5,70.68c1.2,0,2,.6,2.2,1.7h-1.3c-.1-.4-.5-.7-.9-.7-.7,0-1.1.5-1.1,1.4s.4,1.4,1.1,1.4c.5,0,.8-.2.9-.7h1.3c-.3,1-1.1,1.7-2.2,1.7-1.4,0-2.3-1-2.3-2.4,0-1.5,1-2.4,2.3-2.4h0Z"></path><path class="cls-1" d="m160,75.48c-1.4,0-2.4-1-2.4-2.4s1.1-2.4,2.4-2.4c1.4,0,2.4.9,2.4,2.4s-1.1,2.4-2.4,2.4Zm0-1c.6,0,1.2-.5,1.2-1.4s-.6-1.4-1.2-1.4-1.2.5-1.2,1.4.5,1.4,1.2,1.4Z"></path><path class="cls-1" d="m170.1,72.88c0-.8-.4-1.1-1.1-1.1s-1.1.4-1.1,1.1v2.6h-1.2v-2.6c0-.8-.4-1.1-1.1-1.1-.6,0-1.1.4-1.1,1.1v2.6h-1.2v-4.7h1.2v.6c.3-.4.8-.6,1.4-.6.7,0,1.3.3,1.7.9.3-.5.9-.9,1.6-.9,1.1,0,1.9.7,1.9,2v2.8h-1.2v-2.7h.2Z"></path></g><g><polygon class="cls-1" points="27.8 84.18 31.3 84.18 31.3 85.08 30.1 85.08 30.1 88.68 29 88.68 29 85.08 27.8 85.08 27.8 84.18 27.8 84.18"></polygon><polygon class="cls-1" points="34.9 86.78 33.2 86.78 33.2 88.68 32 88.68 32 84.18 33.1 84.18 33.1 85.98 34.8 85.98 34.8 84.18 36 84.18 36 88.68 34.9 88.68 34.9 86.78"></polygon><polygon class="cls-1" points="39.7 85.08 38 85.08 38 85.98 39.5 85.98 39.5 86.88 38 86.88 38 87.88 39.7 87.88 39.7 88.78 36.9 88.78 36.9 84.28 39.7 84.28 39.7 85.08 39.7 85.08"></polygon><path class="cls-1" d="m44.2,88.68c-1.3,0-2.3-1-2.3-2.3s1-2.3,2.3-2.3,2.3,1,2.3,2.3c0,1.4-1,2.3-2.3,2.3Zm0-1c.7,0,1.2-.5,1.2-1.3s-.5-1.3-1.2-1.3-1.2.5-1.2,1.3.4,1.3,1.2,1.3Z"></path><path class="cls-1" d="m49.1,84.18c1.1,0,1.7.6,1.7,1.4,0,.6-.3,1.1-1,1.3l1,1.8h-1.2l-1-1.7h-.3v1.7h-1.1v-4.5h1.9Zm-.1.9h-.7v1.1h.7c.4,0,.6-.2.6-.6,0-.3-.2-.5-.6-.5Z"></path><rect class="cls-1" x="51.6" y="84.18" width="1.1" height="4.5"></rect><path class="cls-1" d="m57.9,85.58h-1.2c-.2-.3-.5-.5-.9-.5-.7,0-1.2.5-1.2,1.3s.5,1.3,1.3,1.3c.5,0,.9-.3,1.1-.8h-1.4v-.8h2.4v1c-.2.8-1,1.6-2.2,1.6-1.4,0-2.3-.9-2.3-2.3s.9-2.3,2.3-2.3c1,0,1.8.6,2.1,1.5h0Z"></path><rect class="cls-1" x="58.7" y="84.18" width="1.1" height="4.5"></rect><polygon class="cls-1" points="64.8 84.18 64.8 88.68 63.7 88.68 61.9 85.88 61.9 88.68 60.8 88.68 60.8 84.18 61.9 84.18 63.7 86.98 63.7 84.18 64.8 84.18"></polygon><path class="cls-1" d="m68.5,87.88h-1.7l-.3.8h-1.2l1.6-4.5h1.3l1.6,4.5h-1.2l-.1-.8h0Zm-.8-2.5l-.6,1.7h1.1l-.5-1.7Z"></path><polygon class="cls-1" points="71.7 84.18 71.7 87.88 73.1 87.88 73.1 88.78 70.6 88.78 70.6 84.28 71.7 84.28 71.7 84.18"></polygon><path class="cls-1" d="m77.5,88.68h-2.1v-4.5h2c.9,0,1.5.5,1.5,1.2,0,.5-.3.9-.8,1,.5.1.9.6.9,1.1,0,.7-.6,1.2-1.5,1.2h0Zm-.3-3.6h-.7v.9h.7c.4,0,.6-.2.6-.5s-.3-.4-.6-.4h0Zm.1,1.7h-.8v1h.8c.4,0,.6-.2.6-.5-.1-.3-.3-.5-.6-.5h0Z"></path><path class="cls-1" d="m81.9,88.68c-1.3,0-2.3-1-2.3-2.3s1-2.3,2.3-2.3,2.3,1,2.3,2.3c0,1.4-1,2.3-2.3,2.3Zm0-1c.7,0,1.2-.5,1.2-1.3s-.5-1.3-1.2-1.3-1.2.5-1.2,1.3.4,1.3,1.2,1.3Z"></path><path class="cls-1" d="m87.8,87.88h-1.7l-.3.8h-1.2l1.6-4.5h1.3l1.6,4.5h-1.1l-.2-.8h0Zm-.9-2.5l-.6,1.7h1.1l-.5-1.7Z"></path><polygon class="cls-1" points="89.6 84.18 93.1 84.18 93.1 85.08 91.9 85.08 91.9 88.68 90.8 88.68 90.8 85.08 89.6 85.08 89.6 84.18 89.6 84.18"></polygon><path class="cls-1" d="m97.4,84.08c1.1,0,1.9.6,2.1,1.6h-1.2c-.2-.4-.5-.6-.9-.6-.7,0-1.1.5-1.1,1.3s.5,1.3,1.1,1.3c.4,0,.8-.2.9-.6h1.2c-.3,1-1.1,1.6-2.1,1.6-1.3,0-2.3-.9-2.3-2.3,0-1.3,1-2.3,2.3-2.3h0Z"></path><path class="cls-1" d="m102.5,88.68c-1.3,0-2.3-1-2.3-2.3s1-2.3,2.3-2.3,2.3,1,2.3,2.3c0,1.4-1,2.3-2.3,2.3Zm0-1c.7,0,1.2-.5,1.2-1.3s-.5-1.3-1.2-1.3-1.2.5-1.2,1.3.5,1.3,1.2,1.3Z"></path><polygon class="cls-1" points="108.6 84.18 109.8 84.18 108.2 88.68 106.8 88.68 105.2 84.18 106.4 84.18 107.5 87.58 108.6 84.18 108.6 84.18"></polygon><polygon class="cls-1" points="113.2 85.08 111.5 85.08 111.5 85.98 113 85.98 113 86.88 111.5 86.88 111.5 87.88 113.2 87.88 113.2 88.78 110.4 88.78 110.4 84.28 113.2 84.28 113.2 85.08 113.2 85.08"></polygon><path class="cls-1" d="m115.9,84.18c1.1,0,1.7.6,1.7,1.4,0,.6-.3,1.1-1,1.3l1,1.8h-1.2l-.9-1.7h-.3v1.7h-1.1v-4.5h1.8Zm-.1.9h-.7v1.1h.7c.4,0,.6-.2.6-.6,0-.3-.2-.5-.6-.5Z"></path><path class="cls-1" d="m122,84.08c1.1,0,1.9.6,2.1,1.6h-1.2c-.2-.4-.5-.6-.9-.6-.7,0-1.1.5-1.1,1.3s.5,1.3,1.1,1.3c.4,0,.8-.2.9-.6h1.2c-.3,1-1.1,1.6-2.1,1.6-1.3,0-2.3-.9-2.3-2.3,0-1.3,1-2.3,2.3-2.3h0Z"></path><path class="cls-1" d="m127.1,88.68c-1.3,0-2.3-1-2.3-2.3s1-2.3,2.3-2.3,2.3,1,2.3,2.3c0,1.4-1,2.3-2.3,2.3Zm0-1c.7,0,1.2-.5,1.2-1.3s-.5-1.3-1.2-1.3-1.2.5-1.2,1.3.5,1.3,1.2,1.3Z"></path><polygon class="cls-1" points="130.2 84.18 131.5 84.18 132.8 87.28 134.1 84.18 135.4 84.18 135.4 88.68 134.3 88.68 134.3 85.98 133.3 88.68 132.4 88.68 131.4 85.98 131.4 88.68 130.3 88.68 130.2 84.18 130.2 84.18"></polygon><path class="cls-1" d="m138,87.08h-.7v1.6h-1.1v-4.5h1.8c1.1,0,1.7.6,1.7,1.5,0,.7-.5,1.4-1.7,1.4h0Zm-.1-.9c.4,0,.6-.2.6-.6,0-.3-.2-.6-.6-.6h-.6v1.1l.6.1h0Z"></path><path class="cls-1" d="m143.2,87.88h-1.7l-.3.8h-1.2l1.6-4.5h1.3l1.6,4.5h-1.2l-.1-.8h0Zm-.8-2.5l-.6,1.7h1.1l-.5-1.7Z"></path><polygon class="cls-1" points="149.3 84.18 149.3 88.68 148.2 88.68 146.4 85.88 146.4 88.68 145.3 88.68 145.3 84.18 146.4 84.18 148.2 86.98 148.2 84.18 149.3 84.18"></polygon><polygon class="cls-1" points="149.9 84.18 151.1 84.18 152 86.08 152.9 84.18 154.1 84.18 152.5 87.18 152.5 88.68 151.4 88.68 151.4 87.18 149.9 84.18 149.9 84.18"></polygon></g><path class="cls-1" d="m22.6,86.58h-13.9c-.1,0-.2-.1-.2-.2s.1-.2.2-.2h13.9c.1,0,.2.1.2.2s-.1.2-.2.2h0Z"></path><path class="cls-1" d="m171.3,86.58h-13.5c-.1,0-.2-.1-.2-.2s.1-.2.2-.2h13.5c.1,0,.2.1.2.2s-.1.2-.2.2Z"></path></svg> 