<?xml version="1.0" encoding="UTF-8"?> <svg xmlns="http://www.w3.org/2000/svg" id="Layer_1" viewBox="0 0 180 120"><defs><style>.cls-1{fill:#656565;}</style></defs><g><g><polygon class="cls-1" points="52.02 54.67 49.84 54.67 49.84 52.73 56.71 52.73 56.71 54.67 54.53 54.67 54.53 60.18 52.02 60.18 52.02 54.67"></polygon><polygon class="cls-1" points="63.56 58.28 63.56 60.18 57.36 60.18 57.36 52.73 63.42 52.73 63.42 54.62 59.83 54.62 59.83 55.49 62.98 55.49 62.98 57.3 59.83 57.3 59.83 58.28 63.56 58.28 63.56 58.28"></polygon><polygon class="cls-1" points="71.87 52.72 71.87 60.18 69.8 60.18 66.97 56.79 66.97 60.18 64.52 60.18 64.52 52.72 66.59 52.72 69.42 56.11 69.42 52.72 71.87 52.72"></polygon><path class="cls-1" d="m78.16,58.88h-2.83l-.5,1.3h-2.56l3.26-7.45h2.47l3.26,7.45h-2.6l-.5-1.3h0Zm-.69-1.81l-.73-1.87-.73,1.87h1.45Z"></path><polygon class="cls-1" points="89.01 52.72 89.01 60.18 86.95 60.18 84.11 56.79 84.11 60.18 81.67 60.18 81.67 52.72 83.73 52.72 86.56 56.11 86.56 52.72 89.01 52.72"></polygon><polygon class="cls-1" points="91.84 54.67 89.66 54.67 89.66 52.73 96.54 52.73 96.54 54.67 94.35 54.67 94.35 60.18 91.84 60.18 91.84 54.67"></polygon><path class="cls-1" d="m107.37,55.53c0,1.72-1.32,2.81-3.4,2.81h-1.08v1.83h-2.51v-7.45h3.59c2.08,0,3.4,1.08,3.4,2.81h0Zm-2.53,0c0-.54-.33-.87-1.02-.87h-.91v1.75h.91c.69,0,1.02-.33,1.02-.87h0Z"></path><polygon class="cls-1" points="108.19 52.72 110.7 52.72 110.7 58.23 114.06 58.23 114.06 60.18 108.19 60.18 108.19 52.72 108.19 52.72"></polygon><path class="cls-1" d="m119.94,58.88h-2.83l-.5,1.3h-2.56l3.26-7.45h2.47l3.26,7.45h-2.6l-.5-1.3h0Zm-.69-1.81l-.73-1.87-.73,1.87h1.45Z"></path><polygon class="cls-1" points="130.79 52.72 130.79 60.18 128.72 60.18 125.89 56.79 125.89 60.18 123.44 60.18 123.44 52.72 125.51 52.72 128.34 56.11 128.34 52.72 130.79 52.72"></polygon><polygon class="cls-1" points="138.2 58.28 138.2 60.18 132 60.18 132 52.73 138.06 52.73 138.06 54.62 134.47 54.62 134.47 55.49 137.62 55.49 137.62 57.3 134.47 57.3 134.47 58.28 138.2 58.28 138.2 58.28"></polygon><polygon class="cls-1" points="140.78 54.67 138.6 54.67 138.6 52.73 145.48 52.73 145.48 54.67 143.3 54.67 143.3 60.18 140.78 60.18 140.78 54.67"></polygon><path class="cls-1" d="m145.69,61.49c.23-.63.52-1.77.64-2.54l1.04-.11c-.24.91-.71,2.09-1.01,2.59l-.67.06h0Z"></path><polygon class="cls-1" points="150.59 52.72 153.1 52.72 153.1 60.18 150.59 60.18 150.59 52.72 150.59 52.72"></polygon><polygon class="cls-1" points="161.66 52.72 161.66 60.18 159.6 60.18 156.76 56.79 156.76 60.18 154.32 60.18 154.32 52.72 156.38 52.72 159.21 56.11 159.21 52.72 161.66 52.72"></polygon><path class="cls-1" d="m162.58,56.45c0-2.29,1.76-3.9,4.15-3.9,1.46,0,2.61.53,3.34,1.49l-1.59,1.42c-.44-.55-.96-.87-1.63-.87-1.04,0-1.75.73-1.75,1.86s.7,1.86,1.75,1.86c.67,0,1.19-.32,1.63-.87l1.59,1.42c-.73.96-1.88,1.49-3.34,1.49-2.4,0-4.15-1.61-4.15-3.9h0Z"></path><path class="cls-1" d="m170.74,59.62c0-.39.27-.67.64-.67s.63.28.63.67-.24.67-.64.67-.63-.29-.63-.67Z"></path></g><g><polygon class="cls-1" points="50.74 65.54 49.85 65.54 49.85 65.02 52.28 65.02 52.28 65.54 51.39 65.54 51.39 67.81 50.74 67.81 50.74 65.54"></polygon><polygon class="cls-1" points="55.4 65.02 55.4 67.81 54.76 67.81 54.76 66.66 53.49 66.66 53.49 67.81 52.84 67.81 52.84 65.02 53.49 65.02 53.49 66.12 54.76 66.12 54.76 65.02 55.4 65.02"></polygon><polygon class="cls-1" points="58.44 67.29 58.44 67.81 56.27 67.81 56.27 65.02 58.38 65.02 58.38 65.53 56.91 65.53 56.91 66.14 58.21 66.14 58.21 66.64 56.91 66.64 56.91 67.29 58.44 67.29 58.44 67.29"></polygon><polygon class="cls-1" points="63.04 67.81 63.04 66.13 62.21 67.51 61.92 67.51 61.11 66.17 61.11 67.81 60.5 67.81 60.5 65.01 61.03 65.01 62.08 66.75 63.11 65.01 63.64 65.01 63.65 67.81 63.05 67.81 63.04 67.81"></polygon><path class="cls-1" d="m65.09,67.67c-.23-.12-.41-.3-.55-.52-.13-.22-.2-.47-.2-.74s.07-.52.2-.74c.13-.22.31-.39.55-.52.23-.12.49-.19.79-.19s.55.06.78.19c.23.13.41.3.55.52.13.22.2.47.2.74s-.07.52-.2.74c-.13.22-.32.39-.55.52-.23.13-.49.19-.78.19s-.55-.06-.79-.19Zm1.23-.48c.13-.07.24-.18.31-.32s.12-.29.12-.46-.04-.33-.12-.46c-.07-.14-.18-.24-.31-.32-.13-.07-.28-.12-.45-.12s-.31.04-.45.12c-.13.07-.24.18-.31.32s-.12.29-.12.46.04.33.12.46c.07.14.18.24.31.32.13.07.28.12.45.12s.31-.04.45-.12Z"></path><path class="cls-1" d="m68.1,65.02h1.27c.3,0,.57.06.81.17.23.12.41.28.54.49s.19.45.19.73-.06.52-.19.73-.31.37-.54.49-.5.17-.81.17h-1.27v-2.79h0Zm1.24,2.27c.28,0,.5-.08.67-.23.17-.16.25-.37.25-.63s-.08-.48-.25-.63-.39-.23-.67-.23h-.59v1.73h.59Z"></path><polygon class="cls-1" points="73.77 67.29 73.77 67.81 71.6 67.81 71.6 65.02 73.72 65.02 73.72 65.53 72.24 65.53 72.24 66.14 73.54 66.14 73.54 66.64 72.24 66.64 72.24 67.29 73.77 67.29 73.77 67.29"></polygon><path class="cls-1" d="m76.27,67.81l-.54-.78h-.6v.78h-.65v-2.79h1.21c.25,0,.46.04.64.12s.32.2.42.35c.1.15.15.33.15.54s-.05.39-.15.54c-.1.15-.24.26-.43.35l.63.9h-.69,0Zm-.16-2.14c-.1-.08-.25-.13-.44-.13h-.53v.98h.53c.19,0,.34-.04.44-.13.1-.09.15-.2.15-.36s-.05-.28-.15-.36Z"></path><polygon class="cls-1" points="80.19 65.02 80.19 67.81 79.66 67.81 78.27 66.11 78.27 67.81 77.63 67.81 77.63 65.02 78.17 65.02 79.56 66.71 79.56 65.02 80.19 65.02 80.19 65.02"></polygon><polygon class="cls-1" points="82.4 65.02 83.05 65.02 83.05 67.28 84.45 67.28 84.45 67.81 82.4 67.81 82.4 65.02"></polygon><path class="cls-1" d="m86.89,67.21h-1.3l-.25.6h-.66l1.25-2.79h.64l1.25,2.79h-.68l-.25-.6h0Zm-.2-.49l-.44-1.07-.44,1.07h.89Z"></path><polygon class="cls-1" points="90.88 65.02 90.88 67.81 90.34 67.81 88.95 66.11 88.95 67.81 88.31 67.81 88.31 65.02 88.85 65.02 90.24 66.71 90.24 65.02 90.88 65.02 90.88 65.02"></polygon><path class="cls-1" d="m91.75,65.02h1.27c.3,0,.57.06.81.17.23.12.41.28.54.49s.19.45.19.73-.06.52-.19.73-.31.37-.54.49c-.23.12-.5.17-.81.17h-1.27v-2.79h0Zm1.24,2.27c.28,0,.5-.08.67-.23.17-.16.25-.37.25-.63s-.08-.48-.25-.63-.39-.23-.67-.23h-.59v1.73h.59Z"></path><polygon class="cls-1" points="95.25 65.02 95.9 65.02 95.9 67.28 97.3 67.28 97.3 67.81 95.25 67.81 95.25 65.02"></polygon><path class="cls-1" d="m98.39,67.67c-.23-.12-.41-.3-.55-.52-.13-.22-.2-.47-.2-.74s.07-.52.2-.74c.13-.22.31-.39.55-.52.23-.12.49-.19.79-.19s.55.06.78.19c.23.13.41.3.55.52.13.22.2.47.2.74s-.07.52-.2.74c-.13.22-.32.39-.55.52s-.49.19-.78.19-.55-.06-.79-.19Zm1.23-.48c.13-.07.24-.18.31-.32s.12-.29.12-.46-.04-.33-.12-.46c-.07-.14-.18-.24-.31-.32-.13-.07-.28-.12-.45-.12s-.31.04-.45.12c-.13.07-.24.18-.31.32s-.12.29-.12.46.04.33.12.46c.07.14.18.24.31.32.13.07.28.12.45.12s.31-.04.45-.12Z"></path><path class="cls-1" d="m103.18,67.81l-.54-.78h-.6v.78h-.65v-2.79h1.21c.25,0,.46.04.64.12s.32.2.42.35.15.33.15.54-.05.39-.15.54c-.1.15-.24.26-.43.35l.63.9h-.69,0Zm-.16-2.14c-.1-.08-.25-.13-.44-.13h-.53v.98h.53c.19,0,.34-.04.44-.13.1-.09.15-.2.15-.36s-.05-.28-.15-.36Z"></path><path class="cls-1" d="m104.54,65.02h1.27c.3,0,.57.06.81.17.23.12.41.28.54.49s.19.45.19.73-.06.52-.19.73-.31.37-.54.49c-.23.12-.5.17-.81.17h-1.27v-2.79h0Zm1.24,2.27c.28,0,.5-.08.67-.23.17-.16.25-.37.25-.63s-.08-.48-.25-.63-.39-.23-.67-.23h-.59v1.73h.59Z"></path><path class="cls-1" d="m108.33,67.77c-.21-.06-.37-.14-.5-.23l.22-.49c.12.09.26.16.43.21s.33.08.49.08c.18,0,.32-.03.41-.08s.13-.13.13-.22c0-.07-.03-.12-.08-.17-.05-.04-.12-.08-.2-.11s-.19-.05-.33-.09c-.21-.05-.39-.1-.52-.15s-.25-.13-.35-.24c-.1-.11-.15-.26-.15-.45,0-.16.04-.31.13-.44s.22-.24.4-.31c.18-.08.39-.12.65-.12.18,0,.35.02.52.06s.32.1.45.18l-.2.49c-.26-.15-.52-.22-.77-.22-.18,0-.31.03-.4.09-.09.06-.13.14-.13.23s.05.17.15.21.25.09.46.14c.21.05.39.1.52.15s.25.13.35.24c.1.11.15.26.15.44,0,.16-.04.3-.13.44s-.22.24-.4.31c-.18.08-.39.12-.65.12-.22,0-.43-.03-.64-.09h0Z"></path><polygon class="cls-1" points="111 65.16 110.48 65.16 110.48 64.85 111.9 64.85 111.9 65.16 111.38 65.16 111.38 66.48 111.01 66.48 111.01 65.16 111 65.16"></polygon><polygon class="cls-1" points="113.71 66.48 113.71 65.5 113.23 66.31 113.06 66.31 112.58 65.52 112.58 66.48 112.23 66.48 112.23 64.85 112.54 64.85 113.15 65.86 113.75 64.85 114.06 64.85 114.06 66.48 113.71 66.48 113.71 66.48"></polygon></g></g><g><rect class="cls-1" x="20.16" y="50.83" width="1.12" height="1.12"></rect><rect class="cls-1" x="20.16" y="49.3" width="1.12" height="1.12"></rect><rect class="cls-1" x="18.64" y="50.83" width="1.12" height="1.12"></rect><rect class="cls-1" x="18.64" y="49.3" width="1.12" height="1.12"></rect><path class="cls-1" d="m38.28,59.46c.64-.36,1.26-.75,1.79-1.2.13-.11.26-.23.37-.35.12-.12.22-.25.31-.37s.16-.26.19-.38c.04-.12.04-.22.03-.32-.02-.09-.07-.2-.16-.29-.09-.09-.21-.19-.35-.27s-.29-.15-.45-.21c-.16-.06-.33-.11-.5-.16-.69-.18-1.43-.27-2.17-.32-.41-.03-.81-.04-1.22-.05.29.42.56.85.8,1.3.26.49.49,1,.69,1.53-.03.02-.06.03-.09.05.19.38.37.77.52,1.17.08-.04.16-.09.24-.14h0Z"></path><rect class="cls-1" x="30.76" y="47.71" width=".93" height=".93"></rect><rect class="cls-1" x="29.51" y="46.45" width=".93" height=".93"></rect><rect class="cls-1" x="29.51" y="47.71" width=".93" height=".93"></rect><rect class="cls-1" x="30.76" y="46.45" width=".93" height=".93"></rect><path class="cls-1" d="m41.84,56.6c-.08-.27-.24-.5-.42-.67-.18-.17-.37-.29-.57-.39s-.39-.17-.59-.23c-.2-.06-.39-.11-.59-.15-.78-.15-1.56-.19-2.32-.19-.54,0-1.08.02-1.61.06-.33-.42-.67-.82-1.05-1.19-.4-.4-.82-.77-1.27-1.12v-7.1h1.27l-1.27-.7v-.02h-.04l-1.26-.7v-2.04h-2.05v.9l-1.63-.9-6.05,3.47h1.29v1.19l4.79,2.66h-3.02v1.81c.14,0,.27,0,.4,0,1.76,0,3.52.36,5.13,1.04,1.61.69,3.09,1.7,4.3,2.96.6.63,1.15,1.31,1.61,2.05.22.36.43.73.62,1.1.03-.02.06-.03.09-.05-.2-.53-.43-1.04-.69-1.53-.24-.45-.51-.89-.8-1.3.41,0,.82.02,1.22.05.74.05,1.48.14,2.17.32.17.05.34.1.5.16s.32.13.45.21c.14.08.26.17.35.27.09.09.14.2.16.29.02.1.01.2-.03.32-.04.12-.11.25-.19.38-.09.13-.19.25-.31.37s-.24.24-.37.35c-.53.45-1.15.85-1.79,1.2-.08.05-.16.09-.24.14,0,.02.01.03.02.05.15.39.27.79.38,1.19.17-.11.33-.22.5-.33.64-.44,1.27-.91,1.85-1.48.14-.14.28-.29.42-.46.13-.16.26-.34.37-.53.11-.19.21-.41.27-.65.06-.24.07-.53,0-.8h0Zm-11.41-7.96h-.93v-.93h.93v.93Zm0-1.25h-.93v-.93h.93v.93Zm1.25,1.25h-.93v-.93h.93v.93Zm0-1.25h-.93v-.93h.93v.93Z"></path><path class="cls-1" d="m12.91,64.7c-.01-.08-.02-.16-.03-.25,0,.08,0,.16.01.25h.02Z"></path><path class="cls-1" d="m23.69,47.51l-3.83-2.12-6.05,3.47h1.29v6.65c-.22.31-.42.63-.61.96-.55.95-.98,1.97-1.27,3.05-.14.51-.24,1.02-.32,1.55-.59.28-1.18.58-1.75.9-.67.38-1.32.79-1.93,1.31-.15.13-.3.27-.44.42-.14.15-.28.31-.4.49-.12.18-.24.39-.31.63-.07.24-.1.53-.03.81.07.28.22.54.4.72.18.19.38.33.57.44.2.12.4.2.6.28.2.07.4.14.6.19.79.21,1.58.31,2.36.36.25.02.51.03.76.04-.12-.47-.22-.95-.28-1.43-.14,0-.28,0-.43,0-.73,0-1.46-.02-2.14-.15-.17-.03-.34-.07-.49-.12-.16-.05-.31-.1-.45-.16s-.26-.14-.34-.22c-.09-.08-.14-.16-.18-.24-.03-.08-.04-.18-.01-.3.03-.12.08-.26.16-.39.08-.14.17-.27.28-.41.11-.13.22-.26.35-.39.5-.51,1.09-.96,1.71-1.37.43-.29.88-.57,1.34-.83-.04.39-.05.79-.05,1.19,0,.11,0,.22,0,.33.01.42.04.84.09,1.25-.06-1.62.22-3.27.79-4.81.3-.81.7-1.59,1.16-2.32.46-.74,1.01-1.42,1.61-2.05,1.21-1.26,2.68-2.27,4.3-2.96,1.3-.56,2.7-.89,4.11-1v-2.46h1.27l-2.42-1.34h0Zm-3.93,4.43h-1.12v-1.12h1.12v1.12Zm0-1.53h-1.12v-1.12h1.12v1.12Zm1.53,1.53h-1.12v-1.12h1.12v1.12Zm0-1.53h-1.12v-1.12h1.12v1.12Z"></path><path class="cls-1" d="m13.73,68.78c.62,1.5,1.47,2.9,2.56,4.09s2.39,2.16,3.81,2.89c2.85,1.44,6.23,1.78,9.29.92,1.53-.43,2.98-1.12,4.26-2.07,1.28-.95,2.38-2.13,3.24-3.47.43-.67.8-1.38,1.1-2.12.3-.74.54-1.51.7-2.3.33-1.57.37-3.21.12-4.82l.14-.03c.77,3.2.21,6.73-1.53,9.59-.86,1.43-2.01,2.7-3.34,3.71-1.34,1.01-2.87,1.77-4.49,2.2-3.24.89-6.81.49-9.75-1.1l-.54-.31c-.09-.05-.18-.1-.27-.16l-.26-.18-.52-.35-.49-.39c-.33-.25-.62-.55-.93-.83l-.11-.11-.11-.12-.21-.23c-.14-.16-.28-.3-.41-.46-1.05-1.28-1.88-2.75-2.38-4.31l.13-.05h0Z"></path><path class="cls-1" d="m13.71,67.69c.39,0,.79,0,1.18,0,.77-.02,1.55-.06,2.31-.13.38-.03.77-.07,1.15-.11s.76-.09,1.15-.14c.38-.05.76-.11,1.14-.17l.57-.09.57-.1c.75-.14,1.51-.28,2.26-.45.75-.16,1.49-.35,2.24-.54,2.97-.77,5.87-1.8,8.64-3.15.69-.34,1.38-.69,2.05-1.07.31-.18.62-.36.93-.55-.14-.43-.31-.85-.49-1.26-.36.18-.72.35-1.09.51-.68.3-1.36.58-2.06.84-1.39.52-2.8.99-4.22,1.44s-2.85.86-4.29,1.26c-.72.2-1.44.39-2.16.57s-1.45.35-2.18.51c-1.45.32-2.92.6-4.39.82-.73.11-1.47.2-2.2.27-.53.05-1.06.09-1.58.11-.06,0-.13,0-.19,0,.07.49.16.97.28,1.43.13,0,.26,0,.39.01h0Z"></path><polygon class="cls-1" points="37.88 49.51 38.55 50.72 39.77 51.39 38.55 52.06 37.88 53.28 37.22 52.06 36 51.39 37.22 50.72 37.88 49.51"></polygon><polygon class="cls-1" points="24.32 71.61 24.95 72.77 26.11 73.4 24.95 74.03 24.32 75.19 23.68 74.03 22.53 73.4 23.68 72.77 24.32 71.61"></polygon><polygon class="cls-1" points="19.41 69.96 19.74 70.57 20.36 70.91 19.74 71.25 19.41 71.87 19.07 71.25 18.45 70.91 19.07 70.57 19.41 69.96"></polygon><polygon class="cls-1" points="42.28 48.88 42.6 49.45 43.17 49.77 42.6 50.08 42.28 50.66 41.96 50.08 41.39 49.77 41.96 49.45 42.28 48.88"></polygon></g></svg> 