<?xml version="1.0" encoding="UTF-8"?>
<svg id="Layer_1" data-name="Layer 1" xmlns="http://www.w3.org/2000/svg" viewBox="0 0 180 120">
  <defs>
    <style>
      .cls-1 {
        fill: #656565;
        stroke-width: 0px;
      }
    </style>
  </defs>
  <path class="cls-1" d="m63.84,64.69c.09-.41.14-.82.26-1.22.54-1.7,1.64-2.95,3.08-3.93,2.39-1.64,5.03-2.27,7.9-1.9,1.21.16,2.35.53,3.34,1.27.06.04.17.08.13.16-.03.09-.13.03-.2.02-1.18-.22-2.37-.44-3.58-.45-2.06-.02-4,.43-5.83,1.38-1.11.57-2.14,1.26-2.9,2.28-.82,1.1-1.25,2.28-.76,3.65.4,1.12,1.15,1.96,2.2,2.5,1.78.91,3.67,1.26,5.66,1.13,1.51-.1,2.98-.39,4.39-.97,2.46-1.02,4.25-2.7,5.16-5.25.49-1.38.23-2.64-.64-3.79-.8-1.07-1.88-1.78-3.03-2.42-1.52-.85-3.14-1.44-4.82-1.9-.71-.2-1.39-.48-1.97-.94-.84-.66-1.05-1.78-.53-2.71.45-.8,1.08-1.43,1.83-1.94,1.92-1.3,3.99-2.22,6.29-2.57.73-.11,1.46-.14,2.18.05.6.15.81.5.71,1.11-.12.75-.43,1.39-.97,1.95-.76.8-1.43,1.69-2.14,2.55-.24.29-.59.33-.89.09-.26-.22-.48-.47-.64-.77-.24-.44-.18-.84.13-1.22.35-.43.81-.74,1.23-1.09.36-.3.74-.56,1.07-.9.03-.03.05-.06.09-.1-.48-.09-.92.03-1.35.15-2.03.53-3.84,1.5-5.49,2.78-.23.18-.46.35-.65.57-.21.25-.21.42.01.67.17.2.41.29.64.39,2.14.93,4.31,1.78,6.43,2.76,1.31.6,2.37,1.54,3.27,2.65.22.27.34.61.54.92.14-.18.21-.37.28-.57.78-2.41,1.53-4.82,2.37-7.21.43-1.22.96-2.39,1.5-3.55.31-.68.47-.72,1.15-.43.26.11.5.25.71.44.22.21.25.35.11.62-.51.97-1.1,1.89-1.61,2.86-1.09,2.09-1.92,4.27-2.63,6.52-.51,1.63-.97,3.26-1.25,4.95-.05.32,0,.51.23.64.22.13.45.08.7-.11,1.62-1.22,2.62-2.87,3.33-4.74.35-.91.63-1.84.97-2.75.3-.79.35-.84,1.28-.66.24.05.46.17.67.3.19.12.23.27.16.48-.13.4-.34.76-.52,1.14-.67,1.38-1.43,2.71-1.92,4.17-.03.08-.05.17-.08.26-.04.14-.04.28.09.37.14.09.26.03.38-.05,1.33-.84,2.32-1.98,2.98-3.4.58-1.26,1.23-2.46,2.2-3.47.65-.68,1.37-1.27,2.24-1.67.14-.06.22-.08.25.1.01.07.01.16.11.18.1.02.15-.05.2-.12.07-.11.16-.2.23-.32.12-.23.31-.26.54-.2.31.08.56.26.76.5.18.22.16.6-.08.85-.67.7-1.18,1.51-1.58,2.39-.04.09-.09.18-.2.19-.12,0-.17-.1-.22-.19-.1-.18-.07-.37-.05-.56.02-.17.07-.33.04-.51-.03-.15-.08-.18-.22-.11-.55.27-1.01.65-1.42,1.1-.8.89-1.38,1.9-1.6,3.1-.07.36-.07.72,0,1.08.07.33.2.45.54.48.21.02.42-.01.59-.13,1.71-1.09,3.35-2.27,4.47-4.02.51-.8,1.05-1.59,1.65-2.33.36-.44.81-.73,1.33-.93.32-.12.63-.09.94.06.22.11.43.24.63.39.45.34.56.89.3,1.39-.39.76-.87,1.46-1.55,1.99-.41.32-.86.46-1.35.19-.09-.05-.13,0-.19.05-.28.28-.4.65-.57.99-.23.47-.39.96-.46,1.48-.06.45.17.76.62.83.86.14,1.57-.19,2.21-.72.84-.69,1.48-1.55,2.09-2.44.41-.6.8-1.21,1.21-1.81.22-.33.41-.43.61-.32.17.1.17.31,0,.67-.81,1.78-1.97,3.32-3.36,4.68-.66.64-1.45,1.15-2.41,1.27-.46.06-.92.02-1.36-.14-.7-.25-1.05-.81-1.17-1.51-.06-.36-.06-.72-.07-1.09,0-.06.03-.12-.04-.19-.2.24-.39.47-.59.7-.65.75-1.37,1.4-2.3,1.79-1.2.5-2.32.14-2.99-.98-.26-.44-.26-.44-.63-.09-.45.42-.88.84-1.33,1.25-.39.36-.85.57-1.35.71-.49.13-.88-.08-1.23-.4-.33-.31-.33-.29-.62.04-.45.51-.92.99-1.36,1.51-.7.81-1.66.61-2.28.19-.13-.09-.26-.28-.39-.24-.11.03-.18.24-.26.38-.6,1.01-1.25,2-2.05,2.87-1.28,1.4-2.87,2.31-4.65,2.91-2.46.84-4.95.95-7.46.27-1.83-.5-3.41-1.41-4.53-3-.48-.68-.77-1.43-.86-2.26,0-.05-.03-.1-.04-.15v-.9h0Zm38.45-7.45c.49.04.89-.21,1.14-.67.18-.34.24-.87.11-1.04-.41.56-.82,1.12-1.24,1.71Z"/>
  <path class="cls-1" d="m83.65,80.06c-.49-.1-.98-.18-1.47-.29-4.38-.98-8.14-3.03-11.16-6.39-.35-.39-.67-.79-.99-1.26.39.04.74.09,1.09.09.42,0,.74.17,1.04.47,1.2,1.15,2.46,2.24,3.88,3.12,2.71,1.68,5.64,2.71,8.83,2.96,5.51.43,10.4-1.14,14.6-4.73,3.14-2.68,5.24-6.06,6.3-10.06.32-1.22.47-2.46.6-3.7.01-.1.01-.22.06-.3.37-.62.75-1.24,1.14-1.89.1.33.07.63.07.93-.1,5.71-2,10.7-5.92,14.88-1.52,1.63-3.31,2.92-5.29,3.95-2.11,1.09-4.33,1.82-6.68,2.18-.04,0-.08.03-.11.04h-6,0Z"/>
  <path class="cls-1" d="m87.6,37.94c.59.05,1.17.09,1.76.16,2.59.31,5.03,1.1,7.35,2.29.57.29,1.14.6,1.67.97.14.1.14.16.04.28-.18.24-.35.49-.52.74-.08.12-.14.15-.27.07-1.98-1.14-4.06-2.04-6.27-2.61-1.61-.41-3.24-.63-4.9-.62-2.36.01-4.64.47-6.83,1.33-2.61,1.02-4.98,2.43-7.03,4.35-2.82,2.63-4.55,5.87-5.38,9.61-.27,1.24-.43,2.49-.52,3.76,0,.12-.05.2-.15.27-.33.23-.66.48-1.06.78,0-.71-.02-1.35,0-1.99.11-2.45.72-4.78,1.71-7.02,1.03-2.34,2.45-4.41,4.26-6.21,2.65-2.65,5.8-4.46,9.43-5.42,1.51-.4,3.06-.62,4.62-.71.09,0,.19-.02.28-.03h1.81,0Z"/>
  <path class="cls-1" d="m115.46,51.25c-3.06-.04-6.12.04-9.17.31-2.5.22-5,.46-7.5.76-1.9.22-3.79.48-5.68.72-.09.01-.19.01-.29.01-.32,0-.48-.18-.46-.5.02-.29.13-.55.32-.78,1.74-2.09,3.48-4.18,5.22-6.27.49-.59.99-1.19,1.48-1.79.1-.13.21-.17.37-.14.38.07.77.13,1.19.2-2.23,2.66-4.43,5.29-6.68,7.97.67-.11,1.26-.21,1.86-.3,1.8-.28,3.58-.66,5.4-.82,1.5-.13,3-.23,4.5-.35,1.93-.15,3.86-.05,5.79-.09.85-.02,1.7-.01,2.55-.02.27,0,.29-.03.18-.28-.74-1.66-1.74-3.13-3.03-4.41-.79-.78-1.65-1.46-2.62-2-1.24-.69-2.27-1.64-3.23-2.67-.12-.13-.27-.25-.39-.4.39.09.75.25,1.11.41,1.97.89,3.81,1.98,5.46,3.39,1.51,1.28,2.64,2.85,3.47,4.63.03.07.05.16.13.2v2.22h0Z"/>
  <path class="cls-1" d="m97.84,72.12c.43-.24.66-.02.86.27.09.13.17.27.37.24.04,0,.4.43.38.46-.02.04-.06.07-.09.1-.21.16-.42.31-.62.48-.12.1-.2.09-.3,0-.18-.17-.31-.38-.46-.57-.29-.38-.67-.38-.95.01-.04.05-.04.09,0,.13.2.17.24.52.63.51.12,0,.24.28.36.44,0,0-.04.06-.07.09-.32.25-.64.49-.96.74-.06.05-.12.08-.17,0-.1-.19-.37-.3-.25-.59.03-.08-.05-.17-.1-.24-.37-.49-.74-.97-1.11-1.45-.08-.1-.16-.16-.32-.17-.21,0-.28-.26-.38-.41-.07-.1.09-.13.15-.18.4-.32.81-.63,1.22-.93.21-.16.43-.3.68-.38.6-.2,1.28.28,1.3.91,0,.18-.07.34-.17.55h0Zm-.68-.17s-.02-.1-.05-.15c-.09-.15-.19-.3-.39-.29-.27.01-.44.22-.64.38-.01,0-.02.04,0,.06.16.21.31.41.47.62.01.01.04.02.05.02.15,0,.56-.45.56-.64h0Z"/>
  <path class="cls-1" d="m94.76,75.18s0-.03,0-.05c-.18-.3.04-.37.25-.46.51-.22.51-.22.74.28.09.2.29.44.24.61-.05.18-.37.21-.57.31-.68.32-1.35.62-2.03.94-.14.06-.19.04-.24-.09-.06-.19-.24-.35-.08-.58.04-.06-.02-.16-.05-.23-.26-.56-.51-1.12-.77-1.68-.05-.11-.12-.18-.26-.22-.21-.06-.22-.31-.29-.48-.04-.11.12-.12.2-.15.79-.37,1.59-.73,2.38-1.11.15-.07.22-.07.29.11.09.24.21.48.33.71.06.11.04.17-.08.21-.13.05-.25.11-.37.17-.18.09-.34.22-.51-.04-.09-.14-.27-.06-.4,0-.45.17-.44.17-.26.61.1.25.2.3.44.16.21-.13.45-.21.67-.32.09-.05.14-.04.19.06.23.45.23.44-.22.65-.17.08-.35.17-.52.24-.11.04-.14.09-.08.2.09.18.17.36.25.54.05.12.11.14.22.07.13-.07.27-.13.4-.2.09-.05.16-.13.16-.26h0Z"/>
  <path class="cls-1" d="m103.42,68c-.25.38-.5.78-.76,1.17-.03.05-.07,0-.11-.02-.11-.07-.22-.14-.33-.21-.06-.04-.1-.08-.08-.16.03-.15-.08-.2-.19-.25-.13-.06-.17.03-.22.11-.08.13-.17.26-.26.4-.05.09-.13.17,0,.26.1.08.19.17.32.04.11-.11.19.02.26.06.33.2.33.21.13.53-.14.23-.29.45-.43.68-.07.11-.12.15-.24.06-.18-.13-.35-.23-.44-.48-.11-.3-.43-.49-.65-.72-.44-.46-.89-.91-1.34-1.36-.09-.09-.09-.15-.02-.24.22-.33.43-.66.64-1,.07-.12.14-.13.27-.08.83.29,1.67.57,2.5.85.14.05.27.1.41.01.08-.05.54.26.54.36h0Zm-3.42-.17c.05.07.06.08.07.1.2.2.4.41.61.6.33.31.33.31.55-.1.05-.09.04-.13-.05-.16-.37-.14-.75-.28-1.18-.44Z"/>
  <path class="cls-1" d="m102.93,49.4c-.73-.03-1.61-.2-2.38-.72-.34-.23-.62-.51-.62-.96,0-.14.01-.29.15-.36.13-.07.24.03.34.09.45.31.89.64,1.42.81.49.16.98.18,1.48.12.14-.02.22-.08.23-.22.01-.14-.04-.24-.19-.28-.36-.11-.73-.19-1.08-.34-.23-.1-.44-.22-.61-.41-.09-.1-.16-.21-.11-.35.05-.15.19-.18.32-.18,1.1.01,2.08.34,2.86,1.13.4.4.27,1.05-.23,1.35-.35.21-.81.31-1.58.3h0Z"/>
  <path class="cls-1" d="m105.71,45.52c-.89-.04-1.8-.21-2.59-.79-.3-.22-.53-.5-.52-.91,0-.12.02-.26.13-.33.13-.08.24.01.34.08.33.22.64.46,1,.64.6.3,1.23.38,1.9.31.15-.02.23-.08.25-.22.02-.14-.05-.23-.18-.28-.42-.13-.85-.22-1.24-.42-.2-.1-.38-.22-.5-.41-.14-.22-.07-.39.19-.43.27-.05.55-.02.82.04.68.15,1.33.39,1.88.83.73.57.61,1.38-.25,1.72-.37.15-.76.17-1.21.18h0Z"/>
  <path class="cls-1" d="m81.96,76.31c-.32,0-.63-.1-.94-.19-.08-.02-.19-.13-.25,0-.05.12-.13.26-.03.41.07.11.03.55-.06.64-.05.05-.1.02-.15,0-.37-.11-.75-.22-1.12-.32-.1-.03-.14-.07-.1-.17.04-.12.08-.25.11-.37.01-.04.02-.09.06-.1.23-.01.25-.2.3-.36.17-.55.33-1.1.49-1.65.04-.13.03-.24-.06-.38-.1-.17.03-.36.1-.53.05-.12.17-.02.25,0,.55.16,1.09.31,1.63.49.86.29,1.08.76.79,1.62-.08.25-.18.49-.37.68-.18.19-.41.23-.66.23h0Zm-.27-.88c.21.02.28-.17.34-.36.06-.2.09-.42-.15-.53-.15-.07-.32-.11-.48-.17-.09-.03-.12,0-.15.08-.07.24-.14.47-.21.71-.02.06-.03.12.06.14.18.05.35.12.59.13h0Z"/>
  <path class="cls-1" d="m86.7,77.28c.19.04.35.01.52-.02.17-.03.28-.13.27-.31,0-.14.04-.18.18-.18.19,0,.38,0,.57-.02.12-.01.14.03.14.14,0,.31.02.63.03.94,0,.12-.04.16-.15.16-.91.02-1.82.05-2.73.07-.06,0-.12,0-.12-.07,0-.2-.07-.41.07-.61.48-.7.94-1.41,1.41-2.12.05-.07.09-.15.15-.24-.24-.03-.46-.03-.66.04-.16.05-.2.18-.19.33.01.14-.05.17-.17.18-.63.04-.63.04-.64-.58,0-.08,0-.16,0-.25,0-.28.13-.43.41-.43.77-.02,1.53-.03,2.3-.06.16,0,.21.03.22.2.02.25-.05.46-.19.67-.46.67-.89,1.36-1.34,2.04-.02.03-.04.07-.06.12h0Z"/>
  <path class="cls-1" d="m90.49,76.85c.15-.04.3-.07.44-.12.19-.06.28-.19.23-.39-.03-.11,0-.16.12-.18.19-.04.39-.08.58-.13.1-.03.15,0,.17.1.07.31.13.61.21.92.03.11,0,.16-.11.18-.88.2-1.76.4-2.64.61-.11.03-.15,0-.19-.12-.07-.25-.07-.47.04-.71.32-.73.61-1.47.91-2.2.03-.08.06-.16.1-.26-.19,0-.34.06-.5.1-.23.06-.33.21-.26.45.03.11,0,.16-.11.19-.64.17-.64.17-.78-.47,0,0,0-.01,0-.02-.09-.4.06-.64.45-.73.69-.16,1.39-.31,2.08-.48.15-.04.2,0,.24.15.08.25.04.47-.06.71-.31.72-.59,1.46-.88,2.19-.02.06-.08.12-.03.21h0Z"/>
  <path class="cls-1" d="m108.8,48.86c-.78-.02-1.52-.17-2.17-.64-.23-.17-.4-.37-.41-.68,0-.11,0-.23.1-.3.11-.07.21,0,.3.07.34.22.67.47,1.06.61.4.14.81.2,1.23.13.12-.02.2-.06.21-.18.01-.13-.06-.19-.17-.22-.34-.11-.69-.17-1.01-.35-.14-.08-.27-.16-.36-.3-.12-.19-.06-.33.16-.38.18-.04.36-.01.53.02.63.12,1.22.33,1.7.76.46.41.37,1-.19,1.26-.31.15-.64.19-.98.18h0Z"/>
  <path class="cls-1" d="m99.68,71.95c.04-.17-.02-.25-.1-.32-.47-.44-.95-.87-1.42-1.3-.05-.05-.11-.11-.18-.09-.3.12-.37-.18-.55-.28-.09-.05-.04-.11.01-.17.27-.29.54-.58.8-.88.07-.08.13-.09.2-.01.13.15.38.23.31.52-.01.05.08.14.14.19.45.41.9.83,1.35,1.24.1.09.19.13.34.12.22-.02.33.21.46.35.08.09-.07.15-.12.22-.23.26-.47.51-.7.78-.08.1-.15.1-.23,0-.1-.14-.32-.19-.32-.36h0Z"/>
  <path class="cls-1" d="m84.97,74.5c-.03.14.02.34-.21.43-.07.03-.08.12-.09.2-.08.62-.16,1.25-.24,1.87-.02.12.02.22.11.33.14.17.02.39-.02.58-.02.11-.17.03-.25.02-.34-.04-.68-.09-1.02-.12-.13-.01-.19-.04-.15-.19.05-.2-.01-.43.24-.55.09-.04.08-.2.1-.3.07-.54.14-1.08.2-1.63.02-.16.04-.31-.11-.47-.13-.13-.01-.37.03-.55.02-.1.17-.02.26-.02.32.03.64.08.96.12.22.03.22.02.19.27h0Z"/>
  <path class="cls-1" d="m113.18,51.25h2.4c.43,0,.72-.46.53-.84l-1.11-2.25.04,2.09-1.85,1.01h0Z"/>
</svg>