<?xml version="1.0" encoding="UTF-8"?>
<svg id="Layer_1" data-name="Layer 1" xmlns="http://www.w3.org/2000/svg" viewBox="0 0 180 120">
  <defs>
    <style>
      .cls-1 {
        fill: #9b9b9b;
      }

      .cls-1, .cls-2, .cls-3 {
        stroke-width: 0px;
      }

      .cls-2 {
        fill: #fff;
      }

      .cls-3 {
        fill: #595959;
      }
    </style>
  </defs>
  <circle class="cls-1" cx="21.01" cy="60" r="12.5"/>
  <circle class="cls-3" cx="21.01" cy="60" r="10.38"/>
  <path class="cls-2" d="m26.04,65.7c-.12,0-.24-.06-.36-.12-.18-.18-.18-.55,0-.73,2.67-2.67,2.67-6.98,0-9.65-.18-.18-.18-.55,0-.73.18-.18.55-.18.73,0,3.03,3.03,3.03,8.07,0,11.1-.12.12-.24.12-.36.12h0Z"/>
  <path class="cls-2" d="m24.41,64.13c-.12,0-.24-.06-.36-.12-.18-.18-.18-.55,0-.73,1.76-1.76,1.76-4.67,0-6.43-.18-.18-.18-.55,0-.73.18-.18.55-.18.73,0,2.18,2.18,2.18,5.7,0,7.89-.12.06-.24.12-.36.12h0Z"/>
  <path class="cls-2" d="m22.83,62.49c-.12,0-.24-.06-.36-.12-.18-.18-.18-.55,0-.73.42-.42.67-1.03.67-1.64s-.24-1.15-.67-1.64c-.18-.18-.18-.55,0-.73.18-.18.55-.18.73,0,.61.61.97,1.46.97,2.31,0,.91-.36,1.7-.97,2.31-.12.18-.24.24-.36.24h0Z"/>
  <polygon class="cls-2" points="21.01 59.03 18.46 59.03 18.46 56.48 16.52 56.48 16.52 59.03 13.97 59.03 13.97 61.03 16.52 61.03 16.52 63.58 18.46 63.58 18.46 61.03 21.01 61.03 21.01 59.03"/>
  <g>
    <path class="cls-3" d="m43.7,53.57c2.37,0,3.7,1.4,3.7,3.28,0,1.27-.73,2.25-1.82,2.61,1.27.36,2.18,1.46,2.18,2.91,0,1.94-1.52,3.4-3.76,3.4h-4.49v-12.2h4.19Zm-.3,5.22c1.21,0,1.94-.67,1.94-1.7s-.73-1.7-2-1.7h-1.82v3.4h1.88Zm.24,5.28c1.21,0,2.06-.67,2.06-1.76,0-1.03-.73-1.82-2-1.82h-2.18v3.52h2.12v.06Z"/>
    <path class="cls-3" d="m50.86,60.97l2.12-.3c.49-.06.61-.3.61-.61,0-.73-.49-1.27-1.58-1.27-1.03,0-1.64.67-1.7,1.52l-1.82-.42c.18-1.46,1.46-2.73,3.52-2.73,2.61,0,3.58,1.46,3.58,3.16v4.19c0,.73.06,1.27.12,1.33h-1.88c0-.06-.06-.42-.06-1.09-.42.67-1.21,1.33-2.61,1.33-1.76,0-2.85-1.21-2.85-2.55,0-1.52,1.09-2.31,2.55-2.55Zm2.73,1.33v-.36l-2.18.3c-.61.12-1.09.42-1.09,1.15,0,.55.42,1.09,1.21,1.09,1.09,0,2.06-.55,2.06-2.18Z"/>
    <path class="cls-3" d="m57.35,69.22l2-4.37-3.58-7.4h2.25l2.43,5.28,2.25-5.28h2.12l-5.34,11.77s-2.12,0-2.12,0Z"/>
    <path class="cls-3" d="m76.23,62.73h-5.16l-1.15,3.09h-2.18l4.73-12.2h2.37l4.73,12.2h-2.25l-1.09-3.09Zm-4.49-1.88h3.7l-1.88-4.98-1.82,4.98Z"/>
    <path class="cls-3" d="m80.23,65.83v-12.5h2v12.5h-2Z"/>
    <path class="cls-3" d="m85.93,60.97l2.12-.3c.49-.06.61-.3.61-.61,0-.73-.49-1.27-1.58-1.27-1.03,0-1.64.67-1.7,1.52l-1.82-.42c.18-1.46,1.46-2.73,3.52-2.73,2.61,0,3.58,1.46,3.58,3.16v4.19c0,.73.06,1.27.12,1.33h-1.88c0-.06-.06-.42-.06-1.09-.42.67-1.21,1.33-2.61,1.33-1.76,0-2.85-1.21-2.85-2.55,0-1.52,1.09-2.31,2.55-2.55Zm2.73,1.33v-.36l-2.18.3c-.61.12-1.09.42-1.09,1.15,0,.55.42,1.09,1.21,1.09,1.15,0,2.06-.55,2.06-2.18Z"/>
    <path class="cls-3" d="m97.1,59.39c-.24-.06-.42-.06-.67-.06-1.58,0-2.25.91-2.25,2.49v4h-2v-8.43h1.94v1.33c.42-.91,1.33-1.46,2.43-1.46.24,0,.42.06.55.06v2.06h0Z"/>
    <path class="cls-3" d="m97.95,65.83v-8.43h1.88v1.09c.49-.85,1.52-1.33,2.49-1.33,1.09,0,2.06.49,2.49,1.46.67-1.09,1.64-1.46,2.73-1.46,1.52,0,2.97.97,2.97,3.16v5.46h-1.94v-5.1c0-.97-.49-1.7-1.64-1.7-1.03,0-1.76.85-1.76,1.88v4.98h-1.94v-5.1c0-.97-.49-1.7-1.64-1.7-1.09,0-1.76.79-1.76,1.88v4.98c.06-.06-1.88-.06-1.88-.06Z"/>
    <path class="cls-3" d="m127.08,65.83v-9.04l-3.82,9.04h-1.82l-3.76-8.98v8.98h-2v-12.26h2.73l3.94,9.34,3.88-9.34h2.79v12.2c.12.06-1.94.06-1.94.06Z"/>
    <path class="cls-3" d="m138.42,63.4c-.42,1.46-1.76,2.67-3.76,2.67-2.25,0-4.31-1.64-4.31-4.49,0-2.67,1.94-4.43,4.07-4.43,2.61,0,4.13,1.7,4.13,4.37,0,.3-.06.61-.06.67h-6.13c.06,1.27,1.03,2.18,2.31,2.18s1.82-.67,2.12-1.46l1.64.49Zm-1.94-2.73c-.06-.97-.67-1.88-2.06-1.88-1.27,0-2,.97-2.06,1.88h4.13Z"/>
    <path class="cls-3" d="m147.34,64.25c0,.73.06,1.4.06,1.52h-1.94c-.06-.18-.06-.73-.06-1.09-.42.73-1.27,1.27-2.49,1.27-2.43,0-4-1.88-4-4.43s1.64-4.37,4-4.37c1.46,0,2.18.67,2.49,1.21v-5.04h1.94v10.92h0Zm-4.19,0c1.33,0,2.25-1.09,2.25-2.67s-.91-2.61-2.18-2.61-2.25,1.03-2.25,2.61c-.06,1.58.85,2.67,2.18,2.67Z"/>
    <path class="cls-3" d="m150.07,53.14c.73,0,1.33.61,1.33,1.33s-.61,1.27-1.33,1.27-1.27-.55-1.27-1.27.55-1.33,1.27-1.33Zm-.97,12.68v-8.43h2v8.37c-.06.06-2,.06-2,.06Z"/>
    <path class="cls-3" d="m154.14,61.58c0,1.7,1.09,2.61,2.37,2.61s1.88-.91,2.12-1.58l1.76.61c-.42,1.33-1.64,2.73-3.88,2.73-2.49,0-4.37-1.88-4.37-4.49s1.88-4.43,4.31-4.43c2.25,0,3.52,1.4,3.82,2.73l-1.82.67c-.18-.73-.73-1.58-2-1.58-1.21.18-2.31,1.09-2.31,2.73Z"/>
    <path class="cls-3" d="m163.18,60.97l2.12-.3c.49-.06.61-.3.61-.61,0-.73-.49-1.27-1.58-1.27-1.03,0-1.64.67-1.7,1.52l-1.82-.42c.18-1.46,1.46-2.73,3.52-2.73,2.61,0,3.58,1.46,3.58,3.16v4.19c0,.73.06,1.27.12,1.33h-1.88c0-.06-.06-.42-.06-1.09-.42.67-1.21,1.33-2.61,1.33-1.76,0-2.85-1.21-2.85-2.55.06-1.52,1.15-2.31,2.55-2.55Zm2.79,1.33v-.36l-2.18.3c-.61.12-1.09.42-1.09,1.15,0,.55.42,1.09,1.21,1.09,1.09,0,2.06-.55,2.06-2.18Z"/>
    <path class="cls-3" d="m169.49,65.83v-12.5h2v12.5h-2Z"/>
  </g>
</svg>