<?xml version="1.0" encoding="UTF-8"?>
<svg id="Layer_1" data-name="Layer 1" xmlns="http://www.w3.org/2000/svg" viewBox="0 0 180 120">
  <defs>
    <style>
      .cls-1 {
        fill: #656565;
        stroke-width: 0px;
      }
    </style>
  </defs>
  <path class="cls-1" d="m100.95,52.35c4.49-3.11,8.6-2.86,11.1.82,1.56-2.13,3.74-2.88,6.26-2.9,4.12-.03,5.94,1.65,6.01,5.76.07,4.06,0,8.12.04,12.18.01,1.76.69,2.47,2.22,2.45,1.48-.02,2.1-.63,2.14-2.37.06-2.6.03-5.19.03-7.79,0-5,.03-10.01-.02-15.01-.01-1.38.11-2.94-1.76-3.43-.3-.08-.44-.35-.38-.67.07-.43.4-.49.74-.48,2.7.14,5.38-.08,8.05-.39.61-.07.86.27.87.84,0,.42.01.85.01,1.27,0,8.26,0,16.52,0,24.79,0,1.41-.03,2.81,1.75,3.26.3.08.45.34.41.66-.05.34-.32.45-.61.49-.33.05-.66.08-.99.05-5.23-.38-10.47.3-15.7-.15-1.49-.13-3.01.11-4.52.15-.41.01-.9.03-1.07-.48-.15-.45.24-.65.52-.9.81-.71.73-1.74.74-2.64.06-4.15.06-8.31,0-12.46-.01-1.1-.03-2.39-1.66-2.48-1.36-.07-2.68,1.07-2.69,2.55-.05,4.48,0,8.97.01,13.45,0,.78.36,1.36,1.08,1.68.32.14.6.31.54.72-.07.5-.49.5-.86.56-.14.02-.28.02-.42.02-2.69-.12-5.37-.11-8.06,0-.45.02-1.01.1-1.21-.47-.18-.52.29-.73.62-.98.62-.47.57-1.17.57-1.82.01-4.58.02-9.16,0-13.74,0-.73.11-1.63-.85-1.89-1.01-.27-1.86.12-2.49.94-.45.59-.54,1.29-.54,2.01,0,4.11,0,8.22,0,12.32,0,.91.09,1.81.95,2.38.25.17.42.39.36.71-.08.41-.42.5-.75.5-3.16.01-6.32.01-9.47,0-.33,0-.68-.1-.75-.5-.07-.4.17-.64.52-.72,1.34-.33,1.59-1.39,1.6-2.51.03-4.39.05-8.78-.02-13.17-.02-1.17-.19-2.41-1.63-2.85-.36-.11-.56-.37-.46-.75.11-.39.46-.45.8-.45,2.69,0,5.37-.04,8.06-.32,1.36-.15.48,1.24.92,1.79Z"/>
  <path class="cls-1" d="m59.37,51.98c1.12.8,1.94,1.61,2.07,2.91.19,1.87-.62,3.28-2.32,3.93-1.66.64-3.37.22-4.35-1.06-1.07-1.39-1.04-3.32.07-4.73.89-1.12,2.09-1.73,3.43-2.13,2.39-.72,4.85-.82,7.29-.47,3.74.53,5.4,2.39,5.47,6.18.07,3.92.02,7.84.04,11.75,0,.91-.23,2.13,1.44,1.45.1-.04.27.04.39.09,1.45.68,1.97.48,2.15-1.09.16-1.4.11-2.82.11-4.24.01-3.02.03-6.04,0-9.06-.01-1.43-.02-2.9-1.78-3.47-.3-.1-.42-.38-.35-.69.08-.33.36-.44.65-.44.85-.02,1.7-.02,2.55-.02,1.46-.01,2.93.03,4.37-.25,1.27-.24,2.43-.33,2.11,1.86,1.57-1.61,3.21-2.3,5.14-2.21,1.77.08,2.99,1.06,3.46,2.8.55,2.01-.08,3.99-1.55,4.92-1.43.9-3.74.79-4.93-.26-1.07-.95-.98-2.18-.77-3.41.1-.61.39-1.16.84-1.71-1.3.4-2.14,1.45-2.16,2.92-.05,4.15-.04,8.31,0,12.46.01,1.37.63,2.34,2.14,2.54.46.06,1.21.02,1.11.78-.09.7-.79.57-1.27.55-3.49-.09-6.98-.14-10.46,0-.09,0-.22.03-.28-.01-1.35-1.07-2.63-.02-3.94.13-2.31.25-4.66.65-6.18-1.85-.39-.63-.73,0-1,.24-1.62,1.45-3.52,1.96-5.64,1.7-2-.24-3.47-1.2-4.07-3.21-.61-2.04-.1-3.82,1.37-5.34.81-.84,1.85-1.29,2.91-1.7,1.32-.51,2.65-.99,3.96-1.53,1.49-.61,2.39-1.62,2.2-3.37-.12-1.07.1-2.17-.18-3.24-.52-2.02-1.86-2.65-4.01-1.72Zm4.17,8.45c-2.33,1.86-3.39,3.91-2.96,6.6.16,1,.73,1.49,1.75,1.41.97-.07,1.22-.68,1.22-1.55-.02-2.05,0-4.11,0-6.46Z"/>
  <path class="cls-1" d="m36.79,59.25c-.94,3.55-1.88,7.1-2.84,10.65-.25.9-.22,1.97-1.7,2-2.88.05-2.9.12-3.55-1.72-1.79-5.07-3.56-10.15-5.33-15.23-.41-1.17-.78-2.35-2.08-2.87-.29-.12-.44-.35-.39-.67.06-.42.4-.5.74-.51.66-.02,1.33-.04,1.98.02,2.54.24,5.08.26,7.63-.01.42-.05.85-.03,1.27,0,.39.02.79.1.78.62,0,.42-.34.56-.68.57-1.54.04-1.48.94-1.14,2.04.92,3.01,1.82,6.03,2.85,9.44,1-3.88,1.88-7.35,2.8-10.81.17-.65.11-1.62.95-1.75,1.29-.21,2.65-.37,3.91.11.56.21.6,1.02.78,1.61,1.2,3.83,2.39,7.65,3.59,11.48.01.04.07.06.26.22.97-3.09,2.28-6.01,1.95-9.3-.14-1.38-.83-2.39-2.17-2.88-.39-.14-.89-.23-.81-.8.08-.58.59-.54,1-.54,1.98,0,3.97,0,5.95,0,.33,0,.69.02.84.39.18.42-.06.73-.39.96-1.33.92-1.88,2.31-2.34,3.77-1.48,4.78-3.01,9.54-4.46,14.33-.34,1.13-.89,1.66-2.11,1.55-1.25-.12-2.58.36-3.14-1.52-1.13-3.74-2.5-7.4-3.78-11.1-.11,0-.22,0-.33-.01Z"/>
  <path class="cls-1" d="m144.73,78.22c3.17-.33,4.47-2.63,3.25-5.31-2.76-6.05-5.49-12.12-8.25-18.18-.47-1.02-.87-2.12-2.02-2.63-.28-.13-.44-.36-.39-.68.06-.42.39-.51.73-.52.57-.02,1.14-.05,1.7.01,2.54.26,5.08.26,7.63,0,.51-.05,1.04-.04,1.56-.02.39.02.79.11.77.62-.01.41-.34.57-.68.57-1.66,0-1.59.85-1.08,2.04,1.39,3.24,2.74,6.51,4.29,9.77,1.07-2.99,2.66-5.82,2.18-9.13-.16-1.12-.76-2.02-1.86-2.51-.38-.17-.88-.26-.79-.83.09-.57.6-.53,1.01-.53,1.79,0,3.59,0,5.38.01.37,0,.79,0,.94.45.13.43-.12.72-.45.95-1.28.9-1.8,2.27-2.27,3.66-2.15,6.34-4.29,12.69-6.44,19.04-1.42,4.17-5.4,5.67-9.32,3.53-1.57-.86-2.26-2.06-2.04-3.54.22-1.51,1.17-2.36,3-2.74.81-.17,1.59-.15,2.38.06,2.4.63,3.21,2.99,1.69,4.95-.23.29-.51.54-.91.96Z"/>
</svg>