<svg width="36" height="36" viewBox="0 0 36 36" fill="none" xmlns="http://www.w3.org/2000/svg">
<g id="Node.js">
<path id="Vector" d="M18 35.9332C17.5031 35.9332 17.0393 35.8012 16.6087 35.5701L12.2029 32.9622C11.5404 32.599 11.8716 32.467 12.0704 32.401C12.9648 32.1039 13.1304 32.0378 14.058 31.5096C14.1573 31.4436 14.2899 31.4766 14.3892 31.5427L17.7681 33.5564C17.9006 33.6224 18.0663 33.6224 18.1656 33.5564L31.383 25.9307C31.5155 25.8646 31.5818 25.7326 31.5818 25.5675V10.3492C31.5818 10.1841 31.5155 10.0521 31.383 9.98603L18.1656 2.39335C18.0331 2.32732 17.8675 2.32732 17.7681 2.39335L4.55072 9.98603C4.41822 10.0521 4.35197 10.2171 4.35197 10.3492V25.5675C4.35197 25.6996 4.41822 25.8646 4.55072 25.9307L8.16149 28.0104C10.1159 29.0008 11.3416 27.8453 11.3416 26.6899V11.6696C11.3416 11.4716 11.5072 11.2735 11.7391 11.2735H13.4286C13.6273 11.2735 13.8261 11.4385 13.8261 11.6696V26.6899C13.8261 29.2979 12.4017 30.8164 9.91718 30.8164C9.15528 30.8164 8.55901 30.8164 6.86957 29.9911L3.3913 28.0104C2.53002 27.5152 2 26.5909 2 25.6006V10.3822C2 9.39182 2.53002 8.46749 3.3913 7.97232L16.6087 0.346622C17.4369 -0.115541 18.5631 -0.115541 19.3913 0.346622L32.6087 7.97232C33.47 8.46749 34 9.39182 34 10.3822V25.6006C34 26.5909 33.47 27.5152 32.6087 28.0104L19.3913 35.6361C18.9607 35.8342 18.4638 35.9332 18 35.9332ZM22.0745 25.4685C16.2774 25.4685 15.0849 22.8276 15.0849 20.5828C15.0849 20.3847 15.2505 20.1866 15.4824 20.1866H17.205C17.4037 20.1866 17.5694 20.3187 17.5694 20.5168C17.8344 22.2664 18.5963 23.1247 22.1077 23.1247C24.8903 23.1247 26.0828 22.4975 26.0828 21.0119C26.0828 20.1536 25.7516 19.5264 21.412 19.0973C17.8012 18.7341 15.5487 17.9418 15.5487 15.0698C15.5487 12.3959 17.8012 10.8113 21.5776 10.8113C25.8178 10.8113 27.9048 12.2638 28.1698 15.433C28.1698 15.532 28.1366 15.631 28.0704 15.7301C28.0041 15.7961 27.9048 15.8621 27.8054 15.8621H26.0828C25.9172 15.8621 25.7516 15.7301 25.7184 15.565C25.3209 13.7494 24.294 13.1552 21.5776 13.1552C18.53 13.1552 18.1656 14.2115 18.1656 15.0038C18.1656 15.9611 18.5963 16.2582 22.7039 16.7864C26.7785 17.3146 28.6998 18.0739 28.6998 20.9129C28.6667 23.8179 26.2816 25.4685 22.0745 25.4685Z" fill="#539E43"/>
</g>
</svg>
