<?xml version="1.0" encoding="UTF-8"?>
<svg xmlns="http://www.w3.org/2000/svg" width="36" height="36" viewBox="0 0 36 36" fill="none">
  <g clip-path="url(#clip0_9541_122996)">
    <path fill-rule="evenodd" clip-rule="evenodd" d="M17.5838 35.3116L9.55687 32.4316V20.6697L17.5838 23.4035V35.3116ZM19.0463 35.3116L27.0731 32.4316V20.6697L19.0463 23.4057V35.3116ZM10.3837 19.7866L18.4838 17.4995L26.0167 19.9295L18.4838 22.4866L10.3837 19.7866ZM8.03025 18.8866L0 15.9976V4.21886L8.02688 6.95261L8.03025 18.8866ZM9.50062 18.8866L17.5275 16.0066V4.21886L9.49837 6.96611L9.50062 18.8866ZM0.838125 3.36161L8.93813 1.06323L16.4711 3.49323L8.93813 6.05036L0.838125 3.36161ZM26.7716 18.8866L18.7448 16.0066V4.21886L26.7716 6.95261V18.8866ZM28.2341 18.8866L36.261 16.0066V4.21886L28.2341 6.95261V18.8866ZM19.5716 3.36161L27.6716 1.07448L35.2046 3.50448L27.6716 6.06161L19.5716 3.36161Z" fill="#FF9900"></path>
  </g>
  <defs>
    <clipPath id="clip0_9541_122996">
      <rect width="36" height="36" fill="white"></rect>
    </clipPath>
  </defs>
</svg>
