<svg width="36" height="36" viewBox="0 0 36 36" fill="none" xmlns="http://www.w3.org/2000/svg">
<g id="Frame 758531007">
<g id="Group 758530484">
<path id="Vector" d="M13.4606 30.6624C11.8398 29.1757 11.3667 26.052 12.0419 23.7891C13.2128 25.2159 14.8351 25.6678 16.5155 25.9229C19.1096 26.3166 21.6573 26.1694 24.0671 24.9796C24.3428 24.8434 24.5975 24.6623 24.8987 24.4788C25.1249 25.137 25.1837 25.8017 25.1048 26.478C24.9128 28.1254 24.0958 29.3978 22.7964 30.3624C22.2768 30.7482 21.7269 31.0931 21.1903 31.4569C19.5417 32.575 19.0957 33.886 19.7151 35.7932C19.7299 35.8396 19.7431 35.8861 19.7763 35.9995C18.9345 35.6215 18.3198 35.0711 17.8513 34.3474C17.3564 33.5836 17.121 32.7387 17.1086 31.8246C17.1024 31.3797 17.1024 30.9308 17.0427 30.4923C16.8972 29.423 16.397 28.9442 15.4546 28.9166C14.4874 28.8883 13.7223 29.4883 13.5194 30.4332C13.5039 30.5057 13.4815 30.5773 13.459 30.6615L13.4606 30.6624Z" fill="#FF5D01"/>
<path id="Vector_2" d="M4.21002 23.4122C4.21002 23.4122 9.00936 21.0661 13.8221 21.0661L17.4507 9.79747C17.5866 9.2525 17.9833 8.88216 18.431 8.88216C18.8788 8.88216 19.2756 9.2525 19.4114 9.79747L23.0401 21.0661C28.74 21.0661 32.6521 23.4122 32.6521 23.4122C32.6521 23.4122 24.5001 1.12788 24.4841 1.08317C24.2501 0.424326 23.8552 0 23.3227 0H13.5403C13.0078 0 12.6288 0.424326 12.3789 1.08317C12.3613 1.12704 4.21002 23.4122 4.21002 23.4122Z" fill="#1F2122"/>
</g>
</g>
</svg>
