<?xml version="1.0" encoding="UTF-8"?>
<svg xmlns="http://www.w3.org/2000/svg" width="36" height="36" viewBox="0 0 36 36" fill="none">
  <g clip-path="url(#clip0_9541_122989)">
    <path d="M9.17969 25.875H33.0038V19.2825L28.4779 16.6871L27.6972 16.3496L9.17969 16.4767V25.875Z" fill="white"></path>
    <path d="M24.7635 24.9998C24.9851 24.2404 24.9008 23.544 24.5318 23.0265C24.1943 22.5518 23.6239 22.2773 22.9388 22.2458L9.95063 22.077C9.86626 22.077 9.79313 22.0343 9.75038 21.9713C9.70763 21.9083 9.69751 21.825 9.71888 21.7395C9.76163 21.6124 9.88763 21.5179 10.0249 21.5078L23.1289 21.339C24.6814 21.2648 26.3689 20.0093 26.9584 18.4703L27.7076 16.5184C27.7406 16.4383 27.7485 16.35 27.7301 16.2653C26.8864 12.4459 23.4776 9.59741 19.4051 9.59741C15.6476 9.59741 12.4639 12.024 11.3231 15.3912C10.584 14.8422 9.63563 14.5474 8.63213 14.6419C6.82763 14.8219 5.36963 16.2664 5.20313 18.0709C5.15941 18.5197 5.19135 18.9726 5.29763 19.4108C3.87805 19.4492 2.52966 20.0407 1.54 21.0592C0.550339 22.0776 -0.00227363 23.4424 7.03131e-06 24.8625C7.03131e-06 25.1258 0.022507 25.3913 0.052882 25.6534C0.075382 25.7805 0.180007 25.875 0.306007 25.875H24.2775C24.3465 25.8737 24.4132 25.8506 24.4682 25.8089C24.5232 25.7673 24.5635 25.7093 24.5835 25.6433L24.7635 24.9998Z" fill="#F38020"></path>
    <path d="M28.899 16.6533L28.539 16.6646C28.4546 16.6646 28.3815 16.7276 28.3477 16.8108L27.8415 18.5726C27.6198 19.3319 27.7042 20.0283 28.0732 20.5458C28.4107 21.0206 28.9811 21.2951 29.6662 21.3266L32.4303 21.4953C32.5147 21.4953 32.5878 21.5381 32.6306 21.6011C32.6733 21.6641 32.6835 21.7586 32.6621 21.8328C32.6193 21.9599 32.4933 22.0544 32.3561 22.0646L29.4761 22.2333C27.9146 22.3076 26.2361 23.5631 25.6466 25.1021L25.4351 25.6398C25.3923 25.7456 25.4666 25.8513 25.5813 25.8513H35.478C35.5352 25.8521 35.5912 25.8339 35.637 25.7995C35.6828 25.7651 35.7159 25.7164 35.7311 25.6612C35.9065 25.0372 35.9969 24.3924 36 23.7442C35.9946 21.8636 35.2444 20.0617 33.9135 18.7329C32.5827 17.4042 30.7796 16.6557 28.899 16.6533Z" fill="#FAAE40"></path>
  </g>
  <defs>
    <clipPath id="clip0_9541_122989">
      <rect width="36" height="36" fill="white"></rect>
    </clipPath>
  </defs>
</svg>
