<?xml version="1.0" encoding="UTF-8"?>
<svg xmlns="http://www.w3.org/2000/svg" width="36" height="36" viewBox="0 0 36 36" fill="none">
  <g clip-path="url(#clip0_9541_122993)">
    <path d="M30.6 0H5.4C2.41766 0 0 2.41766 0 5.4V30.6C0 33.5823 2.41766 36 5.4 36H30.6C33.5823 36 36 33.5823 36 30.6V5.4C36 2.41766 33.5823 0 30.6 0Z" fill="#0080FF"></path>
    <path d="M5.48438 26.2266V22.9219H8.78906V30.2344H12.7969V21.0938H18V31.4297C20.6561 31.4297 23.2526 30.6421 25.4611 29.1664C27.6696 27.6907 29.391 25.5933 30.4074 23.1393C31.4239 20.6854 31.6898 17.9851 31.1716 15.38C30.6535 12.7749 29.3744 10.382 27.4962 8.50378C25.618 6.62561 23.2251 5.34655 20.62 4.82837C18.0149 4.31018 15.3146 4.57613 12.8607 5.59259C10.4067 6.60905 8.3093 8.33037 6.83362 10.5389C5.35795 12.7474 4.57031 15.3439 4.57031 18H9.77344C9.77344 16.3729 10.2559 14.7824 11.1599 13.4296C12.0638 12.0767 13.3486 11.0223 14.8518 10.3997C16.355 9.777 18.0091 9.61409 19.6049 9.93151C21.2007 10.2489 22.6666 11.0324 23.8171 12.1829C24.9676 13.3335 25.7511 14.7993 26.0685 16.3951C26.3859 17.9909 26.223 19.645 25.6004 21.1482C24.9777 22.6514 23.9233 23.9362 22.5704 24.8401C21.2176 25.7441 19.6271 26.2266 18 26.2266" fill="white"></path>
  </g>
  <defs>
    <clipPath id="clip0_9541_122993">
      <rect width="36" height="36" fill="white"></rect>
    </clipPath>
  </defs>
</svg>
