<?xml version="1.0" encoding="UTF-8"?>
<svg xmlns="http://www.w3.org/2000/svg" width="36" height="36" viewBox="0 0 36 36" fill="none">
  <path d="M16.693 3H21.8928V26.8327C19.2294 27.3365 17.2686 27.5347 15.1471 27.5347C8.79619 27.5281 5.49023 24.6908 5.49023 19.2416C5.49023 13.9912 8.99695 10.5838 14.431 10.5838C15.2743 10.5838 15.9167 10.6502 16.693 10.849V3ZM16.8752 15.1439C16.2662 14.945 15.7643 14.8787 15.1218 14.8787C12.4919 14.8787 10.9727 16.4829 10.9727 19.2944C10.9727 22.0316 12.425 23.543 15.0885 23.543C15.6639 23.543 16.1324 23.5106 16.8752 23.4112V15.1439Z" fill="#2BA977"></path>
  <path d="M30.3963 11.2236V23.1563C30.3963 27.2657 30.0884 29.2419 29.185 30.9457C28.3417 32.5837 27.2308 33.6165 24.9354 34.7574L20.1104 32.4836C22.4058 31.4169 23.5166 30.4743 24.2261 29.0358C24.9688 27.5648 25.203 25.861 25.203 21.3796V11.2237L30.3963 11.2236ZM24.679 3H29.8789V8.28349H24.679V3Z" fill="#2BA977"></path>
</svg>
