<?xml version="1.0" encoding="UTF-8"?>
<svg xmlns="http://www.w3.org/2000/svg" width="36" height="36" viewBox="0 0 36 36" fill="none">
  <g clip-path="url(#clip0_9541_122985)">
    <path d="M30.6 0H5.4C2.41766 0 0 2.41766 0 5.4V30.6C0 33.5823 2.41766 36 5.4 36H30.6C33.5823 36 36 33.5823 36 30.6V5.4C36 2.41766 33.5823 0 30.6 0Z" fill="white"></path>
    <path d="M20.8125 15.8906H23.7656ZM17.2969 15.8906H20.25ZM13.8516 15.8906H16.8047ZM10.4062 15.8906H13.2891ZM6.89062 15.8906H9.84375ZM10.4062 12.6562H13.2891ZM13.8516 12.6562H16.8047ZM17.2969 12.6562H20.25ZM17.2969 9.42188H20.25Z" fill="black"></path>
    <path d="M20.8125 15.8906H23.7656M17.2969 15.8906H20.25M13.8516 15.8906H16.8047M10.4062 15.8906H13.2891M6.89062 15.8906H9.84375M10.4062 12.6562H13.2891M13.8516 12.6562H16.8047M17.2969 12.6562H20.25M17.2969 9.42188H20.25" stroke="#066DA5" stroke-width="2.67188"></path>
    <path d="M33.1874 16.0312C33.1874 16.0312 31.9218 14.8359 29.3202 15.2578C29.039 13.2188 26.8593 12.0234 26.8593 12.0234C26.8593 12.0234 24.8202 14.4844 26.2968 17.2266C25.8749 17.4375 25.1718 17.7188 24.1171 17.7188H4.78118C4.42962 19.0547 4.42962 27.9141 14.1327 27.9141C21.0937 27.9141 26.2968 24.6797 28.7577 18.7734C32.414 19.0547 33.1874 16.0312 33.1874 16.0312Z" fill="#066DA5"></path>
  </g>
  <defs>
    <clipPath id="clip0_9541_122985">
      <rect width="36" height="36" fill="white"></rect>
    </clipPath>
  </defs>
</svg>
