<svg width="36" height="36" viewBox="0 0 36 36" fill="none" xmlns="http://www.w3.org/2000/svg">
<g id="expressjs" clip-path="url(#clip0_10442_69977)">
<g id="Layer 2">
<g id="Layer 1">
<g id="Subtract">
<path d="M15.1576 16.8235C15.1576 15.4447 14.5788 13.2659 12.0988 13.2659C9.8682 13.2659 8.88938 15.2941 8.71526 16.8235H15.1576Z" fill="#1F2122"/>
<path fill-rule="evenodd" clip-rule="evenodd" d="M30.7265 5.27346C27.3512 1.89807 22.7735 0.00124749 18 0C13.2265 0.00124749 8.64884 1.89807 5.27346 5.27346C1.89807 8.64884 0.00124749 13.2265 0 18C0.00124749 22.7735 1.89807 27.3512 5.27346 30.7265C8.64884 34.1019 13.2265 35.9988 18 36C22.7735 35.9988 27.3512 34.1019 30.7265 30.7265C34.1019 27.3512 35.9988 22.7735 36 18C35.9988 13.2265 34.1019 8.64884 30.7265 5.27346ZM8.69173 18.3906C8.73879 21.3694 10.6211 22.5976 12.8517 22.5976C14.0025 22.6378 15.1481 22.4241 16.207 21.9717L16.5835 23.5529C15.3119 24.1052 13.9366 24.378 12.5506 24.3529C8.8235 24.3529 6.5835 21.8447 6.5835 18.2353C6.5835 14.6259 8.73879 11.6941 12.2964 11.6941C16.2353 11.6941 17.2847 15.1529 17.2847 17.3835C17.2892 17.7296 17.256 18.0752 17.1858 18.4141L8.69173 18.3906ZM20.9694 11.9482L22.6965 14.5271C23.0557 15.0444 23.3491 15.5315 23.6458 16.024C23.7378 16.1767 23.8301 16.33 23.9247 16.4847H23.9765C24.2149 16.0809 24.4633 15.6871 24.7097 15.2963C24.8768 15.0315 25.0432 14.7677 25.2047 14.5035L26.8847 11.9482H29.2894L25.153 17.7882L29.4165 24.0518H26.9318L25.1294 21.3459C24.6726 20.6378 24.2779 19.9741 23.8635 19.2773L23.8259 19.2141H23.7741C23.5067 19.7175 23.2288 20.1641 22.9389 20.6298C22.7953 20.8606 22.6485 21.0964 22.4988 21.3459L20.7435 24.0518H18.3153L22.6259 17.8635L18.513 11.9482H20.9694Z" fill="#1F2122"/>
</g>
</g>
</g>
</g>
<defs>
<clipPath id="clip0_10442_69977">
<rect width="36" height="36" fill="white"/>
</clipPath>
</defs>
</svg>
