<?xml version="1.0" encoding="UTF-8"?>
<svg xmlns="http://www.w3.org/2000/svg" width="36" height="36" viewBox="0 0 36 36" fill="none">
  <path d="M33.4671 14.7884L33.4221 14.6734L29.0666 3.3063C28.978 3.08351 28.8211 2.89451 28.6184 2.76643C28.4155 2.64053 28.179 2.57989 27.9406 2.5927C27.7022 2.60552 27.4735 2.69116 27.2854 2.83808C27.0993 2.98922 26.9643 3.19401 26.8988 3.4246L23.9579 12.4223H12.0493L9.10834 3.4246C9.04456 3.19276 8.90929 2.98694 8.72177 2.83642C8.53362 2.6895 8.30491 2.60385 8.06654 2.59104C7.82816 2.57822 7.59159 2.63886 7.38878 2.76477C7.18654 2.89336 7.02977 3.08219 6.94056 3.30463L2.57667 14.6667L2.53335 14.7817C1.90635 16.42 1.82895 18.2177 2.31284 19.9037C2.79672 21.5898 3.81565 23.0729 5.216 24.1293L5.23099 24.141L5.27098 24.1693L11.906 29.138L15.1885 31.6224L17.1879 33.132C17.4218 33.3096 17.7074 33.4057 18.0011 33.4057C18.2947 33.4057 18.5803 33.3096 18.8142 33.132L20.8137 31.6224L24.0962 29.138L30.7711 24.1393L30.7878 24.126C32.185 23.0694 33.2016 21.5878 33.6847 19.904C34.1679 18.2202 34.0915 16.4251 33.4671 14.7884Z" fill="#E24329"></path>
  <path d="M33.4677 14.7883L33.4227 14.6733C31.3004 15.109 29.3005 16.0079 27.5659 17.306L18 24.5392C21.2575 27.0035 24.0934 29.1447 24.0934 29.1447L30.7684 24.1459L30.7851 24.1326C32.1843 23.076 33.2024 21.5935 33.6862 19.9083C34.1701 18.223 34.0934 16.4262 33.4677 14.7883Z" fill="#FC6D26"></path>
  <path d="M11.9062 29.1448L15.1887 31.6292L17.1882 33.1388C17.4221 33.3164 17.7077 33.4125 18.0014 33.4125C18.295 33.4125 18.5806 33.3164 18.8145 33.1388L20.814 31.6292L24.0965 29.1448C24.0965 29.1448 21.2572 26.997 17.9997 24.5393C14.7422 26.997 11.9062 29.1448 11.9062 29.1448Z" fill="#FCA326"></path>
  <path d="M8.43184 17.3058C6.69861 16.0051 4.69913 15.1038 2.57667 14.6665L2.53335 14.7815C1.90635 16.4197 1.82895 18.2174 2.31284 19.9035C2.79672 21.5896 3.81565 23.0727 5.216 24.1291L5.23099 24.1408L5.27098 24.1691L11.906 29.1378C11.906 29.1378 14.7386 26.9967 17.9994 24.5323L8.43184 17.3058Z" fill="#FC6D26"></path>
</svg>
