<?xml version="1.0" encoding="UTF-8"?>
<svg xmlns="http://www.w3.org/2000/svg" width="36" height="36" viewBox="0 0 36 36" fill="none">
  <g clip-path="url(#clip0_9534_120233)">
    <path d="M13.3321 27.8408C13.3321 27.8408 11.9564 28.6408 14.3111 28.9116C17.1639 29.237 18.6219 29.1903 21.7656 28.5953C21.7656 28.5953 22.5921 29.1136 23.7464 29.5625C16.699 32.5828 7.79674 29.3875 13.3321 27.8408Z" fill="#5382A1"></path>
    <path d="M12.4708 23.8994C12.4708 23.8994 10.9278 25.0416 13.2843 25.2853C16.3316 25.5997 18.7382 25.6254 22.9025 24.8235C22.9025 24.8235 23.4785 25.4075 24.3842 25.7268C15.8635 28.2184 6.37291 25.9233 12.4708 23.8994Z" fill="#5382A1"></path>
    <path d="M19.7304 17.2133C21.4669 19.2126 19.2742 21.0116 19.2742 21.0116C19.2742 21.0116 23.6834 18.7355 21.6584 15.8852C19.7672 13.2271 18.3169 11.9064 26.1684 7.35278C26.1684 7.35278 13.8441 10.4308 19.7304 17.2133Z" fill="#E76F00"></path>
    <path d="M29.0516 30.7561C29.0516 30.7561 30.0697 31.595 27.9304 32.2439C23.8626 33.4762 10.9996 33.8483 7.42631 32.293C6.1418 31.7342 8.55061 30.9587 9.30833 30.796C10.0986 30.6247 10.5501 30.6566 10.5501 30.6566C9.12164 29.6503 1.31691 32.6325 6.58572 33.4866C20.9545 35.8168 32.7787 32.4373 29.0516 30.7561Z" fill="#5382A1"></path>
    <path d="M13.9943 19.8157C13.9943 19.8157 7.45135 21.3697 11.6773 21.9341C13.4616 22.173 17.0186 22.1189 20.3318 21.8413C23.0396 21.6129 25.7585 21.1273 25.7585 21.1273C25.7585 21.1273 24.8037 21.5361 24.1129 22.0078C17.4687 23.7553 4.63326 22.9423 8.32841 21.1549C11.4534 19.6443 13.9943 19.8157 13.9943 19.8157Z" fill="#5382A1"></path>
    <path d="M25.7314 26.3763C32.4856 22.8665 29.3628 19.4937 27.183 19.9481C26.6488 20.0593 26.4106 20.1557 26.4106 20.1557C26.4106 20.1557 26.6089 19.845 26.9877 19.7105C31.2999 18.1945 34.6162 24.1818 25.5957 26.5532C25.5957 26.5533 25.7002 26.4598 25.7314 26.3763Z" fill="#5382A1"></path>
    <path d="M21.6586 0C21.6586 0 25.3992 3.74183 18.1109 9.4957C12.2664 14.1113 16.7782 16.743 18.1085 19.7498C14.6969 16.6718 12.1933 13.9622 13.8729 11.4403C16.3382 7.73846 23.1679 5.94367 21.6586 0Z" fill="#E76F00"></path>
    <path d="M14.657 35.8868C21.1401 36.3018 31.0958 35.6565 31.3316 32.5889C31.3316 32.5889 30.8783 33.7518 25.9736 34.6753C20.4401 35.7167 13.6152 35.5951 9.56738 34.9277C9.56748 34.9276 10.396 35.6135 14.657 35.8868Z" fill="#5382A1"></path>
  </g>
  <defs>
    <clipPath id="clip0_9534_120233">
      <rect width="36" height="36" fill="white"></rect>
    </clipPath>
  </defs>
</svg>
