<?xml version="1.0" encoding="UTF-8"?>
<svg xmlns="http://www.w3.org/2000/svg" width="36" height="36" viewBox="0 0 36 36" fill="none">
  <g clip-path="url(#clip0_9541_122976)">
    <path d="M17.8878 0.53541C17.5659 0.554324 17.251 0.637724 16.9619 0.78066L4.42379 6.76116C3.76904 7.07279 3.29317 7.66566 3.13004 8.37216L0.0610401 21.7945C-0.0852099 22.4245 0.0329151 23.0849 0.39854 23.6249C0.44129 23.6902 0.48629 23.7532 0.53354 23.8139L9.19604 34.5847C9.65391 35.1472 10.3413 35.47 11.0658 35.4667H24.9595C25.6863 35.4678 26.3748 35.1292 26.8315 34.5745L35.4895 23.8015C35.944 23.239 36.1139 22.4965 35.9395 21.7923L32.8503 8.35866C32.6872 7.65216 32.209 7.05929 31.5565 6.74766L19.0387 0.781785C18.678 0.603876 18.2784 0.519173 17.8765 0.53541H17.8878Z" fill="#326CE5"></path>
    <path d="M18.0025 5.10986C17.5705 5.14024 17.2431 5.51036 17.2656 5.94236V6.15386C17.2859 6.39349 17.3219 6.63086 17.3691 6.86599C17.4381 7.31624 17.463 7.77215 17.4434 8.22724C17.4006 8.37686 17.3151 8.51186 17.1981 8.61536L17.1812 8.93261C16.7256 8.97086 16.2734 9.04061 15.8279 9.14186C13.9536 9.56486 12.247 10.5369 10.9296 11.9375L10.6596 11.7462C10.5111 11.7912 10.3514 11.7744 10.2152 11.7012C9.85007 11.431 9.5121 11.1258 9.2061 10.79C9.0524 10.6063 8.88825 10.4317 8.71448 10.2669L8.54798 10.1341C8.39948 10.0149 8.21723 9.94624 8.0271 9.93724C7.91365 9.93122 7.80037 9.95214 7.69655 9.99828C7.59272 10.0444 7.50129 10.1145 7.42973 10.2027C7.17548 10.5594 7.25873 11.0532 7.61423 11.3086L7.76948 11.4324C7.96932 11.5653 8.17667 11.6867 8.39048 11.7957C8.78873 12.0174 9.16448 12.2772 9.51323 12.5832C9.60244 12.7105 9.65427 12.8601 9.66285 13.0152L9.9081 13.2402C8.58398 15.227 8.0406 17.6334 8.38035 19.997L8.06535 20.087C7.98323 20.2175 7.8741 20.3289 7.7436 20.411C7.30412 20.5283 6.85424 20.6026 6.40035 20.6326C6.15947 20.6375 5.91907 20.6563 5.68035 20.6889L5.48123 20.7339H5.45873C5.32054 20.753 5.19039 20.8102 5.08276 20.899C4.97513 20.9877 4.89425 21.1046 4.84912 21.2366C4.80399 21.3686 4.79638 21.5106 4.82715 21.6467C4.85791 21.7827 4.92583 21.9076 5.02335 22.0074C5.12179 22.1066 5.24589 22.1765 5.38178 22.2093C5.51767 22.2421 5.65999 22.2364 5.79285 22.193H5.80748L6.00998 22.1705C6.23835 22.103 6.46335 22.0197 6.68273 21.9252C7.1046 21.7565 7.54223 21.6271 7.98998 21.5427C8.14523 21.5517 8.29373 21.6046 8.41973 21.6946L8.75723 21.6384C9.48848 23.9075 11.0252 25.8301 13.0772 27.0417L12.94 27.3286C13.003 27.4602 13.0266 27.6065 13.0075 27.7516C12.8219 28.1814 12.5946 28.5931 12.3291 28.9801C12.1835 29.1721 12.049 29.3723 11.9264 29.5797L11.8307 29.7822C11.7613 29.9026 11.7266 30.0398 11.7303 30.1786C11.7339 30.3175 11.7759 30.4527 11.8516 30.5692C11.9272 30.6857 12.0336 30.779 12.159 30.8389C12.2843 30.8987 12.4238 30.9228 12.562 30.9084C12.7005 30.8928 12.8319 30.8391 12.9418 30.7533C13.0516 30.6675 13.1355 30.553 13.1841 30.4224L13.2775 30.2311C13.363 30.0061 13.435 29.7766 13.4935 29.5449C13.6926 29.0532 13.8006 28.5256 14.0729 28.1994C14.1618 28.1157 14.274 28.0608 14.3946 28.0419L14.5634 27.7347C16.7877 28.5897 19.2491 28.5957 21.4776 27.7516L21.6272 28.0385C21.7802 28.061 21.9175 28.1454 22.0097 28.2691C22.2212 28.6719 22.3922 29.0937 22.5227 29.5291C22.5822 29.7622 22.6551 29.9917 22.741 30.2165L22.8344 30.4077C22.8835 30.5378 22.9676 30.6518 23.0775 30.7371C23.1873 30.8223 23.3186 30.8755 23.4569 30.8908C23.5951 30.906 23.7348 30.8828 23.8607 30.8235C23.9865 30.7643 24.0934 30.6714 24.1697 30.5551C24.2453 30.4382 24.287 30.3025 24.2901 30.1633C24.2933 30.0241 24.2579 29.8868 24.1877 29.7665L24.0899 29.564C23.9672 29.3573 23.8327 29.1578 23.6871 28.9666C23.4284 28.5931 23.2056 28.1949 23.0121 27.7775C22.994 27.7012 22.9915 27.622 23.0047 27.5447C23.0178 27.4674 23.0463 27.3935 23.0886 27.3275C23.0406 27.2294 22.9989 27.1283 22.9637 27.0249C25.0112 25.8042 26.5412 23.8749 27.2646 21.6024L27.5841 21.6586C27.6989 21.554 27.8496 21.4989 28.0037 21.5034C28.4504 21.5889 28.888 21.7284 29.311 21.8859C29.5304 21.9871 29.7554 22.0726 29.9837 22.1446C30.0377 22.1592 30.1165 22.1716 30.1772 22.1862H30.1919C30.3246 22.2291 30.4667 22.2343 30.6023 22.2012C30.7378 22.1681 30.8615 22.098 30.9596 21.9988C31.0577 21.8995 31.1263 21.775 31.1578 21.6391C31.1893 21.5031 31.1824 21.3611 31.138 21.2289C31.0925 21.0967 31.0112 20.9798 30.9031 20.8912C30.7951 20.8026 30.6645 20.7458 30.526 20.7271L30.3077 20.6754C30.069 20.6428 29.8286 20.624 29.5877 20.6191C29.1332 20.5899 28.6832 20.5156 28.2445 20.3975C28.1095 20.3221 27.997 20.2096 27.9205 20.0735L27.6167 19.9835C27.9406 17.621 27.3857 15.2218 26.0575 13.2414L26.323 12.9961C26.3117 12.842 26.3624 12.689 26.4625 12.5709C26.8079 12.2739 27.1825 12.0117 27.5762 11.7879C27.79 11.6787 27.9974 11.5574 28.1972 11.4245L28.3615 11.2917C28.4824 11.2167 28.5796 11.1089 28.6419 10.9809C28.7041 10.8529 28.7288 10.7099 28.7132 10.5684C28.6975 10.427 28.6421 10.2928 28.5534 10.1815C28.4647 10.0702 28.3463 9.98629 28.2119 9.93949C28.0775 9.89274 27.9328 9.88494 27.7942 9.91699C27.6556 9.94904 27.529 10.0196 27.4289 10.1206L27.2624 10.2534C27.0886 10.4182 26.9245 10.5929 26.7707 10.7765C26.4737 11.1162 26.1452 11.4256 25.7886 11.7024C25.6447 11.761 25.4873 11.7781 25.3341 11.7519L25.0495 11.9544C23.407 10.2331 21.1941 9.16436 18.8226 8.95061C18.8226 8.83811 18.808 8.66936 18.8057 8.61649C18.6786 8.52874 18.5897 8.39486 18.5605 8.24299C18.5449 7.78866 18.5735 7.33389 18.646 6.88511C18.6944 6.64886 18.7281 6.41261 18.7495 6.17299V5.94799C18.772 5.51599 18.4457 5.14586 18.0126 5.11549L18.0025 5.10986ZM17.0642 10.9216L16.8392 14.8512H16.8224C16.8111 15.0942 16.6682 15.3012 16.4489 15.4182C16.2295 15.5352 15.9696 15.5004 15.7739 15.3575L12.5507 13.0737C13.5766 12.0661 14.8636 11.3651 16.2666 11.0499C16.5299 10.9936 16.7954 10.9509 17.062 10.9216H17.0642ZM18.9407 10.9216C20.6339 11.132 22.21 11.8925 23.4295 13.0861L20.2367 15.3552C20.0399 15.5127 19.7699 15.5442 19.5415 15.4362C19.3131 15.3282 19.1669 15.0987 19.1635 14.8467L18.9407 10.9216ZM11.3807 14.552L14.3282 17.1822V17.1991C14.5116 17.3589 14.5915 17.6075 14.5375 17.8449C14.4835 18.0822 14.3012 18.2701 14.0684 18.3342V18.3455L10.2861 19.4334C10.0989 17.7293 10.4845 16.0115 11.3819 14.5509L11.3807 14.552ZM24.6029 14.552C25.4984 16.0089 25.8944 17.7177 25.7301 19.4199L21.9422 18.3286V18.314C21.706 18.2499 21.526 18.062 21.4731 17.8246C21.4202 17.5872 21.499 17.3409 21.6824 17.1789L24.6074 14.561L24.6029 14.552ZM17.3984 17.387H18.6044L19.3412 18.323L19.0735 19.493L17.9901 20.0139L16.9045 19.493L16.6491 18.323L17.3984 17.387ZM21.2616 20.5797C21.3122 20.5741 21.3741 20.5741 21.4135 20.5797L25.3139 21.2379C24.7514 22.8579 23.641 24.2416 22.192 25.1675L20.6845 21.518C20.643 21.4201 20.6257 21.3136 20.634 21.2076C20.6422 21.1016 20.6758 20.9992 20.732 20.9089C20.7881 20.8186 20.8651 20.7431 20.9565 20.6887C21.0479 20.6344 21.151 20.6028 21.2571 20.5966L21.2616 20.5797ZM14.7107 20.5966C14.9312 20.6 15.1349 20.7136 15.2552 20.8981C15.3756 21.0826 15.3947 21.3144 15.3081 21.5169V21.5315L13.8096 25.1517C12.3752 24.2326 11.2862 22.8657 10.7069 21.2626L14.5735 20.6067C14.6162 20.6022 14.6601 20.6022 14.704 20.6067L14.7107 20.5966ZM17.9777 22.1716C18.1006 22.1677 18.2222 22.1981 18.3289 22.2593C18.4356 22.3204 18.5231 22.4101 18.5819 22.5181H18.5965L20.5022 25.9572L19.7406 26.1822C18.3389 26.5029 16.8752 26.4275 15.5129 25.964L17.4254 22.5249C17.5412 22.3224 17.755 22.1986 17.9879 22.193L17.9777 22.1716Z" fill="white" stroke="white" stroke-width="0.11"></path>
  </g>
  <defs>
    <clipPath id="clip0_9541_122976">
      <rect width="36" height="36" fill="white"></rect>
    </clipPath>
  </defs>
</svg>
