<?xml version="1.0" encoding="UTF-8"?>
<svg xmlns="http://www.w3.org/2000/svg" width="36" height="36" viewBox="0 0 36 36" fill="none">
  <g clip-path="url(#clip0_9534_120236)">
    <path d="M35.9157 8.21349C35.929 8.26119 35.9359 8.31037 35.936 8.35978V16.0401C35.936 16.1386 35.9091 16.2355 35.858 16.3208C35.8069 16.4061 35.7335 16.4768 35.645 16.5259L28.9802 20.2372V27.5934C28.9802 27.7936 28.8702 27.9784 28.6907 28.0792L14.7785 35.8253C14.7467 35.8428 14.7119 35.854 14.6772 35.8659C14.6642 35.8701 14.6519 35.8778 14.6381 35.8813C14.5409 35.906 14.4386 35.906 14.3414 35.8813C14.3255 35.8771 14.311 35.8687 14.2958 35.8631C14.264 35.8519 14.2307 35.8421 14.2003 35.8253L0.290939 28.0792C0.202577 28.0301 0.129157 27.9593 0.078079 27.874C0.0270011 27.7888 7.0013e-05 27.692 0 27.5934L0 4.55254C0 4.50214 0.00723728 4.45314 0.0202644 4.40554C0.0246067 4.38944 0.0347389 4.37474 0.0405288 4.35864C0.0513847 4.32924 0.0615169 4.29914 0.0774389 4.27184C0.0882948 4.25364 0.104217 4.23895 0.117244 4.22215C0.13389 4.19975 0.149088 4.17665 0.168629 4.15705C0.185274 4.14095 0.206986 4.12905 0.225803 4.11505C0.246791 4.09825 0.265608 4.08005 0.289491 4.06675L7.24524 0.193705C7.3333 0.144692 7.43313 0.118896 7.53473 0.118896C7.63633 0.118896 7.73616 0.144692 7.82422 0.193705L14.7792 4.06675H14.7807C14.8039 4.08075 14.8234 4.09825 14.8444 4.11435C14.8632 4.12835 14.8842 4.14095 14.9008 4.15635C14.9211 4.17665 14.9356 4.19975 14.9529 4.22215C14.9652 4.23895 14.9819 4.25364 14.992 4.27184C15.0087 4.29984 15.0181 4.32924 15.0297 4.35864C15.0354 4.37474 15.0456 4.38944 15.0499 4.40624C15.0632 4.45394 15.0701 4.50313 15.0702 4.55254V18.9436L20.8658 15.716V8.35908C20.8658 8.31008 20.873 8.26038 20.8861 8.21349C20.8911 8.19669 20.9005 8.18199 20.9063 8.16589C20.9179 8.13649 20.928 8.10639 20.944 8.07909C20.9548 8.06089 20.9707 8.04619 20.983 8.02939C21.0004 8.00699 21.0149 7.98389 21.0351 7.96429C21.0518 7.94819 21.0728 7.93629 21.0916 7.92229C21.1133 7.90549 21.1321 7.88729 21.1553 7.87399L28.1118 4.00095C28.1998 3.95187 28.2996 3.92603 28.4012 3.92603C28.5029 3.92603 28.6027 3.95187 28.6907 4.00095L35.6458 7.87399C35.6704 7.88799 35.6892 7.90549 35.7109 7.92159C35.729 7.93559 35.75 7.94819 35.7666 7.96359C35.7869 7.98389 35.8014 8.00699 35.8187 8.02939C35.8318 8.04619 35.8477 8.06089 35.8578 8.07909C35.8745 8.10639 35.8839 8.13649 35.8955 8.16589C35.902 8.18199 35.9114 8.19669 35.9157 8.21349ZM34.7766 15.716V9.32927L32.3427 10.6844L28.9802 12.5569V18.9436L34.7773 15.716H34.7766ZM27.8215 27.2693V20.8784L24.5141 22.7054L15.0695 27.9189V34.37L27.8215 27.2693ZM1.15941 5.52203V27.2693L13.91 34.3693V27.9196L7.24886 24.2733L7.24669 24.2719L7.24379 24.2705C7.22136 24.2579 7.20254 24.2397 7.18155 24.2243C7.16346 24.2103 7.14247 24.1991 7.12655 24.1837L7.1251 24.1816C7.10628 24.1641 7.09326 24.1424 7.07733 24.1228C7.06286 24.1039 7.04549 24.0878 7.03391 24.0682L7.03319 24.0661C7.02016 24.0451 7.0122 24.0199 7.00279 23.9961C6.99338 23.9751 6.98108 23.9555 6.97529 23.9332C6.96805 23.9066 6.9666 23.8779 6.96371 23.8506C6.96081 23.8296 6.95502 23.8086 6.95502 23.7876V8.74968L3.59331 6.87651L1.15941 5.52203ZM7.53545 1.32629L1.74057 4.55254L7.53401 7.77879L13.3282 4.55184L7.53401 1.32629H7.53545ZM10.5491 21.4608L13.9108 19.589V5.52203L11.4769 6.87721L8.11444 8.74968V22.8167L10.5491 21.4608ZM28.4012 5.13353L22.6071 8.35978L28.4012 11.586L34.1947 8.35908L28.4012 5.13353ZM27.8215 12.5569L24.4591 10.6844L22.0252 9.32927V15.716L25.3869 17.5877L27.8215 18.9436V12.5569ZM14.489 26.9494L22.9878 22.2567L27.236 19.9117L21.4462 16.6876L14.78 20.3996L8.70427 23.7827L14.489 26.9494Z" fill="#FF2D20"></path>
  </g>
  <defs>
    <clipPath id="clip0_9534_120236">
      <rect width="36" height="36" fill="white"></rect>
    </clipPath>
  </defs>
</svg>
