<svg width="36" height="36" viewBox="0 0 36 36" fill="none" xmlns="http://www.w3.org/2000/svg">
<g id="NestJS" clip-path="url(#clip0_10442_70014)">
<path id="Vector" d="M21.1972 0C20.9369 0 20.6952 0.0560027 20.472 0.130669C20.9462 0.448008 21.2065 0.868019 21.3367 1.34403C21.346 1.40936 21.3646 1.45603 21.3739 1.52136C21.3832 1.57736 21.3925 1.63337 21.3925 1.68937C21.4297 2.51071 21.1786 2.61338 21.002 3.09873C20.7324 3.72407 20.8067 4.39609 21.1321 4.93743C21.16 5.00276 21.1972 5.07743 21.2437 5.14277C20.8904 2.78139 22.8521 2.42671 23.2147 1.68937C23.2426 1.04535 22.7126 0.616012 22.2943 0.317339C21.8945 0.0746683 21.5319 0 21.1972 0ZM24.1537 0.532011C24.1165 0.746681 24.1444 0.69068 24.1351 0.802683C24.1258 0.87735 24.1258 0.970687 24.1165 1.04535C24.0979 1.12002 24.0793 1.19469 24.0514 1.26936C24.0329 1.34403 24.005 1.41869 23.9771 1.49336C23.9399 1.56803 23.912 1.63337 23.8748 1.70803C23.8469 1.74538 23.8283 1.7827 23.8004 1.82004C23.7818 1.84804 23.7632 1.87604 23.7446 1.90404C23.6982 1.96937 23.6517 2.03471 23.6052 2.09071C23.5494 2.14671 23.5029 2.21204 23.4378 2.25871C23.4378 2.26806 23.4378 2.26806 23.4378 2.26806C23.382 2.31473 23.3263 2.37073 23.2612 2.41739C23.066 2.56673 22.8428 2.67873 22.6383 2.81873C22.5732 2.8654 22.5081 2.90274 22.4523 2.95874C22.3873 3.0054 22.3315 3.05207 22.2757 3.10807C22.2106 3.16407 22.1641 3.22008 22.1084 3.28541C22.0619 3.34141 22.0061 3.40675 21.9689 3.47208C21.9224 3.53741 21.8759 3.60275 21.8387 3.66808C21.8015 3.74275 21.7737 3.80809 21.7365 3.88275C21.7086 3.95742 21.6807 4.02276 21.6621 4.09742C21.6342 4.18143 21.6156 4.25609 21.597 4.33076C21.5877 4.36811 21.5877 4.41476 21.5784 4.4521C21.5691 4.48945 21.5691 4.52677 21.5599 4.5641C21.5599 4.63877 21.5505 4.72277 21.5505 4.79744C21.5505 4.85344 21.5505 4.90944 21.5599 4.96544C21.5599 5.04011 21.5692 5.11478 21.5877 5.19878C21.5971 5.27345 21.6156 5.34811 21.6342 5.42279C21.6621 5.49745 21.6807 5.57212 21.7086 5.64679C21.7272 5.69346 21.7551 5.74013 21.7737 5.77746L19.6354 4.94677C19.2728 4.84411 18.9195 4.75077 18.5569 4.66677C18.3617 4.6201 18.1664 4.57343 17.9712 4.52677C17.4134 4.41477 16.8463 4.33077 16.2791 4.27477C16.2606 4.27477 16.2512 4.26542 16.2326 4.26542C15.6748 4.20942 15.1263 4.18142 14.5685 4.18142C14.1594 4.18142 13.7503 4.20007 13.3506 4.22808C12.7834 4.26543 12.2163 4.34009 11.6492 4.43342C11.5097 4.45207 11.3703 4.48009 11.2308 4.50809C10.9426 4.56409 10.6637 4.62943 10.3941 4.69476C10.2546 4.73211 10.1152 4.76943 9.97572 4.80676C9.83627 4.86276 9.70611 4.9281 9.57595 4.9841C9.47368 5.03077 9.37142 5.07743 9.26915 5.1241C9.25057 5.13345 9.23195 5.13345 9.22266 5.14276C9.12969 5.18942 9.04602 5.22675 8.96235 5.27342C8.93446 5.28277 8.91586 5.29208 8.89727 5.30143C8.795 5.34809 8.69273 5.40409 8.60906 5.45076C8.54398 5.47876 8.4789 5.5161 8.42312 5.5441C8.39523 5.56275 8.35804 5.58145 8.33944 5.59076C8.25577 5.63743 8.1721 5.6841 8.09772 5.73077C8.01405 5.77743 7.93967 5.8241 7.87459 5.87077C7.80951 5.91744 7.74443 5.95477 7.68865 6.00143C7.67933 6.01078 7.67007 6.01078 7.66076 6.02009C7.60497 6.05744 7.5399 6.10409 7.48411 6.15076C7.48411 6.15076 7.4748 6.16011 7.46554 6.16941C7.41905 6.20676 7.37256 6.24408 7.32608 6.28141C7.3075 6.29076 7.28888 6.30941 7.2703 6.31876C7.22381 6.35611 7.17733 6.40276 7.13084 6.4401C7.12153 6.45875 7.10295 6.4681 7.09364 6.47745C7.03786 6.53345 6.98207 6.58011 6.92629 6.63612C6.91698 6.63612 6.91698 6.64546 6.90771 6.65477C6.85193 6.70144 6.79615 6.75744 6.74036 6.81344C6.73105 6.82279 6.73105 6.83209 6.72178 6.83209C6.6753 6.87876 6.62882 6.92543 6.58233 6.98143C6.56375 7.00008 6.53584 7.01878 6.51725 7.03743C6.47077 7.09343 6.41498 7.14943 6.3592 7.20543C6.34989 7.22408 6.33131 7.23343 6.322 7.2521C6.24762 7.32677 6.18254 7.40144 6.10817 7.47611C6.09885 7.48545 6.08959 7.49476 6.08027 7.50411C5.93152 7.66278 5.77347 7.82144 5.60613 7.96145C5.43878 8.11078 5.26213 8.25078 5.08549 8.37212C4.89955 8.50279 4.7229 8.61479 4.52766 8.72679C4.34172 8.82946 4.14648 8.9228 3.94195 9.0068C3.74671 9.0908 3.54218 9.16547 3.33764 9.2308C2.94716 9.3148 2.54739 9.47347 2.2034 9.50147C2.12902 9.50147 2.04535 9.52013 1.97098 9.52947C1.8873 9.54813 1.81293 9.56682 1.73855 9.58548C1.66417 9.61348 1.58979 9.64148 1.51542 9.66948C1.44104 9.69748 1.36667 9.73481 1.29229 9.77215C1.22721 9.81881 1.15284 9.85615 1.08775 9.90282C1.02268 9.94948 0.957596 10.0055 0.901813 10.0615C0.836736 10.1082 0.771655 10.1735 0.715872 10.2295C0.660089 10.2948 0.604307 10.3508 0.557823 10.4162C0.511338 10.4908 0.455556 10.5562 0.418366 10.6308C0.371881 10.6962 0.325397 10.7708 0.288207 10.8455C0.251004 10.9295 0.213832 11.0042 0.18594 11.0882C0.158049 11.1628 0.130158 11.2468 0.102266 11.3308C0.0836868 11.4055 0.0650633 11.4802 0.0557823 11.5548C0.0557823 11.5642 0.0464709 11.5735 0.0464709 11.5828C0.0278912 11.6669 0.0278912 11.7789 0.0185795 11.8349C0.0092681 11.9002 0 11.9562 0 12.0215C0 12.0589 0 12.1055 0.00931136 12.1429C0.0186227 12.2082 0.0278908 12.2642 0.0465144 12.3202C0.065094 12.3762 0.0837175 12.4322 0.111591 12.4882C0.111591 12.4975 0.111591 12.4975 0.111591 12.4975C0.139483 12.5536 0.176673 12.6096 0.213858 12.6656C0.251061 12.7216 0.288238 12.7776 0.334722 12.8336C0.381206 12.8802 0.436989 12.9362 0.492772 12.9829C0.548555 13.0389 0.604338 13.0856 0.669414 13.1322C0.892545 13.3282 0.948328 13.3936 1.23654 13.5429C1.28302 13.5709 1.32951 13.5896 1.38529 13.6176C1.3946 13.6176 1.40387 13.6269 1.41318 13.6269C1.41318 13.6456 1.41318 13.6549 1.4225 13.6736C1.43181 13.7483 1.45039 13.8229 1.46898 13.8976C1.48756 13.9816 1.51547 14.0563 1.54336 14.1216C1.57125 14.1776 1.58984 14.2336 1.61774 14.2896C1.62705 14.3083 1.63632 14.327 1.64563 14.3363C1.68283 14.4109 1.72 14.4763 1.75719 14.5416C1.80368 14.6069 1.85016 14.6723 1.89664 14.7376C1.94313 14.7936 1.99891 14.8589 2.05469 14.9149C2.11048 14.9709 2.16626 15.0176 2.23134 15.0736C2.23134 15.0736 2.24065 15.083 2.24992 15.083C2.3057 15.1296 2.36149 15.1763 2.41727 15.2136C2.48235 15.2603 2.54743 15.2976 2.6218 15.335C2.68688 15.3723 2.76126 15.4096 2.83564 15.4376C2.89142 15.4656 2.95649 15.4843 3.02158 15.503C3.03089 15.5123 3.04016 15.5123 3.05878 15.5216C3.09598 15.531 3.14245 15.5403 3.17964 15.5496C3.15175 16.0536 3.14244 16.5297 3.21684 16.6977C3.30051 16.8843 3.70958 16.315 4.11866 15.6616C4.06287 16.3057 4.02568 17.0617 4.11866 17.2857C4.22092 17.519 4.77875 16.791 5.26219 15.9883C11.8538 14.4576 17.869 19.031 18.5012 25.4898C18.3803 24.4818 17.1438 23.9218 16.5767 24.0618C16.2978 24.7525 15.8236 25.6392 15.0613 26.1898C15.1264 25.5738 15.0985 24.9392 14.9683 24.3231C14.7638 25.1818 14.364 25.9845 13.8155 26.6752C12.9323 26.7405 12.049 26.3112 11.5842 25.6672C11.547 25.6392 11.5377 25.5832 11.5098 25.5458C11.4819 25.4805 11.454 25.4152 11.4354 25.3498C11.4075 25.2845 11.389 25.2192 11.3797 25.1538C11.3703 25.0885 11.3703 25.0232 11.3703 24.9485C11.3703 24.9018 11.3703 24.8552 11.3703 24.8085C11.3797 24.7431 11.3982 24.6778 11.4168 24.6125C11.4354 24.5471 11.454 24.4818 11.4819 24.4165C11.5191 24.3511 11.547 24.2858 11.5935 24.2205C11.7515 23.7725 11.7515 23.4085 11.4633 23.1938C11.4075 23.1564 11.3517 23.1284 11.2867 23.1004C11.2495 23.0911 11.203 23.0724 11.1658 23.0631C11.1379 23.0538 11.1193 23.0444 11.0914 23.0351C11.0263 23.0164 10.9613 22.9977 10.8962 22.9884C10.8311 22.9698 10.766 22.9604 10.701 22.9604C10.6359 22.9511 10.5615 22.9418 10.4964 22.9418C10.4499 22.9418 10.4034 22.9511 10.357 22.9511C10.2826 22.9511 10.2175 22.9605 10.1524 22.9791C10.0873 22.9885 10.0223 22.9978 9.95719 23.0165C9.89211 23.0351 9.82703 23.0538 9.76195 23.0818C9.69687 23.1098 9.64109 23.1378 9.57601 23.1658C9.52023 23.1938 9.46445 23.2311 9.39936 23.2591C7.23315 24.6778 8.52544 28.0006 10.0037 28.9619C9.44585 29.0646 8.87873 29.1859 8.72068 29.3073C8.71137 29.3166 8.7021 29.3259 8.7021 29.3259C9.10188 29.5686 9.52024 29.7739 9.9572 29.9513C10.5522 30.1473 11.1844 30.3246 11.4633 30.3993V30.4086C12.235 30.5673 13.0159 30.6233 13.8062 30.5766C17.9248 30.2873 21.2996 27.1419 21.9132 22.9978C21.9318 23.0818 21.9504 23.1565 21.969 23.2405C21.9969 23.4085 22.0341 23.5858 22.0527 23.7631C22.0527 23.7631 22.0527 23.7631 22.0527 23.7725C22.0713 23.8565 22.0806 23.9405 22.0899 24.0152C22.0899 24.0338 22.0899 24.0432 22.0899 24.0525C22.0992 24.1365 22.1085 24.2205 22.1085 24.2952C22.1178 24.3979 22.127 24.5005 22.127 24.6032C22.127 24.6499 22.127 24.6965 22.127 24.7525C22.127 24.7992 22.1363 24.8552 22.1363 24.9019C22.1363 24.9579 22.127 25.0139 22.127 25.0699C22.127 25.1166 22.127 25.1632 22.127 25.2005C22.127 25.2659 22.1177 25.3219 22.1177 25.3872C22.1177 25.4246 22.1177 25.4619 22.1084 25.5086C22.1084 25.5739 22.0991 25.6392 22.0991 25.7139C22.0898 25.7419 22.0898 25.7699 22.0898 25.7979C22.0805 25.8726 22.0712 25.9379 22.0619 26.0126C22.0619 26.0406 22.0619 26.0686 22.0526 26.0966C22.0432 26.1899 22.0247 26.2739 22.0154 26.3672V26.3766V26.3859C21.9968 26.4699 21.9782 26.5633 21.9596 26.6473C21.9596 26.6566 21.9596 26.6659 21.9596 26.6753C21.941 26.7593 21.9224 26.8433 21.9038 26.9273C21.9038 26.9366 21.8945 26.9553 21.8945 26.9646C21.8759 27.0486 21.8573 27.1326 21.8294 27.2166C21.8294 27.226 21.8294 27.2353 21.8294 27.2446C21.8015 27.338 21.7736 27.422 21.755 27.506C21.7457 27.5153 21.7457 27.5246 21.7457 27.5246C21.7178 27.618 21.6899 27.7113 21.6621 27.8046C21.6249 27.898 21.597 27.982 21.5598 28.0753C21.5226 28.1686 21.4947 28.262 21.4575 28.346C21.4203 28.4393 21.3831 28.5233 21.346 28.6167H21.3366C21.2994 28.7007 21.2623 28.794 21.2158 28.878C21.2065 28.906 21.1972 28.9247 21.1879 28.9433C21.1786 28.9527 21.1786 28.962 21.1693 28.9713C20.565 30.194 19.6725 31.2674 18.5568 32.1074C18.4825 32.1541 18.4081 32.2101 18.3337 32.2661C18.3151 32.2847 18.2872 32.2941 18.2686 32.3127C18.2035 32.3594 18.1385 32.4061 18.0641 32.4527L18.092 32.5087H18.1013C18.2314 32.4901 18.3616 32.4714 18.4918 32.4527H18.5011C18.7428 32.4154 18.9845 32.3687 19.2262 32.3221C19.2913 32.3127 19.3657 32.2941 19.4308 32.2754C19.4773 32.266 19.5145 32.2567 19.5609 32.2474C19.626 32.238 19.6911 32.2194 19.7562 32.21C19.812 32.1914 19.8677 32.182 19.9235 32.1634C20.8532 31.9394 21.755 31.6314 22.6197 31.2674C21.1414 33.2927 19.1612 34.9261 16.8462 35.9994C17.9154 35.9248 18.9845 35.7474 20.0165 35.4488C23.7632 34.3381 26.9149 31.8087 28.8022 28.402C28.421 30.558 27.5657 32.6114 26.3013 34.4034C27.2031 33.8061 28.0306 33.1154 28.7836 32.3314C30.8662 30.1473 32.2328 27.3753 32.6977 24.3979C33.0138 25.8726 33.1067 27.3939 32.9673 28.8966C39.6798 19.4978 33.5251 9.7536 30.9498 7.18689C30.9405 7.16823 30.9313 7.15889 30.9313 7.14022C30.9219 7.14957 30.9219 7.14957 30.9219 7.15887C30.9219 7.14953 30.9219 7.14953 30.9126 7.14022C30.9126 7.25222 30.9033 7.36422 30.894 7.47623C30.8661 7.6909 30.8383 7.89623 30.8011 8.10157C30.7546 8.30691 30.6988 8.51224 30.643 8.71758C30.5779 8.91358 30.5036 9.11892 30.4199 9.31493C30.3362 9.50159 30.2432 9.6976 30.141 9.88427C30.0387 10.0616 29.9271 10.2483 29.8063 10.4163C29.6854 10.5936 29.5553 10.7616 29.4251 10.9203C29.2856 11.0883 29.1369 11.2376 28.9881 11.387C28.8952 11.471 28.8115 11.5456 28.7185 11.6203C28.6441 11.6856 28.5791 11.7416 28.5047 11.807C28.3373 11.9376 28.17 12.059 27.9841 12.171C27.8074 12.283 27.6215 12.395 27.4355 12.4883C27.2403 12.5817 27.0451 12.6657 26.8498 12.7497C26.6546 12.8243 26.45 12.8897 26.2455 12.9457C26.041 13.0017 25.8271 13.0483 25.6226 13.0857C25.4088 13.123 25.1949 13.1417 24.9904 13.1603C24.8417 13.1697 24.6929 13.179 24.5441 13.179C24.3303 13.179 24.1165 13.1603 23.912 13.1416C23.6981 13.123 23.4843 13.095 23.2798 13.0483C23.0659 13.011 22.8614 12.955 22.6568 12.8896H22.6475C22.8521 12.871 23.0566 12.8523 23.2611 12.815C23.475 12.7776 23.6795 12.731 23.8841 12.675C24.0886 12.619 24.2931 12.5536 24.4884 12.479C24.6929 12.4043 24.8881 12.311 25.0741 12.2176C25.2693 12.1243 25.446 12.0216 25.6319 11.9096C25.8085 11.7883 25.9852 11.6669 26.1525 11.5363C26.3199 11.4056 26.4779 11.2656 26.6267 11.1163C26.7847 10.9763 26.9242 10.8176 27.0636 10.6589C27.2031 10.4909 27.3333 10.3229 27.4541 10.1549C27.4727 10.1269 27.4913 10.0896 27.5099 10.0616C27.6029 9.91224 27.6958 9.76291 27.7795 9.61357C27.8818 9.4269 27.9748 9.24023 28.0584 9.04423C28.1421 8.84822 28.2165 8.65222 28.2816 8.44688C28.3466 8.25087 28.3931 8.04554 28.4396 7.8402C28.4768 7.62553 28.514 7.42019 28.5326 7.21486C28.5512 7.00019 28.5698 6.78551 28.5698 6.58018C28.5698 6.43084 28.5605 6.28151 28.5512 6.13217C28.5326 5.9175 28.5047 5.71216 28.4768 5.50682C28.4396 5.29215 28.3932 5.08682 28.3374 4.88148C28.2723 4.68548 28.2072 4.48014 28.1328 4.28414C28.0585 4.08813 27.9655 3.89213 27.8725 3.70545C27.7702 3.51878 27.668 3.33212 27.5564 3.15478C27.4356 2.97745 27.3147 2.80944 27.1845 2.64144C27.0451 2.48277 26.9056 2.3241 26.7569 2.16543C26.6825 2.09076 26.5988 2.00676 26.5151 1.93209C26.0968 1.60542 25.6598 1.29741 25.2229 1.01741C25.1578 0.980057 25.102 0.95207 25.0369 0.924068C24.7301 0.728067 24.4419 0.625343 24.1537 0.532011Z" fill="#E0234E"/>
</g>
<defs>
<clipPath id="clip0_10442_70014">
<rect width="36" height="36" fill="white"/>
</clipPath>
</defs>
</svg>
