<?xml version="1.0" encoding="UTF-8"?>
<svg xmlns="http://www.w3.org/2000/svg" width="36" height="36" viewBox="0 0 36 36" fill="none">
  <ellipse cx="18" cy="17.961" rx="17.5781" ry="9.24225" fill="url(#paint0_radial_9534_120204)"></ellipse>
  <ellipse cx="17.9999" cy="17.9609" rx="16.8915" ry="8.5556" fill="#6181B6"></ellipse>
  <path fill-rule="evenodd" clip-rule="evenodd" d="M21.4194 20.735L22.2572 16.4229C22.4494 15.4479 22.2846 14.72 21.7902 14.2668C21.3096 13.8274 20.4856 13.6077 19.2771 13.6077H17.8214L18.2334 11.4653C18.2471 11.3829 18.2334 11.3005 18.1785 11.2319C18.1235 11.1632 18.0549 11.1357 17.9725 11.1357H15.9675C15.8301 11.1357 15.7203 11.2319 15.6928 11.3555L14.8002 15.9285C14.7178 15.4067 14.5255 14.9672 14.1959 14.6102C13.6054 13.9373 12.6853 13.5939 11.4356 13.5939H7.57667C7.43934 13.5939 7.32948 13.6901 7.30201 13.8137L5.503 23.0971C5.48927 23.1795 5.503 23.2619 5.55793 23.3306C5.61286 23.3992 5.68153 23.4267 5.76393 23.4267H7.78266C7.91999 23.4267 8.02986 23.3306 8.05732 23.207L8.49677 20.9685H9.99366C10.7764 20.9685 11.4493 20.8861 11.9575 20.7213C12.4931 20.5428 12.9737 20.2544 13.3994 19.8561C13.7427 19.5403 14.0311 19.1832 14.2509 18.7987L13.8938 20.6526C13.8801 20.735 13.8938 20.8174 13.9487 20.8861C14.0037 20.9548 14.0723 20.9822 14.1547 20.9822H16.1597C16.2971 20.9822 16.4069 20.8861 16.4344 20.7625L17.4232 15.6813H18.7965C19.387 15.6813 19.5518 15.7912 19.6067 15.8461C19.6479 15.8873 19.7303 16.0521 19.6342 16.5602L18.8377 20.6664C18.8239 20.7488 18.8377 20.8312 18.8926 20.8998C18.9475 20.9685 19.0162 20.996 19.0986 20.996H21.1585C21.2821 20.9548 21.392 20.8586 21.4194 20.735ZM12.136 17.1645C12.0124 17.8099 11.7789 18.2769 11.4356 18.5378C11.0923 18.7987 10.5292 18.936 9.78767 18.936H8.89503L9.54047 15.6127H10.694C11.5455 15.6127 11.8888 15.7912 12.0261 15.9423C12.2047 16.162 12.2459 16.5877 12.136 17.1645Z" fill="white"></path>
  <path fill-rule="evenodd" clip-rule="evenodd" d="M29.989 14.6102C29.3985 13.9373 28.4784 13.594 27.2287 13.594H23.3423C23.205 13.594 23.0951 13.6901 23.0676 13.8137L21.2686 23.0834C21.2549 23.1658 21.2686 23.2482 21.3236 23.3169C21.3785 23.3856 21.4472 23.413 21.5296 23.413H23.5483C23.6856 23.413 23.7955 23.3169 23.8229 23.1933L24.2624 20.9548H25.7593C26.5421 20.9548 27.215 20.8724 27.7231 20.7076C28.2587 20.5291 28.7393 20.2407 29.165 19.8425C29.5221 19.5129 29.8242 19.1421 30.044 18.7438C30.2637 18.3456 30.4285 17.9061 30.5246 17.4255C30.7581 16.2307 30.5795 15.2969 29.989 14.6102ZM27.8879 17.1646C27.7643 17.81 27.5308 18.2769 27.1875 18.5378C26.8442 18.7988 26.2811 18.9361 25.5396 18.9361H24.6469L25.2924 15.6127H26.4459C27.2974 15.6127 27.6407 15.7913 27.778 15.9423C27.9703 16.162 28.0115 16.5878 27.8879 17.1646Z" fill="white"></path>
  <path fill-rule="evenodd" clip-rule="evenodd" d="M10.6937 15.3381C11.4628 15.3381 11.9709 15.4754 12.2318 15.7638C12.4927 16.0522 12.5477 16.5328 12.4103 17.2195C12.273 17.9336 11.9984 18.4554 11.6001 18.7576C11.2018 19.0597 10.5976 19.2108 9.78735 19.2108H8.56512L9.32043 15.3381H10.6937ZM5.77734 23.1384H7.79608L8.27673 20.6802H10.0071C10.7761 20.6802 11.3941 20.5978 11.8885 20.433C12.3829 20.2682 12.8223 20.0073 13.2343 19.6227C13.5776 19.3069 13.8523 18.9636 14.0583 18.5928C14.2643 18.222 14.4153 17.81 14.4977 17.3568C14.7175 16.2582 14.5527 15.4067 14.0171 14.7888C13.4815 14.1708 12.6301 13.8687 11.4628 13.8687H7.57635L5.77734 23.1384Z" fill="#000004"></path>
  <path fill-rule="evenodd" clip-rule="evenodd" d="M15.9807 11.4104H17.9857L17.505 13.8686H19.2903C20.4164 13.8686 21.1854 14.0609 21.6111 14.4591C22.0369 14.8574 22.1605 15.4891 21.9957 16.368L21.158 20.6801H19.1255L19.922 16.574C20.0181 16.1071 19.9769 15.7912 19.8259 15.6264C19.6748 15.4616 19.3315 15.3655 18.8234 15.3655H17.2166L16.1866 20.6801H14.1816L15.9807 11.4104Z" fill="#000004"></path>
  <path fill-rule="evenodd" clip-rule="evenodd" d="M26.4457 15.3381C27.2147 15.3381 27.7228 15.4754 27.9838 15.7638C28.2447 16.0522 28.2996 16.5328 28.1623 17.2195C28.025 17.9336 27.7503 18.4554 27.3521 18.7576C26.9538 19.0597 26.3495 19.2108 25.5393 19.2108H24.3171L25.0724 15.3381H26.4457ZM21.5293 23.1384H23.548L24.0287 20.6802H25.759C26.5281 20.6802 27.1461 20.5978 27.6404 20.433C28.1348 20.2682 28.5743 20.0073 28.9863 19.6227C29.3296 19.3069 29.6042 18.9636 29.8102 18.5928C30.0162 18.222 30.1673 17.81 30.2497 17.3568C30.4694 16.2582 30.3046 15.4067 29.769 14.7888C29.2335 14.1708 28.382 13.8687 27.2147 13.8687H23.3283L21.5293 23.1384Z" fill="#000004"></path>
  <defs>
    <radialGradient id="paint0_radial_9534_120204" cx="0" cy="0" r="1" gradientUnits="userSpaceOnUse" gradientTransform="translate(10.9759 11.969) scale(49.8582 26.2145)">
      <stop stop-color="white"></stop>
      <stop offset="0.5" stop-color="#4C6B97"></stop>
      <stop offset="1" stop-color="#231F20"></stop>
    </radialGradient>
  </defs>
</svg>
