<?xml version="1.0" encoding="UTF-8"?>
<svg xmlns="http://www.w3.org/2000/svg" width="36" height="36" viewBox="0 0 36 36" fill="none">
  <g clip-path="url(#clip0_9534_120227)">
    <path d="M17.8272 0.140625C8.71018 0.140626 9.2795 4.09432 9.2795 4.09432L9.28967 8.19031H17.9898V9.42013H5.83399C5.83399 9.42013 0 8.7585 0 17.9577C-6.5025e-07 27.1569 5.09204 26.8306 5.09204 26.8306H8.131V22.5619C8.131 22.5619 7.96719 17.4698 13.1417 17.4698H21.7708C21.7708 17.4698 26.6189 17.5482 26.6189 12.7843V4.90742C26.6189 4.90742 27.3549 0.140625 17.8272 0.140625ZM13.0299 2.895C13.8955 2.895 14.5951 3.59462 14.5951 4.46022C14.5951 5.32582 13.8955 6.02544 13.0299 6.02544C12.1643 6.02544 11.4647 5.32582 11.4647 4.46022C11.4647 3.59462 12.1643 2.895 13.0299 2.895Z" fill="url(#paint0_linear_9534_120227)"></path>
    <path d="M18.0861 35.867C27.2031 35.867 26.6338 31.9133 26.6338 31.9133L26.6236 27.8173H17.9235V26.5875H30.0793C30.0793 26.5875 35.9133 27.2491 35.9133 18.0499C35.9133 8.85075 30.8213 9.17697 30.8213 9.17697H27.7823V13.4457C27.7823 13.4457 27.9461 18.5378 22.7716 18.5378H14.1425C14.1425 18.5378 9.29443 18.4594 9.29443 23.2233V31.1002C9.29443 31.1002 8.55836 35.867 18.0861 35.867ZM22.8834 33.1126C22.0178 33.1126 21.3181 32.413 21.3181 31.5474C21.3181 30.6818 22.0178 29.9822 22.8834 29.9822C23.749 29.9822 24.4486 30.6818 24.4486 31.5474C24.4486 32.413 23.749 33.1126 22.8834 33.1126Z" fill="url(#paint1_linear_9534_120227)"></path>
  </g>
  <defs>
    <linearGradient id="paint0_linear_9534_120227" x1="3.45134" y1="3.35411" x2="21.2487" y2="20.9739" gradientUnits="userSpaceOnUse">
      <stop stop-color="#387EB8"></stop>
      <stop offset="1" stop-color="#366994"></stop>
    </linearGradient>
    <linearGradient id="paint1_linear_9534_120227" x1="14.3753" y1="14.6684" x2="33.4878" y2="32.736" gradientUnits="userSpaceOnUse">
      <stop stop-color="#FFE052"></stop>
      <stop offset="1" stop-color="#FFC331"></stop>
    </linearGradient>
    <clipPath id="clip0_9534_120227">
      <rect width="36" height="36" fill="white"></rect>
    </clipPath>
  </defs>
</svg>
