<svg width="36" height="36" viewBox="0 0 36 36" fill="none" xmlns="http://www.w3.org/2000/svg">
<g id="SolidJS">
<g id="Group">
<path id="Vector" d="M36 8.2249C36 8.2249 24.0669 -0.785862 14.8075 1.31856L13.9944 1.54335C12.7283 1.90826 11.6205 2.68605 10.8473 3.753C10.7227 3.93396 10.6093 4.12244 10.5078 4.31737L7.08807 10.1284L12.9948 11.2811C14.2035 12.1334 15.5784 12.7213 17.0296 13.0064C18.4809 13.2915 19.9759 13.2675 21.4173 12.9359L31.9394 14.9925L36 8.2249Z" fill="#76B3E1"/>
<path id="Vector_2" opacity="0.3" d="M36 8.2249C36 8.2249 24.0669 -0.785862 14.8075 1.31856L13.9944 1.54335C12.7283 1.90826 11.6205 2.68605 10.8473 3.753C10.7227 3.93396 10.6093 4.12244 10.5078 4.31737L7.08807 10.1284L12.9948 11.2811C14.2035 12.1334 15.5784 12.7213 17.0296 13.0064C18.4809 13.2915 19.9759 13.2675 21.4173 12.9359L31.9394 14.9925L36 8.2249Z" fill="url(#paint0_linear_10439_46601)"/>
<path id="Vector_3" d="M10.7421 8.11031L9.92425 8.33988C6.14585 9.55949 4.8545 13.094 7.02588 16.1932C8.27953 17.7694 9.97574 18.9349 11.8967 19.54C13.8176 20.1451 15.8756 20.1622 17.8063 19.589L31.925 14.9927C31.925 14.9927 20.0159 6.00589 10.7421 8.11031Z" fill="#518AC8"/>
<path id="Vector_4" opacity="0.3" d="M10.7421 8.11031L9.92425 8.33988C6.14585 9.55949 4.8545 13.094 7.02588 16.1932C8.27953 17.7694 9.97574 18.9349 11.8967 19.54C13.8176 20.1451 15.8756 20.1622 17.8063 19.589L31.925 14.9927C31.925 14.9927 20.0159 6.00589 10.7421 8.11031Z" fill="url(#paint1_linear_10439_46601)"/>
<path id="Vector_5" d="M29.3424 18.3025C28.0907 16.7179 26.3925 15.545 24.4674 14.9354C22.5422 14.3258 20.4785 14.3075 18.5428 14.8828L4.43842 19.4552L0 27.3563L25.2674 31.6608L29.7967 23.6018C30.7007 22.057 30.6098 20.1104 29.3424 18.3025Z" fill="url(#paint2_linear_10439_46601)"/>
<path id="Vector_6" d="M24.9039 26.2033C23.6528 24.6248 21.9586 23.456 20.0387 22.8467C18.1189 22.2374 16.0608 22.2155 14.1283 22.7836L0 27.356C0 27.356 11.957 36.3667 21.1925 34.2623L22.0056 34.0375C25.7888 32.837 27.0801 29.3026 24.9039 26.2033Z" fill="url(#paint3_linear_10439_46601)"/>
</g>
</g>
<defs>
<linearGradient id="paint0_linear_10439_46601" x1="5.32323" y1="0.902461" x2="33.5129" y2="14.6003" gradientUnits="userSpaceOnUse">
<stop offset="0.1" stop-color="#76B3E1"/>
<stop offset="0.3" stop-color="#DCF2FD"/>
<stop offset="1" stop-color="#76B3E1"/>
</linearGradient>
<linearGradient id="paint1_linear_10439_46601" x1="20.7859" y1="7.6129" x2="15.8501" y2="24.0513" gradientUnits="userSpaceOnUse">
<stop stop-color="#76B3E1"/>
<stop offset="0.5" stop-color="#4377BB"/>
<stop offset="1" stop-color="#1F3B77"/>
</linearGradient>
<linearGradient id="paint2_linear_10439_46601" x1="3.25229" y1="14.7824" x2="31.7577" y2="34.1622" gradientUnits="userSpaceOnUse">
<stop stop-color="#315AA9"/>
<stop offset="0.5" stop-color="#518AC8"/>
<stop offset="1" stop-color="#315AA9"/>
</linearGradient>
<linearGradient id="paint3_linear_10439_46601" x1="16.1228" y1="17.1017" x2="4.62017" y2="59.281" gradientUnits="userSpaceOnUse">
<stop stop-color="#4377BB"/>
<stop offset="0.5" stop-color="#1A336B"/>
<stop offset="1" stop-color="#1A336B"/>
</linearGradient>
</defs>
</svg>
