<svg width="36" height="36" viewBox="0 0 36 36" fill="none" xmlns="http://www.w3.org/2000/svg">
<g id="Storybook" clip-path="url(#clip0_10439_46633)">
<path id="Subtract" fill-rule="evenodd" clip-rule="evenodd" d="M3.55616 3.45027L4.669 33.1024C4.70425 34.0416 5.45391 34.7968 6.39284 34.839L30.5012 35.9218C30.5282 35.923 30.5552 35.9236 30.5823 35.9236C31.5798 35.9236 32.3884 35.115 32.3884 34.1175V1.80621C32.3884 1.76862 32.3872 1.73105 32.3849 1.69354C32.3227 0.697978 31.4652 -0.0586441 30.4696 0.00357862L28.4866 0.127516L28.6314 4.27299C28.6366 4.4217 28.5202 4.54646 28.3715 4.55165C28.3078 4.55388 28.2454 4.53346 28.1954 4.49403L26.8597 3.44183L25.2783 4.64143C25.1597 4.73136 24.9907 4.70816 24.9008 4.58961C24.8629 4.5397 24.8436 4.47817 24.8462 4.41558L25.0155 0.344459L5.24837 1.57991C4.2703 1.64103 3.51941 2.47098 3.55616 3.45027ZM25.7852 13.4124C25.1499 13.906 20.4166 14.2428 20.4166 13.5401C20.5166 10.8587 19.3162 10.7412 18.6493 10.7412C18.0157 10.7412 16.9486 10.9327 16.9486 12.3692C16.9486 13.833 18.508 14.6593 20.3384 15.6293C22.9385 17.0072 26.0854 18.6748 26.0854 22.8711C26.0854 26.8931 22.8175 29.1149 18.6493 29.1149C14.3477 29.1149 10.5885 27.3745 11.0131 21.3408C11.1798 20.6323 16.6485 20.8007 16.6485 21.3408C16.5818 23.8306 17.1487 24.5629 18.5826 24.5629C19.683 24.5629 20.1832 23.9564 20.1832 22.935C20.1832 21.3891 18.5584 20.4769 16.6893 19.4275C14.1585 18.0066 11.1798 16.3342 11.1798 12.4968C11.1798 8.66635 13.8141 6.11268 18.5159 6.11268C23.2176 6.11268 25.7852 8.62722 25.7852 13.4124Z" fill="#FF4785"/>
</g>
<defs>
<clipPath id="clip0_10439_46633">
<rect width="36" height="36" fill="white"/>
</clipPath>
</defs>
</svg>
