<svg width="36" height="36" viewBox="0 0 36 36" fill="none" xmlns="http://www.w3.org/2000/svg">
<g id="Svelte">
<path id="Vector" d="M31.0871 4.76388C27.7394 -0.0202989 21.1262 -1.43827 16.3467 1.60275L7.94968 6.9465C6.81369 7.65756 5.83888 8.59758 5.08762 9.70643C4.33636 10.8153 3.8252 12.0685 3.58684 13.386C3.48037 13.9797 3.42637 14.5816 3.42547 15.1848C3.43077 16.8247 3.83343 18.439 4.59907 19.8899C3.88103 20.9788 3.39101 22.2016 3.15848 23.4846C2.92043 24.8287 2.95353 26.2067 3.25582 27.5378C3.55811 28.869 4.12351 30.1264 4.91887 31.2365C8.26655 36.0207 14.8944 37.4387 19.6592 34.3977L28.0475 29.0539C29.1828 28.342 30.1564 27.4008 30.9057 26.2908C31.6551 25.1808 32.1636 23.9265 32.3986 22.6086C32.5065 22.0161 32.5605 21.415 32.5599 20.8127C32.5579 19.176 32.1603 17.564 31.401 16.1135C32.1187 15.0254 32.6087 13.8037 32.8416 12.5217C32.9457 11.9287 32.9987 11.3278 33 10.7258C33.0005 8.58974 32.3316 6.50708 31.0871 4.76974V4.76388Z" fill="#FF3E00"/>
<path id="Vector_2" d="M15.5252 31.6875C14.977 31.829 14.4131 31.9009 13.8469 31.9014C12.7699 31.9016 11.7089 31.6411 10.7549 31.1421C9.80081 30.643 8.98219 29.9204 8.36919 29.0362C7.62051 27.9911 7.21832 26.7381 7.21907 25.4531C7.21948 25.0918 7.25089 24.7311 7.31296 24.375C7.3628 24.11 7.43043 23.8487 7.5154 23.5928L7.67384 23.1123L8.1022 23.4375C9.09664 24.1662 10.2078 24.721 11.3883 25.0781L11.6993 25.1719L11.6699 25.4824C11.6699 25.5352 11.6699 25.5908 11.6699 25.6436C11.6693 26.0321 11.7904 26.4111 12.0161 26.7276C12.1986 26.997 12.4441 27.2179 12.7315 27.3711C13.0189 27.5242 13.3393 27.605 13.665 27.6065C13.8353 27.6071 14.005 27.5854 14.1697 27.542C14.3524 27.4937 14.5265 27.4176 14.6861 27.3164L23.0743 21.9463C23.326 21.7872 23.5331 21.5669 23.6762 21.3061C23.8194 21.0453 23.8939 20.7525 23.8929 20.4551C23.8905 20.0666 23.7664 19.6885 23.5379 19.374C23.3527 19.108 23.1057 18.8907 22.818 18.7407C22.5303 18.5907 22.2106 18.5125 21.8861 18.5127C21.7158 18.5121 21.5461 18.5338 21.3814 18.5772C21.1993 18.6245 21.0259 18.7006 20.868 18.8028L17.6699 20.8418C17.1428 21.1754 16.568 21.4273 15.9653 21.5889C15.417 21.73 14.8532 21.8019 14.287 21.8028C13.2104 21.8026 12.1498 21.5422 11.1959 21.0437C10.242 20.5453 9.42315 19.8236 8.80929 18.9405C8.06149 17.8949 7.6594 16.6423 7.65917 15.3574C7.65958 14.9961 7.69099 14.6354 7.75306 14.2793C7.8965 13.4874 8.20322 12.734 8.65374 12.0667C9.10427 11.3995 9.68878 10.8331 10.3702 10.4033L18.7672 5.06252C19.2941 4.7277 19.8689 4.47481 20.4719 4.31252C21.0202 4.1722 21.5841 4.10133 22.1501 4.10158C23.2294 4.09882 24.2933 4.35755 25.2504 4.85557C26.2076 5.3536 27.0294 6.07606 27.6455 6.96096C28.3886 8.00907 28.7856 9.26269 28.7809 10.5469C28.7805 10.9093 28.7491 11.2709 28.687 11.628C28.6372 11.8929 28.5696 12.1543 28.4846 12.4102L28.3262 12.8906L27.8978 12.5772C26.9041 11.8474 25.7927 11.2925 24.6117 10.9365L24.3007 10.8399L24.3301 10.5293C24.3301 10.4766 24.3301 10.4209 24.3301 10.3682C24.3301 9.97883 24.2092 9.59906 23.9839 9.28127C23.7989 9.01561 23.5524 8.79854 23.2653 8.64857C22.9782 8.49859 22.659 8.42015 22.335 8.41994C22.1661 8.42367 21.9984 8.44928 21.8362 8.49612C21.6529 8.54259 21.4784 8.6188 21.3198 8.7217L12.9227 14.0625C12.7172 14.1927 12.5409 14.3641 12.4051 14.5658C12.2692 14.7675 12.1768 14.9952 12.1335 15.2344C12.1128 15.3368 12.1 15.4406 12.0954 15.5449C12.0952 15.9325 12.2162 16.3105 12.4416 16.626C12.6263 16.8918 12.8728 17.109 13.16 17.259C13.4471 17.409 13.7664 17.4874 14.0905 17.4873C14.2608 17.4879 14.4304 17.4663 14.5951 17.4229C14.7783 17.3759 14.9526 17.2997 15.1115 17.1973L18.3154 15.1465C18.8423 14.8124 19.4171 14.5605 20.0201 14.3994C20.5683 14.2581 21.1321 14.1863 21.6983 14.1856C22.7754 14.1855 23.8364 14.4458 24.7909 14.9443C25.7453 15.4427 26.5647 16.1645 27.179 17.0479C27.9268 18.0934 28.3289 19.3461 28.3291 20.6309C28.3299 20.9963 28.2975 21.3611 28.2323 21.7207C28.0895 22.5128 27.7831 23.2666 27.3325 23.9339C26.8819 24.6012 26.297 25.1675 25.6152 25.5967L17.2328 30.9375C16.705 31.2726 16.1292 31.5255 15.5252 31.6875Z" fill="white"/>
</g>
</svg>
