<svg width="36" height="36" viewBox="0 0 36 36" fill="none" xmlns="http://www.w3.org/2000/svg">
<g id="TypeScript" clip-path="url(#clip0_10439_46658)">
<g id="Group 758530483">
<path id="Vector" d="M0 18V0H36V36H0" fill="#007ACC"/>
<path id="Vector_2" d="M7.89301 18.0629V19.5299H12.573V32.8499H15.894V19.5299H20.574V18.0899C20.574 17.2799 20.574 16.6229 20.538 16.6049C20.538 16.5779 17.685 16.5689 14.22 16.5689L7.92001 16.5959V18.0719L7.89301 18.0629ZM28.926 16.5599C29.844 16.7759 30.546 17.1899 31.176 17.8469C31.509 18.2069 32.004 18.8369 32.04 18.9989C32.04 19.0529 30.483 20.1059 29.538 20.6909C29.502 20.7179 29.358 20.5649 29.214 20.3309C28.746 19.6649 28.269 19.3769 27.522 19.3229C26.442 19.2509 25.722 19.8179 25.722 20.7629C25.722 21.0509 25.776 21.2129 25.884 21.4469C26.127 21.9419 26.577 22.2389 27.972 22.8509C30.546 23.9579 31.662 24.6869 32.337 25.7309C33.102 26.9009 33.273 28.7369 32.76 30.1139C32.184 31.6169 30.78 32.6339 28.773 32.9669C28.143 33.0749 26.703 33.0569 26.028 32.9399C24.588 32.6699 23.211 31.9499 22.365 31.0229C22.032 30.6629 21.393 29.6999 21.429 29.6369L21.771 29.4209L23.121 28.6379L24.138 28.0439L24.372 28.3589C24.669 28.8269 25.335 29.4569 25.722 29.6729C26.892 30.2759 28.458 30.1949 29.232 29.4929C29.565 29.1869 29.709 28.8629 29.709 28.4129C29.709 27.9989 29.646 27.8099 29.439 27.4949C29.151 27.0989 28.575 26.7749 26.955 26.0549C25.092 25.2629 24.3 24.7589 23.562 23.9849C23.139 23.5169 22.752 22.7879 22.572 22.1849C22.437 21.6629 22.392 20.3849 22.518 19.8719C22.905 18.0719 24.264 16.8119 26.208 16.4519C26.838 16.3259 28.323 16.3799 28.944 16.5419L28.926 16.5599Z" fill="white"/>
</g>
</g>
<defs>
<clipPath id="clip0_10439_46658">
<rect width="36" height="36" fill="white"/>
</clipPath>
</defs>
</svg>
