<svg width="36" height="36" viewBox="0 0 36 36" fill="none" xmlns="http://www.w3.org/2000/svg">
<g id="UnitTest">
<g id="Subtract">
<path fill-rule="evenodd" clip-rule="evenodd" d="M13.5352 31.2435C18.415 31.2435 22.3708 27.3185 22.3708 22.4767C22.3708 17.6349 18.415 13.7098 13.5352 13.7098C8.65553 13.7098 4.69974 17.6349 4.69974 22.4767C4.69974 27.3185 8.65553 31.2435 13.5352 31.2435ZM15.5561 19.3523H14.0052L11.6554 25.5544H13.2063L15.5561 19.3523ZM11.0914 20.0984V21.7772L8.83551 22.8031L11.0914 23.9689V25.601L6.72063 23.456V22.2902L11.0914 20.0984ZM15.8851 21.7772V20.0984L20.2559 22.2902V23.456L15.8851 25.601V23.9689L18.141 22.8031L15.8851 21.7772Z" fill="#1F2122"/>
<path fill-rule="evenodd" clip-rule="evenodd" d="M16.7822 6.9646C17.5067 6.22543 17.953 5.21624 17.953 4.10363C17.953 1.83726 16.1014 0 13.8172 0C11.5331 0 9.68146 1.83726 9.68146 4.10363C9.68146 5.16754 10.0895 6.1369 10.7588 6.86601C10.9583 7.08339 11.0914 7.35848 11.0914 7.6525C11.0914 8.21642 10.6307 8.67358 10.0623 8.67358H3.00783C1.34665 8.67358 0 10.0098 0 11.658V33.0155C0 34.6638 1.34665 36 3.00783 36H23.7807C25.4419 36 26.7885 34.6638 26.7885 33.0155V26.4301C26.7885 25.6889 27.3941 25.0881 28.141 25.0881C28.5305 25.0881 28.8933 25.2641 29.1903 25.5141C29.9113 26.121 30.8447 26.487 31.8642 26.487C34.1484 26.487 36 24.6498 36 22.3834C36 20.1171 34.1484 18.2798 31.8642 18.2798C30.797 18.2798 29.8242 18.6809 29.0906 19.3394C28.8071 19.5939 28.4524 19.772 28.0701 19.772C27.3623 19.772 26.7885 19.2027 26.7885 18.5004V11.658C26.7885 10.0098 25.4419 8.67358 23.7807 8.67358H17.4112C16.8798 8.67358 16.4491 8.24618 16.4491 7.71896C16.4491 7.43417 16.582 7.16874 16.7822 6.9646ZM13.5352 32.5492C19.1417 32.5492 23.6867 28.0396 23.6867 22.4767C23.6867 16.9138 19.1417 12.4041 13.5352 12.4041C7.92877 12.4041 3.38381 16.9138 3.38381 22.4767C3.38381 28.0396 7.92877 32.5492 13.5352 32.5492Z" fill="#1F2122"/>
</g>
</g>
</svg>
