<?xml version="1.0" encoding="UTF-8"?>
<svg xmlns="http://www.w3.org/2000/svg" width="36" height="36" viewBox="0 0 36 36" fill="none">
  <g clip-path="url(#clip0_9541_123401)">
    <path d="M2.54868 17.9298C2.54868 24.0181 6.08693 29.2797 11.2177 31.7731L3.88039 11.6699C3.02693 13.5828 2.54868 15.6998 2.54868 17.9298ZM28.3141 17.1536C28.3141 15.2526 27.6313 13.9361 27.0457 12.9114C26.266 11.6444 25.5351 10.5714 25.5351 9.30439C25.5351 7.89044 26.6075 6.57424 28.118 6.57424C28.1862 6.57424 28.2509 6.58273 28.3174 6.58654C25.5808 4.07941 21.9348 2.54868 17.9303 2.54868C12.5567 2.54868 7.82898 5.30576 5.07863 9.48176C5.43951 9.49259 5.77961 9.5002 6.06849 9.5002C7.67737 9.5002 10.1678 9.30498 10.1678 9.30498C10.997 9.2561 11.0947 10.474 10.2664 10.572C10.2664 10.572 9.43317 10.67 8.50595 10.7186L14.1073 27.3796L17.4735 17.2841L15.077 10.718C14.2487 10.6695 13.464 10.5714 13.464 10.5714C12.6351 10.5228 12.7323 9.25551 13.5612 9.30439C13.5612 9.30439 16.1014 9.49961 17.6128 9.49961C19.2214 9.49961 21.7121 9.30439 21.7121 9.30439C22.5419 9.25551 22.6393 10.4734 21.8107 10.5714C21.8107 10.5714 20.9757 10.6695 20.0502 10.718L25.6089 27.2529L27.1431 22.126C27.8081 19.9984 28.3141 18.4703 28.3141 17.1536ZM18.2002 19.2752L13.5852 32.6857C14.9631 33.0907 16.4204 33.3123 17.9303 33.3123C19.7216 33.3123 21.4393 33.0026 23.0382 32.4404C22.997 32.3745 22.9595 32.3046 22.9288 32.2285L18.2002 19.2752ZM31.4271 10.55C31.4933 11.04 31.5307 11.566 31.5307 12.1317C31.5307 13.6926 31.2392 15.4472 30.3612 17.6412L25.6627 31.2255C30.2356 28.5588 33.3114 23.6046 33.3114 17.93C33.3117 15.2558 32.6286 12.7411 31.4271 10.55ZM17.9303 0C8.0438 0 0 8.04322 0 17.9298C0 27.8175 8.0438 35.8604 17.9303 35.8604C27.8166 35.8604 35.8616 27.8175 35.8616 17.9298C35.8613 8.04322 27.8166 0 17.9303 0ZM17.9303 35.0385C8.49717 35.0385 0.822146 27.3635 0.822146 17.9298C0.822146 8.49659 8.49688 0.822146 17.9303 0.822146C27.3632 0.822146 35.0377 8.49659 35.0377 17.9298C35.0377 27.3635 27.3632 35.0385 17.9303 35.0385Z" fill="#464342"></path>
  </g>
  <defs>
    <clipPath id="clip0_9541_123401">
      <rect width="36" height="36" fill="white"></rect>
    </clipPath>
  </defs>
</svg>
